<?xml version="1.0" encoding="UTF-8" standalone="no"?>
<!DOCTYPE svg PUBLIC "-//W3C//DTD SVG 1.1//EN"
 "http://www.w3.org/Graphics/SVG/1.1/DTD/svg11.dtd">
<!-- Generated by graphviz version 2.44.1 (20200629.0846)
 -->
<!-- Title: dependencies Pages: 1 -->
<svg width="1177pt" height="211pt"
 viewBox="0.00 0.00 1177.00 211.00" xmlns="http://www.w3.org/2000/svg" xmlns:xlink="http://www.w3.org/1999/xlink">
<g id="graph0" class="graph" transform="scale(1 1) rotate(0) translate(4 207)">
<title>dependencies</title>
<polygon fill="white" stroke="transparent" points="-4,4 -4,-207 1173,-207 1173,4 -4,4"/>
<text text-anchor="start" x="563.51" y="-42.4" font-family="sans-serif" font-weight="bold" font-size="14.00">Legend</text>
<polygon fill="#ffffb3" stroke="transparent" points="350.5,-10 350.5,-30 370.5,-30 370.5,-10 350.5,-10"/>
<text text-anchor="start" x="374.13" y="-15.4" font-family="sans-serif" font-size="14.00"> &#160;Declarations</text>
<polygon fill="#8dd3c7" stroke="transparent" points="463.5,-10 463.5,-30 483.5,-30 483.5,-10 463.5,-10"/>
<text text-anchor="start" x="487.23" y="-15.4" font-family="sans-serif" font-size="14.00"> &#160;Module</text>
<polygon fill="#80b1d3" stroke="transparent" points="549.5,-10 549.5,-30 569.5,-30 569.5,-10 549.5,-10"/>
<text text-anchor="start" x="573.28" y="-15.4" font-family="sans-serif" font-size="14.00"> &#160;Bootstrap</text>
<polygon fill="#fdb462" stroke="transparent" points="646.5,-10 646.5,-30 666.5,-30 666.5,-10 646.5,-10"/>
<text text-anchor="start" x="670.17" y="-15.4" font-family="sans-serif" font-size="14.00"> &#160;Providers</text>
<polygon fill="#fb8072" stroke="transparent" points="742.5,-10 742.5,-30 762.5,-30 762.5,-10 742.5,-10"/>
<text text-anchor="start" x="766.23" y="-15.4" font-family="sans-serif" font-size="14.00"> &#160;Exports</text>
<g id="clust1" class="cluster">
<title>cluster_HomePageModule</title>
<polygon fill="none" stroke="black" stroke-dasharray="1,5" points="8,-70 8,-195 1161,-195 1161,-70 8,-70"/>
</g>
<g id="clust2" class="cluster">
<title>cluster_HomePageModule_declarations</title>
<polygon fill="none" stroke="black" points="496,-78 496,-130 1153,-130 1153,-78 496,-78"/>
</g>
<g id="clust7" class="cluster">
<title>cluster_HomePageModule_imports</title>
<polygon fill="none" stroke="black" points="16,-78 16,-130 488,-130 488,-78 16,-78"/>
</g>
<!-- BenefitTrackerComponent -->
<g id="node1" class="node">
<title>BenefitTrackerComponent</title>
<polygon fill="#ffffb3" stroke="black" points="1145.06,-122 978.94,-122 978.94,-86 1145.06,-86 1145.06,-122"/>
<text text-anchor="middle" x="1062" y="-99.8" font-family="Times,serif" font-size="14.00">BenefitTrackerComponent</text>
</g>
<!-- HomePageModule -->
<g id="node5" class="node">
<title>HomePageModule</title>
<polygon fill="#8dd3c7" stroke="black" points="648.47,-187 645.47,-191 624.47,-191 621.47,-187 527.53,-187 527.53,-151 648.47,-151 648.47,-187"/>
<text text-anchor="middle" x="588" y="-164.8" font-family="Times,serif" font-size="14.00">HomePageModule</text>
</g>
<!-- BenefitTrackerComponent&#45;&gt;HomePageModule -->
<g id="edge1" class="edge">
<title>BenefitTrackerComponent&#45;&gt;HomePageModule</title>
<path fill="none" stroke="black" d="M1062,-122.29C1062,-144.21 1062,-178 1062,-178 1062,-178 658.51,-178 658.51,-178"/>
<polygon fill="black" stroke="black" points="658.51,-174.5 648.51,-178 658.51,-181.5 658.51,-174.5"/>
</g>
<!-- HomePage -->
<g id="node2" class="node">
<title>HomePage</title>
<polygon fill="#ffffb3" stroke="black" points="960.92,-122 883.08,-122 883.08,-86 960.92,-86 960.92,-122"/>
<text text-anchor="middle" x="922" y="-99.8" font-family="Times,serif" font-size="14.00">HomePage</text>
</g>
<!-- HomePage&#45;&gt;HomePageModule -->
<g id="edge2" class="edge">
<title>HomePage&#45;&gt;HomePageModule</title>
<path fill="none" stroke="black" d="M922,-122.11C922,-141.34 922,-169 922,-169 922,-169 658.48,-169 658.48,-169"/>
<polygon fill="black" stroke="black" points="658.48,-165.5 648.48,-169 658.48,-172.5 658.48,-165.5"/>
</g>
<!-- HomePageThreeComponent -->
<g id="node3" class="node">
<title>HomePageThreeComponent</title>
<polygon fill="#ffffb3" stroke="black" points="865.9,-122 690.1,-122 690.1,-86 865.9,-86 865.9,-122"/>
<text text-anchor="middle" x="778" y="-99.8" font-family="Times,serif" font-size="14.00">HomePageThreeComponent</text>
</g>
<!-- HomePageThreeComponent&#45;&gt;HomePageModule -->
<g id="edge3" class="edge">
<title>HomePageThreeComponent&#45;&gt;HomePageModule</title>
<path fill="none" stroke="black" d="M778,-122.03C778,-138.4 778,-160 778,-160 778,-160 658.64,-160 658.64,-160"/>
<polygon fill="black" stroke="black" points="658.64,-156.5 648.64,-160 658.64,-163.5 658.64,-156.5"/>
</g>
<!-- HomePageTwoComponent -->
<g id="node4" class="node">
<title>HomePageTwoComponent</title>
<polygon fill="#ffffb3" stroke="black" points="672.42,-122 503.58,-122 503.58,-86 672.42,-86 672.42,-122"/>
<text text-anchor="middle" x="588" y="-99.8" font-family="Times,serif" font-size="14.00">HomePageTwoComponent</text>
</g>
<!-- HomePageTwoComponent&#45;&gt;HomePageModule -->
<g id="edge4" class="edge">
<title>HomePageTwoComponent&#45;&gt;HomePageModule</title>
<path fill="none" stroke="black" d="M588,-122.11C588,-122.11 588,-140.99 588,-140.99"/>
<polygon fill="black" stroke="black" points="584.5,-140.99 588,-150.99 591.5,-140.99 584.5,-140.99"/>
</g>
<!-- HomePageRoutingModule -->
<g id="node6" class="node">
<title>HomePageRoutingModule</title>
<polygon fill="#8dd3c7" stroke="black" points="480.09,-122 477.09,-126 456.09,-126 453.09,-122 313.91,-122 313.91,-86 480.09,-86 480.09,-122"/>
<text text-anchor="middle" x="397" y="-99.8" font-family="Times,serif" font-size="14.00">HomePageRoutingModule</text>
</g>
<!-- HomePageRoutingModule&#45;&gt;HomePageModule -->
<g id="edge5" class="edge">
<title>HomePageRoutingModule&#45;&gt;HomePageModule</title>
<path fill="none" stroke="black" d="M397,-122.03C397,-138.4 397,-160 397,-160 397,-160 517.3,-160 517.3,-160"/>
<polygon fill="black" stroke="black" points="517.3,-163.5 527.3,-160 517.3,-156.5 517.3,-163.5"/>
</g>
<!-- SharedDirectivesModule -->
<g id="node7" class="node">
<title>SharedDirectivesModule</title>
<polygon fill="#8dd3c7" stroke="black" points="295.95,-122 292.95,-126 271.95,-126 268.95,-122 140.05,-122 140.05,-86 295.95,-86 295.95,-122"/>
<text text-anchor="middle" x="218" y="-99.8" font-family="Times,serif" font-size="14.00">SharedDirectivesModule</text>
</g>
<!-- SharedDirectivesModule&#45;&gt;HomePageModule -->
<g id="edge6" class="edge">
<title>SharedDirectivesModule&#45;&gt;HomePageModule</title>
<path fill="none" stroke="black" d="M218,-122.11C218,-141.34 218,-169 218,-169 218,-169 517.32,-169 517.32,-169"/>
<polygon fill="black" stroke="black" points="517.32,-172.5 527.32,-169 517.32,-165.5 517.32,-172.5"/>
</g>
<!-- SharedModule -->
<g id="node8" class="node">
<title>SharedModule</title>
<polygon fill="#8dd3c7" stroke="black" points="122.42,-122 119.42,-126 98.42,-126 95.42,-122 23.58,-122 23.58,-86 122.42,-86 122.42,-122"/>
<text text-anchor="middle" x="73" y="-99.8" font-family="Times,serif" font-size="14.00">SharedModule</text>
</g>
<!-- SharedModule&#45;&gt;HomePageModule -->
<g id="edge7" class="edge">
<title>SharedModule&#45;&gt;HomePageModule</title>
<path fill="none" stroke="black" d="M73,-122.29C73,-144.21 73,-178 73,-178 73,-178 517.41,-178 517.41,-178"/>
<polygon fill="black" stroke="black" points="517.41,-181.5 527.41,-178 517.41,-174.5 517.41,-181.5"/>
</g>
</g>
</svg>
