<?xml version="1.0" encoding="UTF-8" standalone="no"?>
<!DOCTYPE svg PUBLIC "-//W3C//DTD SVG 1.1//EN"
 "http://www.w3.org/Graphics/SVG/1.1/DTD/svg11.dtd">
<!-- Generated by graphviz version 2.44.1 (20200629.0846)
 -->
<!-- Title: dependencies Pages: 1 -->
<svg width="1177pt" height="211pt"
 viewBox="0.00 0.00 1177.00 211.00" xmlns="http://www.w3.org/2000/svg" xmlns:xlink="http://www.w3.org/1999/xlink">
<g id="graph0" class="graph" transform="scale(1 1) rotate(0) translate(4 207)">
<title>dependencies</title>
<polygon fill="white" stroke="transparent" points="-4,4 -4,-207 1173,-207 1173,4 -4,4"/>
<text text-anchor="start" x="563.51" y="-42.4" font-family="sans-serif" font-weight="bold" font-size="14.00">Legend</text>
<polygon fill="#ffffb3" stroke="transparent" points="350.5,-10 350.5,-30 370.5,-30 370.5,-10 350.5,-10"/>
<text text-anchor="start" x="374.13" y="-15.4" font-family="sans-serif" font-size="14.00"> &#160;Declarations</text>
<polygon fill="#8dd3c7" stroke="transparent" points="463.5,-10 463.5,-30 483.5,-30 483.5,-10 463.5,-10"/>
<text text-anchor="start" x="487.23" y="-15.4" font-family="sans-serif" font-size="14.00"> &#160;Module</text>
<polygon fill="#80b1d3" stroke="transparent" points="549.5,-10 549.5,-30 569.5,-30 569.5,-10 549.5,-10"/>
<text text-anchor="start" x="573.28" y="-15.4" font-family="sans-serif" font-size="14.00"> &#160;Bootstrap</text>
<polygon fill="#fdb462" stroke="transparent" points="646.5,-10 646.5,-30 666.5,-30 666.5,-10 646.5,-10"/>
<text text-anchor="start" x="670.17" y="-15.4" font-family="sans-serif" font-size="14.00"> &#160;Providers</text>
<polygon fill="#fb8072" stroke="transparent" points="742.5,-10 742.5,-30 762.5,-30 762.5,-10 742.5,-10"/>
<text text-anchor="start" x="766.23" y="-15.4" font-family="sans-serif" font-size="14.00"> &#160;Exports</text>
<g id="clust1" class="cluster">
<title>cluster_HomePageModule</title>
<polygon fill="none" stroke="black" stroke-dasharray="1,5" points="8,-70 8,-195 1161,-195 1161,-70 8,-70"/>
</g>
<g id="clust7" class="cluster">
<title>cluster_HomePageModule_imports</title>
<polygon fill="none" stroke="black" points="681,-78 681,-130 1153,-130 1153,-78 681,-78"/>
</g>
<g id="clust2" class="cluster">
<title>cluster_HomePageModule_declarations</title>
<polygon fill="none" stroke="black" points="16,-78 16,-130 673,-130 673,-78 16,-78"/>
</g>
<!-- BenefitTrackerComponent -->
<g id="node1" class="node">
<title>BenefitTrackerComponent</title>
<polygon fill="#ffffb3" stroke="black" points="665.06,-122 498.94,-122 498.94,-86 665.06,-86 665.06,-122"/>
<text text-anchor="middle" x="582" y="-99.8" font-family="Times,serif" font-size="14.00">BenefitTrackerComponent</text>
</g>
<!-- HomePageModule -->
<g id="node5" class="node">
<title>HomePageModule</title>
<polygon fill="#8dd3c7" stroke="black" points="642.47,-187 639.47,-191 618.47,-191 615.47,-187 521.53,-187 521.53,-151 642.47,-151 642.47,-187"/>
<text text-anchor="middle" x="582" y="-164.8" font-family="Times,serif" font-size="14.00">HomePageModule</text>
</g>
<!-- BenefitTrackerComponent&#45;&gt;HomePageModule -->
<g id="edge1" class="edge">
<title>BenefitTrackerComponent&#45;&gt;HomePageModule</title>
<path fill="none" stroke="black" d="M582,-122.11C582,-122.11 582,-140.99 582,-140.99"/>
<polygon fill="black" stroke="black" points="578.5,-140.99 582,-150.99 585.5,-140.99 578.5,-140.99"/>
</g>
<!-- HomePage -->
<g id="node2" class="node">
<title>HomePage</title>
<polygon fill="#ffffb3" stroke="black" points="480.92,-122 403.08,-122 403.08,-86 480.92,-86 480.92,-122"/>
<text text-anchor="middle" x="442" y="-99.8" font-family="Times,serif" font-size="14.00">HomePage</text>
</g>
<!-- HomePage&#45;&gt;HomePageModule -->
<g id="edge2" class="edge">
<title>HomePage&#45;&gt;HomePageModule</title>
<path fill="none" stroke="black" d="M442,-122.03C442,-138.4 442,-160 442,-160 442,-160 511.41,-160 511.41,-160"/>
<polygon fill="black" stroke="black" points="511.41,-163.5 521.41,-160 511.41,-156.5 511.41,-163.5"/>
</g>
<!-- HomePageThreeComponent -->
<g id="node3" class="node">
<title>HomePageThreeComponent</title>
<polygon fill="#ffffb3" stroke="black" points="385.9,-122 210.1,-122 210.1,-86 385.9,-86 385.9,-122"/>
<text text-anchor="middle" x="298" y="-99.8" font-family="Times,serif" font-size="14.00">HomePageThreeComponent</text>
</g>
<!-- HomePageThreeComponent&#45;&gt;HomePageModule -->
<g id="edge3" class="edge">
<title>HomePageThreeComponent&#45;&gt;HomePageModule</title>
<path fill="none" stroke="black" d="M298,-122.11C298,-141.34 298,-169 298,-169 298,-169 511.42,-169 511.42,-169"/>
<polygon fill="black" stroke="black" points="511.42,-172.5 521.42,-169 511.42,-165.5 511.42,-172.5"/>
</g>
<!-- HomePageTwoComponent -->
<g id="node4" class="node">
<title>HomePageTwoComponent</title>
<polygon fill="#ffffb3" stroke="black" points="192.42,-122 23.58,-122 23.58,-86 192.42,-86 192.42,-122"/>
<text text-anchor="middle" x="108" y="-99.8" font-family="Times,serif" font-size="14.00">HomePageTwoComponent</text>
</g>
<!-- HomePageTwoComponent&#45;&gt;HomePageModule -->
<g id="edge4" class="edge">
<title>HomePageTwoComponent&#45;&gt;HomePageModule</title>
<path fill="none" stroke="black" d="M108,-122.29C108,-144.21 108,-178 108,-178 108,-178 511.49,-178 511.49,-178"/>
<polygon fill="black" stroke="black" points="511.49,-181.5 521.49,-178 511.49,-174.5 511.49,-181.5"/>
</g>
<!-- HomePageRoutingModule -->
<g id="node6" class="node">
<title>HomePageRoutingModule</title>
<polygon fill="#8dd3c7" stroke="black" points="1145.09,-122 1142.09,-126 1121.09,-126 1118.09,-122 978.91,-122 978.91,-86 1145.09,-86 1145.09,-122"/>
<text text-anchor="middle" x="1062" y="-99.8" font-family="Times,serif" font-size="14.00">HomePageRoutingModule</text>
</g>
<!-- HomePageRoutingModule&#45;&gt;HomePageModule -->
<g id="edge5" class="edge">
<title>HomePageRoutingModule&#45;&gt;HomePageModule</title>
<path fill="none" stroke="black" d="M1062,-122.29C1062,-144.21 1062,-178 1062,-178 1062,-178 652.79,-178 652.79,-178"/>
<polygon fill="black" stroke="black" points="652.79,-174.5 642.79,-178 652.79,-181.5 652.79,-174.5"/>
</g>
<!-- SharedDirectivesModule -->
<g id="node7" class="node">
<title>SharedDirectivesModule</title>
<polygon fill="#8dd3c7" stroke="black" points="960.95,-122 957.95,-126 936.95,-126 933.95,-122 805.05,-122 805.05,-86 960.95,-86 960.95,-122"/>
<text text-anchor="middle" x="883" y="-99.8" font-family="Times,serif" font-size="14.00">SharedDirectivesModule</text>
</g>
<!-- SharedDirectivesModule&#45;&gt;HomePageModule -->
<g id="edge6" class="edge">
<title>SharedDirectivesModule&#45;&gt;HomePageModule</title>
<path fill="none" stroke="black" d="M883,-122.11C883,-141.34 883,-169 883,-169 883,-169 652.55,-169 652.55,-169"/>
<polygon fill="black" stroke="black" points="652.55,-165.5 642.55,-169 652.55,-172.5 652.55,-165.5"/>
</g>
<!-- SharedModule -->
<g id="node8" class="node">
<title>SharedModule</title>
<polygon fill="#8dd3c7" stroke="black" points="787.42,-122 784.42,-126 763.42,-126 760.42,-122 688.58,-122 688.58,-86 787.42,-86 787.42,-122"/>
<text text-anchor="middle" x="738" y="-99.8" font-family="Times,serif" font-size="14.00">SharedModule</text>
</g>
<!-- SharedModule&#45;&gt;HomePageModule -->
<g id="edge7" class="edge">
<title>SharedModule&#45;&gt;HomePageModule</title>
<path fill="none" stroke="black" d="M738,-122.03C738,-138.4 738,-160 738,-160 738,-160 652.76,-160 652.76,-160"/>
<polygon fill="black" stroke="black" points="652.76,-156.5 642.76,-160 652.76,-163.5 652.76,-156.5"/>
</g>
</g>
</svg>
