<?xml version="1.0" encoding="UTF-8" standalone="no"?>
<!DOCTYPE svg PUBLIC "-//W3C//DTD SVG 1.1//EN"
 "http://www.w3.org/Graphics/SVG/1.1/DTD/svg11.dtd">
<!-- Generated by graphviz version 2.47.0 (20210316.0004)
 -->
<!-- Title: dependencies Pages: 1 -->
<svg width="1676pt" height="211pt"
 viewBox="0.00 0.00 1676.00 211.00" xmlns="http://www.w3.org/2000/svg" xmlns:xlink="http://www.w3.org/1999/xlink">
<g id="graph0" class="graph" transform="scale(1 1) rotate(0) translate(4 207)">
<title>dependencies</title>
<polygon fill="white" stroke="transparent" points="-4,4 -4,-207 1672,-207 1672,4 -4,4"/>
<text text-anchor="start" x="813.01" y="-42.4" font-family="sans-serif" font-weight="bold" font-size="14.00">Legend</text>
<polygon fill="#ffffb3" stroke="transparent" points="600,-10 600,-30 620,-30 620,-10 600,-10"/>
<text text-anchor="start" x="623.63" y="-15.4" font-family="sans-serif" font-size="14.00"> &#160;Declarations</text>
<polygon fill="#8dd3c7" stroke="transparent" points="713,-10 713,-30 733,-30 733,-10 713,-10"/>
<text text-anchor="start" x="736.73" y="-15.4" font-family="sans-serif" font-size="14.00"> &#160;Module</text>
<polygon fill="#80b1d3" stroke="transparent" points="799,-10 799,-30 819,-30 819,-10 799,-10"/>
<text text-anchor="start" x="822.78" y="-15.4" font-family="sans-serif" font-size="14.00"> &#160;Bootstrap</text>
<polygon fill="#fdb462" stroke="transparent" points="896,-10 896,-30 916,-30 916,-10 896,-10"/>
<text text-anchor="start" x="919.67" y="-15.4" font-family="sans-serif" font-size="14.00"> &#160;Providers</text>
<polygon fill="#fb8072" stroke="transparent" points="992,-10 992,-30 1012,-30 1012,-10 992,-10"/>
<text text-anchor="start" x="1015.73" y="-15.4" font-family="sans-serif" font-size="14.00"> &#160;Exports</text>
<g id="clust1" class="cluster">
<title>cluster_HomePageModule</title>
<polygon fill="none" stroke="black" stroke-dasharray="1,5" points="8,-70 8,-195 1660,-195 1660,-70 8,-70"/>
</g>
<g id="clust2" class="cluster">
<title>cluster_HomePageModule_declarations</title>
<polygon fill="none" stroke="black" points="322,-78 322,-130 1652,-130 1652,-78 322,-78"/>
</g>
<g id="clust11" class="cluster">
<title>cluster_HomePageModule_imports</title>
<polygon fill="none" stroke="black" points="16,-78 16,-130 314,-130 314,-78 16,-78"/>
</g>
<!-- BenefitsComponent -->
<g id="node1" class="node">
<title>BenefitsComponent</title>
<polygon fill="#ffffb3" stroke="black" points="1643.98,-122 1516.02,-122 1516.02,-86 1643.98,-86 1643.98,-122"/>
<text text-anchor="middle" x="1580" y="-99.8" font-family="Times,serif" font-size="14.00">BenefitsComponent</text>
</g>
<!-- HomePageModule -->
<g id="node9" class="node">
<title>HomePageModule</title>
<polygon fill="#8dd3c7" stroke="black" points="904.47,-187 901.47,-191 880.47,-191 877.47,-187 783.53,-187 783.53,-151 904.47,-151 904.47,-187"/>
<text text-anchor="middle" x="844" y="-164.8" font-family="Times,serif" font-size="14.00">HomePageModule</text>
</g>
<!-- BenefitsComponent&#45;&gt;HomePageModule -->
<g id="edge1" class="edge">
<title>BenefitsComponent&#45;&gt;HomePageModule</title>
<path fill="none" stroke="black" d="M1580,-122.01C1580,-144.49 1580,-180 1580,-180 1580,-180 914.54,-180 914.54,-180"/>
<polygon fill="black" stroke="black" points="914.54,-176.5 904.54,-180 914.54,-183.5 914.54,-176.5"/>
</g>
<!-- BenefitsTrackerComponent -->
<g id="node2" class="node">
<title>BenefitsTrackerComponent</title>
<polygon fill="#ffffb3" stroke="black" points="1497.5,-122 1326.5,-122 1326.5,-86 1497.5,-86 1497.5,-122"/>
<text text-anchor="middle" x="1412" y="-99.8" font-family="Times,serif" font-size="14.00">BenefitsTrackerComponent</text>
</g>
<!-- BenefitsTrackerComponent&#45;&gt;HomePageModule -->
<g id="edge2" class="edge">
<title>BenefitsTrackerComponent&#45;&gt;HomePageModule</title>
<path fill="none" stroke="black" d="M1412,-122.13C1412,-142.57 1412,-173 1412,-173 1412,-173 914.52,-173 914.52,-173"/>
<polygon fill="black" stroke="black" points="914.52,-169.5 904.52,-173 914.52,-176.5 914.52,-169.5"/>
</g>
<!-- HomePage -->
<g id="node3" class="node">
<title>HomePage</title>
<polygon fill="#ffffb3" stroke="black" points="1308.92,-122 1231.08,-122 1231.08,-86 1308.92,-86 1308.92,-122"/>
<text text-anchor="middle" x="1270" y="-99.8" font-family="Times,serif" font-size="14.00">HomePage</text>
</g>
<!-- HomePage&#45;&gt;HomePageModule -->
<g id="edge3" class="edge">
<title>HomePage&#45;&gt;HomePageModule</title>
<path fill="none" stroke="black" d="M1270,-122.27C1270,-140.56 1270,-166 1270,-166 1270,-166 914.58,-166 914.58,-166"/>
<polygon fill="black" stroke="black" points="914.58,-162.5 904.58,-166 914.58,-169.5 914.58,-162.5"/>
</g>
<!-- HomePageFourComponent -->
<g id="node4" class="node">
<title>HomePageFourComponent</title>
<polygon fill="#ffffb3" stroke="black" points="1213.7,-122 1044.3,-122 1044.3,-86 1213.7,-86 1213.7,-122"/>
<text text-anchor="middle" x="1129" y="-99.8" font-family="Times,serif" font-size="14.00">HomePageFourComponent</text>
</g>
<!-- HomePageFourComponent&#45;&gt;HomePageModule -->
<g id="edge4" class="edge">
<title>HomePageFourComponent&#45;&gt;HomePageModule</title>
<path fill="none" stroke="black" d="M1129,-122.01C1129,-138.05 1129,-159 1129,-159 1129,-159 914.79,-159 914.79,-159"/>
<polygon fill="black" stroke="black" points="914.79,-155.5 904.79,-159 914.79,-162.5 914.79,-155.5"/>
</g>
<!-- HomePageThreeComponent -->
<g id="node5" class="node">
<title>HomePageThreeComponent</title>
<polygon fill="#ffffb3" stroke="black" points="1026.9,-122 851.1,-122 851.1,-86 1026.9,-86 1026.9,-122"/>
<text text-anchor="middle" x="939" y="-99.8" font-family="Times,serif" font-size="14.00">HomePageThreeComponent</text>
</g>
<!-- HomePageThreeComponent&#45;&gt;HomePageModule -->
<g id="edge5" class="edge">
<title>HomePageThreeComponent&#45;&gt;HomePageModule</title>
<path fill="none" stroke="black" d="M877.89,-122.11C877.89,-122.11 877.89,-140.99 877.89,-140.99"/>
<polygon fill="black" stroke="black" points="874.39,-140.99 877.89,-150.99 881.39,-140.99 874.39,-140.99"/>
</g>
<!-- HomePageTwoComponent -->
<g id="node6" class="node">
<title>HomePageTwoComponent</title>
<polygon fill="#ffffb3" stroke="black" points="833.42,-122 664.58,-122 664.58,-86 833.42,-86 833.42,-122"/>
<text text-anchor="middle" x="749" y="-99.8" font-family="Times,serif" font-size="14.00">HomePageTwoComponent</text>
</g>
<!-- HomePageTwoComponent&#45;&gt;HomePageModule -->
<g id="edge6" class="edge">
<title>HomePageTwoComponent&#45;&gt;HomePageModule</title>
<path fill="none" stroke="black" d="M808.36,-122.11C808.36,-122.11 808.36,-140.99 808.36,-140.99"/>
<polygon fill="black" stroke="black" points="804.86,-140.99 808.36,-150.99 811.86,-140.99 804.86,-140.99"/>
</g>
<!-- IntroVideoComponent -->
<g id="node7" class="node">
<title>IntroVideoComponent</title>
<polygon fill="#ffffb3" stroke="black" points="646.26,-122 503.74,-122 503.74,-86 646.26,-86 646.26,-122"/>
<text text-anchor="middle" x="575" y="-99.8" font-family="Times,serif" font-size="14.00">IntroVideoComponent</text>
</g>
<!-- IntroVideoComponent&#45;&gt;HomePageModule -->
<g id="edge7" class="edge">
<title>IntroVideoComponent&#45;&gt;HomePageModule</title>
<path fill="none" stroke="black" d="M575,-122.01C575,-138.05 575,-159 575,-159 575,-159 773.3,-159 773.3,-159"/>
<polygon fill="black" stroke="black" points="773.3,-162.5 783.3,-159 773.3,-155.5 773.3,-162.5"/>
</g>
<!-- LandingPageComponent -->
<g id="node8" class="node">
<title>LandingPageComponent</title>
<polygon fill="#ffffb3" stroke="black" points="485.7,-122 330.3,-122 330.3,-86 485.7,-86 485.7,-122"/>
<text text-anchor="middle" x="408" y="-99.8" font-family="Times,serif" font-size="14.00">LandingPageComponent</text>
</g>
<!-- LandingPageComponent&#45;&gt;HomePageModule -->
<g id="edge8" class="edge">
<title>LandingPageComponent&#45;&gt;HomePageModule</title>
<path fill="none" stroke="black" d="M408,-122.27C408,-140.56 408,-166 408,-166 408,-166 773.38,-166 773.38,-166"/>
<polygon fill="black" stroke="black" points="773.38,-169.5 783.38,-166 773.38,-162.5 773.38,-169.5"/>
</g>
<!-- HomePageRoutingModule -->
<g id="node10" class="node">
<title>HomePageRoutingModule</title>
<polygon fill="#8dd3c7" stroke="black" points="306.09,-122 303.09,-126 282.09,-126 279.09,-122 139.91,-122 139.91,-86 306.09,-86 306.09,-122"/>
<text text-anchor="middle" x="223" y="-99.8" font-family="Times,serif" font-size="14.00">HomePageRoutingModule</text>
</g>
<!-- HomePageRoutingModule&#45;&gt;HomePageModule -->
<g id="edge9" class="edge">
<title>HomePageRoutingModule&#45;&gt;HomePageModule</title>
<path fill="none" stroke="black" d="M223,-122.13C223,-142.57 223,-173 223,-173 223,-173 773.33,-173 773.33,-173"/>
<polygon fill="black" stroke="black" points="773.33,-176.5 783.33,-173 773.33,-169.5 773.33,-176.5"/>
</g>
<!-- SharedModule -->
<g id="node11" class="node">
<title>SharedModule</title>
<polygon fill="#8dd3c7" stroke="black" points="122.42,-122 119.42,-126 98.42,-126 95.42,-122 23.58,-122 23.58,-86 122.42,-86 122.42,-122"/>
<text text-anchor="middle" x="73" y="-99.8" font-family="Times,serif" font-size="14.00">SharedModule</text>
</g>
<!-- SharedModule&#45;&gt;HomePageModule -->
<g id="edge10" class="edge">
<title>SharedModule&#45;&gt;HomePageModule</title>
<path fill="none" stroke="black" d="M73,-122.01C73,-144.49 73,-180 73,-180 73,-180 773.5,-180 773.5,-180"/>
<polygon fill="black" stroke="black" points="773.5,-183.5 783.5,-180 773.5,-176.5 773.5,-183.5"/>
</g>
</g>
</svg>
