<?xml version="1.0" encoding="UTF-8" standalone="no"?>
<!DOCTYPE svg PUBLIC "-//W3C//DTD SVG 1.1//EN"
 "http://www.w3.org/Graphics/SVG/1.1/DTD/svg11.dtd">
<!-- Generated by graphviz version 2.47.0 (20210316.0004)
 -->
<!-- Title: dependencies Pages: 1 -->
<svg width="1676pt" height="211pt"
 viewBox="0.00 0.00 1676.00 211.00" xmlns="http://www.w3.org/2000/svg" xmlns:xlink="http://www.w3.org/1999/xlink">
<g id="graph0" class="graph" transform="scale(1 1) rotate(0) translate(4 207)">
<title>dependencies</title>
<polygon fill="white" stroke="transparent" points="-4,4 -4,-207 1672,-207 1672,4 -4,4"/>
<text text-anchor="start" x="813.01" y="-42.4" font-family="sans-serif" font-weight="bold" font-size="14.00">Legend</text>
<polygon fill="#ffffb3" stroke="transparent" points="600,-10 600,-30 620,-30 620,-10 600,-10"/>
<text text-anchor="start" x="623.63" y="-15.4" font-family="sans-serif" font-size="14.00"> &#160;Declarations</text>
<polygon fill="#8dd3c7" stroke="transparent" points="713,-10 713,-30 733,-30 733,-10 713,-10"/>
<text text-anchor="start" x="736.73" y="-15.4" font-family="sans-serif" font-size="14.00"> &#160;Module</text>
<polygon fill="#80b1d3" stroke="transparent" points="799,-10 799,-30 819,-30 819,-10 799,-10"/>
<text text-anchor="start" x="822.78" y="-15.4" font-family="sans-serif" font-size="14.00"> &#160;Bootstrap</text>
<polygon fill="#fdb462" stroke="transparent" points="896,-10 896,-30 916,-30 916,-10 896,-10"/>
<text text-anchor="start" x="919.67" y="-15.4" font-family="sans-serif" font-size="14.00"> &#160;Providers</text>
<polygon fill="#fb8072" stroke="transparent" points="992,-10 992,-30 1012,-30 1012,-10 992,-10"/>
<text text-anchor="start" x="1015.73" y="-15.4" font-family="sans-serif" font-size="14.00"> &#160;Exports</text>
<g id="clust1" class="cluster">
<title>cluster_HomePageModule</title>
<polygon fill="none" stroke="black" stroke-dasharray="1,5" points="8,-70 8,-195 1660,-195 1660,-70 8,-70"/>
</g>
<g id="clust11" class="cluster">
<title>cluster_HomePageModule_imports</title>
<polygon fill="none" stroke="black" points="1354,-78 1354,-130 1652,-130 1652,-78 1354,-78"/>
</g>
<g id="clust2" class="cluster">
<title>cluster_HomePageModule_declarations</title>
<polygon fill="none" stroke="black" points="16,-78 16,-130 1346,-130 1346,-78 16,-78"/>
</g>
<!-- BenefitsComponent -->
<g id="node1" class="node">
<title>BenefitsComponent</title>
<polygon fill="#ffffb3" stroke="black" points="1337.98,-122 1210.02,-122 1210.02,-86 1337.98,-86 1337.98,-122"/>
<text text-anchor="middle" x="1274" y="-99.8" font-family="Times,serif" font-size="14.00">BenefitsComponent</text>
</g>
<!-- HomePageModule -->
<g id="node9" class="node">
<title>HomePageModule</title>
<polygon fill="#8dd3c7" stroke="black" points="953.47,-187 950.47,-191 929.47,-191 926.47,-187 832.53,-187 832.53,-151 953.47,-151 953.47,-187"/>
<text text-anchor="middle" x="893" y="-164.8" font-family="Times,serif" font-size="14.00">HomePageModule</text>
</g>
<!-- BenefitsComponent&#45;&gt;HomePageModule -->
<g id="edge1" class="edge">
<title>BenefitsComponent&#45;&gt;HomePageModule</title>
<path fill="none" stroke="black" d="M1274,-122.27C1274,-140.56 1274,-166 1274,-166 1274,-166 963.79,-166 963.79,-166"/>
<polygon fill="black" stroke="black" points="963.79,-162.5 953.79,-166 963.79,-169.5 963.79,-162.5"/>
</g>
<!-- BenefitsTrackerComponent -->
<g id="node2" class="node">
<title>BenefitsTrackerComponent</title>
<polygon fill="#ffffb3" stroke="black" points="1191.5,-122 1020.5,-122 1020.5,-86 1191.5,-86 1191.5,-122"/>
<text text-anchor="middle" x="1106" y="-99.8" font-family="Times,serif" font-size="14.00">BenefitsTrackerComponent</text>
</g>
<!-- BenefitsTrackerComponent&#45;&gt;HomePageModule -->
<g id="edge2" class="edge">
<title>BenefitsTrackerComponent&#45;&gt;HomePageModule</title>
<path fill="none" stroke="black" d="M1106,-122.01C1106,-138.05 1106,-159 1106,-159 1106,-159 963.75,-159 963.75,-159"/>
<polygon fill="black" stroke="black" points="963.75,-155.5 953.75,-159 963.75,-162.5 963.75,-155.5"/>
</g>
<!-- HomePage -->
<g id="node3" class="node">
<title>HomePage</title>
<polygon fill="#ffffb3" stroke="black" points="1002.92,-122 925.08,-122 925.08,-86 1002.92,-86 1002.92,-122"/>
<text text-anchor="middle" x="964" y="-99.8" font-family="Times,serif" font-size="14.00">HomePage</text>
</g>
<!-- HomePage&#45;&gt;HomePageModule -->
<g id="edge3" class="edge">
<title>HomePage&#45;&gt;HomePageModule</title>
<path fill="none" stroke="black" d="M939.39,-122.11C939.39,-122.11 939.39,-140.99 939.39,-140.99"/>
<polygon fill="black" stroke="black" points="935.89,-140.99 939.39,-150.99 942.89,-140.99 935.89,-140.99"/>
</g>
<!-- HomePageFourComponent -->
<g id="node4" class="node">
<title>HomePageFourComponent</title>
<polygon fill="#ffffb3" stroke="black" points="907.7,-122 738.3,-122 738.3,-86 907.7,-86 907.7,-122"/>
<text text-anchor="middle" x="823" y="-99.8" font-family="Times,serif" font-size="14.00">HomePageFourComponent</text>
</g>
<!-- HomePageFourComponent&#45;&gt;HomePageModule -->
<g id="edge4" class="edge">
<title>HomePageFourComponent&#45;&gt;HomePageModule</title>
<path fill="none" stroke="black" d="M870.06,-122.11C870.06,-122.11 870.06,-140.99 870.06,-140.99"/>
<polygon fill="black" stroke="black" points="866.56,-140.99 870.06,-150.99 873.56,-140.99 866.56,-140.99"/>
</g>
<!-- HomePageThreeComponent -->
<g id="node5" class="node">
<title>HomePageThreeComponent</title>
<polygon fill="#ffffb3" stroke="black" points="720.9,-122 545.1,-122 545.1,-86 720.9,-86 720.9,-122"/>
<text text-anchor="middle" x="633" y="-99.8" font-family="Times,serif" font-size="14.00">HomePageThreeComponent</text>
</g>
<!-- HomePageThreeComponent&#45;&gt;HomePageModule -->
<g id="edge5" class="edge">
<title>HomePageThreeComponent&#45;&gt;HomePageModule</title>
<path fill="none" stroke="black" d="M633,-122.01C633,-138.05 633,-159 633,-159 633,-159 822.37,-159 822.37,-159"/>
<polygon fill="black" stroke="black" points="822.37,-162.5 832.37,-159 822.37,-155.5 822.37,-162.5"/>
</g>
<!-- HomePageTwoComponent -->
<g id="node6" class="node">
<title>HomePageTwoComponent</title>
<polygon fill="#ffffb3" stroke="black" points="527.42,-122 358.58,-122 358.58,-86 527.42,-86 527.42,-122"/>
<text text-anchor="middle" x="443" y="-99.8" font-family="Times,serif" font-size="14.00">HomePageTwoComponent</text>
</g>
<!-- HomePageTwoComponent&#45;&gt;HomePageModule -->
<g id="edge6" class="edge">
<title>HomePageTwoComponent&#45;&gt;HomePageModule</title>
<path fill="none" stroke="black" d="M443,-122.27C443,-140.56 443,-166 443,-166 443,-166 822.31,-166 822.31,-166"/>
<polygon fill="black" stroke="black" points="822.31,-169.5 832.31,-166 822.31,-162.5 822.31,-169.5"/>
</g>
<!-- IntroVideoComponent -->
<g id="node7" class="node">
<title>IntroVideoComponent</title>
<polygon fill="#ffffb3" stroke="black" points="340.26,-122 197.74,-122 197.74,-86 340.26,-86 340.26,-122"/>
<text text-anchor="middle" x="269" y="-99.8" font-family="Times,serif" font-size="14.00">IntroVideoComponent</text>
</g>
<!-- IntroVideoComponent&#45;&gt;HomePageModule -->
<g id="edge7" class="edge">
<title>IntroVideoComponent&#45;&gt;HomePageModule</title>
<path fill="none" stroke="black" d="M269,-122.13C269,-142.57 269,-173 269,-173 269,-173 822.32,-173 822.32,-173"/>
<polygon fill="black" stroke="black" points="822.32,-176.5 832.32,-173 822.32,-169.5 822.32,-176.5"/>
</g>
<!-- LandingPageComponent -->
<g id="node8" class="node">
<title>LandingPageComponent</title>
<polygon fill="#ffffb3" stroke="black" points="179.7,-122 24.3,-122 24.3,-86 179.7,-86 179.7,-122"/>
<text text-anchor="middle" x="102" y="-99.8" font-family="Times,serif" font-size="14.00">LandingPageComponent</text>
</g>
<!-- LandingPageComponent&#45;&gt;HomePageModule -->
<g id="edge8" class="edge">
<title>LandingPageComponent&#45;&gt;HomePageModule</title>
<path fill="none" stroke="black" d="M102,-122.01C102,-144.49 102,-180 102,-180 102,-180 822.24,-180 822.24,-180"/>
<polygon fill="black" stroke="black" points="822.25,-183.5 832.24,-180 822.24,-176.5 822.25,-183.5"/>
</g>
<!-- HomePageRoutingModule -->
<g id="node10" class="node">
<title>HomePageRoutingModule</title>
<polygon fill="#8dd3c7" stroke="black" points="1644.09,-122 1641.09,-126 1620.09,-126 1617.09,-122 1477.91,-122 1477.91,-86 1644.09,-86 1644.09,-122"/>
<text text-anchor="middle" x="1561" y="-99.8" font-family="Times,serif" font-size="14.00">HomePageRoutingModule</text>
</g>
<!-- HomePageRoutingModule&#45;&gt;HomePageModule -->
<g id="edge9" class="edge">
<title>HomePageRoutingModule&#45;&gt;HomePageModule</title>
<path fill="none" stroke="black" d="M1561,-122.01C1561,-144.49 1561,-180 1561,-180 1561,-180 963.75,-180 963.75,-180"/>
<polygon fill="black" stroke="black" points="963.75,-176.5 953.75,-180 963.75,-183.5 963.75,-176.5"/>
</g>
<!-- SharedModule -->
<g id="node11" class="node">
<title>SharedModule</title>
<polygon fill="#8dd3c7" stroke="black" points="1460.42,-122 1457.42,-126 1436.42,-126 1433.42,-122 1361.58,-122 1361.58,-86 1460.42,-86 1460.42,-122"/>
<text text-anchor="middle" x="1411" y="-99.8" font-family="Times,serif" font-size="14.00">SharedModule</text>
</g>
<!-- SharedModule&#45;&gt;HomePageModule -->
<g id="edge10" class="edge">
<title>SharedModule&#45;&gt;HomePageModule</title>
<path fill="none" stroke="black" d="M1411,-122.13C1411,-142.57 1411,-173 1411,-173 1411,-173 963.69,-173 963.69,-173"/>
<polygon fill="black" stroke="black" points="963.69,-169.5 953.69,-173 963.69,-176.5 963.69,-169.5"/>
</g>
</g>
</svg>
