<?xml version="1.0" encoding="UTF-8" standalone="no"?>
<!DOCTYPE svg PUBLIC "-//W3C//DTD SVG 1.1//EN"
 "http://www.w3.org/Graphics/SVG/1.1/DTD/svg11.dtd">
<!-- Generated by graphviz version 2.47.0 (20210316.0004)
 -->
<!-- Title: dependencies Pages: 1 -->
<svg width="2005pt" height="211pt"
 viewBox="0.00 0.00 2005.00 211.00" xmlns="http://www.w3.org/2000/svg" xmlns:xlink="http://www.w3.org/1999/xlink">
<g id="graph0" class="graph" transform="scale(1 1) rotate(0) translate(4 207)">
<title>dependencies</title>
<polygon fill="white" stroke="transparent" points="-4,4 -4,-207 2001,-207 2001,4 -4,4"/>
<text text-anchor="start" x="977.51" y="-42.4" font-family="sans-serif" font-weight="bold" font-size="14.00">Legend</text>
<polygon fill="#ffffb3" stroke="transparent" points="764.5,-10 764.5,-30 784.5,-30 784.5,-10 764.5,-10"/>
<text text-anchor="start" x="788.13" y="-15.4" font-family="sans-serif" font-size="14.00"> &#160;Declarations</text>
<polygon fill="#8dd3c7" stroke="transparent" points="877.5,-10 877.5,-30 897.5,-30 897.5,-10 877.5,-10"/>
<text text-anchor="start" x="901.23" y="-15.4" font-family="sans-serif" font-size="14.00"> &#160;Module</text>
<polygon fill="#80b1d3" stroke="transparent" points="963.5,-10 963.5,-30 983.5,-30 983.5,-10 963.5,-10"/>
<text text-anchor="start" x="987.28" y="-15.4" font-family="sans-serif" font-size="14.00"> &#160;Bootstrap</text>
<polygon fill="#fdb462" stroke="transparent" points="1060.5,-10 1060.5,-30 1080.5,-30 1080.5,-10 1060.5,-10"/>
<text text-anchor="start" x="1084.17" y="-15.4" font-family="sans-serif" font-size="14.00"> &#160;Providers</text>
<polygon fill="#fb8072" stroke="transparent" points="1156.5,-10 1156.5,-30 1176.5,-30 1176.5,-10 1156.5,-10"/>
<text text-anchor="start" x="1180.23" y="-15.4" font-family="sans-serif" font-size="14.00"> &#160;Exports</text>
<g id="clust1" class="cluster">
<title>cluster_UserPageModule</title>
<polygon fill="none" stroke="black" stroke-dasharray="1,5" points="8,-70 8,-195 1989,-195 1989,-70 8,-70"/>
</g>
<g id="clust14" class="cluster">
<title>cluster_UserPageModule_imports</title>
<polygon fill="none" stroke="black" points="1691,-78 1691,-130 1981,-130 1981,-78 1691,-78"/>
</g>
<g id="clust2" class="cluster">
<title>cluster_UserPageModule_declarations</title>
<polygon fill="none" stroke="black" points="16,-78 16,-130 1683,-130 1683,-78 16,-78"/>
</g>
<!-- CancelServiceComponent -->
<g id="node1" class="node">
<title>CancelServiceComponent</title>
<polygon fill="#ffffb3" stroke="black" points="1675.18,-122 1512.82,-122 1512.82,-86 1675.18,-86 1675.18,-122"/>
<text text-anchor="middle" x="1594" y="-99.8" font-family="Times,serif" font-size="14.00">CancelServiceComponent</text>
</g>
<!-- UserPageModule -->
<g id="node12" class="node">
<title>UserPageModule</title>
<polygon fill="#8dd3c7" stroke="black" points="1011.69,-187 1008.69,-191 987.69,-191 984.69,-187 898.31,-187 898.31,-151 1011.69,-151 1011.69,-187"/>
<text text-anchor="middle" x="955" y="-164.8" font-family="Times,serif" font-size="14.00">UserPageModule</text>
</g>
<!-- CancelServiceComponent&#45;&gt;UserPageModule -->
<g id="edge1" class="edge">
<title>CancelServiceComponent&#45;&gt;UserPageModule</title>
<path fill="none" stroke="black" d="M1594,-122.03C1594,-142.77 1594,-174 1594,-174 1594,-174 1021.71,-174 1021.71,-174"/>
<polygon fill="black" stroke="black" points="1021.71,-170.5 1011.71,-174 1021.71,-177.5 1021.71,-170.5"/>
</g>
<!-- CartviewComponent -->
<g id="node2" class="node">
<title>CartviewComponent</title>
<polygon fill="#ffffb3" stroke="black" points="1495.15,-122 1362.85,-122 1362.85,-86 1495.15,-86 1495.15,-122"/>
<text text-anchor="middle" x="1429" y="-99.8" font-family="Times,serif" font-size="14.00">CartviewComponent</text>
</g>
<!-- CartviewComponent&#45;&gt;UserPageModule -->
<g id="edge2" class="edge">
<title>CartviewComponent&#45;&gt;UserPageModule</title>
<path fill="none" stroke="black" d="M1406.89,-122.3C1406.89,-140.27 1406.89,-165 1406.89,-165 1406.89,-165 1021.77,-165 1021.77,-165"/>
<polygon fill="black" stroke="black" points="1021.77,-161.5 1011.77,-165 1021.77,-168.5 1021.77,-161.5"/>
</g>
<!-- CartviewComponent&#45;&gt;UserPageModule -->
<g id="edge3" class="edge">
<title>CartviewComponent&#45;&gt;UserPageModule</title>
<path fill="none" stroke="black" d="M1451.11,-122.11C1451.11,-141.34 1451.11,-169 1451.11,-169 1451.11,-169 1021.91,-169 1021.91,-169"/>
<polygon fill="black" stroke="black" points="1021.91,-165.5 1011.91,-169 1021.91,-172.5 1021.91,-165.5"/>
</g>
<!-- NewReviewComponent -->
<g id="node3" class="node">
<title>NewReviewComponent</title>
<polygon fill="#ffffb3" stroke="black" points="1344.02,-122 1193.98,-122 1193.98,-86 1344.02,-86 1344.02,-122"/>
<text text-anchor="middle" x="1269" y="-99.8" font-family="Times,serif" font-size="14.00">NewReviewComponent</text>
</g>
<!-- NewReviewComponent&#45;&gt;UserPageModule -->
<g id="edge4" class="edge">
<title>NewReviewComponent&#45;&gt;UserPageModule</title>
<path fill="none" stroke="black" d="M1269,-122.03C1269,-138.4 1269,-160 1269,-160 1269,-160 1021.86,-160 1021.86,-160"/>
<polygon fill="black" stroke="black" points="1021.86,-156.5 1011.86,-160 1021.86,-163.5 1021.86,-156.5"/>
</g>
<!-- NewsFormComponent -->
<g id="node4" class="node">
<title>NewsFormComponent</title>
<polygon fill="#ffffb3" stroke="black" points="1175.54,-122 1032.46,-122 1032.46,-86 1175.54,-86 1175.54,-122"/>
<text text-anchor="middle" x="1104" y="-99.8" font-family="Times,serif" font-size="14.00">NewsFormComponent</text>
</g>
<!-- NewsFormComponent&#45;&gt;UserPageModule -->
<g id="edge5" class="edge">
<title>NewsFormComponent&#45;&gt;UserPageModule</title>
<path fill="none" stroke="black" d="M1104,-122.19C1104,-137.18 1104,-156 1104,-156 1104,-156 1021.76,-156 1021.76,-156"/>
<polygon fill="black" stroke="black" points="1021.76,-152.5 1011.76,-156 1021.76,-159.5 1021.76,-152.5"/>
</g>
<!-- ProfileComponent -->
<g id="node5" class="node">
<title>ProfileComponent</title>
<polygon fill="#ffffb3" stroke="black" points="1014.93,-122 895.07,-122 895.07,-86 1014.93,-86 1014.93,-122"/>
<text text-anchor="middle" x="955" y="-99.8" font-family="Times,serif" font-size="14.00">ProfileComponent</text>
</g>
<!-- ProfileComponent&#45;&gt;UserPageModule -->
<g id="edge6" class="edge">
<title>ProfileComponent&#45;&gt;UserPageModule</title>
<path fill="none" stroke="black" d="M955,-122.11C955,-122.11 955,-140.99 955,-140.99"/>
<polygon fill="black" stroke="black" points="951.5,-140.99 955,-150.99 958.5,-140.99 951.5,-140.99"/>
</g>
<!-- SettingsComponent -->
<g id="node6" class="node">
<title>SettingsComponent</title>
<polygon fill="#ffffb3" stroke="black" points="877.45,-122 750.55,-122 750.55,-86 877.45,-86 877.45,-122"/>
<text text-anchor="middle" x="814" y="-99.8" font-family="Times,serif" font-size="14.00">SettingsComponent</text>
</g>
<!-- SettingsComponent&#45;&gt;UserPageModule -->
<g id="edge7" class="edge">
<title>SettingsComponent&#45;&gt;UserPageModule</title>
<path fill="none" stroke="black" d="M814,-122.19C814,-137.18 814,-156 814,-156 814,-156 888.06,-156 888.06,-156"/>
<polygon fill="black" stroke="black" points="888.06,-159.5 898.06,-156 888.06,-152.5 888.06,-159.5"/>
</g>
<!-- SupportComponent -->
<g id="node7" class="node">
<title>SupportComponent</title>
<polygon fill="#ffffb3" stroke="black" points="732.67,-122 607.33,-122 607.33,-86 732.67,-86 732.67,-122"/>
<text text-anchor="middle" x="670" y="-99.8" font-family="Times,serif" font-size="14.00">SupportComponent</text>
</g>
<!-- SupportComponent&#45;&gt;UserPageModule -->
<g id="edge8" class="edge">
<title>SupportComponent&#45;&gt;UserPageModule</title>
<path fill="none" stroke="black" d="M649.06,-122.3C649.06,-140.27 649.06,-165 649.06,-165 649.06,-165 888.17,-165 888.17,-165"/>
<polygon fill="black" stroke="black" points="888.17,-168.5 898.17,-165 888.17,-161.5 888.17,-168.5"/>
</g>
<!-- SupportComponent&#45;&gt;UserPageModule -->
<g id="edge9" class="edge">
<title>SupportComponent&#45;&gt;UserPageModule</title>
<path fill="none" stroke="black" d="M690.94,-122.03C690.94,-138.4 690.94,-160 690.94,-160 690.94,-160 888.35,-160 888.35,-160"/>
<polygon fill="black" stroke="black" points="888.35,-163.5 898.35,-160 888.35,-156.5 888.35,-163.5"/>
</g>
<!-- UserDashboardComponent -->
<g id="node8" class="node">
<title>UserDashboardComponent</title>
<polygon fill="#ffffb3" stroke="black" points="589.4,-122 420.6,-122 420.6,-86 589.4,-86 589.4,-122"/>
<text text-anchor="middle" x="505" y="-99.8" font-family="Times,serif" font-size="14.00">UserDashboardComponent</text>
</g>
<!-- UserDashboardComponent&#45;&gt;UserPageModule -->
<g id="edge10" class="edge">
<title>UserDashboardComponent&#45;&gt;UserPageModule</title>
<path fill="none" stroke="black" d="M505,-122.11C505,-141.34 505,-169 505,-169 505,-169 888.01,-169 888.01,-169"/>
<polygon fill="black" stroke="black" points="888.01,-172.5 898.01,-169 888.01,-165.5 888.01,-172.5"/>
</g>
<!-- UserPage -->
<g id="node9" class="node">
<title>UserPage</title>
<polygon fill="#ffffb3" stroke="black" points="402.64,-122 333.36,-122 333.36,-86 402.64,-86 402.64,-122"/>
<text text-anchor="middle" x="368" y="-99.8" font-family="Times,serif" font-size="14.00">UserPage</text>
</g>
<!-- UserPage&#45;&gt;UserPageModule -->
<g id="edge11" class="edge">
<title>UserPage&#45;&gt;UserPageModule</title>
<path fill="none" stroke="black" d="M368,-122.03C368,-142.77 368,-174 368,-174 368,-174 888.18,-174 888.18,-174"/>
<polygon fill="black" stroke="black" points="888.18,-177.5 898.18,-174 888.18,-170.5 888.18,-177.5"/>
</g>
<!-- VerifyEmailComponent -->
<g id="node10" class="node">
<title>VerifyEmailComponent</title>
<polygon fill="#ffffb3" stroke="black" points="315.8,-122 164.2,-122 164.2,-86 315.8,-86 315.8,-122"/>
<text text-anchor="middle" x="240" y="-99.8" font-family="Times,serif" font-size="14.00">VerifyEmailComponent</text>
</g>
<!-- VerifyEmailComponent&#45;&gt;UserPageModule -->
<g id="edge12" class="edge">
<title>VerifyEmailComponent&#45;&gt;UserPageModule</title>
<path fill="none" stroke="black" d="M240,-122.29C240,-144.21 240,-178 240,-178 240,-178 888.3,-178 888.3,-178"/>
<polygon fill="black" stroke="black" points="888.3,-181.5 898.3,-178 888.3,-174.5 888.3,-181.5"/>
</g>
<!-- WebrtcComponent -->
<g id="node11" class="node">
<title>WebrtcComponent</title>
<polygon fill="#ffffb3" stroke="black" points="146.03,-122 23.97,-122 23.97,-86 146.03,-86 146.03,-122"/>
<text text-anchor="middle" x="85" y="-99.8" font-family="Times,serif" font-size="14.00">WebrtcComponent</text>
</g>
<!-- WebrtcComponent&#45;&gt;UserPageModule -->
<g id="edge13" class="edge">
<title>WebrtcComponent&#45;&gt;UserPageModule</title>
<path fill="none" stroke="black" d="M85,-122.32C85,-145.66 85,-183 85,-183 85,-183 888.25,-183 888.25,-183"/>
<polygon fill="black" stroke="black" points="888.25,-186.5 898.25,-183 888.25,-179.5 888.25,-186.5"/>
</g>
<!-- SharedModule -->
<g id="node13" class="node">
<title>SharedModule</title>
<polygon fill="#8dd3c7" stroke="black" points="1973.42,-122 1970.42,-126 1949.42,-126 1946.42,-122 1874.58,-122 1874.58,-86 1973.42,-86 1973.42,-122"/>
<text text-anchor="middle" x="1924" y="-99.8" font-family="Times,serif" font-size="14.00">SharedModule</text>
</g>
<!-- SharedModule&#45;&gt;UserPageModule -->
<g id="edge14" class="edge">
<title>SharedModule&#45;&gt;UserPageModule</title>
<path fill="none" stroke="black" d="M1924,-122.32C1924,-145.66 1924,-183 1924,-183 1924,-183 1021.64,-183 1021.64,-183"/>
<polygon fill="black" stroke="black" points="1021.64,-179.5 1011.64,-183 1021.64,-186.5 1021.64,-179.5"/>
</g>
<!-- UserPageRoutingModule -->
<g id="node14" class="node">
<title>UserPageRoutingModule</title>
<polygon fill="#8dd3c7" stroke="black" points="1857.31,-122 1854.31,-126 1833.31,-126 1830.31,-122 1698.69,-122 1698.69,-86 1857.31,-86 1857.31,-122"/>
<text text-anchor="middle" x="1778" y="-99.8" font-family="Times,serif" font-size="14.00">UserPageRoutingModule</text>
</g>
<!-- UserPageRoutingModule&#45;&gt;UserPageModule -->
<g id="edge15" class="edge">
<title>UserPageRoutingModule&#45;&gt;UserPageModule</title>
<path fill="none" stroke="black" d="M1778,-122.29C1778,-144.21 1778,-178 1778,-178 1778,-178 1021.89,-178 1021.89,-178"/>
<polygon fill="black" stroke="black" points="1021.89,-174.5 1011.89,-178 1021.89,-181.5 1021.89,-174.5"/>
</g>
</g>
</svg>
