<?xml version="1.0" encoding="UTF-8" standalone="no"?>
<!DOCTYPE svg PUBLIC "-//W3C//DTD SVG 1.1//EN"
 "http://www.w3.org/Graphics/SVG/1.1/DTD/svg11.dtd">
<!-- Generated by graphviz version 2.47.0 (20210316.0004)
 -->
<!-- Title: dependencies Pages: 1 -->
<svg width="2607pt" height="211pt"
 viewBox="0.00 0.00 2607.00 211.00" xmlns="http://www.w3.org/2000/svg" xmlns:xlink="http://www.w3.org/1999/xlink">
<g id="graph0" class="graph" transform="scale(1 1) rotate(0) translate(4 207)">
<title>dependencies</title>
<polygon fill="white" stroke="transparent" points="-4,4 -4,-207 2603,-207 2603,4 -4,4"/>
<text text-anchor="start" x="1278.51" y="-42.4" font-family="sans-serif" font-weight="bold" font-size="14.00">Legend</text>
<polygon fill="#ffffb3" stroke="transparent" points="1065.5,-10 1065.5,-30 1085.5,-30 1085.5,-10 1065.5,-10"/>
<text text-anchor="start" x="1089.13" y="-15.4" font-family="sans-serif" font-size="14.00"> &#160;Declarations</text>
<polygon fill="#8dd3c7" stroke="transparent" points="1178.5,-10 1178.5,-30 1198.5,-30 1198.5,-10 1178.5,-10"/>
<text text-anchor="start" x="1202.23" y="-15.4" font-family="sans-serif" font-size="14.00"> &#160;Module</text>
<polygon fill="#80b1d3" stroke="transparent" points="1264.5,-10 1264.5,-30 1284.5,-30 1284.5,-10 1264.5,-10"/>
<text text-anchor="start" x="1288.28" y="-15.4" font-family="sans-serif" font-size="14.00"> &#160;Bootstrap</text>
<polygon fill="#fdb462" stroke="transparent" points="1361.5,-10 1361.5,-30 1381.5,-30 1381.5,-10 1361.5,-10"/>
<text text-anchor="start" x="1385.17" y="-15.4" font-family="sans-serif" font-size="14.00"> &#160;Providers</text>
<polygon fill="#fb8072" stroke="transparent" points="1457.5,-10 1457.5,-30 1477.5,-30 1477.5,-10 1457.5,-10"/>
<text text-anchor="start" x="1481.23" y="-15.4" font-family="sans-serif" font-size="14.00"> &#160;Exports</text>
<g id="clust1" class="cluster">
<title>cluster_UserPageModule</title>
<polygon fill="none" stroke="black" stroke-dasharray="1,5" points="8,-70 8,-195 2591,-195 2591,-70 8,-70"/>
</g>
<g id="clust18" class="cluster">
<title>cluster_UserPageModule_imports</title>
<polygon fill="none" stroke="black" points="2293,-78 2293,-130 2583,-130 2583,-78 2293,-78"/>
</g>
<g id="clust2" class="cluster">
<title>cluster_UserPageModule_declarations</title>
<polygon fill="none" stroke="black" points="16,-78 16,-130 2285,-130 2285,-78 16,-78"/>
</g>
<!-- CancelServiceComponent -->
<g id="node1" class="node">
<title>CancelServiceComponent</title>
<polygon fill="#ffffb3" stroke="black" points="2277.18,-122 2114.82,-122 2114.82,-86 2277.18,-86 2277.18,-122"/>
<text text-anchor="middle" x="2196" y="-99.8" font-family="Times,serif" font-size="14.00">CancelServiceComponent</text>
</g>
<!-- UserPageModule -->
<g id="node16" class="node">
<title>UserPageModule</title>
<polygon fill="#8dd3c7" stroke="black" points="1313.69,-187 1310.69,-191 1289.69,-191 1286.69,-187 1200.31,-187 1200.31,-151 1313.69,-151 1313.69,-187"/>
<text text-anchor="middle" x="1257" y="-164.8" font-family="Times,serif" font-size="14.00">UserPageModule</text>
</g>
<!-- CancelServiceComponent&#45;&gt;UserPageModule -->
<g id="edge1" class="edge">
<title>CancelServiceComponent&#45;&gt;UserPageModule</title>
<path fill="none" stroke="black" d="M2196,-122.04C2196,-143.66 2196,-177 2196,-177 2196,-177 1323.62,-177 1323.62,-177"/>
<polygon fill="black" stroke="black" points="1323.62,-173.5 1313.62,-177 1323.62,-180.5 1323.62,-173.5"/>
</g>
<!-- CartviewComponent -->
<g id="node2" class="node">
<title>CartviewComponent</title>
<polygon fill="#ffffb3" stroke="black" points="2097.15,-122 1964.85,-122 1964.85,-86 2097.15,-86 2097.15,-122"/>
<text text-anchor="middle" x="2031" y="-99.8" font-family="Times,serif" font-size="14.00">CartviewComponent</text>
</g>
<!-- CartviewComponent&#45;&gt;UserPageModule -->
<g id="edge2" class="edge">
<title>CartviewComponent&#45;&gt;UserPageModule</title>
<path fill="none" stroke="black" d="M2008.89,-122.11C2008.89,-141.34 2008.89,-169 2008.89,-169 2008.89,-169 1323.82,-169 1323.82,-169"/>
<polygon fill="black" stroke="black" points="1323.82,-165.5 1313.82,-169 1323.82,-172.5 1323.82,-165.5"/>
</g>
<!-- CartviewComponent&#45;&gt;UserPageModule -->
<g id="edge3" class="edge">
<title>CartviewComponent&#45;&gt;UserPageModule</title>
<path fill="none" stroke="black" d="M2053.11,-122.13C2053.11,-142.57 2053.11,-173 2053.11,-173 2053.11,-173 1323.62,-173 1323.62,-173"/>
<polygon fill="black" stroke="black" points="1323.62,-169.5 1313.62,-173 1323.62,-176.5 1323.62,-169.5"/>
</g>
<!-- CheckoutComponent -->
<g id="node3" class="node">
<title>CheckoutComponent</title>
<polygon fill="#ffffb3" stroke="black" points="1946.49,-122 1811.51,-122 1811.51,-86 1946.49,-86 1946.49,-122"/>
<text text-anchor="middle" x="1879" y="-99.8" font-family="Times,serif" font-size="14.00">CheckoutComponent</text>
</g>
<!-- CheckoutComponent&#45;&gt;UserPageModule -->
<g id="edge4" class="edge">
<title>CheckoutComponent&#45;&gt;UserPageModule</title>
<path fill="none" stroke="black" d="M1879,-122.27C1879,-140.56 1879,-166 1879,-166 1879,-166 1323.85,-166 1323.85,-166"/>
<polygon fill="black" stroke="black" points="1323.85,-162.5 1313.85,-166 1323.85,-169.5 1323.85,-162.5"/>
</g>
<!-- InvoicesComponent -->
<g id="node4" class="node">
<title>InvoicesComponent</title>
<polygon fill="#ffffb3" stroke="black" points="1793.26,-122 1664.74,-122 1664.74,-86 1793.26,-86 1793.26,-122"/>
<text text-anchor="middle" x="1729" y="-99.8" font-family="Times,serif" font-size="14.00">InvoicesComponent</text>
</g>
<!-- InvoicesComponent&#45;&gt;UserPageModule -->
<g id="edge5" class="edge">
<title>InvoicesComponent&#45;&gt;UserPageModule</title>
<path fill="none" stroke="black" d="M1729,-122.03C1729,-139.06 1729,-162 1729,-162 1729,-162 1323.93,-162 1323.93,-162"/>
<polygon fill="black" stroke="black" points="1323.93,-158.5 1313.93,-162 1323.93,-165.5 1323.93,-158.5"/>
</g>
<!-- NewReviewComponent -->
<g id="node5" class="node">
<title>NewReviewComponent</title>
<polygon fill="#ffffb3" stroke="black" points="1646.02,-122 1495.98,-122 1495.98,-86 1646.02,-86 1646.02,-122"/>
<text text-anchor="middle" x="1571" y="-99.8" font-family="Times,serif" font-size="14.00">NewReviewComponent</text>
</g>
<!-- NewReviewComponent&#45;&gt;UserPageModule -->
<g id="edge6" class="edge">
<title>NewReviewComponent&#45;&gt;UserPageModule</title>
<path fill="none" stroke="black" d="M1571,-122.01C1571,-138.05 1571,-159 1571,-159 1571,-159 1323.86,-159 1323.86,-159"/>
<polygon fill="black" stroke="black" points="1323.86,-155.5 1313.86,-159 1323.86,-162.5 1323.86,-155.5"/>
</g>
<!-- NewsFormComponent -->
<g id="node6" class="node">
<title>NewsFormComponent</title>
<polygon fill="#ffffb3" stroke="black" points="1477.54,-122 1334.46,-122 1334.46,-86 1477.54,-86 1477.54,-122"/>
<text text-anchor="middle" x="1406" y="-99.8" font-family="Times,serif" font-size="14.00">NewsFormComponent</text>
</g>
<!-- NewsFormComponent&#45;&gt;UserPageModule -->
<g id="edge7" class="edge">
<title>NewsFormComponent&#45;&gt;UserPageModule</title>
<path fill="none" stroke="black" d="M1406,-122.12C1406,-136.78 1406,-155 1406,-155 1406,-155 1323.76,-155 1323.76,-155"/>
<polygon fill="black" stroke="black" points="1323.76,-151.5 1313.76,-155 1323.76,-158.5 1323.76,-151.5"/>
</g>
<!-- ProfileComponent -->
<g id="node7" class="node">
<title>ProfileComponent</title>
<polygon fill="#ffffb3" stroke="black" points="1316.93,-122 1197.07,-122 1197.07,-86 1316.93,-86 1316.93,-122"/>
<text text-anchor="middle" x="1257" y="-99.8" font-family="Times,serif" font-size="14.00">ProfileComponent</text>
</g>
<!-- ProfileComponent&#45;&gt;UserPageModule -->
<g id="edge8" class="edge">
<title>ProfileComponent&#45;&gt;UserPageModule</title>
<path fill="none" stroke="black" d="M1257,-122.11C1257,-122.11 1257,-140.99 1257,-140.99"/>
<polygon fill="black" stroke="black" points="1253.5,-140.99 1257,-150.99 1260.5,-140.99 1253.5,-140.99"/>
</g>
<!-- SettingsComponent -->
<g id="node8" class="node">
<title>SettingsComponent</title>
<polygon fill="#ffffb3" stroke="black" points="1179.45,-122 1052.55,-122 1052.55,-86 1179.45,-86 1179.45,-122"/>
<text text-anchor="middle" x="1116" y="-99.8" font-family="Times,serif" font-size="14.00">SettingsComponent</text>
</g>
<!-- SettingsComponent&#45;&gt;UserPageModule -->
<g id="edge9" class="edge">
<title>SettingsComponent&#45;&gt;UserPageModule</title>
<path fill="none" stroke="black" d="M1116,-122.12C1116,-136.78 1116,-155 1116,-155 1116,-155 1190.06,-155 1190.06,-155"/>
<polygon fill="black" stroke="black" points="1190.06,-158.5 1200.06,-155 1190.06,-151.5 1190.06,-158.5"/>
</g>
<!-- SupportComponent -->
<g id="node9" class="node">
<title>SupportComponent</title>
<polygon fill="#ffffb3" stroke="black" points="1034.67,-122 909.33,-122 909.33,-86 1034.67,-86 1034.67,-122"/>
<text text-anchor="middle" x="972" y="-99.8" font-family="Times,serif" font-size="14.00">SupportComponent</text>
</g>
<!-- SupportComponent&#45;&gt;UserPageModule -->
<g id="edge10" class="edge">
<title>SupportComponent&#45;&gt;UserPageModule</title>
<path fill="none" stroke="black" d="M992.94,-122.01C992.94,-138.05 992.94,-159 992.94,-159 992.94,-159 1190.35,-159 1190.35,-159"/>
<polygon fill="black" stroke="black" points="1190.35,-162.5 1200.35,-159 1190.35,-155.5 1190.35,-162.5"/>
</g>
<!-- SupportComponent&#45;&gt;UserPageModule -->
<g id="edge11" class="edge">
<title>SupportComponent&#45;&gt;UserPageModule</title>
<path fill="none" stroke="black" d="M951.06,-122.03C951.06,-139.06 951.06,-162 951.06,-162 951.06,-162 1190.17,-162 1190.17,-162"/>
<polygon fill="black" stroke="black" points="1190.17,-165.5 1200.17,-162 1190.17,-158.5 1190.17,-165.5"/>
</g>
<!-- TicketComponent -->
<g id="node10" class="node">
<title>TicketComponent</title>
<polygon fill="#ffffb3" stroke="black" points="891.6,-122 774.4,-122 774.4,-86 891.6,-86 891.6,-122"/>
<text text-anchor="middle" x="833" y="-99.8" font-family="Times,serif" font-size="14.00">TicketComponent</text>
</g>
<!-- TicketComponent&#45;&gt;UserPageModule -->
<g id="edge12" class="edge">
<title>TicketComponent&#45;&gt;UserPageModule</title>
<path fill="none" stroke="black" d="M833,-122.27C833,-140.56 833,-166 833,-166 833,-166 1190.26,-166 1190.26,-166"/>
<polygon fill="black" stroke="black" points="1190.26,-169.5 1200.26,-166 1190.26,-162.5 1190.26,-169.5"/>
</g>
<!-- UserDashboardComponent -->
<g id="node11" class="node">
<title>UserDashboardComponent</title>
<polygon fill="#ffffb3" stroke="black" points="756.4,-122 587.6,-122 587.6,-86 756.4,-86 756.4,-122"/>
<text text-anchor="middle" x="672" y="-99.8" font-family="Times,serif" font-size="14.00">UserDashboardComponent</text>
</g>
<!-- UserDashboardComponent&#45;&gt;UserPageModule -->
<g id="edge13" class="edge">
<title>UserDashboardComponent&#45;&gt;UserPageModule</title>
<path fill="none" stroke="black" d="M672,-122.11C672,-141.34 672,-169 672,-169 672,-169 1190.38,-169 1190.38,-169"/>
<polygon fill="black" stroke="black" points="1190.38,-172.5 1200.38,-169 1190.38,-165.5 1190.38,-172.5"/>
</g>
<!-- UserPage -->
<g id="node12" class="node">
<title>UserPage</title>
<polygon fill="#ffffb3" stroke="black" points="569.64,-122 500.36,-122 500.36,-86 569.64,-86 569.64,-122"/>
<text text-anchor="middle" x="535" y="-99.8" font-family="Times,serif" font-size="14.00">UserPage</text>
</g>
<!-- UserPage&#45;&gt;UserPageModule -->
<g id="edge14" class="edge">
<title>UserPage&#45;&gt;UserPageModule</title>
<path fill="none" stroke="black" d="M535,-122.13C535,-142.57 535,-173 535,-173 535,-173 1190.35,-173 1190.35,-173"/>
<polygon fill="black" stroke="black" points="1190.35,-176.5 1200.35,-173 1190.35,-169.5 1190.35,-176.5"/>
</g>
<!-- UserTicketsComponent -->
<g id="node13" class="node">
<title>UserTicketsComponent</title>
<polygon fill="#ffffb3" stroke="black" points="482.47,-122 333.53,-122 333.53,-86 482.47,-86 482.47,-122"/>
<text text-anchor="middle" x="408" y="-99.8" font-family="Times,serif" font-size="14.00">UserTicketsComponent</text>
</g>
<!-- UserTicketsComponent&#45;&gt;UserPageModule -->
<g id="edge15" class="edge">
<title>UserTicketsComponent&#45;&gt;UserPageModule</title>
<path fill="none" stroke="black" d="M408,-122.04C408,-143.66 408,-177 408,-177 408,-177 1190.31,-177 1190.31,-177"/>
<polygon fill="black" stroke="black" points="1190.31,-180.5 1200.31,-177 1190.31,-173.5 1190.31,-180.5"/>
</g>
<!-- VerifyEmailComponent -->
<g id="node14" class="node">
<title>VerifyEmailComponent</title>
<polygon fill="#ffffb3" stroke="black" points="315.8,-122 164.2,-122 164.2,-86 315.8,-86 315.8,-122"/>
<text text-anchor="middle" x="240" y="-99.8" font-family="Times,serif" font-size="14.00">VerifyEmailComponent</text>
</g>
<!-- VerifyEmailComponent&#45;&gt;UserPageModule -->
<g id="edge16" class="edge">
<title>VerifyEmailComponent&#45;&gt;UserPageModule</title>
<path fill="none" stroke="black" d="M240,-122.01C240,-144.49 240,-180 240,-180 240,-180 1190.14,-180 1190.14,-180"/>
<polygon fill="black" stroke="black" points="1190.14,-183.5 1200.14,-180 1190.14,-176.5 1190.14,-183.5"/>
</g>
<!-- WebrtcComponent -->
<g id="node15" class="node">
<title>WebrtcComponent</title>
<polygon fill="#ffffb3" stroke="black" points="146.03,-122 23.97,-122 23.97,-86 146.03,-86 146.03,-122"/>
<text text-anchor="middle" x="85" y="-99.8" font-family="Times,serif" font-size="14.00">WebrtcComponent</text>
</g>
<!-- WebrtcComponent&#45;&gt;UserPageModule -->
<g id="edge17" class="edge">
<title>WebrtcComponent&#45;&gt;UserPageModule</title>
<path fill="none" stroke="black" d="M85,-122.15C85,-145.76 85,-184 85,-184 85,-184 1190.08,-184 1190.08,-184"/>
<polygon fill="black" stroke="black" points="1190.08,-187.5 1200.08,-184 1190.08,-180.5 1190.08,-187.5"/>
</g>
<!-- SharedModule -->
<g id="node17" class="node">
<title>SharedModule</title>
<polygon fill="#8dd3c7" stroke="black" points="2575.42,-122 2572.42,-126 2551.42,-126 2548.42,-122 2476.58,-122 2476.58,-86 2575.42,-86 2575.42,-122"/>
<text text-anchor="middle" x="2526" y="-99.8" font-family="Times,serif" font-size="14.00">SharedModule</text>
</g>
<!-- SharedModule&#45;&gt;UserPageModule -->
<g id="edge18" class="edge">
<title>SharedModule&#45;&gt;UserPageModule</title>
<path fill="none" stroke="black" d="M2526,-122.15C2526,-145.76 2526,-184 2526,-184 2526,-184 1323.99,-184 1323.99,-184"/>
<polygon fill="black" stroke="black" points="1323.99,-180.5 1313.99,-184 1323.99,-187.5 1323.99,-180.5"/>
</g>
<!-- UserPageRoutingModule -->
<g id="node18" class="node">
<title>UserPageRoutingModule</title>
<polygon fill="#8dd3c7" stroke="black" points="2459.31,-122 2456.31,-126 2435.31,-126 2432.31,-122 2300.69,-122 2300.69,-86 2459.31,-86 2459.31,-122"/>
<text text-anchor="middle" x="2380" y="-99.8" font-family="Times,serif" font-size="14.00">UserPageRoutingModule</text>
</g>
<!-- UserPageRoutingModule&#45;&gt;UserPageModule -->
<g id="edge19" class="edge">
<title>UserPageRoutingModule&#45;&gt;UserPageModule</title>
<path fill="none" stroke="black" d="M2380,-122.01C2380,-144.49 2380,-180 2380,-180 2380,-180 1323.85,-180 1323.85,-180"/>
<polygon fill="black" stroke="black" points="1323.85,-176.5 1313.85,-180 1323.85,-183.5 1323.85,-176.5"/>
</g>
</g>
</svg>
