<?xml version="1.0" encoding="UTF-8" standalone="no"?>
<!DOCTYPE svg PUBLIC "-//W3C//DTD SVG 1.1//EN"
 "http://www.w3.org/Graphics/SVG/1.1/DTD/svg11.dtd">
<!-- Generated by graphviz version 2.44.1 (20200629.0846)
 -->
<!-- Title: dependencies Pages: 1 -->
<svg width="1516pt" height="284pt"
 viewBox="0.00 0.00 1516.00 284.00" xmlns="http://www.w3.org/2000/svg" xmlns:xlink="http://www.w3.org/1999/xlink">
<g id="graph0" class="graph" transform="scale(1 1) rotate(0) translate(4 280)">
<title>dependencies</title>
<polygon fill="white" stroke="transparent" points="-4,4 -4,-280 1512,-280 1512,4 -4,4"/>
<text text-anchor="start" x="733.01" y="-42.4" font-family="sans-serif" font-weight="bold" font-size="14.00">Legend</text>
<polygon fill="#ffffb3" stroke="transparent" points="520,-10 520,-30 540,-30 540,-10 520,-10"/>
<text text-anchor="start" x="543.63" y="-15.4" font-family="sans-serif" font-size="14.00"> &#160;Declarations</text>
<polygon fill="#8dd3c7" stroke="transparent" points="633,-10 633,-30 653,-30 653,-10 633,-10"/>
<text text-anchor="start" x="656.73" y="-15.4" font-family="sans-serif" font-size="14.00"> &#160;Module</text>
<polygon fill="#80b1d3" stroke="transparent" points="719,-10 719,-30 739,-30 739,-10 719,-10"/>
<text text-anchor="start" x="742.78" y="-15.4" font-family="sans-serif" font-size="14.00"> &#160;Bootstrap</text>
<polygon fill="#fdb462" stroke="transparent" points="816,-10 816,-30 836,-30 836,-10 816,-10"/>
<text text-anchor="start" x="839.67" y="-15.4" font-family="sans-serif" font-size="14.00"> &#160;Providers</text>
<polygon fill="#fb8072" stroke="transparent" points="912,-10 912,-30 932,-30 932,-10 912,-10"/>
<text text-anchor="start" x="935.73" y="-15.4" font-family="sans-serif" font-size="14.00"> &#160;Exports</text>
<g id="clust1" class="cluster">
<title>cluster_SharedModule</title>
<polygon fill="none" stroke="black" stroke-dasharray="1,5" points="8,-70 8,-268 1500,-268 1500,-70 8,-70"/>
</g>
<g id="clust2" class="cluster">
<title>cluster_SharedModule_declarations</title>
<polygon fill="none" stroke="black" points="39,-78 39,-130 1477,-130 1477,-78 39,-78"/>
</g>
<g id="clust14" class="cluster">
<title>cluster_SharedModule_exports</title>
<polygon fill="none" stroke="black" points="16,-208 16,-260 1492,-260 1492,-208 16,-208"/>
</g>
<!-- AboutAppComponent -->
<g id="node1" class="node">
<title>AboutAppComponent</title>
<polygon fill="#ffffb3" stroke="black" points="1469.44,-122 1328.56,-122 1328.56,-86 1469.44,-86 1469.44,-122"/>
<text text-anchor="middle" x="1399" y="-99.8" font-family="Times,serif" font-size="14.00">AboutAppComponent</text>
</g>
<!-- SharedModule -->
<g id="node11" class="node">
<title>SharedModule</title>
<polygon fill="#8dd3c7" stroke="black" points="712.42,-187 709.42,-191 688.42,-191 685.42,-187 613.58,-187 613.58,-151 712.42,-151 712.42,-187"/>
<text text-anchor="middle" x="663" y="-164.8" font-family="Times,serif" font-size="14.00">SharedModule</text>
</g>
<!-- AboutAppComponent&#45;&gt;SharedModule -->
<g id="edge1" class="edge">
<title>AboutAppComponent&#45;&gt;SharedModule</title>
<path fill="none" stroke="black" d="M1334.41,-122.17C1334.41,-141.09 1334.41,-168 1334.41,-168 1334.41,-168 722.37,-168 722.37,-168"/>
<polygon fill="black" stroke="black" points="722.37,-164.5 712.37,-168 722.37,-171.5 722.37,-164.5"/>
</g>
<!-- BenefitsComponent -->
<g id="node2" class="node">
<title>BenefitsComponent</title>
<polygon fill="#ffffb3" stroke="black" points="1310.98,-122 1183.02,-122 1183.02,-86 1310.98,-86 1310.98,-122"/>
<text text-anchor="middle" x="1247" y="-99.8" font-family="Times,serif" font-size="14.00">BenefitsComponent</text>
</g>
<!-- BenefitsComponent&#45;&gt;SharedModule -->
<g id="edge2" class="edge">
<title>BenefitsComponent&#45;&gt;SharedModule</title>
<path fill="none" stroke="black" d="M1186.63,-122.3C1186.63,-140.27 1186.63,-165 1186.63,-165 1186.63,-165 722.26,-165 722.26,-165"/>
<polygon fill="black" stroke="black" points="722.26,-161.5 712.26,-165 722.26,-168.5 722.26,-161.5"/>
</g>
<!-- FooterComponent -->
<g id="node3" class="node">
<title>FooterComponent</title>
<polygon fill="#ffffb3" stroke="black" points="1164.88,-122 1047.12,-122 1047.12,-86 1164.88,-86 1164.88,-122"/>
<text text-anchor="middle" x="1106" y="-99.8" font-family="Times,serif" font-size="14.00">FooterComponent</text>
</g>
<!-- FooterComponent&#45;&gt;SharedModule -->
<g id="edge3" class="edge">
<title>FooterComponent&#45;&gt;SharedModule</title>
<path fill="none" stroke="black" d="M1127.06,-122.04C1127.06,-138.73 1127.06,-161 1127.06,-161 1127.06,-161 722.22,-161 722.22,-161"/>
<polygon fill="black" stroke="black" points="722.22,-157.5 712.22,-161 722.22,-164.5 722.22,-157.5"/>
</g>
<!-- ModalViewComponent -->
<g id="node4" class="node">
<title>ModalViewComponent</title>
<polygon fill="#ffffb3" stroke="black" points="1029.2,-122 880.8,-122 880.8,-86 1029.2,-86 1029.2,-122"/>
<text text-anchor="middle" x="955" y="-99.8" font-family="Times,serif" font-size="14.00">ModalViewComponent</text>
</g>
<!-- ModalViewComponent&#45;&gt;SharedModule -->
<g id="edge4" class="edge">
<title>ModalViewComponent&#45;&gt;SharedModule</title>
<path fill="none" stroke="black" d="M979.78,-122.28C979.78,-137.95 979.78,-158 979.78,-158 979.78,-158 722.5,-158 722.5,-158"/>
<polygon fill="black" stroke="black" points="722.5,-154.5 712.5,-158 722.5,-161.5 722.5,-154.5"/>
</g>
<!-- PopoverComponent -->
<g id="node5" class="node">
<title>PopoverComponent</title>
<polygon fill="#ffffb3" stroke="black" points="862.99,-122 735.01,-122 735.01,-86 862.99,-86 862.99,-122"/>
<text text-anchor="middle" x="799" y="-99.8" font-family="Times,serif" font-size="14.00">PopoverComponent</text>
</g>
<!-- PopoverComponent&#45;&gt;SharedModule -->
<g id="edge5" class="edge">
<title>PopoverComponent&#45;&gt;SharedModule</title>
<path fill="none" stroke="black" d="M777.58,-122.12C777.58,-136.78 777.58,-155 777.58,-155 777.58,-155 722.26,-155 722.26,-155"/>
<polygon fill="black" stroke="black" points="722.26,-151.5 712.26,-155 722.26,-158.5 722.26,-151.5"/>
</g>
<!-- PrivacyComponent -->
<g id="node6" class="node">
<title>PrivacyComponent</title>
<polygon fill="#ffffb3" stroke="black" points="717.1,-122 592.9,-122 592.9,-86 717.1,-86 717.1,-122"/>
<text text-anchor="middle" x="655" y="-99.8" font-family="Times,serif" font-size="14.00">PrivacyComponent</text>
</g>
<!-- PrivacyComponent&#45;&gt;SharedModule -->
<g id="edge6" class="edge">
<title>PrivacyComponent&#45;&gt;SharedModule</title>
<path fill="none" stroke="black" d="M663,-122.11C663,-122.11 663,-140.99 663,-140.99"/>
<polygon fill="black" stroke="black" points="659.5,-140.99 663,-150.99 666.5,-140.99 659.5,-140.99"/>
</g>
<!-- RatingsComponent -->
<g id="node7" class="node">
<title>RatingsComponent</title>
<polygon fill="#ffffb3" stroke="black" points="575.11,-122 450.89,-122 450.89,-86 575.11,-86 575.11,-122"/>
<text text-anchor="middle" x="513" y="-99.8" font-family="Times,serif" font-size="14.00">RatingsComponent</text>
</g>
<!-- RatingsComponent&#45;&gt;SharedModule -->
<g id="edge7" class="edge">
<title>RatingsComponent&#45;&gt;SharedModule</title>
<path fill="none" stroke="black" d="M570.93,-122.12C570.93,-136.78 570.93,-155 570.93,-155 570.93,-155 603.73,-155 603.73,-155"/>
<polygon fill="black" stroke="black" points="603.73,-158.5 613.73,-155 603.73,-151.5 603.73,-158.5"/>
</g>
<!-- TermsComponent -->
<g id="node8" class="node">
<title>TermsComponent</title>
<polygon fill="#ffffb3" stroke="black" points="432.6,-122 315.4,-122 315.4,-86 432.6,-86 432.6,-122"/>
<text text-anchor="middle" x="374" y="-99.8" font-family="Times,serif" font-size="14.00">TermsComponent</text>
</g>
<!-- TermsComponent&#45;&gt;SharedModule -->
<g id="edge8" class="edge">
<title>TermsComponent&#45;&gt;SharedModule</title>
<path fill="none" stroke="black" d="M426.92,-122.01C426.92,-138.05 426.92,-159 426.92,-159 426.92,-159 603.51,-159 603.51,-159"/>
<polygon fill="black" stroke="black" points="603.51,-162.5 613.51,-159 603.51,-155.5 603.51,-162.5"/>
</g>
<!-- TicketComponent -->
<g id="node9" class="node">
<title>TicketComponent</title>
<polygon fill="#ffffb3" stroke="black" points="297.6,-122 180.4,-122 180.4,-86 297.6,-86 297.6,-122"/>
<text text-anchor="middle" x="239" y="-99.8" font-family="Times,serif" font-size="14.00">TicketComponent</text>
</g>
<!-- TicketComponent&#45;&gt;SharedModule -->
<g id="edge9" class="edge">
<title>TicketComponent&#45;&gt;SharedModule</title>
<path fill="none" stroke="black" d="M289.92,-122.02C289.92,-139.37 289.92,-163 289.92,-163 289.92,-163 603.46,-163 603.46,-163"/>
<polygon fill="black" stroke="black" points="603.46,-166.5 613.46,-163 603.46,-159.5 603.46,-166.5"/>
</g>
<!-- VideoComponent -->
<g id="node10" class="node">
<title>VideoComponent</title>
<polygon fill="#ffffb3" stroke="black" points="162.55,-122 47.45,-122 47.45,-86 162.55,-86 162.55,-122"/>
<text text-anchor="middle" x="105" y="-99.8" font-family="Times,serif" font-size="14.00">VideoComponent</text>
</g>
<!-- VideoComponent&#45;&gt;SharedModule -->
<g id="edge10" class="edge">
<title>VideoComponent&#45;&gt;SharedModule</title>
<path fill="none" stroke="black" d="M152.61,-122.22C152.61,-140.83 152.61,-167 152.61,-167 152.61,-167 603.6,-167 603.6,-167"/>
<polygon fill="black" stroke="black" points="603.6,-170.5 613.6,-167 603.6,-163.5 603.6,-170.5"/>
</g>
<!-- AboutAppComponent  -->
<g id="node12" class="node">
<title>AboutAppComponent </title>
<polygon fill="#fb8072" stroke="black" points="1483.94,-252 1340.06,-252 1340.06,-216 1483.94,-216 1483.94,-252"/>
<text text-anchor="middle" x="1412" y="-229.8" font-family="Times,serif" font-size="14.00">AboutAppComponent </text>
</g>
<!-- SharedModule&#45;&gt;AboutAppComponent  -->
<g id="edge11" class="edge">
<title>SharedModule&#45;&gt;AboutAppComponent </title>
<path fill="none" stroke="black" stroke-dasharray="5,2" d="M712.23,-171C877.87,-171 1404.62,-171 1404.62,-171 1404.62,-171 1404.62,-205.78 1404.62,-205.78"/>
<polygon fill="black" stroke="black" points="1401.13,-205.78 1404.62,-215.78 1408.13,-205.78 1401.13,-205.78"/>
</g>
<!-- BenefitsComponent  -->
<g id="node13" class="node">
<title>BenefitsComponent </title>
<polygon fill="#fb8072" stroke="black" points="1321.99,-252 1190.01,-252 1190.01,-216 1321.99,-216 1321.99,-252"/>
<text text-anchor="middle" x="1256" y="-229.8" font-family="Times,serif" font-size="14.00">BenefitsComponent </text>
</g>
<!-- SharedModule&#45;&gt;BenefitsComponent  -->
<g id="edge12" class="edge">
<title>SharedModule&#45;&gt;BenefitsComponent </title>
<path fill="none" stroke="black" stroke-dasharray="5,2" d="M712.34,-174C853.79,-174 1250.62,-174 1250.62,-174 1250.62,-174 1250.62,-206 1250.62,-206"/>
<polygon fill="black" stroke="black" points="1247.13,-206 1250.62,-216 1254.13,-206 1247.13,-206"/>
</g>
<!-- FooterComponent  -->
<g id="node14" class="node">
<title>FooterComponent </title>
<polygon fill="#fb8072" stroke="black" points="1172.88,-252 1051.12,-252 1051.12,-216 1172.88,-216 1172.88,-252"/>
<text text-anchor="middle" x="1112" y="-229.8" font-family="Times,serif" font-size="14.00">FooterComponent </text>
</g>
<!-- SharedModule&#45;&gt;FooterComponent  -->
<g id="edge13" class="edge">
<title>SharedModule&#45;&gt;FooterComponent </title>
<path fill="none" stroke="black" stroke-dasharray="5,2" d="M712.31,-178C824.49,-178 1089.19,-178 1089.19,-178 1089.19,-178 1089.19,-205.97 1089.19,-205.97"/>
<polygon fill="black" stroke="black" points="1085.69,-205.97 1089.19,-215.97 1092.69,-205.97 1085.69,-205.97"/>
</g>
<!-- ModalViewComponent  -->
<g id="node15" class="node">
<title>ModalViewComponent </title>
<polygon fill="#fb8072" stroke="black" points="1032.7,-252 881.3,-252 881.3,-216 1032.7,-216 1032.7,-252"/>
<text text-anchor="middle" x="957" y="-229.8" font-family="Times,serif" font-size="14.00">ModalViewComponent </text>
</g>
<!-- SharedModule&#45;&gt;ModalViewComponent  -->
<g id="edge14" class="edge">
<title>SharedModule&#45;&gt;ModalViewComponent </title>
<path fill="none" stroke="black" stroke-dasharray="5,2" d="M712.37,-181C789.65,-181 930.47,-181 930.47,-181 930.47,-181 930.47,-205.76 930.47,-205.76"/>
<polygon fill="black" stroke="black" points="926.97,-205.76 930.47,-215.76 933.97,-205.76 926.97,-205.76"/>
</g>
<!-- PopoverComponent  -->
<g id="node16" class="node">
<title>PopoverComponent </title>
<polygon fill="#fb8072" stroke="black" points="862.99,-252 731.01,-252 731.01,-216 862.99,-216 862.99,-252"/>
<text text-anchor="middle" x="797" y="-229.8" font-family="Times,serif" font-size="14.00">PopoverComponent </text>
</g>
<!-- SharedModule&#45;&gt;PopoverComponent  -->
<g id="edge15" class="edge">
<title>SharedModule&#45;&gt;PopoverComponent </title>
<path fill="none" stroke="black" stroke-dasharray="5,2" d="M712.3,-184C758.39,-184 820.17,-184 820.17,-184 820.17,-184 820.17,-205.95 820.17,-205.95"/>
<polygon fill="black" stroke="black" points="816.67,-205.95 820.17,-215.95 823.67,-205.95 816.67,-205.95"/>
</g>
<!-- PrivacyComponent  -->
<g id="node17" class="node">
<title>PrivacyComponent </title>
<polygon fill="#fb8072" stroke="black" points="712.6,-252 585.4,-252 585.4,-216 712.6,-216 712.6,-252"/>
<text text-anchor="middle" x="649" y="-229.8" font-family="Times,serif" font-size="14.00">PrivacyComponent </text>
</g>
<!-- SharedModule&#45;&gt;PrivacyComponent  -->
<g id="edge16" class="edge">
<title>SharedModule&#45;&gt;PrivacyComponent </title>
<path fill="none" stroke="black" stroke-dasharray="5,2" d="M663,-187.11C663,-187.11 663,-205.99 663,-205.99"/>
<polygon fill="black" stroke="black" points="659.5,-205.99 663,-215.99 666.5,-205.99 659.5,-205.99"/>
</g>
<!-- RatingsComponent  -->
<g id="node18" class="node">
<title>RatingsComponent </title>
<polygon fill="#fb8072" stroke="black" points="566.61,-252 439.39,-252 439.39,-216 566.61,-216 566.61,-252"/>
<text text-anchor="middle" x="503" y="-229.8" font-family="Times,serif" font-size="14.00">RatingsComponent </text>
</g>
<!-- SharedModule&#45;&gt;RatingsComponent  -->
<g id="edge17" class="edge">
<title>SharedModule&#45;&gt;RatingsComponent </title>
<path fill="none" stroke="black" stroke-dasharray="5,2" d="M613.39,-183C568.33,-183 508.88,-183 508.88,-183 508.88,-183 508.88,-205.88 508.88,-205.88"/>
<polygon fill="black" stroke="black" points="505.38,-205.88 508.88,-215.88 512.38,-205.88 505.38,-205.88"/>
</g>
<!-- TermsComponent  -->
<g id="node19" class="node">
<title>TermsComponent </title>
<polygon fill="#fb8072" stroke="black" points="421.1,-252 300.9,-252 300.9,-216 421.1,-216 421.1,-252"/>
<text text-anchor="middle" x="361" y="-229.8" font-family="Times,serif" font-size="14.00">TermsComponent </text>
</g>
<!-- SharedModule&#45;&gt;TermsComponent  -->
<g id="edge18" class="edge">
<title>SharedModule&#45;&gt;TermsComponent </title>
<path fill="none" stroke="black" stroke-dasharray="5,2" d="M613.69,-179C529.81,-179 368.38,-179 368.38,-179 368.38,-179 368.38,-205.99 368.38,-205.99"/>
<polygon fill="black" stroke="black" points="364.88,-205.99 368.38,-215.99 371.88,-205.99 364.88,-205.99"/>
</g>
<!-- TicketComponent  -->
<g id="node20" class="node">
<title>TicketComponent </title>
<polygon fill="#fb8072" stroke="black" points="282.1,-252 161.9,-252 161.9,-216 282.1,-216 282.1,-252"/>
<text text-anchor="middle" x="222" y="-229.8" font-family="Times,serif" font-size="14.00">TicketComponent </text>
</g>
<!-- SharedModule&#45;&gt;TicketComponent  -->
<g id="edge19" class="edge">
<title>SharedModule&#45;&gt;TicketComponent </title>
<path fill="none" stroke="black" stroke-dasharray="5,2" d="M613.49,-175C500.11,-175 231.38,-175 231.38,-175 231.38,-175 231.38,-205.98 231.38,-205.98"/>
<polygon fill="black" stroke="black" points="227.88,-205.98 231.38,-215.98 234.88,-205.98 227.88,-205.98"/>
</g>
<!-- VideoComponent  -->
<g id="node21" class="node">
<title>VideoComponent </title>
<polygon fill="#fb8072" stroke="black" points="143.54,-252 24.46,-252 24.46,-216 143.54,-216 143.54,-252"/>
<text text-anchor="middle" x="84" y="-229.8" font-family="Times,serif" font-size="14.00">VideoComponent </text>
</g>
<!-- SharedModule&#45;&gt;VideoComponent  -->
<g id="edge20" class="edge">
<title>SharedModule&#45;&gt;VideoComponent </title>
<path fill="none" stroke="black" stroke-dasharray="5,2" d="M613.62,-171C475.52,-171 95.38,-171 95.38,-171 95.38,-171 95.38,-205.78 95.38,-205.78"/>
<polygon fill="black" stroke="black" points="91.88,-205.78 95.38,-215.78 98.88,-205.78 91.88,-205.78"/>
</g>
</g>
</svg>
