<?xml version="1.0" encoding="UTF-8" standalone="no"?>
<!DOCTYPE svg PUBLIC "-//W3C//DTD SVG 1.1//EN"
 "http://www.w3.org/Graphics/SVG/1.1/DTD/svg11.dtd">
<!-- Generated by graphviz version 2.47.0 (20210316.0004)
 -->
<!-- Title: dependencies Pages: 1 -->
<svg width="2115pt" height="284pt"
 viewBox="0.00 0.00 2115.00 284.00" xmlns="http://www.w3.org/2000/svg" xmlns:xlink="http://www.w3.org/1999/xlink">
<g id="graph0" class="graph" transform="scale(1 1) rotate(0) translate(4 280)">
<title>dependencies</title>
<polygon fill="white" stroke="transparent" points="-4,4 -4,-280 2111,-280 2111,4 -4,4"/>
<text text-anchor="start" x="1032.51" y="-42.4" font-family="sans-serif" font-weight="bold" font-size="14.00">Legend</text>
<polygon fill="#ffffb3" stroke="transparent" points="819.5,-10 819.5,-30 839.5,-30 839.5,-10 819.5,-10"/>
<text text-anchor="start" x="843.13" y="-15.4" font-family="sans-serif" font-size="14.00"> &#160;Declarations</text>
<polygon fill="#8dd3c7" stroke="transparent" points="932.5,-10 932.5,-30 952.5,-30 952.5,-10 932.5,-10"/>
<text text-anchor="start" x="956.23" y="-15.4" font-family="sans-serif" font-size="14.00"> &#160;Module</text>
<polygon fill="#80b1d3" stroke="transparent" points="1018.5,-10 1018.5,-30 1038.5,-30 1038.5,-10 1018.5,-10"/>
<text text-anchor="start" x="1042.28" y="-15.4" font-family="sans-serif" font-size="14.00"> &#160;Bootstrap</text>
<polygon fill="#fdb462" stroke="transparent" points="1115.5,-10 1115.5,-30 1135.5,-30 1135.5,-10 1115.5,-10"/>
<text text-anchor="start" x="1139.17" y="-15.4" font-family="sans-serif" font-size="14.00"> &#160;Providers</text>
<polygon fill="#fb8072" stroke="transparent" points="1211.5,-10 1211.5,-30 1231.5,-30 1231.5,-10 1211.5,-10"/>
<text text-anchor="start" x="1235.23" y="-15.4" font-family="sans-serif" font-size="14.00"> &#160;Exports</text>
<g id="clust1" class="cluster">
<title>cluster_SharedModule</title>
<polygon fill="none" stroke="black" stroke-dasharray="1,5" points="8,-70 8,-268 2099,-268 2099,-70 8,-70"/>
</g>
<g id="clust17" class="cluster">
<title>cluster_SharedModule_exports</title>
<polygon fill="none" stroke="black" points="438,-208 438,-260 1641,-260 1641,-208 438,-208"/>
</g>
<g id="clust2" class="cluster">
<title>cluster_SharedModule_declarations</title>
<polygon fill="none" stroke="black" points="196,-78 196,-130 2091,-130 2091,-78 196,-78"/>
</g>
<g id="clust16" class="cluster">
<title>cluster_SharedModule_imports</title>
<polygon fill="none" stroke="black" points="16,-78 16,-130 188,-130 188,-78 16,-78"/>
</g>
<!-- AboutAppComponent -->
<g id="node1" class="node">
<title>AboutAppComponent</title>
<polygon fill="#ffffb3" stroke="black" points="2083.44,-122 1942.56,-122 1942.56,-86 2083.44,-86 2083.44,-122"/>
<text text-anchor="middle" x="2013" y="-99.8" font-family="Times,serif" font-size="14.00">AboutAppComponent</text>
</g>
<!-- SharedModule -->
<g id="node14" class="node">
<title>SharedModule</title>
<polygon fill="#8dd3c7" stroke="black" points="1091.42,-187 1088.42,-191 1067.42,-191 1064.42,-187 992.58,-187 992.58,-151 1091.42,-151 1091.42,-187"/>
<text text-anchor="middle" x="1042" y="-164.8" font-family="Times,serif" font-size="14.00">SharedModule</text>
</g>
<!-- AboutAppComponent&#45;&gt;SharedModule -->
<g id="edge1" class="edge">
<title>AboutAppComponent&#45;&gt;SharedModule</title>
<path fill="none" stroke="black" d="M2013,-122.13C2013,-142.57 2013,-173 2013,-173 2013,-173 1101.49,-173 1101.49,-173"/>
<polygon fill="black" stroke="black" points="1101.49,-169.5 1091.49,-173 1101.49,-176.5 1101.49,-169.5"/>
</g>
<!-- FooterComponent -->
<g id="node2" class="node">
<title>FooterComponent</title>
<polygon fill="#ffffb3" stroke="black" points="1924.88,-122 1807.12,-122 1807.12,-86 1924.88,-86 1924.88,-122"/>
<text text-anchor="middle" x="1866" y="-99.8" font-family="Times,serif" font-size="14.00">FooterComponent</text>
</g>
<!-- FooterComponent&#45;&gt;SharedModule -->
<g id="edge2" class="edge">
<title>FooterComponent&#45;&gt;SharedModule</title>
<path fill="none" stroke="black" d="M1866,-122.11C1866,-141.34 1866,-169 1866,-169 1866,-169 1101.38,-169 1101.38,-169"/>
<polygon fill="black" stroke="black" points="1101.38,-165.5 1091.38,-169 1101.38,-172.5 1101.38,-165.5"/>
</g>
<!-- ForgotPasswordComponent -->
<g id="node3" class="node">
<title>ForgotPasswordComponent</title>
<polygon fill="#ffffb3" stroke="black" points="1789.32,-122 1616.68,-122 1616.68,-86 1789.32,-86 1789.32,-122"/>
<text text-anchor="middle" x="1703" y="-99.8" font-family="Times,serif" font-size="14.00">ForgotPasswordComponent</text>
</g>
<!-- ForgotPasswordComponent&#45;&gt;SharedModule -->
<g id="edge3" class="edge">
<title>ForgotPasswordComponent&#45;&gt;SharedModule</title>
<path fill="none" stroke="black" d="M1624.9,-122.27C1624.9,-140.56 1624.9,-166 1624.9,-166 1624.9,-166 1101.45,-166 1101.45,-166"/>
<polygon fill="black" stroke="black" points="1101.45,-162.5 1091.45,-166 1101.45,-169.5 1101.45,-162.5"/>
</g>
<!-- LocationComponent -->
<g id="node4" class="node">
<title>LocationComponent</title>
<polygon fill="#ffffb3" stroke="black" points="1598.6,-122 1467.4,-122 1467.4,-86 1598.6,-86 1598.6,-122"/>
<text text-anchor="middle" x="1533" y="-99.8" font-family="Times,serif" font-size="14.00">LocationComponent</text>
</g>
<!-- LocationComponent&#45;&gt;SharedModule -->
<g id="edge4" class="edge">
<title>LocationComponent&#45;&gt;SharedModule</title>
<path fill="none" stroke="black" d="M1479.86,-122.03C1479.86,-139.06 1479.86,-162 1479.86,-162 1479.86,-162 1101.38,-162 1101.38,-162"/>
<polygon fill="black" stroke="black" points="1101.38,-158.5 1091.38,-162 1101.38,-165.5 1101.38,-158.5"/>
</g>
<!-- LoginComponent -->
<g id="node5" class="node">
<title>LoginComponent</title>
<polygon fill="#ffffb3" stroke="black" points="1449.28,-122 1334.72,-122 1334.72,-86 1449.28,-86 1449.28,-122"/>
<text text-anchor="middle" x="1392" y="-99.8" font-family="Times,serif" font-size="14.00">LoginComponent</text>
</g>
<!-- LoginComponent&#45;&gt;SharedModule -->
<g id="edge5" class="edge">
<title>LoginComponent&#45;&gt;SharedModule</title>
<path fill="none" stroke="black" d="M1341.96,-122.01C1341.96,-138.05 1341.96,-159 1341.96,-159 1341.96,-159 1101.53,-159 1101.53,-159"/>
<polygon fill="black" stroke="black" points="1101.53,-155.5 1091.53,-159 1101.53,-162.5 1101.53,-155.5"/>
</g>
<!-- MapComponent -->
<g id="node6" class="node">
<title>MapComponent</title>
<polygon fill="#ffffb3" stroke="black" points="1316.49,-122 1209.51,-122 1209.51,-86 1316.49,-86 1316.49,-122"/>
<text text-anchor="middle" x="1263" y="-99.8" font-family="Times,serif" font-size="14.00">MapComponent</text>
</g>
<!-- MapComponent&#45;&gt;SharedModule -->
<g id="edge6" class="edge">
<title>MapComponent&#45;&gt;SharedModule</title>
<path fill="none" stroke="black" d="M1263,-122.12C1263,-136.78 1263,-155 1263,-155 1263,-155 1101.32,-155 1101.32,-155"/>
<polygon fill="black" stroke="black" points="1101.32,-151.5 1091.32,-155 1101.32,-158.5 1101.32,-151.5"/>
</g>
<!-- PhoneAuthComponent -->
<g id="node7" class="node">
<title>PhoneAuthComponent</title>
<polygon fill="#ffffb3" stroke="black" points="1191.33,-122 1046.67,-122 1046.67,-86 1191.33,-86 1191.33,-122"/>
<text text-anchor="middle" x="1119" y="-99.8" font-family="Times,serif" font-size="14.00">PhoneAuthComponent</text>
</g>
<!-- PhoneAuthComponent&#45;&gt;SharedModule -->
<g id="edge7" class="edge">
<title>PhoneAuthComponent&#45;&gt;SharedModule</title>
<path fill="none" stroke="black" d="M1069.02,-122.11C1069.02,-122.11 1069.02,-140.99 1069.02,-140.99"/>
<polygon fill="black" stroke="black" points="1065.52,-140.99 1069.02,-150.99 1072.52,-140.99 1065.52,-140.99"/>
</g>
<!-- PopoverComponent -->
<g id="node8" class="node">
<title>PopoverComponent</title>
<polygon fill="#ffffb3" stroke="black" points="1028.99,-122 901.01,-122 901.01,-86 1028.99,-86 1028.99,-122"/>
<text text-anchor="middle" x="965" y="-99.8" font-family="Times,serif" font-size="14.00">PopoverComponent</text>
</g>
<!-- PopoverComponent&#45;&gt;SharedModule -->
<g id="edge8" class="edge">
<title>PopoverComponent&#45;&gt;SharedModule</title>
<path fill="none" stroke="black" d="M1010.89,-122.11C1010.89,-122.11 1010.89,-140.99 1010.89,-140.99"/>
<polygon fill="black" stroke="black" points="1007.39,-140.99 1010.89,-150.99 1014.39,-140.99 1007.39,-140.99"/>
</g>
<!-- PrivacyComponent -->
<g id="node9" class="node">
<title>PrivacyComponent</title>
<polygon fill="#ffffb3" stroke="black" points="883.1,-122 758.9,-122 758.9,-86 883.1,-86 883.1,-122"/>
<text text-anchor="middle" x="821" y="-99.8" font-family="Times,serif" font-size="14.00">PrivacyComponent</text>
</g>
<!-- PrivacyComponent&#45;&gt;SharedModule -->
<g id="edge9" class="edge">
<title>PrivacyComponent&#45;&gt;SharedModule</title>
<path fill="none" stroke="black" d="M841.68,-122.12C841.68,-136.78 841.68,-155 841.68,-155 841.68,-155 982.74,-155 982.74,-155"/>
<polygon fill="black" stroke="black" points="982.74,-158.5 992.74,-155 982.74,-151.5 982.74,-158.5"/>
</g>
<!-- RatingsComponent -->
<g id="node10" class="node">
<title>RatingsComponent</title>
<polygon fill="#ffffb3" stroke="black" points="741.11,-122 616.89,-122 616.89,-86 741.11,-86 741.11,-122"/>
<text text-anchor="middle" x="679" y="-99.8" font-family="Times,serif" font-size="14.00">RatingsComponent</text>
</g>
<!-- RatingsComponent&#45;&gt;SharedModule -->
<g id="edge10" class="edge">
<title>RatingsComponent&#45;&gt;SharedModule</title>
<path fill="none" stroke="black" d="M734.16,-122.01C734.16,-138.05 734.16,-159 734.16,-159 734.16,-159 982.54,-159 982.54,-159"/>
<polygon fill="black" stroke="black" points="982.54,-162.5 992.54,-159 982.54,-155.5 982.54,-162.5"/>
</g>
<!-- SignupComponent -->
<g id="node11" class="node">
<title>SignupComponent</title>
<polygon fill="#ffffb3" stroke="black" points="598.51,-122 477.49,-122 477.49,-86 598.51,-86 598.51,-122"/>
<text text-anchor="middle" x="538" y="-99.8" font-family="Times,serif" font-size="14.00">SignupComponent</text>
</g>
<!-- SignupComponent&#45;&gt;SharedModule -->
<g id="edge11" class="edge">
<title>SignupComponent&#45;&gt;SharedModule</title>
<path fill="none" stroke="black" d="M593.6,-122.03C593.6,-139.06 593.6,-162 593.6,-162 593.6,-162 982.73,-162 982.73,-162"/>
<polygon fill="black" stroke="black" points="982.73,-165.5 992.73,-162 982.73,-158.5 982.73,-165.5"/>
</g>
<!-- TermsComponent -->
<g id="node12" class="node">
<title>TermsComponent</title>
<polygon fill="#ffffb3" stroke="black" points="459.6,-122 342.4,-122 342.4,-86 459.6,-86 459.6,-122"/>
<text text-anchor="middle" x="401" y="-99.8" font-family="Times,serif" font-size="14.00">TermsComponent</text>
</g>
<!-- TermsComponent&#45;&gt;SharedModule -->
<g id="edge12" class="edge">
<title>TermsComponent&#45;&gt;SharedModule</title>
<path fill="none" stroke="black" d="M452.65,-122.27C452.65,-140.56 452.65,-166 452.65,-166 452.65,-166 982.77,-166 982.77,-166"/>
<polygon fill="black" stroke="black" points="982.77,-169.5 992.77,-166 982.77,-162.5 982.77,-169.5"/>
</g>
<!-- ToggleComponent -->
<g id="node13" class="node">
<title>ToggleComponent</title>
<polygon fill="#ffffb3" stroke="black" points="324.49,-122 203.51,-122 203.51,-86 324.49,-86 324.49,-122"/>
<text text-anchor="middle" x="264" y="-99.8" font-family="Times,serif" font-size="14.00">ToggleComponent</text>
</g>
<!-- ToggleComponent&#45;&gt;SharedModule -->
<g id="edge13" class="edge">
<title>ToggleComponent&#45;&gt;SharedModule</title>
<path fill="none" stroke="black" d="M264,-122.11C264,-141.34 264,-169 264,-169 264,-169 982.74,-169 982.74,-169"/>
<polygon fill="black" stroke="black" points="982.74,-172.5 992.74,-169 982.74,-165.5 982.74,-172.5"/>
</g>
<!-- AboutAppComponent  -->
<g id="node16" class="node">
<title>AboutAppComponent </title>
<polygon fill="#fb8072" stroke="black" points="1632.94,-252 1489.06,-252 1489.06,-216 1632.94,-216 1632.94,-252"/>
<text text-anchor="middle" x="1561" y="-229.8" font-family="Times,serif" font-size="14.00">AboutAppComponent </text>
</g>
<!-- SharedModule&#45;&gt;AboutAppComponent  -->
<g id="edge15" class="edge">
<title>SharedModule&#45;&gt;AboutAppComponent </title>
<path fill="none" stroke="black" stroke-dasharray="5,2" d="M1091.49,-177C1218.08,-177 1543.79,-177 1543.79,-177 1543.79,-177 1543.79,-205.96 1543.79,-205.96"/>
<polygon fill="black" stroke="black" points="1540.29,-205.96 1543.79,-215.96 1547.29,-205.96 1540.29,-205.96"/>
</g>
<!-- FooterComponent  -->
<g id="node17" class="node">
<title>FooterComponent </title>
<polygon fill="#fb8072" stroke="black" points="1470.88,-252 1349.12,-252 1349.12,-216 1470.88,-216 1470.88,-252"/>
<text text-anchor="middle" x="1410" y="-229.8" font-family="Times,serif" font-size="14.00">FooterComponent </text>
</g>
<!-- SharedModule&#45;&gt;FooterComponent  -->
<g id="edge16" class="edge">
<title>SharedModule&#45;&gt;FooterComponent </title>
<path fill="none" stroke="black" stroke-dasharray="5,2" d="M1091.31,-180C1189.34,-180 1399.35,-180 1399.35,-180 1399.35,-180 1399.35,-205.72 1399.35,-205.72"/>
<polygon fill="black" stroke="black" points="1395.85,-205.72 1399.35,-215.72 1402.85,-205.72 1395.85,-205.72"/>
</g>
<!-- LocationComponent  -->
<g id="node18" class="node">
<title>LocationComponent </title>
<polygon fill="#fb8072" stroke="black" points="1331.1,-252 1196.9,-252 1196.9,-216 1331.1,-216 1331.1,-252"/>
<text text-anchor="middle" x="1264" y="-229.8" font-family="Times,serif" font-size="14.00">LocationComponent </text>
</g>
<!-- SharedModule&#45;&gt;LocationComponent  -->
<g id="edge17" class="edge">
<title>SharedModule&#45;&gt;LocationComponent </title>
<path fill="none" stroke="black" stroke-dasharray="5,2" d="M1091.21,-184C1138.59,-184 1203.1,-184 1203.1,-184 1203.1,-184 1203.1,-205.95 1203.1,-205.95"/>
<polygon fill="black" stroke="black" points="1199.6,-205.95 1203.1,-215.95 1206.6,-205.95 1199.6,-205.95"/>
</g>
<!-- PrivacyComponent  -->
<g id="node19" class="node">
<title>PrivacyComponent </title>
<polygon fill="#fb8072" stroke="black" points="1178.6,-252 1051.4,-252 1051.4,-216 1178.6,-216 1178.6,-252"/>
<text text-anchor="middle" x="1115" y="-229.8" font-family="Times,serif" font-size="14.00">PrivacyComponent </text>
</g>
<!-- SharedModule&#45;&gt;PrivacyComponent  -->
<g id="edge18" class="edge">
<title>SharedModule&#45;&gt;PrivacyComponent </title>
<path fill="none" stroke="black" stroke-dasharray="5,2" d="M1071.21,-187.11C1071.21,-187.11 1071.21,-205.99 1071.21,-205.99"/>
<polygon fill="black" stroke="black" points="1067.71,-205.99 1071.21,-215.99 1074.71,-205.99 1067.71,-205.99"/>
</g>
<!-- RatingsComponent  -->
<g id="node20" class="node">
<title>RatingsComponent </title>
<polygon fill="#fb8072" stroke="black" points="1032.61,-252 905.39,-252 905.39,-216 1032.61,-216 1032.61,-252"/>
<text text-anchor="middle" x="969" y="-229.8" font-family="Times,serif" font-size="14.00">RatingsComponent </text>
</g>
<!-- SharedModule&#45;&gt;RatingsComponent  -->
<g id="edge19" class="edge">
<title>SharedModule&#45;&gt;RatingsComponent </title>
<path fill="none" stroke="black" stroke-dasharray="5,2" d="M1012.8,-187.11C1012.8,-187.11 1012.8,-205.99 1012.8,-205.99"/>
<polygon fill="black" stroke="black" points="1009.3,-205.99 1012.8,-215.99 1016.3,-205.99 1009.3,-205.99"/>
</g>
<!-- SharedDirectivesModule  -->
<g id="node21" class="node">
<title>SharedDirectivesModule </title>
<polygon fill="#fb8072" stroke="black" points="886.95,-252 727.05,-252 727.05,-216 886.95,-216 886.95,-252"/>
<text text-anchor="middle" x="807" y="-229.8" font-family="Times,serif" font-size="14.00">SharedDirectivesModule </text>
</g>
<!-- SharedModule&#45;&gt;SharedDirectivesModule  -->
<g id="edge20" class="edge">
<title>SharedModule&#45;&gt;SharedDirectivesModule </title>
<path fill="none" stroke="black" stroke-dasharray="5,2" d="M992.51,-184C921.8,-184 800.32,-184 800.32,-184 800.32,-184 800.32,-205.95 800.32,-205.95"/>
<polygon fill="black" stroke="black" points="796.82,-205.95 800.32,-215.95 803.82,-205.95 796.82,-205.95"/>
</g>
<!-- TermsComponent  -->
<g id="node22" class="node">
<title>TermsComponent </title>
<polygon fill="#fb8072" stroke="black" points="709.1,-252 588.9,-252 588.9,-216 709.1,-216 709.1,-252"/>
<text text-anchor="middle" x="649" y="-229.8" font-family="Times,serif" font-size="14.00">TermsComponent </text>
</g>
<!-- SharedModule&#45;&gt;TermsComponent  -->
<g id="edge21" class="edge">
<title>SharedModule&#45;&gt;TermsComponent </title>
<path fill="none" stroke="black" stroke-dasharray="5,2" d="M992.47,-180C889.77,-180 663.12,-180 663.12,-180 663.12,-180 663.12,-205.72 663.12,-205.72"/>
<polygon fill="black" stroke="black" points="659.62,-205.72 663.12,-215.72 666.62,-205.72 659.62,-205.72"/>
</g>
<!-- ToggleComponent  -->
<g id="node23" class="node">
<title>ToggleComponent </title>
<polygon fill="#fb8072" stroke="black" points="570.49,-252 445.51,-252 445.51,-216 570.49,-216 570.49,-252"/>
<text text-anchor="middle" x="508" y="-229.8" font-family="Times,serif" font-size="14.00">ToggleComponent </text>
</g>
<!-- SharedModule&#45;&gt;ToggleComponent  -->
<g id="edge22" class="edge">
<title>SharedModule&#45;&gt;ToggleComponent </title>
<path fill="none" stroke="black" stroke-dasharray="5,2" d="M992.79,-177C863.45,-177 523.87,-177 523.87,-177 523.87,-177 523.87,-205.96 523.87,-205.96"/>
<polygon fill="black" stroke="black" points="520.37,-205.96 523.87,-215.96 527.37,-205.96 520.37,-205.96"/>
</g>
<!-- SharedDirectivesModule -->
<g id="node15" class="node">
<title>SharedDirectivesModule</title>
<polygon fill="#8dd3c7" stroke="black" points="179.95,-122 176.95,-126 155.95,-126 152.95,-122 24.05,-122 24.05,-86 179.95,-86 179.95,-122"/>
<text text-anchor="middle" x="102" y="-99.8" font-family="Times,serif" font-size="14.00">SharedDirectivesModule</text>
</g>
<!-- SharedDirectivesModule&#45;&gt;SharedModule -->
<g id="edge14" class="edge">
<title>SharedDirectivesModule&#45;&gt;SharedModule</title>
<path fill="none" stroke="black" d="M102,-122.13C102,-142.57 102,-173 102,-173 102,-173 982.79,-173 982.79,-173"/>
<polygon fill="black" stroke="black" points="982.79,-176.5 992.79,-173 982.78,-169.5 982.79,-176.5"/>
</g>
</g>
</svg>
