<?xml version="1.0" encoding="UTF-8" standalone="no"?>
<!DOCTYPE svg PUBLIC "-//W3C//DTD SVG 1.1//EN"
 "http://www.w3.org/Graphics/SVG/1.1/DTD/svg11.dtd">
<!-- Generated by graphviz version 2.47.0 (20210316.0004)
 -->
<!-- Title: dependencies Pages: 1 -->
<svg width="504pt" height="211pt"
 viewBox="0.00 0.00 504.00 211.00" xmlns="http://www.w3.org/2000/svg" xmlns:xlink="http://www.w3.org/1999/xlink">
<g id="graph0" class="graph" transform="scale(1 1) rotate(0) translate(4 207)">
<title>dependencies</title>
<polygon fill="white" stroke="transparent" points="-4,4 -4,-207 500,-207 500,4 -4,4"/>
<text text-anchor="start" x="227.01" y="-42.4" font-family="sans-serif" font-weight="bold" font-size="14.00">Legend</text>
<polygon fill="#ffffb3" stroke="transparent" points="14,-10 14,-30 34,-30 34,-10 14,-10"/>
<text text-anchor="start" x="37.63" y="-15.4" font-family="sans-serif" font-size="14.00"> &#160;Declarations</text>
<polygon fill="#8dd3c7" stroke="transparent" points="127,-10 127,-30 147,-30 147,-10 127,-10"/>
<text text-anchor="start" x="150.73" y="-15.4" font-family="sans-serif" font-size="14.00"> &#160;Module</text>
<polygon fill="#80b1d3" stroke="transparent" points="213,-10 213,-30 233,-30 233,-10 213,-10"/>
<text text-anchor="start" x="236.78" y="-15.4" font-family="sans-serif" font-size="14.00"> &#160;Bootstrap</text>
<polygon fill="#fdb462" stroke="transparent" points="310,-10 310,-30 330,-30 330,-10 310,-10"/>
<text text-anchor="start" x="333.67" y="-15.4" font-family="sans-serif" font-size="14.00"> &#160;Providers</text>
<polygon fill="#fb8072" stroke="transparent" points="406,-10 406,-30 426,-30 426,-10 406,-10"/>
<text text-anchor="start" x="429.73" y="-15.4" font-family="sans-serif" font-size="14.00"> &#160;Exports</text>
<g id="clust1" class="cluster">
<title>cluster_ContactPageModule</title>
<polygon fill="none" stroke="black" stroke-dasharray="1,5" points="31,-70 31,-195 465,-195 465,-70 31,-70"/>
</g>
<g id="clust4" class="cluster">
<title>cluster_ContactPageModule_imports</title>
<polygon fill="none" stroke="black" points="149,-78 149,-130 457,-130 457,-78 149,-78"/>
</g>
<g id="clust2" class="cluster">
<title>cluster_ContactPageModule_declarations</title>
<polygon fill="none" stroke="black" points="39,-78 39,-130 141,-130 141,-78 39,-78"/>
</g>
<!-- ContactPage -->
<g id="node1" class="node">
<title>ContactPage</title>
<polygon fill="#ffffb3" stroke="black" points="133.26,-122 46.74,-122 46.74,-86 133.26,-86 133.26,-122"/>
<text text-anchor="middle" x="90" y="-99.8" font-family="Times,serif" font-size="14.00">ContactPage</text>
</g>
<!-- ContactPageModule -->
<g id="node2" class="node">
<title>ContactPageModule</title>
<polygon fill="#8dd3c7" stroke="black" points="271.31,-187 268.31,-191 247.31,-191 244.31,-187 140.69,-187 140.69,-151 271.31,-151 271.31,-187"/>
<text text-anchor="middle" x="206" y="-164.8" font-family="Times,serif" font-size="14.00">ContactPageModule</text>
</g>
<!-- ContactPage&#45;&gt;ContactPageModule -->
<g id="edge1" class="edge">
<title>ContactPage&#45;&gt;ContactPageModule</title>
<path fill="none" stroke="black" d="M133.36,-104C142.18,-104 148.82,-104 148.82,-104 148.82,-104 148.82,-140.89 148.82,-140.89"/>
<polygon fill="black" stroke="black" points="145.32,-140.89 148.82,-150.89 152.32,-140.89 145.32,-140.89"/>
</g>
<!-- ContactPageRoutingModule -->
<g id="node3" class="node">
<title>ContactPageRoutingModule</title>
<polygon fill="#8dd3c7" stroke="black" points="448.93,-122 445.93,-126 424.93,-126 421.93,-122 273.07,-122 273.07,-86 448.93,-86 448.93,-122"/>
<text text-anchor="middle" x="361" y="-99.8" font-family="Times,serif" font-size="14.00">ContactPageRoutingModule</text>
</g>
<!-- ContactPageRoutingModule&#45;&gt;ContactPageModule -->
<g id="edge2" class="edge">
<title>ContactPageRoutingModule&#45;&gt;ContactPageModule</title>
<path fill="none" stroke="black" d="M273.28,-104C267.06,-104 263.18,-104 263.18,-104 263.18,-104 263.18,-140.89 263.18,-140.89"/>
<polygon fill="black" stroke="black" points="259.68,-140.89 263.18,-150.89 266.68,-140.89 259.68,-140.89"/>
</g>
<!-- SharedModule -->
<g id="node4" class="node">
<title>SharedModule</title>
<polygon fill="#8dd3c7" stroke="black" points="255.42,-122 252.42,-126 231.42,-126 228.42,-122 156.58,-122 156.58,-86 255.42,-86 255.42,-122"/>
<text text-anchor="middle" x="206" y="-99.8" font-family="Times,serif" font-size="14.00">SharedModule</text>
</g>
<!-- SharedModule&#45;&gt;ContactPageModule -->
<g id="edge3" class="edge">
<title>SharedModule&#45;&gt;ContactPageModule</title>
<path fill="none" stroke="black" d="M206,-122.11C206,-122.11 206,-140.99 206,-140.99"/>
<polygon fill="black" stroke="black" points="202.5,-140.99 206,-150.99 209.5,-140.99 202.5,-140.99"/>
</g>
</g>
</svg>
