<?xml version="1.0" encoding="UTF-8" standalone="no"?>
<!DOCTYPE svg PUBLIC "-//W3C//DTD SVG 1.1//EN"
 "http://www.w3.org/Graphics/SVG/1.1/DTD/svg11.dtd">
<!-- Generated by graphviz version 2.47.0 (20210316.0004)
 -->
<!-- Title: dependencies Pages: 1 -->
<svg width="504pt" height="211pt"
 viewBox="0.00 0.00 504.00 211.00" xmlns="http://www.w3.org/2000/svg" xmlns:xlink="http://www.w3.org/1999/xlink">
<g id="graph0" class="graph" transform="scale(1 1) rotate(0) translate(4 207)">
<title>dependencies</title>
<polygon fill="white" stroke="transparent" points="-4,4 -4,-207 500,-207 500,4 -4,4"/>
<text text-anchor="start" x="227.01" y="-42.4" font-family="sans-serif" font-weight="bold" font-size="14.00">Legend</text>
<polygon fill="#ffffb3" stroke="transparent" points="14,-10 14,-30 34,-30 34,-10 14,-10"/>
<text text-anchor="start" x="37.63" y="-15.4" font-family="sans-serif" font-size="14.00"> &#160;Declarations</text>
<polygon fill="#8dd3c7" stroke="transparent" points="127,-10 127,-30 147,-30 147,-10 127,-10"/>
<text text-anchor="start" x="150.73" y="-15.4" font-family="sans-serif" font-size="14.00"> &#160;Module</text>
<polygon fill="#80b1d3" stroke="transparent" points="213,-10 213,-30 233,-30 233,-10 213,-10"/>
<text text-anchor="start" x="236.78" y="-15.4" font-family="sans-serif" font-size="14.00"> &#160;Bootstrap</text>
<polygon fill="#fdb462" stroke="transparent" points="310,-10 310,-30 330,-30 330,-10 310,-10"/>
<text text-anchor="start" x="333.67" y="-15.4" font-family="sans-serif" font-size="14.00"> &#160;Providers</text>
<polygon fill="#fb8072" stroke="transparent" points="406,-10 406,-30 426,-30 426,-10 406,-10"/>
<text text-anchor="start" x="429.73" y="-15.4" font-family="sans-serif" font-size="14.00"> &#160;Exports</text>
<g id="clust1" class="cluster">
<title>cluster_ContactPageModule</title>
<polygon fill="none" stroke="black" stroke-dasharray="1,5" points="31,-70 31,-195 465,-195 465,-70 31,-70"/>
</g>
<g id="clust2" class="cluster">
<title>cluster_ContactPageModule_declarations</title>
<polygon fill="none" stroke="black" points="355,-78 355,-130 457,-130 457,-78 355,-78"/>
</g>
<g id="clust4" class="cluster">
<title>cluster_ContactPageModule_imports</title>
<polygon fill="none" stroke="black" points="39,-78 39,-130 347,-130 347,-78 39,-78"/>
</g>
<!-- ContactPage -->
<g id="node1" class="node">
<title>ContactPage</title>
<polygon fill="#ffffb3" stroke="black" points="449.26,-122 362.74,-122 362.74,-86 449.26,-86 449.26,-122"/>
<text text-anchor="middle" x="406" y="-99.8" font-family="Times,serif" font-size="14.00">ContactPage</text>
</g>
<!-- ContactPageModule -->
<g id="node2" class="node">
<title>ContactPageModule</title>
<polygon fill="#8dd3c7" stroke="black" points="316.31,-187 313.31,-191 292.31,-191 289.31,-187 185.69,-187 185.69,-151 316.31,-151 316.31,-187"/>
<text text-anchor="middle" x="251" y="-164.8" font-family="Times,serif" font-size="14.00">ContactPageModule</text>
</g>
<!-- ContactPage&#45;&gt;ContactPageModule -->
<g id="edge1" class="edge">
<title>ContactPage&#45;&gt;ContactPageModule</title>
<path fill="none" stroke="black" d="M406,-122.11C406,-141.34 406,-169 406,-169 406,-169 326.28,-169 326.28,-169"/>
<polygon fill="black" stroke="black" points="326.28,-165.5 316.28,-169 326.28,-172.5 326.28,-165.5"/>
</g>
<!-- ContactPageRoutingModule -->
<g id="node3" class="node">
<title>ContactPageRoutingModule</title>
<polygon fill="#8dd3c7" stroke="black" points="338.93,-122 335.93,-126 314.93,-126 311.93,-122 163.07,-122 163.07,-86 338.93,-86 338.93,-122"/>
<text text-anchor="middle" x="251" y="-99.8" font-family="Times,serif" font-size="14.00">ContactPageRoutingModule</text>
</g>
<!-- ContactPageRoutingModule&#45;&gt;ContactPageModule -->
<g id="edge2" class="edge">
<title>ContactPageRoutingModule&#45;&gt;ContactPageModule</title>
<path fill="none" stroke="black" d="M251,-122.11C251,-122.11 251,-140.99 251,-140.99"/>
<polygon fill="black" stroke="black" points="247.5,-140.99 251,-150.99 254.5,-140.99 247.5,-140.99"/>
</g>
<!-- SharedModule -->
<g id="node4" class="node">
<title>SharedModule</title>
<polygon fill="#8dd3c7" stroke="black" points="145.42,-122 142.42,-126 121.42,-126 118.42,-122 46.58,-122 46.58,-86 145.42,-86 145.42,-122"/>
<text text-anchor="middle" x="96" y="-99.8" font-family="Times,serif" font-size="14.00">SharedModule</text>
</g>
<!-- SharedModule&#45;&gt;ContactPageModule -->
<g id="edge3" class="edge">
<title>SharedModule&#45;&gt;ContactPageModule</title>
<path fill="none" stroke="black" d="M96,-122.11C96,-141.34 96,-169 96,-169 96,-169 175.72,-169 175.72,-169"/>
<polygon fill="black" stroke="black" points="175.72,-172.5 185.72,-169 175.72,-165.5 175.72,-172.5"/>
</g>
</g>
</svg>
