<?xml version="1.0" encoding="UTF-8" standalone="no"?>
<!DOCTYPE svg PUBLIC "-//W3C//DTD SVG 1.1//EN"
 "http://www.w3.org/Graphics/SVG/1.1/DTD/svg11.dtd">
<!-- Generated by graphviz version 2.44.1 (20200629.0846)
 -->
<!-- Title: dependencies Pages: 1 -->
<svg width="1211pt" height="211pt"
 viewBox="0.00 0.00 1211.00 211.00" xmlns="http://www.w3.org/2000/svg" xmlns:xlink="http://www.w3.org/1999/xlink">
<g id="graph0" class="graph" transform="scale(1 1) rotate(0) translate(4 207)">
<title>dependencies</title>
<polygon fill="white" stroke="transparent" points="-4,4 -4,-207 1207,-207 1207,4 -4,4"/>
<text text-anchor="start" x="580.51" y="-42.4" font-family="sans-serif" font-weight="bold" font-size="14.00">Legend</text>
<polygon fill="#ffffb3" stroke="transparent" points="367.5,-10 367.5,-30 387.5,-30 387.5,-10 367.5,-10"/>
<text text-anchor="start" x="391.13" y="-15.4" font-family="sans-serif" font-size="14.00"> &#160;Declarations</text>
<polygon fill="#8dd3c7" stroke="transparent" points="480.5,-10 480.5,-30 500.5,-30 500.5,-10 480.5,-10"/>
<text text-anchor="start" x="504.23" y="-15.4" font-family="sans-serif" font-size="14.00"> &#160;Module</text>
<polygon fill="#80b1d3" stroke="transparent" points="566.5,-10 566.5,-30 586.5,-30 586.5,-10 566.5,-10"/>
<text text-anchor="start" x="590.28" y="-15.4" font-family="sans-serif" font-size="14.00"> &#160;Bootstrap</text>
<polygon fill="#fdb462" stroke="transparent" points="663.5,-10 663.5,-30 683.5,-30 683.5,-10 663.5,-10"/>
<text text-anchor="start" x="687.17" y="-15.4" font-family="sans-serif" font-size="14.00"> &#160;Providers</text>
<polygon fill="#fb8072" stroke="transparent" points="759.5,-10 759.5,-30 779.5,-30 779.5,-10 759.5,-10"/>
<text text-anchor="start" x="783.23" y="-15.4" font-family="sans-serif" font-size="14.00"> &#160;Exports</text>
<g id="clust1" class="cluster">
<title>cluster_AdminDashboardPageModule</title>
<polygon fill="none" stroke="black" stroke-dasharray="1,5" points="8,-70 8,-195 1195,-195 1195,-70 8,-70"/>
</g>
<g id="clust2" class="cluster">
<title>cluster_AdminDashboardPageModule_declarations</title>
<polygon fill="none" stroke="black" points="388,-78 388,-130 1187,-130 1187,-78 388,-78"/>
</g>
<g id="clust8" class="cluster">
<title>cluster_AdminDashboardPageModule_imports</title>
<polygon fill="none" stroke="black" points="16,-78 16,-130 380,-130 380,-78 16,-78"/>
</g>
<!-- AdminDashboardPage -->
<g id="node1" class="node">
<title>AdminDashboardPage</title>
<polygon fill="#ffffb3" stroke="black" points="1179.24,-122 1036.76,-122 1036.76,-86 1179.24,-86 1179.24,-122"/>
<text text-anchor="middle" x="1108" y="-99.8" font-family="Times,serif" font-size="14.00">AdminDashboardPage</text>
</g>
<!-- AdminDashboardPageModule -->
<g id="node6" class="node">
<title>AdminDashboardPageModule</title>
<polygon fill="#8dd3c7" stroke="black" points="710.29,-187 707.29,-191 686.29,-191 683.29,-187 523.71,-187 523.71,-151 710.29,-151 710.29,-187"/>
<text text-anchor="middle" x="617" y="-164.8" font-family="Times,serif" font-size="14.00">AdminDashboardPageModule</text>
</g>
<!-- AdminDashboardPage&#45;&gt;AdminDashboardPageModule -->
<g id="edge1" class="edge">
<title>AdminDashboardPage&#45;&gt;AdminDashboardPageModule</title>
<path fill="none" stroke="black" d="M1108,-122.28C1108,-143.32 1108,-175 1108,-175 1108,-175 720.22,-175 720.22,-175"/>
<polygon fill="black" stroke="black" points="720.22,-171.5 710.22,-175 720.22,-178.5 720.22,-171.5"/>
</g>
<!-- CreateUsersComponent -->
<g id="node2" class="node">
<title>CreateUsersComponent</title>
<polygon fill="#ffffb3" stroke="black" points="1018.74,-122 869.26,-122 869.26,-86 1018.74,-86 1018.74,-122"/>
<text text-anchor="middle" x="944" y="-99.8" font-family="Times,serif" font-size="14.00">CreateUsersComponent</text>
</g>
<!-- CreateUsersComponent&#45;&gt;AdminDashboardPageModule -->
<g id="edge2" class="edge">
<title>CreateUsersComponent&#45;&gt;AdminDashboardPageModule</title>
<path fill="none" stroke="black" d="M944,-122.02C944,-139.37 944,-163 944,-163 944,-163 720.27,-163 720.27,-163"/>
<polygon fill="black" stroke="black" points="720.27,-159.5 710.27,-163 720.27,-166.5 720.27,-159.5"/>
</g>
<!-- DetailUsersComponent -->
<g id="node3" class="node">
<title>DetailUsersComponent</title>
<polygon fill="#ffffb3" stroke="black" points="850.91,-122 703.09,-122 703.09,-86 850.91,-86 850.91,-122"/>
<text text-anchor="middle" x="777" y="-99.8" font-family="Times,serif" font-size="14.00">DetailUsersComponent</text>
</g>
<!-- DetailUsersComponent&#45;&gt;AdminDashboardPageModule -->
<g id="edge3" class="edge">
<title>DetailUsersComponent&#45;&gt;AdminDashboardPageModule</title>
<path fill="none" stroke="black" d="M703.13,-104C697.69,-104 694.28,-104 694.28,-104 694.28,-104 694.28,-140.89 694.28,-140.89"/>
<polygon fill="black" stroke="black" points="690.78,-140.89 694.28,-150.89 697.78,-140.89 690.78,-140.89"/>
</g>
<!-- EditUsersComponent -->
<g id="node4" class="node">
<title>EditUsersComponent</title>
<polygon fill="#ffffb3" stroke="black" points="685.04,-122 548.96,-122 548.96,-86 685.04,-86 685.04,-122"/>
<text text-anchor="middle" x="617" y="-99.8" font-family="Times,serif" font-size="14.00">EditUsersComponent</text>
</g>
<!-- EditUsersComponent&#45;&gt;AdminDashboardPageModule -->
<g id="edge4" class="edge">
<title>EditUsersComponent&#45;&gt;AdminDashboardPageModule</title>
<path fill="none" stroke="black" d="M617,-122.11C617,-122.11 617,-140.99 617,-140.99"/>
<polygon fill="black" stroke="black" points="613.5,-140.99 617,-150.99 620.5,-140.99 613.5,-140.99"/>
</g>
<!-- ListUsersComponent -->
<g id="node5" class="node">
<title>ListUsersComponent</title>
<polygon fill="#ffffb3" stroke="black" points="530.48,-122 395.52,-122 395.52,-86 530.48,-86 530.48,-122"/>
<text text-anchor="middle" x="463" y="-99.8" font-family="Times,serif" font-size="14.00">ListUsersComponent</text>
</g>
<!-- ListUsersComponent&#45;&gt;AdminDashboardPageModule -->
<g id="edge5" class="edge">
<title>ListUsersComponent&#45;&gt;AdminDashboardPageModule</title>
<path fill="none" stroke="black" d="M530.52,-104C536.07,-104 539.61,-104 539.61,-104 539.61,-104 539.61,-140.89 539.61,-140.89"/>
<polygon fill="black" stroke="black" points="536.11,-140.89 539.61,-150.89 543.11,-140.89 536.11,-140.89"/>
</g>
<!-- AdminDashboardPageRoutingModule -->
<g id="node7" class="node">
<title>AdminDashboardPageRoutingModule</title>
<polygon fill="#8dd3c7" stroke="black" points="371.91,-122 368.91,-126 347.91,-126 344.91,-122 140.09,-122 140.09,-86 371.91,-86 371.91,-122"/>
<text text-anchor="middle" x="256" y="-99.8" font-family="Times,serif" font-size="14.00">AdminDashboardPageRoutingModule</text>
</g>
<!-- AdminDashboardPageRoutingModule&#45;&gt;AdminDashboardPageModule -->
<g id="edge6" class="edge">
<title>AdminDashboardPageRoutingModule&#45;&gt;AdminDashboardPageModule</title>
<path fill="none" stroke="black" d="M256,-122.02C256,-139.37 256,-163 256,-163 256,-163 513.56,-163 513.56,-163"/>
<polygon fill="black" stroke="black" points="513.56,-166.5 523.56,-163 513.56,-159.5 513.56,-166.5"/>
</g>
<!-- SharedModule -->
<g id="node8" class="node">
<title>SharedModule</title>
<polygon fill="#8dd3c7" stroke="black" points="122.42,-122 119.42,-126 98.42,-126 95.42,-122 23.58,-122 23.58,-86 122.42,-86 122.42,-122"/>
<text text-anchor="middle" x="73" y="-99.8" font-family="Times,serif" font-size="14.00">SharedModule</text>
</g>
<!-- SharedModule&#45;&gt;AdminDashboardPageModule -->
<g id="edge7" class="edge">
<title>SharedModule&#45;&gt;AdminDashboardPageModule</title>
<path fill="none" stroke="black" d="M73,-122.28C73,-143.32 73,-175 73,-175 73,-175 513.79,-175 513.79,-175"/>
<polygon fill="black" stroke="black" points="513.79,-178.5 523.79,-175 513.79,-171.5 513.79,-178.5"/>
</g>
</g>
</svg>
