<?xml version="1.0" encoding="UTF-8" standalone="no"?>
<!DOCTYPE svg PUBLIC "-//W3C//DTD SVG 1.1//EN"
 "http://www.w3.org/Graphics/SVG/1.1/DTD/svg11.dtd">
<!-- Generated by graphviz version 2.47.0 (20210316.0004)
 -->
<!-- Title: dependencies Pages: 1 -->
<svg width="2633pt" height="211pt"
 viewBox="0.00 0.00 2633.00 211.00" xmlns="http://www.w3.org/2000/svg" xmlns:xlink="http://www.w3.org/1999/xlink">
<g id="graph0" class="graph" transform="scale(1 1) rotate(0) translate(4 207)">
<title>dependencies</title>
<polygon fill="white" stroke="transparent" points="-4,4 -4,-207 2629,-207 2629,4 -4,4"/>
<text text-anchor="start" x="1291.51" y="-42.4" font-family="sans-serif" font-weight="bold" font-size="14.00">Legend</text>
<polygon fill="#ffffb3" stroke="transparent" points="1078.5,-10 1078.5,-30 1098.5,-30 1098.5,-10 1078.5,-10"/>
<text text-anchor="start" x="1102.13" y="-15.4" font-family="sans-serif" font-size="14.00"> &#160;Declarations</text>
<polygon fill="#8dd3c7" stroke="transparent" points="1191.5,-10 1191.5,-30 1211.5,-30 1211.5,-10 1191.5,-10"/>
<text text-anchor="start" x="1215.23" y="-15.4" font-family="sans-serif" font-size="14.00"> &#160;Module</text>
<polygon fill="#80b1d3" stroke="transparent" points="1277.5,-10 1277.5,-30 1297.5,-30 1297.5,-10 1277.5,-10"/>
<text text-anchor="start" x="1301.28" y="-15.4" font-family="sans-serif" font-size="14.00"> &#160;Bootstrap</text>
<polygon fill="#fdb462" stroke="transparent" points="1374.5,-10 1374.5,-30 1394.5,-30 1394.5,-10 1374.5,-10"/>
<text text-anchor="start" x="1398.17" y="-15.4" font-family="sans-serif" font-size="14.00"> &#160;Providers</text>
<polygon fill="#fb8072" stroke="transparent" points="1470.5,-10 1470.5,-30 1490.5,-30 1490.5,-10 1470.5,-10"/>
<text text-anchor="start" x="1494.23" y="-15.4" font-family="sans-serif" font-size="14.00"> &#160;Exports</text>
<g id="clust1" class="cluster">
<title>cluster_CustomerPageModule</title>
<polygon fill="none" stroke="black" stroke-dasharray="1,5" points="8,-70 8,-195 2617,-195 2617,-70 8,-70"/>
</g>
<g id="clust2" class="cluster">
<title>cluster_CustomerPageModule_declarations</title>
<polygon fill="none" stroke="black" points="839,-78 839,-130 2609,-130 2609,-78 839,-78"/>
</g>
<g id="clust14" class="cluster">
<title>cluster_CustomerPageModule_imports</title>
<polygon fill="none" stroke="black" points="16,-78 16,-130 831,-130 831,-78 16,-78"/>
</g>
<!-- CustomerPage -->
<g id="node1" class="node">
<title>CustomerPage</title>
<polygon fill="#ffffb3" stroke="black" points="2600.65,-122 2503.35,-122 2503.35,-86 2600.65,-86 2600.65,-122"/>
<text text-anchor="middle" x="2552" y="-99.8" font-family="Times,serif" font-size="14.00">CustomerPage</text>
</g>
<!-- CustomerPageModule -->
<g id="node12" class="node">
<title>CustomerPageModule</title>
<polygon fill="#8dd3c7" stroke="black" points="1326.7,-187 1323.7,-191 1302.7,-191 1299.7,-187 1185.3,-187 1185.3,-151 1326.7,-151 1326.7,-187"/>
<text text-anchor="middle" x="1256" y="-164.8" font-family="Times,serif" font-size="14.00">CustomerPageModule</text>
</g>
<!-- CustomerPage&#45;&gt;CustomerPageModule -->
<g id="edge1" class="edge">
<title>CustomerPage&#45;&gt;CustomerPageModule</title>
<path fill="none" stroke="black" d="M2552,-122.32C2552,-145.66 2552,-183 2552,-183 2552,-183 1337.06,-183 1337.06,-183"/>
<polygon fill="black" stroke="black" points="1337.06,-179.5 1327.06,-183 1337.06,-186.5 1337.06,-179.5"/>
</g>
<!-- BasicContentComponent -->
<g id="node2" class="node">
<title>BasicContentComponent</title>
<polygon fill="#ffffb3" stroke="black" points="2485.27,-122 2328.73,-122 2328.73,-86 2485.27,-86 2485.27,-122"/>
<text text-anchor="middle" x="2407" y="-99.8" font-family="Times,serif" font-size="14.00">BasicContentComponent</text>
</g>
<!-- BasicContentComponent&#45;&gt;CustomerPageModule -->
<g id="edge2" class="edge">
<title>BasicContentComponent&#45;&gt;CustomerPageModule</title>
<path fill="none" stroke="black" d="M2407,-122.29C2407,-144.21 2407,-178 2407,-178 2407,-178 1336.7,-178 1336.7,-178"/>
<polygon fill="black" stroke="black" points="1336.7,-174.5 1326.7,-178 1336.7,-181.5 1336.7,-174.5"/>
</g>
<!-- CancelServiceComponent -->
<g id="node3" class="node">
<title>CancelServiceComponent</title>
<polygon fill="#ffffb3" stroke="black" points="2311.18,-122 2148.82,-122 2148.82,-86 2311.18,-86 2311.18,-122"/>
<text text-anchor="middle" x="2230" y="-99.8" font-family="Times,serif" font-size="14.00">CancelServiceComponent</text>
</g>
<!-- CancelServiceComponent&#45;&gt;CustomerPageModule -->
<g id="edge3" class="edge">
<title>CancelServiceComponent&#45;&gt;CustomerPageModule</title>
<path fill="none" stroke="black" d="M2230,-122.03C2230,-142.77 2230,-174 2230,-174 2230,-174 1336.83,-174 1336.83,-174"/>
<polygon fill="black" stroke="black" points="1336.83,-170.5 1326.83,-174 1336.83,-177.5 1336.83,-170.5"/>
</g>
<!-- InvoicesComponent -->
<g id="node4" class="node">
<title>InvoicesComponent</title>
<polygon fill="#ffffb3" stroke="black" points="2131.26,-122 2002.74,-122 2002.74,-86 2131.26,-86 2131.26,-122"/>
<text text-anchor="middle" x="2067" y="-99.8" font-family="Times,serif" font-size="14.00">InvoicesComponent</text>
</g>
<!-- InvoicesComponent&#45;&gt;CustomerPageModule -->
<g id="edge4" class="edge">
<title>InvoicesComponent&#45;&gt;CustomerPageModule</title>
<path fill="none" stroke="black" d="M2067,-122.11C2067,-141.34 2067,-169 2067,-169 2067,-169 1336.91,-169 1336.91,-169"/>
<polygon fill="black" stroke="black" points="1336.91,-165.5 1326.91,-169 1336.91,-172.5 1336.91,-165.5"/>
</g>
<!-- NewsfeedComponent -->
<g id="node5" class="node">
<title>NewsfeedComponent</title>
<polygon fill="#ffffb3" stroke="black" points="1984.79,-122 1847.21,-122 1847.21,-86 1984.79,-86 1984.79,-122"/>
<text text-anchor="middle" x="1916" y="-99.8" font-family="Times,serif" font-size="14.00">NewsfeedComponent</text>
</g>
<!-- NewsfeedComponent&#45;&gt;CustomerPageModule -->
<g id="edge5" class="edge">
<title>NewsfeedComponent&#45;&gt;CustomerPageModule</title>
<path fill="none" stroke="black" d="M1916,-122.3C1916,-140.27 1916,-165 1916,-165 1916,-165 1336.63,-165 1336.63,-165"/>
<polygon fill="black" stroke="black" points="1336.63,-161.5 1326.63,-165 1336.63,-168.5 1336.63,-161.5"/>
</g>
<!-- NutritionComponent -->
<g id="node6" class="node">
<title>NutritionComponent</title>
<polygon fill="#ffffb3" stroke="black" points="1829.16,-122 1696.84,-122 1696.84,-86 1829.16,-86 1829.16,-122"/>
<text text-anchor="middle" x="1763" y="-99.8" font-family="Times,serif" font-size="14.00">NutritionComponent</text>
</g>
<!-- NutritionComponent&#45;&gt;CustomerPageModule -->
<g id="edge6" class="edge">
<title>NutritionComponent&#45;&gt;CustomerPageModule</title>
<path fill="none" stroke="black" d="M1763,-122.03C1763,-138.4 1763,-160 1763,-160 1763,-160 1336.76,-160 1336.76,-160"/>
<polygon fill="black" stroke="black" points="1336.76,-156.5 1326.76,-160 1336.76,-163.5 1336.76,-156.5"/>
</g>
<!-- PremiumContentComponent -->
<g id="node7" class="node">
<title>PremiumContentComponent</title>
<polygon fill="#ffffb3" stroke="black" points="1678.49,-122 1501.51,-122 1501.51,-86 1678.49,-86 1678.49,-122"/>
<text text-anchor="middle" x="1590" y="-99.8" font-family="Times,serif" font-size="14.00">PremiumContentComponent</text>
</g>
<!-- PremiumContentComponent&#45;&gt;CustomerPageModule -->
<g id="edge7" class="edge">
<title>PremiumContentComponent&#45;&gt;CustomerPageModule</title>
<path fill="none" stroke="black" d="M1590,-122.19C1590,-137.18 1590,-156 1590,-156 1590,-156 1336.83,-156 1336.83,-156"/>
<polygon fill="black" stroke="black" points="1336.83,-152.5 1326.83,-156 1336.83,-159.5 1336.83,-152.5"/>
</g>
<!-- UserTicketsComponent -->
<g id="node8" class="node">
<title>UserTicketsComponent</title>
<polygon fill="#ffffb3" stroke="black" points="1483.47,-122 1334.53,-122 1334.53,-86 1483.47,-86 1483.47,-122"/>
<text text-anchor="middle" x="1409" y="-99.8" font-family="Times,serif" font-size="14.00">UserTicketsComponent</text>
</g>
<!-- UserTicketsComponent&#45;&gt;CustomerPageModule -->
<g id="edge8" class="edge">
<title>UserTicketsComponent&#45;&gt;CustomerPageModule</title>
<path fill="none" stroke="black" d="M1334.45,-104C1326.68,-104 1321.55,-104 1321.55,-104 1321.55,-104 1321.55,-140.89 1321.55,-140.89"/>
<polygon fill="black" stroke="black" points="1318.05,-140.89 1321.55,-150.89 1325.05,-140.89 1318.05,-140.89"/>
</g>
<!-- VideosComponent -->
<g id="node9" class="node">
<title>VideosComponent</title>
<polygon fill="#ffffb3" stroke="black" points="1316.49,-122 1195.51,-122 1195.51,-86 1316.49,-86 1316.49,-122"/>
<text text-anchor="middle" x="1256" y="-99.8" font-family="Times,serif" font-size="14.00">VideosComponent</text>
</g>
<!-- VideosComponent&#45;&gt;CustomerPageModule -->
<g id="edge9" class="edge">
<title>VideosComponent&#45;&gt;CustomerPageModule</title>
<path fill="none" stroke="black" d="M1256,-122.11C1256,-122.11 1256,-140.99 1256,-140.99"/>
<polygon fill="black" stroke="black" points="1252.5,-140.99 1256,-150.99 1259.5,-140.99 1252.5,-140.99"/>
</g>
<!-- WorkoutsComponent -->
<g id="node10" class="node">
<title>WorkoutsComponent</title>
<polygon fill="#ffffb3" stroke="black" points="1177.04,-122 1040.96,-122 1040.96,-86 1177.04,-86 1177.04,-122"/>
<text text-anchor="middle" x="1109" y="-99.8" font-family="Times,serif" font-size="14.00">WorkoutsComponent</text>
</g>
<!-- WorkoutsComponent&#45;&gt;CustomerPageModule -->
<g id="edge10" class="edge">
<title>WorkoutsComponent&#45;&gt;CustomerPageModule</title>
<path fill="none" stroke="black" d="M1177.37,-104C1185.2,-104 1190.45,-104 1190.45,-104 1190.45,-104 1190.45,-140.89 1190.45,-140.89"/>
<polygon fill="black" stroke="black" points="1186.95,-140.89 1190.45,-150.89 1193.95,-140.89 1186.95,-140.89"/>
</g>
<!-- PlatinumContentComponent -->
<g id="node11" class="node">
<title>PlatinumContentComponent</title>
<polygon fill="#ffffb3" stroke="black" points="1023.22,-122 846.78,-122 846.78,-86 1023.22,-86 1023.22,-122"/>
<text text-anchor="middle" x="935" y="-99.8" font-family="Times,serif" font-size="14.00">PlatinumContentComponent</text>
</g>
<!-- PlatinumContentComponent&#45;&gt;CustomerPageModule -->
<g id="edge11" class="edge">
<title>PlatinumContentComponent&#45;&gt;CustomerPageModule</title>
<path fill="none" stroke="black" d="M935,-122.19C935,-137.18 935,-156 935,-156 935,-156 1175.16,-156 1175.16,-156"/>
<polygon fill="black" stroke="black" points="1175.16,-159.5 1185.16,-156 1175.16,-152.5 1175.16,-159.5"/>
</g>
<!-- CommonModule -->
<g id="node13" class="node">
<title>CommonModule</title>
<polygon fill="#8dd3c7" stroke="black" points="822.67,-122 819.67,-126 798.67,-126 795.67,-122 711.33,-122 711.33,-86 822.67,-86 822.67,-122"/>
<text text-anchor="middle" x="767" y="-99.8" font-family="Times,serif" font-size="14.00">CommonModule</text>
</g>
<!-- CommonModule&#45;&gt;CustomerPageModule -->
<g id="edge12" class="edge">
<title>CommonModule&#45;&gt;CustomerPageModule</title>
<path fill="none" stroke="black" d="M767,-122.03C767,-138.4 767,-160 767,-160 767,-160 1175.16,-160 1175.16,-160"/>
<polygon fill="black" stroke="black" points="1175.16,-163.5 1185.16,-160 1175.16,-156.5 1175.16,-163.5"/>
</g>
<!-- FormsModule -->
<g id="node14" class="node">
<title>FormsModule</title>
<polygon fill="#8dd3c7" stroke="black" points="693.83,-122 690.83,-126 669.83,-126 666.83,-122 598.17,-122 598.17,-86 693.83,-86 693.83,-122"/>
<text text-anchor="middle" x="646" y="-99.8" font-family="Times,serif" font-size="14.00">FormsModule</text>
</g>
<!-- FormsModule&#45;&gt;CustomerPageModule -->
<g id="edge13" class="edge">
<title>FormsModule&#45;&gt;CustomerPageModule</title>
<path fill="none" stroke="black" d="M646,-122.3C646,-140.27 646,-165 646,-165 646,-165 1175.13,-165 1175.13,-165"/>
<polygon fill="black" stroke="black" points="1175.13,-168.5 1185.13,-165 1175.13,-161.5 1175.13,-168.5"/>
</g>
<!-- IonicModule -->
<g id="node15" class="node">
<title>IonicModule</title>
<polygon fill="#8dd3c7" stroke="black" points="580.32,-122 577.32,-126 556.32,-126 553.32,-122 491.68,-122 491.68,-86 580.32,-86 580.32,-122"/>
<text text-anchor="middle" x="536" y="-99.8" font-family="Times,serif" font-size="14.00">IonicModule</text>
</g>
<!-- IonicModule&#45;&gt;CustomerPageModule -->
<g id="edge14" class="edge">
<title>IonicModule&#45;&gt;CustomerPageModule</title>
<path fill="none" stroke="black" d="M536,-122.11C536,-141.34 536,-169 536,-169 536,-169 1175.32,-169 1175.32,-169"/>
<polygon fill="black" stroke="black" points="1175.32,-172.5 1185.32,-169 1175.32,-165.5 1175.32,-172.5"/>
</g>
<!-- CustomerRoutingModule -->
<g id="node16" class="node">
<title>CustomerRoutingModule</title>
<polygon fill="#8dd3c7" stroke="black" points="473.61,-122 470.61,-126 449.61,-126 446.61,-122 314.39,-122 314.39,-86 473.61,-86 473.61,-122"/>
<text text-anchor="middle" x="394" y="-99.8" font-family="Times,serif" font-size="14.00">CustomerRoutingModule</text>
</g>
<!-- CustomerRoutingModule&#45;&gt;CustomerPageModule -->
<g id="edge15" class="edge">
<title>CustomerRoutingModule&#45;&gt;CustomerPageModule</title>
<path fill="none" stroke="black" d="M394,-122.03C394,-142.77 394,-174 394,-174 394,-174 1175.09,-174 1175.09,-174"/>
<polygon fill="black" stroke="black" points="1175.09,-177.5 1185.09,-174 1175.09,-170.5 1175.09,-177.5"/>
</g>
<!-- SharedModule -->
<g id="node17" class="node">
<title>SharedModule</title>
<polygon fill="#8dd3c7" stroke="black" points="296.42,-122 293.42,-126 272.42,-126 269.42,-122 197.58,-122 197.58,-86 296.42,-86 296.42,-122"/>
<text text-anchor="middle" x="247" y="-99.8" font-family="Times,serif" font-size="14.00">SharedModule</text>
</g>
<!-- SharedModule&#45;&gt;CustomerPageModule -->
<g id="edge16" class="edge">
<title>SharedModule&#45;&gt;CustomerPageModule</title>
<path fill="none" stroke="black" d="M247,-122.29C247,-144.21 247,-178 247,-178 247,-178 1175.05,-178 1175.05,-178"/>
<polygon fill="black" stroke="black" points="1175.05,-181.5 1185.05,-178 1175.05,-174.5 1175.05,-181.5"/>
</g>
<!-- SharedDirectivesModule -->
<g id="node18" class="node">
<title>SharedDirectivesModule</title>
<polygon fill="#8dd3c7" stroke="black" points="179.95,-122 176.95,-126 155.95,-126 152.95,-122 24.05,-122 24.05,-86 179.95,-86 179.95,-122"/>
<text text-anchor="middle" x="102" y="-99.8" font-family="Times,serif" font-size="14.00">SharedDirectivesModule</text>
</g>
<!-- SharedDirectivesModule&#45;&gt;CustomerPageModule -->
<g id="edge17" class="edge">
<title>SharedDirectivesModule&#45;&gt;CustomerPageModule</title>
<path fill="none" stroke="black" d="M102,-122.32C102,-145.66 102,-183 102,-183 102,-183 1175.12,-183 1175.12,-183"/>
<polygon fill="black" stroke="black" points="1175.12,-186.5 1185.12,-183 1175.12,-179.5 1175.12,-186.5"/>
</g>
</g>
</svg>
