<?xml version="1.0" encoding="UTF-8" standalone="no"?>
<!DOCTYPE svg PUBLIC "-//W3C//DTD SVG 1.1//EN"
 "http://www.w3.org/Graphics/SVG/1.1/DTD/svg11.dtd">
<!-- Generated by graphviz version 2.44.1 (20200629.0846)
 -->
<!-- Title: dependencies Pages: 1 -->
<svg width="606pt" height="211pt"
 viewBox="0.00 0.00 606.00 211.00" xmlns="http://www.w3.org/2000/svg" xmlns:xlink="http://www.w3.org/1999/xlink">
<g id="graph0" class="graph" transform="scale(1 1) rotate(0) translate(4 207)">
<title>dependencies</title>
<polygon fill="white" stroke="transparent" points="-4,4 -4,-207 602,-207 602,4 -4,4"/>
<text text-anchor="start" x="278.01" y="-42.4" font-family="sans-serif" font-weight="bold" font-size="14.00">Legend</text>
<polygon fill="#ffffb3" stroke="transparent" points="65,-10 65,-30 85,-30 85,-10 65,-10"/>
<text text-anchor="start" x="88.63" y="-15.4" font-family="sans-serif" font-size="14.00"> &#160;Declarations</text>
<polygon fill="#8dd3c7" stroke="transparent" points="178,-10 178,-30 198,-30 198,-10 178,-10"/>
<text text-anchor="start" x="201.73" y="-15.4" font-family="sans-serif" font-size="14.00"> &#160;Module</text>
<polygon fill="#80b1d3" stroke="transparent" points="264,-10 264,-30 284,-30 284,-10 264,-10"/>
<text text-anchor="start" x="287.78" y="-15.4" font-family="sans-serif" font-size="14.00"> &#160;Bootstrap</text>
<polygon fill="#fdb462" stroke="transparent" points="361,-10 361,-30 381,-30 381,-10 361,-10"/>
<text text-anchor="start" x="384.67" y="-15.4" font-family="sans-serif" font-size="14.00"> &#160;Providers</text>
<polygon fill="#fb8072" stroke="transparent" points="457,-10 457,-30 477,-30 477,-10 457,-10"/>
<text text-anchor="start" x="480.73" y="-15.4" font-family="sans-serif" font-size="14.00"> &#160;Exports</text>
<g id="clust1" class="cluster">
<title>cluster_EmployeeDashboardPageModule</title>
<polygon fill="none" stroke="black" stroke-dasharray="1,5" points="8,-70 8,-195 590,-195 590,-70 8,-70"/>
</g>
<g id="clust2" class="cluster">
<title>cluster_EmployeeDashboardPageModule_declarations</title>
<polygon fill="none" stroke="black" points="406,-78 406,-130 582,-130 582,-78 406,-78"/>
</g>
<g id="clust4" class="cluster">
<title>cluster_EmployeeDashboardPageModule_imports</title>
<polygon fill="none" stroke="black" points="16,-78 16,-130 398,-130 398,-78 16,-78"/>
</g>
<!-- EmployeeDashboardPage -->
<g id="node1" class="node">
<title>EmployeeDashboardPage</title>
<polygon fill="#ffffb3" stroke="black" points="574.12,-122 413.88,-122 413.88,-86 574.12,-86 574.12,-122"/>
<text text-anchor="middle" x="494" y="-99.8" font-family="Times,serif" font-size="14.00">EmployeeDashboardPage</text>
</g>
<!-- EmployeeDashboardPageModule -->
<g id="node2" class="node">
<title>EmployeeDashboardPageModule</title>
<polygon fill="#8dd3c7" stroke="black" points="367.17,-187 364.17,-191 343.17,-191 340.17,-187 162.83,-187 162.83,-151 367.17,-151 367.17,-187"/>
<text text-anchor="middle" x="265" y="-164.8" font-family="Times,serif" font-size="14.00">EmployeeDashboardPageModule</text>
</g>
<!-- EmployeeDashboardPage&#45;&gt;EmployeeDashboardPageModule -->
<g id="edge1" class="edge">
<title>EmployeeDashboardPage&#45;&gt;EmployeeDashboardPageModule</title>
<path fill="none" stroke="black" d="M494,-122.11C494,-141.34 494,-169 494,-169 494,-169 377.11,-169 377.11,-169"/>
<polygon fill="black" stroke="black" points="377.11,-165.5 367.11,-169 377.11,-172.5 377.11,-165.5"/>
</g>
<!-- EmployeeDashboardPageRoutingModule -->
<g id="node3" class="node">
<title>EmployeeDashboardPageRoutingModule</title>
<polygon fill="#8dd3c7" stroke="black" points="389.78,-122 386.78,-126 365.78,-126 362.78,-122 140.22,-122 140.22,-86 389.78,-86 389.78,-122"/>
<text text-anchor="middle" x="265" y="-99.8" font-family="Times,serif" font-size="14.00">EmployeeDashboardPageRoutingModule</text>
</g>
<!-- EmployeeDashboardPageRoutingModule&#45;&gt;EmployeeDashboardPageModule -->
<g id="edge2" class="edge">
<title>EmployeeDashboardPageRoutingModule&#45;&gt;EmployeeDashboardPageModule</title>
<path fill="none" stroke="black" d="M265,-122.11C265,-122.11 265,-140.99 265,-140.99"/>
<polygon fill="black" stroke="black" points="261.5,-140.99 265,-150.99 268.5,-140.99 261.5,-140.99"/>
</g>
<!-- SharedModule -->
<g id="node4" class="node">
<title>SharedModule</title>
<polygon fill="#8dd3c7" stroke="black" points="122.42,-122 119.42,-126 98.42,-126 95.42,-122 23.58,-122 23.58,-86 122.42,-86 122.42,-122"/>
<text text-anchor="middle" x="73" y="-99.8" font-family="Times,serif" font-size="14.00">SharedModule</text>
</g>
<!-- SharedModule&#45;&gt;EmployeeDashboardPageModule -->
<g id="edge3" class="edge">
<title>SharedModule&#45;&gt;EmployeeDashboardPageModule</title>
<path fill="none" stroke="black" d="M73,-122.11C73,-141.34 73,-169 73,-169 73,-169 152.82,-169 152.82,-169"/>
<polygon fill="black" stroke="black" points="152.82,-172.5 162.82,-169 152.82,-165.5 152.82,-172.5"/>
</g>
</g>
</svg>
