<?xml version="1.0" encoding="UTF-8" standalone="no"?>
<!DOCTYPE svg PUBLIC "-//W3C//DTD SVG 1.1//EN"
 "http://www.w3.org/Graphics/SVG/1.1/DTD/svg11.dtd">
<!-- Generated by graphviz version 2.47.0 (20210316.0004)
 -->
<!-- Title: dependencies Pages: 1 -->
<svg width="504pt" height="211pt"
 viewBox="0.00 0.00 504.00 211.00" xmlns="http://www.w3.org/2000/svg" xmlns:xlink="http://www.w3.org/1999/xlink">
<g id="graph0" class="graph" transform="scale(1 1) rotate(0) translate(4 207)">
<title>dependencies</title>
<polygon fill="white" stroke="transparent" points="-4,4 -4,-207 500,-207 500,4 -4,4"/>
<text text-anchor="start" x="227.01" y="-42.4" font-family="sans-serif" font-weight="bold" font-size="14.00">Legend</text>
<polygon fill="#ffffb3" stroke="transparent" points="14,-10 14,-30 34,-30 34,-10 14,-10"/>
<text text-anchor="start" x="37.63" y="-15.4" font-family="sans-serif" font-size="14.00"> &#160;Declarations</text>
<polygon fill="#8dd3c7" stroke="transparent" points="127,-10 127,-30 147,-30 147,-10 127,-10"/>
<text text-anchor="start" x="150.73" y="-15.4" font-family="sans-serif" font-size="14.00"> &#160;Module</text>
<polygon fill="#80b1d3" stroke="transparent" points="213,-10 213,-30 233,-30 233,-10 213,-10"/>
<text text-anchor="start" x="236.78" y="-15.4" font-family="sans-serif" font-size="14.00"> &#160;Bootstrap</text>
<polygon fill="#fdb462" stroke="transparent" points="310,-10 310,-30 330,-30 330,-10 310,-10"/>
<text text-anchor="start" x="333.67" y="-15.4" font-family="sans-serif" font-size="14.00"> &#160;Providers</text>
<polygon fill="#fb8072" stroke="transparent" points="406,-10 406,-30 426,-30 426,-10 406,-10"/>
<text text-anchor="start" x="429.73" y="-15.4" font-family="sans-serif" font-size="14.00"> &#160;Exports</text>
<g id="clust1" class="cluster">
<title>cluster_SafetyPageModule</title>
<polygon fill="none" stroke="black" stroke-dasharray="1,5" points="39,-70 39,-195 457,-195 457,-70 39,-70"/>
</g>
<g id="clust2" class="cluster">
<title>cluster_SafetyPageModule_declarations</title>
<polygon fill="none" stroke="black" points="355,-78 355,-130 449,-130 449,-78 355,-78"/>
</g>
<g id="clust4" class="cluster">
<title>cluster_SafetyPageModule_imports</title>
<polygon fill="none" stroke="black" points="47,-78 47,-130 347,-130 347,-78 47,-78"/>
</g>
<!-- SafetyPage -->
<g id="node1" class="node">
<title>SafetyPage</title>
<polygon fill="#ffffb3" stroke="black" points="441.47,-122 362.53,-122 362.53,-86 441.47,-86 441.47,-122"/>
<text text-anchor="middle" x="402" y="-99.8" font-family="Times,serif" font-size="14.00">SafetyPage</text>
</g>
<!-- SafetyPageModule -->
<g id="node2" class="node">
<title>SafetyPageModule</title>
<polygon fill="#8dd3c7" stroke="black" points="316.03,-187 313.03,-191 292.03,-191 289.03,-187 193.97,-187 193.97,-151 316.03,-151 316.03,-187"/>
<text text-anchor="middle" x="255" y="-164.8" font-family="Times,serif" font-size="14.00">SafetyPageModule</text>
</g>
<!-- SafetyPage&#45;&gt;SafetyPageModule -->
<g id="edge1" class="edge">
<title>SafetyPage&#45;&gt;SafetyPageModule</title>
<path fill="none" stroke="black" d="M402,-122.11C402,-141.34 402,-169 402,-169 402,-169 326.06,-169 326.06,-169"/>
<polygon fill="black" stroke="black" points="326.06,-165.5 316.06,-169 326.06,-172.5 326.06,-165.5"/>
</g>
<!-- SafetyPageRoutingModule -->
<g id="node3" class="node">
<title>SafetyPageRoutingModule</title>
<polygon fill="#8dd3c7" stroke="black" points="338.64,-122 335.64,-126 314.64,-126 311.64,-122 171.36,-122 171.36,-86 338.64,-86 338.64,-122"/>
<text text-anchor="middle" x="255" y="-99.8" font-family="Times,serif" font-size="14.00">SafetyPageRoutingModule</text>
</g>
<!-- SafetyPageRoutingModule&#45;&gt;SafetyPageModule -->
<g id="edge2" class="edge">
<title>SafetyPageRoutingModule&#45;&gt;SafetyPageModule</title>
<path fill="none" stroke="black" d="M255,-122.11C255,-122.11 255,-140.99 255,-140.99"/>
<polygon fill="black" stroke="black" points="251.5,-140.99 255,-150.99 258.5,-140.99 251.5,-140.99"/>
</g>
<!-- SharedModule -->
<g id="node4" class="node">
<title>SharedModule</title>
<polygon fill="#8dd3c7" stroke="black" points="153.42,-122 150.42,-126 129.42,-126 126.42,-122 54.58,-122 54.58,-86 153.42,-86 153.42,-122"/>
<text text-anchor="middle" x="104" y="-99.8" font-family="Times,serif" font-size="14.00">SharedModule</text>
</g>
<!-- SharedModule&#45;&gt;SafetyPageModule -->
<g id="edge3" class="edge">
<title>SharedModule&#45;&gt;SafetyPageModule</title>
<path fill="none" stroke="black" d="M104,-122.11C104,-141.34 104,-169 104,-169 104,-169 183.58,-169 183.58,-169"/>
<polygon fill="black" stroke="black" points="183.58,-172.5 193.58,-169 183.58,-165.5 183.58,-172.5"/>
</g>
</g>
</svg>
