<?xml version="1.0" encoding="UTF-8" standalone="no"?>
<!DOCTYPE svg PUBLIC "-//W3C//DTD SVG 1.1//EN"
 "http://www.w3.org/Graphics/SVG/1.1/DTD/svg11.dtd">
<!-- Generated by graphviz version 2.44.1 (20200629.0846)
 -->
<!-- Title: dependencies Pages: 1 -->
<svg width="504pt" height="211pt"
 viewBox="0.00 0.00 504.00 211.00" xmlns="http://www.w3.org/2000/svg" xmlns:xlink="http://www.w3.org/1999/xlink">
<g id="graph0" class="graph" transform="scale(1 1) rotate(0) translate(4 207)">
<title>dependencies</title>
<polygon fill="white" stroke="transparent" points="-4,4 -4,-207 500,-207 500,4 -4,4"/>
<text text-anchor="start" x="227.01" y="-42.4" font-family="sans-serif" font-weight="bold" font-size="14.00">Legend</text>
<polygon fill="#ffffb3" stroke="transparent" points="14,-10 14,-30 34,-30 34,-10 14,-10"/>
<text text-anchor="start" x="37.63" y="-15.4" font-family="sans-serif" font-size="14.00"> &#160;Declarations</text>
<polygon fill="#8dd3c7" stroke="transparent" points="127,-10 127,-30 147,-30 147,-10 127,-10"/>
<text text-anchor="start" x="150.73" y="-15.4" font-family="sans-serif" font-size="14.00"> &#160;Module</text>
<polygon fill="#80b1d3" stroke="transparent" points="213,-10 213,-30 233,-30 233,-10 213,-10"/>
<text text-anchor="start" x="236.78" y="-15.4" font-family="sans-serif" font-size="14.00"> &#160;Bootstrap</text>
<polygon fill="#fdb462" stroke="transparent" points="310,-10 310,-30 330,-30 330,-10 310,-10"/>
<text text-anchor="start" x="333.67" y="-15.4" font-family="sans-serif" font-size="14.00"> &#160;Providers</text>
<polygon fill="#fb8072" stroke="transparent" points="406,-10 406,-30 426,-30 426,-10 406,-10"/>
<text text-anchor="start" x="429.73" y="-15.4" font-family="sans-serif" font-size="14.00"> &#160;Exports</text>
<g id="clust1" class="cluster">
<title>cluster_UnknownPageModule</title>
<polygon fill="none" stroke="black" stroke-dasharray="1,5" points="19,-70 19,-195 477,-195 477,-70 19,-70"/>
</g>
<g id="clust2" class="cluster">
<title>cluster_UnknownPageModule_declarations</title>
<polygon fill="none" stroke="black" points="355,-78 355,-130 469,-130 469,-78 355,-78"/>
</g>
<g id="clust4" class="cluster">
<title>cluster_UnknownPageModule_imports</title>
<polygon fill="none" stroke="black" points="27,-78 27,-130 347,-130 347,-78 27,-78"/>
</g>
<!-- UnknownPage -->
<g id="node1" class="node">
<title>UnknownPage</title>
<polygon fill="#ffffb3" stroke="black" points="461.43,-122 362.57,-122 362.57,-86 461.43,-86 461.43,-122"/>
<text text-anchor="middle" x="412" y="-99.8" font-family="Times,serif" font-size="14.00">UnknownPage</text>
</g>
<!-- UnknownPageModule -->
<g id="node2" class="node">
<title>UnknownPageModule</title>
<polygon fill="#8dd3c7" stroke="black" points="360.97,-187 357.97,-191 336.97,-191 333.97,-187 219.03,-187 219.03,-151 360.97,-151 360.97,-187"/>
<text text-anchor="middle" x="290" y="-164.8" font-family="Times,serif" font-size="14.00">UnknownPageModule</text>
</g>
<!-- UnknownPage&#45;&gt;UnknownPageModule -->
<g id="edge1" class="edge">
<title>UnknownPage&#45;&gt;UnknownPageModule</title>
<path fill="none" stroke="black" d="M362.63,-104C355.27,-104 350.1,-104 350.1,-104 350.1,-104 350.1,-140.89 350.1,-140.89"/>
<polygon fill="black" stroke="black" points="346.6,-140.89 350.1,-150.89 353.6,-140.89 346.6,-140.89"/>
</g>
<!-- SharedModule -->
<g id="node3" class="node">
<title>SharedModule</title>
<polygon fill="#8dd3c7" stroke="black" points="339.42,-122 336.42,-126 315.42,-126 312.42,-122 240.58,-122 240.58,-86 339.42,-86 339.42,-122"/>
<text text-anchor="middle" x="290" y="-99.8" font-family="Times,serif" font-size="14.00">SharedModule</text>
</g>
<!-- SharedModule&#45;&gt;UnknownPageModule -->
<g id="edge2" class="edge">
<title>SharedModule&#45;&gt;UnknownPageModule</title>
<path fill="none" stroke="black" d="M290,-122.11C290,-122.11 290,-140.99 290,-140.99"/>
<polygon fill="black" stroke="black" points="286.5,-140.99 290,-150.99 293.5,-140.99 286.5,-140.99"/>
</g>
<!-- UnknownPageRoutingModule -->
<g id="node4" class="node">
<title>UnknownPageRoutingModule</title>
<polygon fill="#8dd3c7" stroke="black" points="222.59,-122 219.59,-126 198.59,-126 195.59,-122 35.41,-122 35.41,-86 222.59,-86 222.59,-122"/>
<text text-anchor="middle" x="129" y="-99.8" font-family="Times,serif" font-size="14.00">UnknownPageRoutingModule</text>
</g>
<!-- UnknownPageRoutingModule&#45;&gt;UnknownPageModule -->
<g id="edge3" class="edge">
<title>UnknownPageRoutingModule&#45;&gt;UnknownPageModule</title>
<path fill="none" stroke="black" d="M222.56,-104C228.21,-104 231.67,-104 231.67,-104 231.67,-104 231.67,-140.89 231.67,-140.89"/>
<polygon fill="black" stroke="black" points="228.17,-140.89 231.67,-150.89 235.17,-140.89 228.17,-140.89"/>
</g>
</g>
</svg>
