<?xml version="1.0" encoding="UTF-8" standalone="no"?>
<!DOCTYPE svg PUBLIC "-//W3C//DTD SVG 1.1//EN"
 "http://www.w3.org/Graphics/SVG/1.1/DTD/svg11.dtd">
<!-- Generated by graphviz version 2.44.1 (20200629.0846)
 -->
<!-- Title: dependencies Pages: 1 -->
<svg width="504pt" height="211pt"
 viewBox="0.00 0.00 504.00 211.00" xmlns="http://www.w3.org/2000/svg" xmlns:xlink="http://www.w3.org/1999/xlink">
<g id="graph0" class="graph" transform="scale(1 1) rotate(0) translate(4 207)">
<title>dependencies</title>
<polygon fill="white" stroke="transparent" points="-4,4 -4,-207 500,-207 500,4 -4,4"/>
<text text-anchor="start" x="227.01" y="-42.4" font-family="sans-serif" font-weight="bold" font-size="14.00">Legend</text>
<polygon fill="#ffffb3" stroke="transparent" points="14,-10 14,-30 34,-30 34,-10 14,-10"/>
<text text-anchor="start" x="37.63" y="-15.4" font-family="sans-serif" font-size="14.00"> &#160;Declarations</text>
<polygon fill="#8dd3c7" stroke="transparent" points="127,-10 127,-30 147,-30 147,-10 127,-10"/>
<text text-anchor="start" x="150.73" y="-15.4" font-family="sans-serif" font-size="14.00"> &#160;Module</text>
<polygon fill="#80b1d3" stroke="transparent" points="213,-10 213,-30 233,-30 233,-10 213,-10"/>
<text text-anchor="start" x="236.78" y="-15.4" font-family="sans-serif" font-size="14.00"> &#160;Bootstrap</text>
<polygon fill="#fdb462" stroke="transparent" points="310,-10 310,-30 330,-30 330,-10 310,-10"/>
<text text-anchor="start" x="333.67" y="-15.4" font-family="sans-serif" font-size="14.00"> &#160;Providers</text>
<polygon fill="#fb8072" stroke="transparent" points="406,-10 406,-30 426,-30 426,-10 406,-10"/>
<text text-anchor="start" x="429.73" y="-15.4" font-family="sans-serif" font-size="14.00"> &#160;Exports</text>
<g id="clust1" class="cluster">
<title>cluster_UnknownPageModule</title>
<polygon fill="none" stroke="black" stroke-dasharray="1,5" points="19,-70 19,-195 477,-195 477,-70 19,-70"/>
</g>
<g id="clust4" class="cluster">
<title>cluster_UnknownPageModule_imports</title>
<polygon fill="none" stroke="black" points="149,-78 149,-130 469,-130 469,-78 149,-78"/>
</g>
<g id="clust2" class="cluster">
<title>cluster_UnknownPageModule_declarations</title>
<polygon fill="none" stroke="black" points="27,-78 27,-130 141,-130 141,-78 27,-78"/>
</g>
<!-- UnknownPage -->
<g id="node1" class="node">
<title>UnknownPage</title>
<polygon fill="#ffffb3" stroke="black" points="133.43,-122 34.57,-122 34.57,-86 133.43,-86 133.43,-122"/>
<text text-anchor="middle" x="84" y="-99.8" font-family="Times,serif" font-size="14.00">UnknownPage</text>
</g>
<!-- UnknownPageModule -->
<g id="node2" class="node">
<title>UnknownPageModule</title>
<polygon fill="#8dd3c7" stroke="black" points="321.97,-187 318.97,-191 297.97,-191 294.97,-187 180.03,-187 180.03,-151 321.97,-151 321.97,-187"/>
<text text-anchor="middle" x="251" y="-164.8" font-family="Times,serif" font-size="14.00">UnknownPageModule</text>
</g>
<!-- UnknownPage&#45;&gt;UnknownPageModule -->
<g id="edge1" class="edge">
<title>UnknownPage&#45;&gt;UnknownPageModule</title>
<path fill="none" stroke="black" d="M84,-122.11C84,-141.34 84,-169 84,-169 84,-169 169.69,-169 169.69,-169"/>
<polygon fill="black" stroke="black" points="169.69,-172.5 179.69,-169 169.69,-165.5 169.69,-172.5"/>
</g>
<!-- SharedModule -->
<g id="node3" class="node">
<title>SharedModule</title>
<polygon fill="#8dd3c7" stroke="black" points="461.42,-122 458.42,-126 437.42,-126 434.42,-122 362.58,-122 362.58,-86 461.42,-86 461.42,-122"/>
<text text-anchor="middle" x="412" y="-99.8" font-family="Times,serif" font-size="14.00">SharedModule</text>
</g>
<!-- SharedModule&#45;&gt;UnknownPageModule -->
<g id="edge2" class="edge">
<title>SharedModule&#45;&gt;UnknownPageModule</title>
<path fill="none" stroke="black" d="M412,-122.11C412,-141.34 412,-169 412,-169 412,-169 332.09,-169 332.09,-169"/>
<polygon fill="black" stroke="black" points="332.09,-165.5 322.09,-169 332.09,-172.5 332.09,-165.5"/>
</g>
<!-- UnknownPageRoutingModule -->
<g id="node4" class="node">
<title>UnknownPageRoutingModule</title>
<polygon fill="#8dd3c7" stroke="black" points="344.59,-122 341.59,-126 320.59,-126 317.59,-122 157.41,-122 157.41,-86 344.59,-86 344.59,-122"/>
<text text-anchor="middle" x="251" y="-99.8" font-family="Times,serif" font-size="14.00">UnknownPageRoutingModule</text>
</g>
<!-- UnknownPageRoutingModule&#45;&gt;UnknownPageModule -->
<g id="edge3" class="edge">
<title>UnknownPageRoutingModule&#45;&gt;UnknownPageModule</title>
<path fill="none" stroke="black" d="M251,-122.11C251,-122.11 251,-140.99 251,-140.99"/>
<polygon fill="black" stroke="black" points="247.5,-140.99 251,-150.99 254.5,-140.99 247.5,-140.99"/>
</g>
</g>
</svg>
