<?xml version="1.0" encoding="UTF-8" standalone="no"?>
<!DOCTYPE svg PUBLIC "-//W3C//DTD SVG 1.1//EN"
 "http://www.w3.org/Graphics/SVG/1.1/DTD/svg11.dtd">
<!-- Generated by graphviz version 2.47.0 (20210316.0004)
 -->
<!-- Title: dependencies Pages: 1 -->
<svg width="504pt" height="211pt"
 viewBox="0.00 0.00 504.00 211.00" xmlns="http://www.w3.org/2000/svg" xmlns:xlink="http://www.w3.org/1999/xlink">
<g id="graph0" class="graph" transform="scale(1 1) rotate(0) translate(4 207)">
<title>dependencies</title>
<polygon fill="white" stroke="transparent" points="-4,4 -4,-207 500,-207 500,4 -4,4"/>
<text text-anchor="start" x="227.01" y="-42.4" font-family="sans-serif" font-weight="bold" font-size="14.00">Legend</text>
<polygon fill="#ffffb3" stroke="transparent" points="14,-10 14,-30 34,-30 34,-10 14,-10"/>
<text text-anchor="start" x="37.63" y="-15.4" font-family="sans-serif" font-size="14.00"> &#160;Declarations</text>
<polygon fill="#8dd3c7" stroke="transparent" points="127,-10 127,-30 147,-30 147,-10 127,-10"/>
<text text-anchor="start" x="150.73" y="-15.4" font-family="sans-serif" font-size="14.00"> &#160;Module</text>
<polygon fill="#80b1d3" stroke="transparent" points="213,-10 213,-30 233,-30 233,-10 213,-10"/>
<text text-anchor="start" x="236.78" y="-15.4" font-family="sans-serif" font-size="14.00"> &#160;Bootstrap</text>
<polygon fill="#fdb462" stroke="transparent" points="310,-10 310,-30 330,-30 330,-10 310,-10"/>
<text text-anchor="start" x="333.67" y="-15.4" font-family="sans-serif" font-size="14.00"> &#160;Providers</text>
<polygon fill="#fb8072" stroke="transparent" points="406,-10 406,-30 426,-30 426,-10 406,-10"/>
<text text-anchor="start" x="429.73" y="-15.4" font-family="sans-serif" font-size="14.00"> &#160;Exports</text>
<g id="clust1" class="cluster">
<title>cluster_UnknownPageModule</title>
<polygon fill="none" stroke="black" stroke-dasharray="1,5" points="77,-70 77,-195 419,-195 419,-70 77,-70"/>
</g>
<g id="clust4" class="cluster">
<title>cluster_UnknownPageModule_imports</title>
<polygon fill="none" stroke="black" points="207,-78 207,-130 411,-130 411,-78 207,-78"/>
</g>
<g id="clust2" class="cluster">
<title>cluster_UnknownPageModule_declarations</title>
<polygon fill="none" stroke="black" points="85,-78 85,-130 199,-130 199,-78 85,-78"/>
</g>
<!-- UnknownPage -->
<g id="node1" class="node">
<title>UnknownPage</title>
<polygon fill="#ffffb3" stroke="black" points="191.43,-122 92.57,-122 92.57,-86 191.43,-86 191.43,-122"/>
<text text-anchor="middle" x="142" y="-99.8" font-family="Times,serif" font-size="14.00">UnknownPage</text>
</g>
<!-- UnknownPageModule -->
<g id="node2" class="node">
<title>UnknownPageModule</title>
<polygon fill="#8dd3c7" stroke="black" points="302.97,-187 299.97,-191 278.97,-191 275.97,-187 161.03,-187 161.03,-151 302.97,-151 302.97,-187"/>
<text text-anchor="middle" x="232" y="-164.8" font-family="Times,serif" font-size="14.00">UnknownPageModule</text>
</g>
<!-- UnknownPage&#45;&gt;UnknownPageModule -->
<g id="edge1" class="edge">
<title>UnknownPage&#45;&gt;UnknownPageModule</title>
<path fill="none" stroke="black" d="M176.11,-122.11C176.11,-122.11 176.11,-140.99 176.11,-140.99"/>
<polygon fill="black" stroke="black" points="172.61,-140.99 176.11,-150.99 179.61,-140.99 172.61,-140.99"/>
</g>
<!-- UnknownPageRoutingModule -->
<g id="node3" class="node">
<title>UnknownPageRoutingModule</title>
<polygon fill="#8dd3c7" stroke="black" points="402.59,-122 399.59,-126 378.59,-126 375.59,-122 215.41,-122 215.41,-86 402.59,-86 402.59,-122"/>
<text text-anchor="middle" x="309" y="-99.8" font-family="Times,serif" font-size="14.00">UnknownPageRoutingModule</text>
</g>
<!-- UnknownPageRoutingModule&#45;&gt;UnknownPageModule -->
<g id="edge2" class="edge">
<title>UnknownPageRoutingModule&#45;&gt;UnknownPageModule</title>
<path fill="none" stroke="black" d="M259.22,-122.11C259.22,-122.11 259.22,-140.99 259.22,-140.99"/>
<polygon fill="black" stroke="black" points="255.72,-140.99 259.22,-150.99 262.72,-140.99 255.72,-140.99"/>
</g>
</g>
</svg>
