<?xml version="1.0" encoding="UTF-8" standalone="no"?>
<!DOCTYPE svg PUBLIC "-//W3C//DTD SVG 1.1//EN"
 "http://www.w3.org/Graphics/SVG/1.1/DTD/svg11.dtd">
<!-- Generated by graphviz version 2.44.1 (20200629.0846)
 -->
<!-- Title: dependencies Pages: 1 -->
<svg width="516pt" height="211pt"
 viewBox="0.00 0.00 516.00 211.00" xmlns="http://www.w3.org/2000/svg" xmlns:xlink="http://www.w3.org/1999/xlink">
<g id="graph0" class="graph" transform="scale(1 1) rotate(0) translate(4 207)">
<title>dependencies</title>
<polygon fill="white" stroke="transparent" points="-4,4 -4,-207 512,-207 512,4 -4,4"/>
<text text-anchor="start" x="233.01" y="-42.4" font-family="sans-serif" font-weight="bold" font-size="14.00">Legend</text>
<polygon fill="#ffffb3" stroke="transparent" points="20,-10 20,-30 40,-30 40,-10 20,-10"/>
<text text-anchor="start" x="43.63" y="-15.4" font-family="sans-serif" font-size="14.00"> &#160;Declarations</text>
<polygon fill="#8dd3c7" stroke="transparent" points="133,-10 133,-30 153,-30 153,-10 133,-10"/>
<text text-anchor="start" x="156.73" y="-15.4" font-family="sans-serif" font-size="14.00"> &#160;Module</text>
<polygon fill="#80b1d3" stroke="transparent" points="219,-10 219,-30 239,-30 239,-10 219,-10"/>
<text text-anchor="start" x="242.78" y="-15.4" font-family="sans-serif" font-size="14.00"> &#160;Bootstrap</text>
<polygon fill="#fdb462" stroke="transparent" points="316,-10 316,-30 336,-30 336,-10 316,-10"/>
<text text-anchor="start" x="339.67" y="-15.4" font-family="sans-serif" font-size="14.00"> &#160;Providers</text>
<polygon fill="#fb8072" stroke="transparent" points="412,-10 412,-30 432,-30 432,-10 412,-10"/>
<text text-anchor="start" x="435.73" y="-15.4" font-family="sans-serif" font-size="14.00"> &#160;Exports</text>
<g id="clust1" class="cluster">
<title>cluster_TestimonialsPageModule</title>
<polygon fill="none" stroke="black" stroke-dasharray="1,5" points="8,-70 8,-195 500,-195 500,-70 8,-70"/>
</g>
<g id="clust2" class="cluster">
<title>cluster_TestimonialsPageModule_declarations</title>
<polygon fill="none" stroke="black" points="360,-78 360,-130 492,-130 492,-78 360,-78"/>
</g>
<g id="clust4" class="cluster">
<title>cluster_TestimonialsPageModule_imports</title>
<polygon fill="none" stroke="black" points="16,-78 16,-130 352,-130 352,-78 16,-78"/>
</g>
<!-- TestimonialsPage -->
<g id="node1" class="node">
<title>TestimonialsPage</title>
<polygon fill="#ffffb3" stroke="black" points="483.54,-122 368.46,-122 368.46,-86 483.54,-86 483.54,-122"/>
<text text-anchor="middle" x="426" y="-99.8" font-family="Times,serif" font-size="14.00">TestimonialsPage</text>
</g>
<!-- TestimonialsPageModule -->
<g id="node2" class="node">
<title>TestimonialsPageModule</title>
<polygon fill="#8dd3c7" stroke="black" points="374.59,-187 371.59,-191 350.59,-191 347.59,-187 215.41,-187 215.41,-151 374.59,-151 374.59,-187"/>
<text text-anchor="middle" x="295" y="-164.8" font-family="Times,serif" font-size="14.00">TestimonialsPageModule</text>
</g>
<!-- TestimonialsPage&#45;&gt;TestimonialsPageModule -->
<g id="edge1" class="edge">
<title>TestimonialsPage&#45;&gt;TestimonialsPageModule</title>
<path fill="none" stroke="black" d="M368.38,-104C361.14,-104 356.22,-104 356.22,-104 356.22,-104 356.22,-140.89 356.22,-140.89"/>
<polygon fill="black" stroke="black" points="352.72,-140.89 356.22,-150.89 359.72,-140.89 352.72,-140.89"/>
</g>
<!-- SharedModule -->
<g id="node3" class="node">
<title>SharedModule</title>
<polygon fill="#8dd3c7" stroke="black" points="344.42,-122 341.42,-126 320.42,-126 317.42,-122 245.58,-122 245.58,-86 344.42,-86 344.42,-122"/>
<text text-anchor="middle" x="295" y="-99.8" font-family="Times,serif" font-size="14.00">SharedModule</text>
</g>
<!-- SharedModule&#45;&gt;TestimonialsPageModule -->
<g id="edge2" class="edge">
<title>SharedModule&#45;&gt;TestimonialsPageModule</title>
<path fill="none" stroke="black" d="M295,-122.11C295,-122.11 295,-140.99 295,-140.99"/>
<polygon fill="black" stroke="black" points="291.5,-140.99 295,-150.99 298.5,-140.99 291.5,-140.99"/>
</g>
<!-- TestimonialsPageRoutingModule -->
<g id="node4" class="node">
<title>TestimonialsPageRoutingModule</title>
<polygon fill="#8dd3c7" stroke="black" points="228.2,-122 225.2,-126 204.2,-126 201.2,-122 23.8,-122 23.8,-86 228.2,-86 228.2,-122"/>
<text text-anchor="middle" x="126" y="-99.8" font-family="Times,serif" font-size="14.00">TestimonialsPageRoutingModule</text>
</g>
<!-- TestimonialsPageRoutingModule&#45;&gt;TestimonialsPageModule -->
<g id="edge3" class="edge">
<title>TestimonialsPageRoutingModule&#45;&gt;TestimonialsPageModule</title>
<path fill="none" stroke="black" d="M221.78,-122.11C221.78,-122.11 221.78,-140.99 221.78,-140.99"/>
<polygon fill="black" stroke="black" points="218.28,-140.99 221.78,-150.99 225.28,-140.99 218.28,-140.99"/>
</g>
</g>
</svg>
