<?xml version="1.0" encoding="UTF-8" standalone="no"?>
<!DOCTYPE svg PUBLIC "-//W3C//DTD SVG 1.1//EN"
 "http://www.w3.org/Graphics/SVG/1.1/DTD/svg11.dtd">
<!-- Generated by graphviz version 2.44.1 (20200629.0846)
 -->
<!-- Title: dependencies Pages: 1 -->
<svg width="516pt" height="211pt"
 viewBox="0.00 0.00 516.00 211.00" xmlns="http://www.w3.org/2000/svg" xmlns:xlink="http://www.w3.org/1999/xlink">
<g id="graph0" class="graph" transform="scale(1 1) rotate(0) translate(4 207)">
<title>dependencies</title>
<polygon fill="white" stroke="transparent" points="-4,4 -4,-207 512,-207 512,4 -4,4"/>
<text text-anchor="start" x="233.01" y="-42.4" font-family="sans-serif" font-weight="bold" font-size="14.00">Legend</text>
<polygon fill="#ffffb3" stroke="transparent" points="20,-10 20,-30 40,-30 40,-10 20,-10"/>
<text text-anchor="start" x="43.63" y="-15.4" font-family="sans-serif" font-size="14.00"> &#160;Declarations</text>
<polygon fill="#8dd3c7" stroke="transparent" points="133,-10 133,-30 153,-30 153,-10 133,-10"/>
<text text-anchor="start" x="156.73" y="-15.4" font-family="sans-serif" font-size="14.00"> &#160;Module</text>
<polygon fill="#80b1d3" stroke="transparent" points="219,-10 219,-30 239,-30 239,-10 219,-10"/>
<text text-anchor="start" x="242.78" y="-15.4" font-family="sans-serif" font-size="14.00"> &#160;Bootstrap</text>
<polygon fill="#fdb462" stroke="transparent" points="316,-10 316,-30 336,-30 336,-10 316,-10"/>
<text text-anchor="start" x="339.67" y="-15.4" font-family="sans-serif" font-size="14.00"> &#160;Providers</text>
<polygon fill="#fb8072" stroke="transparent" points="412,-10 412,-30 432,-30 432,-10 412,-10"/>
<text text-anchor="start" x="435.73" y="-15.4" font-family="sans-serif" font-size="14.00"> &#160;Exports</text>
<g id="clust1" class="cluster">
<title>cluster_TestimonialsPageModule</title>
<polygon fill="none" stroke="black" stroke-dasharray="1,5" points="8,-70 8,-195 500,-195 500,-70 8,-70"/>
</g>
<g id="clust4" class="cluster">
<title>cluster_TestimonialsPageModule_imports</title>
<polygon fill="none" stroke="black" points="156,-78 156,-130 492,-130 492,-78 156,-78"/>
</g>
<g id="clust2" class="cluster">
<title>cluster_TestimonialsPageModule_declarations</title>
<polygon fill="none" stroke="black" points="16,-78 16,-130 148,-130 148,-78 16,-78"/>
</g>
<!-- TestimonialsPage -->
<g id="node1" class="node">
<title>TestimonialsPage</title>
<polygon fill="#ffffb3" stroke="black" points="139.54,-122 24.46,-122 24.46,-86 139.54,-86 139.54,-122"/>
<text text-anchor="middle" x="82" y="-99.8" font-family="Times,serif" font-size="14.00">TestimonialsPage</text>
</g>
<!-- TestimonialsPageModule -->
<g id="node2" class="node">
<title>TestimonialsPageModule</title>
<polygon fill="#8dd3c7" stroke="black" points="345.59,-187 342.59,-191 321.59,-191 318.59,-187 186.41,-187 186.41,-151 345.59,-151 345.59,-187"/>
<text text-anchor="middle" x="266" y="-164.8" font-family="Times,serif" font-size="14.00">TestimonialsPageModule</text>
</g>
<!-- TestimonialsPage&#45;&gt;TestimonialsPageModule -->
<g id="edge1" class="edge">
<title>TestimonialsPage&#45;&gt;TestimonialsPageModule</title>
<path fill="none" stroke="black" d="M82,-122.11C82,-141.34 82,-169 82,-169 82,-169 176.37,-169 176.37,-169"/>
<polygon fill="black" stroke="black" points="176.37,-172.5 186.37,-169 176.37,-165.5 176.37,-172.5"/>
</g>
<!-- SharedModule -->
<g id="node3" class="node">
<title>SharedModule</title>
<polygon fill="#8dd3c7" stroke="black" points="484.42,-122 481.42,-126 460.42,-126 457.42,-122 385.58,-122 385.58,-86 484.42,-86 484.42,-122"/>
<text text-anchor="middle" x="435" y="-99.8" font-family="Times,serif" font-size="14.00">SharedModule</text>
</g>
<!-- SharedModule&#45;&gt;TestimonialsPageModule -->
<g id="edge2" class="edge">
<title>SharedModule&#45;&gt;TestimonialsPageModule</title>
<path fill="none" stroke="black" d="M435,-122.11C435,-141.34 435,-169 435,-169 435,-169 355.55,-169 355.55,-169"/>
<polygon fill="black" stroke="black" points="355.55,-165.5 345.55,-169 355.55,-172.5 355.55,-165.5"/>
</g>
<!-- TestimonialsPageRoutingModule -->
<g id="node4" class="node">
<title>TestimonialsPageRoutingModule</title>
<polygon fill="#8dd3c7" stroke="black" points="368.2,-122 365.2,-126 344.2,-126 341.2,-122 163.8,-122 163.8,-86 368.2,-86 368.2,-122"/>
<text text-anchor="middle" x="266" y="-99.8" font-family="Times,serif" font-size="14.00">TestimonialsPageRoutingModule</text>
</g>
<!-- TestimonialsPageRoutingModule&#45;&gt;TestimonialsPageModule -->
<g id="edge3" class="edge">
<title>TestimonialsPageRoutingModule&#45;&gt;TestimonialsPageModule</title>
<path fill="none" stroke="black" d="M266,-122.11C266,-122.11 266,-140.99 266,-140.99"/>
<polygon fill="black" stroke="black" points="262.5,-140.99 266,-150.99 269.5,-140.99 262.5,-140.99"/>
</g>
</g>
</svg>
