<?xml version="1.0" encoding="UTF-8" standalone="no"?>
<!DOCTYPE svg PUBLIC "-//W3C//DTD SVG 1.1//EN"
 "http://www.w3.org/Graphics/SVG/1.1/DTD/svg11.dtd">
<!-- Generated by graphviz version 2.47.0 (20210316.0004)
 -->
<!-- Title: dependencies Pages: 1 -->
<svg width="504pt" height="211pt"
 viewBox="0.00 0.00 504.00 211.00" xmlns="http://www.w3.org/2000/svg" xmlns:xlink="http://www.w3.org/1999/xlink">
<g id="graph0" class="graph" transform="scale(1 1) rotate(0) translate(4 207)">
<title>dependencies</title>
<polygon fill="white" stroke="transparent" points="-4,4 -4,-207 500,-207 500,4 -4,4"/>
<text text-anchor="start" x="227.01" y="-42.4" font-family="sans-serif" font-weight="bold" font-size="14.00">Legend</text>
<polygon fill="#ffffb3" stroke="transparent" points="14,-10 14,-30 34,-30 34,-10 14,-10"/>
<text text-anchor="start" x="37.63" y="-15.4" font-family="sans-serif" font-size="14.00"> &#160;Declarations</text>
<polygon fill="#8dd3c7" stroke="transparent" points="127,-10 127,-30 147,-30 147,-10 127,-10"/>
<text text-anchor="start" x="150.73" y="-15.4" font-family="sans-serif" font-size="14.00"> &#160;Module</text>
<polygon fill="#80b1d3" stroke="transparent" points="213,-10 213,-30 233,-30 233,-10 213,-10"/>
<text text-anchor="start" x="236.78" y="-15.4" font-family="sans-serif" font-size="14.00"> &#160;Bootstrap</text>
<polygon fill="#fdb462" stroke="transparent" points="310,-10 310,-30 330,-30 330,-10 310,-10"/>
<text text-anchor="start" x="333.67" y="-15.4" font-family="sans-serif" font-size="14.00"> &#160;Providers</text>
<polygon fill="#fb8072" stroke="transparent" points="406,-10 406,-30 426,-30 426,-10 406,-10"/>
<text text-anchor="start" x="429.73" y="-15.4" font-family="sans-serif" font-size="14.00"> &#160;Exports</text>
<g id="clust1" class="cluster">
<title>cluster_FacilityPageModule</title>
<polygon fill="none" stroke="black" stroke-dasharray="1,5" points="31.5,-70 31.5,-195 464.5,-195 464.5,-70 31.5,-70"/>
</g>
<g id="clust2" class="cluster">
<title>cluster_FacilityPageModule_declarations</title>
<polygon fill="none" stroke="black" points="354.5,-78 354.5,-130 456.5,-130 456.5,-78 354.5,-78"/>
</g>
<g id="clust4" class="cluster">
<title>cluster_FacilityPageModule_imports</title>
<polygon fill="none" stroke="black" points="39.5,-78 39.5,-130 346.5,-130 346.5,-78 39.5,-78"/>
</g>
<!-- FacilityPage -->
<g id="node1" class="node">
<title>FacilityPage</title>
<polygon fill="#ffffb3" stroke="black" points="448.49,-122 362.51,-122 362.51,-86 448.49,-86 448.49,-122"/>
<text text-anchor="middle" x="405.5" y="-99.8" font-family="Times,serif" font-size="14.00">FacilityPage</text>
</g>
<!-- FacilityPageModule -->
<g id="node2" class="node">
<title>FacilityPageModule</title>
<polygon fill="#8dd3c7" stroke="black" points="316.04,-187 313.04,-191 292.04,-191 289.04,-187 186.96,-187 186.96,-151 316.04,-151 316.04,-187"/>
<text text-anchor="middle" x="251.5" y="-164.8" font-family="Times,serif" font-size="14.00">FacilityPageModule</text>
</g>
<!-- FacilityPage&#45;&gt;FacilityPageModule -->
<g id="edge1" class="edge">
<title>FacilityPage&#45;&gt;FacilityPageModule</title>
<path fill="none" stroke="black" d="M405.5,-122.11C405.5,-141.34 405.5,-169 405.5,-169 405.5,-169 326.36,-169 326.36,-169"/>
<polygon fill="black" stroke="black" points="326.36,-165.5 316.36,-169 326.36,-172.5 326.36,-165.5"/>
</g>
<!-- FacilityPageRoutingModule -->
<g id="node3" class="node">
<title>FacilityPageRoutingModule</title>
<polygon fill="#8dd3c7" stroke="black" points="338.65,-122 335.65,-126 314.65,-126 311.65,-122 164.35,-122 164.35,-86 338.65,-86 338.65,-122"/>
<text text-anchor="middle" x="251.5" y="-99.8" font-family="Times,serif" font-size="14.00">FacilityPageRoutingModule</text>
</g>
<!-- FacilityPageRoutingModule&#45;&gt;FacilityPageModule -->
<g id="edge2" class="edge">
<title>FacilityPageRoutingModule&#45;&gt;FacilityPageModule</title>
<path fill="none" stroke="black" d="M251.5,-122.11C251.5,-122.11 251.5,-140.99 251.5,-140.99"/>
<polygon fill="black" stroke="black" points="248,-140.99 251.5,-150.99 255,-140.99 248,-140.99"/>
</g>
<!-- SharedModule -->
<g id="node4" class="node">
<title>SharedModule</title>
<polygon fill="#8dd3c7" stroke="black" points="145.92,-122 142.92,-126 121.92,-126 118.92,-122 47.08,-122 47.08,-86 145.92,-86 145.92,-122"/>
<text text-anchor="middle" x="96.5" y="-99.8" font-family="Times,serif" font-size="14.00">SharedModule</text>
</g>
<!-- SharedModule&#45;&gt;FacilityPageModule -->
<g id="edge3" class="edge">
<title>SharedModule&#45;&gt;FacilityPageModule</title>
<path fill="none" stroke="black" d="M96.5,-122.11C96.5,-141.34 96.5,-169 96.5,-169 96.5,-169 176.66,-169 176.66,-169"/>
<polygon fill="black" stroke="black" points="176.66,-172.5 186.66,-169 176.66,-165.5 176.66,-172.5"/>
</g>
</g>
</svg>
