<?xml version="1.0" encoding="UTF-8" standalone="no"?>
<!DOCTYPE svg PUBLIC "-//W3C//DTD SVG 1.1//EN"
 "http://www.w3.org/Graphics/SVG/1.1/DTD/svg11.dtd">
<!-- Generated by graphviz version 2.47.0 (20210316.0004)
 -->
<!-- Title: dependencies Pages: 1 -->
<svg width="1136pt" height="211pt"
 viewBox="0.00 0.00 1136.00 211.00" xmlns="http://www.w3.org/2000/svg" xmlns:xlink="http://www.w3.org/1999/xlink">
<g id="graph0" class="graph" transform="scale(1 1) rotate(0) translate(4 207)">
<title>dependencies</title>
<polygon fill="white" stroke="transparent" points="-4,4 -4,-207 1132,-207 1132,4 -4,4"/>
<text text-anchor="start" x="543.01" y="-42.4" font-family="sans-serif" font-weight="bold" font-size="14.00">Legend</text>
<polygon fill="#ffffb3" stroke="transparent" points="330,-10 330,-30 350,-30 350,-10 330,-10"/>
<text text-anchor="start" x="353.63" y="-15.4" font-family="sans-serif" font-size="14.00"> &#160;Declarations</text>
<polygon fill="#8dd3c7" stroke="transparent" points="443,-10 443,-30 463,-30 463,-10 443,-10"/>
<text text-anchor="start" x="466.73" y="-15.4" font-family="sans-serif" font-size="14.00"> &#160;Module</text>
<polygon fill="#80b1d3" stroke="transparent" points="529,-10 529,-30 549,-30 549,-10 529,-10"/>
<text text-anchor="start" x="552.78" y="-15.4" font-family="sans-serif" font-size="14.00"> &#160;Bootstrap</text>
<polygon fill="#fdb462" stroke="transparent" points="626,-10 626,-30 646,-30 646,-10 626,-10"/>
<text text-anchor="start" x="649.67" y="-15.4" font-family="sans-serif" font-size="14.00"> &#160;Providers</text>
<polygon fill="#fb8072" stroke="transparent" points="722,-10 722,-30 742,-30 742,-10 722,-10"/>
<text text-anchor="start" x="745.73" y="-15.4" font-family="sans-serif" font-size="14.00"> &#160;Exports</text>
<g id="clust1" class="cluster">
<title>cluster_GalleryPageModule</title>
<polygon fill="none" stroke="black" stroke-dasharray="1,5" points="8,-70 8,-195 1120,-195 1120,-70 8,-70"/>
</g>
<g id="clust2" class="cluster">
<title>cluster_GalleryPageModule_declarations</title>
<polygon fill="none" stroke="black" points="330,-78 330,-130 1112,-130 1112,-78 330,-78"/>
</g>
<g id="clust8" class="cluster">
<title>cluster_GalleryPageModule_imports</title>
<polygon fill="none" stroke="black" points="16,-78 16,-130 322,-130 322,-78 16,-78"/>
</g>
<!-- FileUploaderComponent -->
<g id="node1" class="node">
<title>FileUploaderComponent</title>
<polygon fill="#ffffb3" stroke="black" points="1103.7,-122 948.3,-122 948.3,-86 1103.7,-86 1103.7,-122"/>
<text text-anchor="middle" x="1026" y="-99.8" font-family="Times,serif" font-size="14.00">FileUploaderComponent</text>
</g>
<!-- GalleryPageModule -->
<g id="node6" class="node">
<title>GalleryPageModule</title>
<polygon fill="#8dd3c7" stroke="black" points="639.24,-187 636.24,-191 615.24,-191 612.24,-187 510.76,-187 510.76,-151 639.24,-151 639.24,-187"/>
<text text-anchor="middle" x="575" y="-164.8" font-family="Times,serif" font-size="14.00">GalleryPageModule</text>
</g>
<!-- FileUploaderComponent&#45;&gt;GalleryPageModule -->
<g id="edge1" class="edge">
<title>FileUploaderComponent&#45;&gt;GalleryPageModule</title>
<path fill="none" stroke="black" d="M1026,-122.29C1026,-144.21 1026,-178 1026,-178 1026,-178 649.62,-178 649.62,-178"/>
<polygon fill="black" stroke="black" points="649.62,-174.5 639.62,-178 649.62,-181.5 649.62,-174.5"/>
</g>
<!-- GalleryPage -->
<g id="node2" class="node">
<title>GalleryPage</title>
<polygon fill="#ffffb3" stroke="black" points="930.69,-122 845.31,-122 845.31,-86 930.69,-86 930.69,-122"/>
<text text-anchor="middle" x="888" y="-99.8" font-family="Times,serif" font-size="14.00">GalleryPage</text>
</g>
<!-- GalleryPage&#45;&gt;GalleryPageModule -->
<g id="edge2" class="edge">
<title>GalleryPage&#45;&gt;GalleryPageModule</title>
<path fill="none" stroke="black" d="M888,-122.11C888,-141.34 888,-169 888,-169 888,-169 649.47,-169 649.47,-169"/>
<polygon fill="black" stroke="black" points="649.47,-165.5 639.47,-169 649.47,-172.5 649.47,-165.5"/>
</g>
<!-- ImageUploadComponent -->
<g id="node3" class="node">
<title>ImageUploadComponent</title>
<polygon fill="#ffffb3" stroke="black" points="827.53,-122 670.47,-122 670.47,-86 827.53,-86 827.53,-122"/>
<text text-anchor="middle" x="749" y="-99.8" font-family="Times,serif" font-size="14.00">ImageUploadComponent</text>
</g>
<!-- ImageUploadComponent&#45;&gt;GalleryPageModule -->
<g id="edge3" class="edge">
<title>ImageUploadComponent&#45;&gt;GalleryPageModule</title>
<path fill="none" stroke="black" d="M749,-122.03C749,-138.4 749,-160 749,-160 749,-160 649.3,-160 649.3,-160"/>
<polygon fill="black" stroke="black" points="649.3,-156.5 639.3,-160 649.3,-163.5 649.3,-156.5"/>
</g>
<!-- PhotoUploadComponent -->
<g id="node4" class="node">
<title>PhotoUploadComponent</title>
<polygon fill="#ffffb3" stroke="black" points="652.72,-122 497.28,-122 497.28,-86 652.72,-86 652.72,-122"/>
<text text-anchor="middle" x="575" y="-99.8" font-family="Times,serif" font-size="14.00">PhotoUploadComponent</text>
</g>
<!-- PhotoUploadComponent&#45;&gt;GalleryPageModule -->
<g id="edge4" class="edge">
<title>PhotoUploadComponent&#45;&gt;GalleryPageModule</title>
<path fill="none" stroke="black" d="M575,-122.11C575,-122.11 575,-140.99 575,-140.99"/>
<polygon fill="black" stroke="black" points="571.5,-140.99 575,-150.99 578.5,-140.99 571.5,-140.99"/>
</g>
<!-- PhotosListComponent -->
<g id="node5" class="node">
<title>PhotosListComponent</title>
<polygon fill="#ffffb3" stroke="black" points="479.73,-122 338.27,-122 338.27,-86 479.73,-86 479.73,-122"/>
<text text-anchor="middle" x="409" y="-99.8" font-family="Times,serif" font-size="14.00">PhotosListComponent</text>
</g>
<!-- PhotosListComponent&#45;&gt;GalleryPageModule -->
<g id="edge5" class="edge">
<title>PhotosListComponent&#45;&gt;GalleryPageModule</title>
<path fill="none" stroke="black" d="M409,-122.03C409,-138.4 409,-160 409,-160 409,-160 500.34,-160 500.34,-160"/>
<polygon fill="black" stroke="black" points="500.34,-163.5 510.34,-160 500.34,-156.5 500.34,-163.5"/>
</g>
<!-- GalleryPageRoutingModule -->
<g id="node7" class="node">
<title>GalleryPageRoutingModule</title>
<polygon fill="#8dd3c7" stroke="black" points="313.86,-122 310.86,-126 289.86,-126 286.86,-122 140.14,-122 140.14,-86 313.86,-86 313.86,-122"/>
<text text-anchor="middle" x="227" y="-99.8" font-family="Times,serif" font-size="14.00">GalleryPageRoutingModule</text>
</g>
<!-- GalleryPageRoutingModule&#45;&gt;GalleryPageModule -->
<g id="edge6" class="edge">
<title>GalleryPageRoutingModule&#45;&gt;GalleryPageModule</title>
<path fill="none" stroke="black" d="M227,-122.11C227,-141.34 227,-169 227,-169 227,-169 500.36,-169 500.36,-169"/>
<polygon fill="black" stroke="black" points="500.36,-172.5 510.36,-169 500.36,-165.5 500.36,-172.5"/>
</g>
<!-- SharedModule -->
<g id="node8" class="node">
<title>SharedModule</title>
<polygon fill="#8dd3c7" stroke="black" points="122.42,-122 119.42,-126 98.42,-126 95.42,-122 23.58,-122 23.58,-86 122.42,-86 122.42,-122"/>
<text text-anchor="middle" x="73" y="-99.8" font-family="Times,serif" font-size="14.00">SharedModule</text>
</g>
<!-- SharedModule&#45;&gt;GalleryPageModule -->
<g id="edge7" class="edge">
<title>SharedModule&#45;&gt;GalleryPageModule</title>
<path fill="none" stroke="black" d="M73,-122.29C73,-144.21 73,-178 73,-178 73,-178 500.66,-178 500.66,-178"/>
<polygon fill="black" stroke="black" points="500.66,-181.5 510.66,-178 500.66,-174.5 500.66,-181.5"/>
</g>
</g>
</svg>
