<?xml version="1.0" encoding="UTF-8" standalone="no"?>
<!DOCTYPE svg PUBLIC "-//W3C//DTD SVG 1.1//EN"
 "http://www.w3.org/Graphics/SVG/1.1/DTD/svg11.dtd">
<!-- Generated by graphviz version 2.47.0 (20210316.0004)
 -->
<!-- Title: dependencies Pages: 1 -->
<svg width="504pt" height="211pt"
 viewBox="0.00 0.00 504.00 211.00" xmlns="http://www.w3.org/2000/svg" xmlns:xlink="http://www.w3.org/1999/xlink">
<g id="graph0" class="graph" transform="scale(1 1) rotate(0) translate(4 207)">
<title>dependencies</title>
<polygon fill="white" stroke="transparent" points="-4,4 -4,-207 500,-207 500,4 -4,4"/>
<text text-anchor="start" x="227.01" y="-42.4" font-family="sans-serif" font-weight="bold" font-size="14.00">Legend</text>
<polygon fill="#ffffb3" stroke="transparent" points="14,-10 14,-30 34,-30 34,-10 14,-10"/>
<text text-anchor="start" x="37.63" y="-15.4" font-family="sans-serif" font-size="14.00"> &#160;Declarations</text>
<polygon fill="#8dd3c7" stroke="transparent" points="127,-10 127,-30 147,-30 147,-10 127,-10"/>
<text text-anchor="start" x="150.73" y="-15.4" font-family="sans-serif" font-size="14.00"> &#160;Module</text>
<polygon fill="#80b1d3" stroke="transparent" points="213,-10 213,-30 233,-30 233,-10 213,-10"/>
<text text-anchor="start" x="236.78" y="-15.4" font-family="sans-serif" font-size="14.00"> &#160;Bootstrap</text>
<polygon fill="#fdb462" stroke="transparent" points="310,-10 310,-30 330,-30 330,-10 310,-10"/>
<text text-anchor="start" x="333.67" y="-15.4" font-family="sans-serif" font-size="14.00"> &#160;Providers</text>
<polygon fill="#fb8072" stroke="transparent" points="406,-10 406,-30 426,-30 426,-10 406,-10"/>
<text text-anchor="start" x="429.73" y="-15.4" font-family="sans-serif" font-size="14.00"> &#160;Exports</text>
<g id="clust1" class="cluster">
<title>cluster_GalleryPageModule</title>
<polygon fill="none" stroke="black" stroke-dasharray="1,5" points="32,-70 32,-195 464,-195 464,-70 32,-70"/>
</g>
<g id="clust2" class="cluster">
<title>cluster_GalleryPageModule_declarations</title>
<polygon fill="none" stroke="black" points="354,-78 354,-130 456,-130 456,-78 354,-78"/>
</g>
<g id="clust4" class="cluster">
<title>cluster_GalleryPageModule_imports</title>
<polygon fill="none" stroke="black" points="40,-78 40,-130 346,-130 346,-78 40,-78"/>
</g>
<!-- GalleryPage -->
<g id="node1" class="node">
<title>GalleryPage</title>
<polygon fill="#ffffb3" stroke="black" points="447.69,-122 362.31,-122 362.31,-86 447.69,-86 447.69,-122"/>
<text text-anchor="middle" x="405" y="-99.8" font-family="Times,serif" font-size="14.00">GalleryPage</text>
</g>
<!-- GalleryPageModule -->
<g id="node2" class="node">
<title>GalleryPageModule</title>
<polygon fill="#8dd3c7" stroke="black" points="315.24,-187 312.24,-191 291.24,-191 288.24,-187 186.76,-187 186.76,-151 315.24,-151 315.24,-187"/>
<text text-anchor="middle" x="251" y="-164.8" font-family="Times,serif" font-size="14.00">GalleryPageModule</text>
</g>
<!-- GalleryPage&#45;&gt;GalleryPageModule -->
<g id="edge1" class="edge">
<title>GalleryPage&#45;&gt;GalleryPageModule</title>
<path fill="none" stroke="black" d="M405,-122.11C405,-141.34 405,-169 405,-169 405,-169 325.42,-169 325.42,-169"/>
<polygon fill="black" stroke="black" points="325.42,-165.5 315.42,-169 325.42,-172.5 325.42,-165.5"/>
</g>
<!-- GalleryPageRoutingModule -->
<g id="node3" class="node">
<title>GalleryPageRoutingModule</title>
<polygon fill="#8dd3c7" stroke="black" points="337.86,-122 334.86,-126 313.86,-126 310.86,-122 164.14,-122 164.14,-86 337.86,-86 337.86,-122"/>
<text text-anchor="middle" x="251" y="-99.8" font-family="Times,serif" font-size="14.00">GalleryPageRoutingModule</text>
</g>
<!-- GalleryPageRoutingModule&#45;&gt;GalleryPageModule -->
<g id="edge2" class="edge">
<title>GalleryPageRoutingModule&#45;&gt;GalleryPageModule</title>
<path fill="none" stroke="black" d="M251,-122.11C251,-122.11 251,-140.99 251,-140.99"/>
<polygon fill="black" stroke="black" points="247.5,-140.99 251,-150.99 254.5,-140.99 247.5,-140.99"/>
</g>
<!-- SharedModule -->
<g id="node4" class="node">
<title>SharedModule</title>
<polygon fill="#8dd3c7" stroke="black" points="146.42,-122 143.42,-126 122.42,-126 119.42,-122 47.58,-122 47.58,-86 146.42,-86 146.42,-122"/>
<text text-anchor="middle" x="97" y="-99.8" font-family="Times,serif" font-size="14.00">SharedModule</text>
</g>
<!-- SharedModule&#45;&gt;GalleryPageModule -->
<g id="edge3" class="edge">
<title>SharedModule&#45;&gt;GalleryPageModule</title>
<path fill="none" stroke="black" d="M97,-122.11C97,-141.34 97,-169 97,-169 97,-169 176.58,-169 176.58,-169"/>
<polygon fill="black" stroke="black" points="176.58,-172.5 186.58,-169 176.58,-165.5 176.58,-172.5"/>
</g>
</g>
</svg>
