<?xml version="1.0" encoding="UTF-8" standalone="no"?>
<!DOCTYPE svg PUBLIC "-//W3C//DTD SVG 1.1//EN"
 "http://www.w3.org/Graphics/SVG/1.1/DTD/svg11.dtd">
<!-- Generated by graphviz version 2.44.1 (20200629.0846)
 -->
<!-- Title: dependencies Pages: 1 -->
<svg width="504pt" height="211pt"
 viewBox="0.00 0.00 504.00 211.00" xmlns="http://www.w3.org/2000/svg" xmlns:xlink="http://www.w3.org/1999/xlink">
<g id="graph0" class="graph" transform="scale(1 1) rotate(0) translate(4 207)">
<title>dependencies</title>
<polygon fill="white" stroke="transparent" points="-4,4 -4,-207 500,-207 500,4 -4,4"/>
<text text-anchor="start" x="227.01" y="-42.4" font-family="sans-serif" font-weight="bold" font-size="14.00">Legend</text>
<polygon fill="#ffffb3" stroke="transparent" points="14,-10 14,-30 34,-30 34,-10 14,-10"/>
<text text-anchor="start" x="37.63" y="-15.4" font-family="sans-serif" font-size="14.00"> &#160;Declarations</text>
<polygon fill="#8dd3c7" stroke="transparent" points="127,-10 127,-30 147,-30 147,-10 127,-10"/>
<text text-anchor="start" x="150.73" y="-15.4" font-family="sans-serif" font-size="14.00"> &#160;Module</text>
<polygon fill="#80b1d3" stroke="transparent" points="213,-10 213,-30 233,-30 233,-10 213,-10"/>
<text text-anchor="start" x="236.78" y="-15.4" font-family="sans-serif" font-size="14.00"> &#160;Bootstrap</text>
<polygon fill="#fdb462" stroke="transparent" points="310,-10 310,-30 330,-30 330,-10 310,-10"/>
<text text-anchor="start" x="333.67" y="-15.4" font-family="sans-serif" font-size="14.00"> &#160;Providers</text>
<polygon fill="#fb8072" stroke="transparent" points="406,-10 406,-30 426,-30 426,-10 406,-10"/>
<text text-anchor="start" x="429.73" y="-15.4" font-family="sans-serif" font-size="14.00"> &#160;Exports</text>
<g id="clust1" class="cluster">
<title>cluster_GalleryPageModule</title>
<polygon fill="none" stroke="black" stroke-dasharray="1,5" points="90,-70 90,-195 406,-195 406,-70 90,-70"/>
</g>
<g id="clust4" class="cluster">
<title>cluster_GalleryPageModule_imports</title>
<polygon fill="none" stroke="black" points="208,-78 208,-130 398,-130 398,-78 208,-78"/>
</g>
<g id="clust2" class="cluster">
<title>cluster_GalleryPageModule_declarations</title>
<polygon fill="none" stroke="black" points="98,-78 98,-130 200,-130 200,-78 98,-78"/>
</g>
<!-- GalleryPage -->
<g id="node1" class="node">
<title>GalleryPage</title>
<polygon fill="#ffffb3" stroke="black" points="191.69,-122 106.31,-122 106.31,-86 191.69,-86 191.69,-122"/>
<text text-anchor="middle" x="149" y="-99.8" font-family="Times,serif" font-size="14.00">GalleryPage</text>
</g>
<!-- GalleryPageModule -->
<g id="node2" class="node">
<title>GalleryPageModule</title>
<polygon fill="#8dd3c7" stroke="black" points="296.24,-187 293.24,-191 272.24,-191 269.24,-187 167.76,-187 167.76,-151 296.24,-151 296.24,-187"/>
<text text-anchor="middle" x="232" y="-164.8" font-family="Times,serif" font-size="14.00">GalleryPageModule</text>
</g>
<!-- GalleryPage&#45;&gt;GalleryPageModule -->
<g id="edge1" class="edge">
<title>GalleryPage&#45;&gt;GalleryPageModule</title>
<path fill="none" stroke="black" d="M179.61,-122.11C179.61,-122.11 179.61,-140.99 179.61,-140.99"/>
<polygon fill="black" stroke="black" points="176.11,-140.99 179.61,-150.99 183.11,-140.99 176.11,-140.99"/>
</g>
<!-- GalleryPageRoutingModule -->
<g id="node3" class="node">
<title>GalleryPageRoutingModule</title>
<polygon fill="#8dd3c7" stroke="black" points="389.86,-122 386.86,-126 365.86,-126 362.86,-122 216.14,-122 216.14,-86 389.86,-86 389.86,-122"/>
<text text-anchor="middle" x="303" y="-99.8" font-family="Times,serif" font-size="14.00">GalleryPageRoutingModule</text>
</g>
<!-- GalleryPageRoutingModule&#45;&gt;GalleryPageModule -->
<g id="edge2" class="edge">
<title>GalleryPageRoutingModule&#45;&gt;GalleryPageModule</title>
<path fill="none" stroke="black" d="M256.22,-122.11C256.22,-122.11 256.22,-140.99 256.22,-140.99"/>
<polygon fill="black" stroke="black" points="252.72,-140.99 256.22,-150.99 259.72,-140.99 252.72,-140.99"/>
</g>
</g>
</svg>
