<?xml version="1.0" encoding="UTF-8" standalone="no"?>
<!DOCTYPE svg PUBLIC "-//W3C//DTD SVG 1.1//EN"
 "http://www.w3.org/Graphics/SVG/1.1/DTD/svg11.dtd">
<!-- Generated by graphviz version 2.47.0 (20210316.0004)
 -->
<!-- Title: dependencies Pages: 1 -->
<svg width="504pt" height="211pt"
 viewBox="0.00 0.00 504.00 211.00" xmlns="http://www.w3.org/2000/svg" xmlns:xlink="http://www.w3.org/1999/xlink">
<g id="graph0" class="graph" transform="scale(1 1) rotate(0) translate(4 207)">
<title>dependencies</title>
<polygon fill="white" stroke="transparent" points="-4,4 -4,-207 500,-207 500,4 -4,4"/>
<text text-anchor="start" x="227.01" y="-42.4" font-family="sans-serif" font-weight="bold" font-size="14.00">Legend</text>
<polygon fill="#ffffb3" stroke="transparent" points="14,-10 14,-30 34,-30 34,-10 14,-10"/>
<text text-anchor="start" x="37.63" y="-15.4" font-family="sans-serif" font-size="14.00"> &#160;Declarations</text>
<polygon fill="#8dd3c7" stroke="transparent" points="127,-10 127,-30 147,-30 147,-10 127,-10"/>
<text text-anchor="start" x="150.73" y="-15.4" font-family="sans-serif" font-size="14.00"> &#160;Module</text>
<polygon fill="#80b1d3" stroke="transparent" points="213,-10 213,-30 233,-30 233,-10 213,-10"/>
<text text-anchor="start" x="236.78" y="-15.4" font-family="sans-serif" font-size="14.00"> &#160;Bootstrap</text>
<polygon fill="#fdb462" stroke="transparent" points="310,-10 310,-30 330,-30 330,-10 310,-10"/>
<text text-anchor="start" x="333.67" y="-15.4" font-family="sans-serif" font-size="14.00"> &#160;Providers</text>
<polygon fill="#fb8072" stroke="transparent" points="406,-10 406,-30 426,-30 426,-10 406,-10"/>
<text text-anchor="start" x="429.73" y="-15.4" font-family="sans-serif" font-size="14.00"> &#160;Exports</text>
<g id="clust1" class="cluster">
<title>cluster_FaqPageModule</title>
<polygon fill="none" stroke="black" stroke-dasharray="1,5" points="53.5,-70 53.5,-195 442.5,-195 442.5,-70 53.5,-70"/>
</g>
<g id="clust2" class="cluster">
<title>cluster_FaqPageModule_declarations</title>
<polygon fill="none" stroke="black" points="354.5,-78 354.5,-130 434.5,-130 434.5,-78 354.5,-78"/>
</g>
<g id="clust4" class="cluster">
<title>cluster_FaqPageModule_imports</title>
<polygon fill="none" stroke="black" points="61.5,-78 61.5,-130 346.5,-130 346.5,-78 61.5,-78"/>
</g>
<!-- FaqPage -->
<g id="node1" class="node">
<title>FaqPage</title>
<polygon fill="#ffffb3" stroke="black" points="426.71,-122 362.29,-122 362.29,-86 426.71,-86 426.71,-122"/>
<text text-anchor="middle" x="394.5" y="-99.8" font-family="Times,serif" font-size="14.00">FaqPage</text>
</g>
<!-- FaqPageModule -->
<g id="node2" class="node">
<title>FaqPageModule</title>
<polygon fill="#8dd3c7" stroke="black" points="316.26,-187 313.26,-191 292.26,-191 289.26,-187 208.74,-187 208.74,-151 316.26,-151 316.26,-187"/>
<text text-anchor="middle" x="262.5" y="-164.8" font-family="Times,serif" font-size="14.00">FaqPageModule</text>
</g>
<!-- FaqPage&#45;&gt;FaqPageModule -->
<g id="edge1" class="edge">
<title>FaqPage&#45;&gt;FaqPageModule</title>
<path fill="none" stroke="black" d="M394.5,-122.11C394.5,-141.34 394.5,-169 394.5,-169 394.5,-169 326.57,-169 326.57,-169"/>
<polygon fill="black" stroke="black" points="326.57,-165.5 316.57,-169 326.57,-172.5 326.57,-165.5"/>
</g>
<!-- FaqPageRoutingModule -->
<g id="node3" class="node">
<title>FaqPageRoutingModule</title>
<polygon fill="#8dd3c7" stroke="black" points="338.88,-122 335.88,-126 314.88,-126 311.88,-122 186.12,-122 186.12,-86 338.88,-86 338.88,-122"/>
<text text-anchor="middle" x="262.5" y="-99.8" font-family="Times,serif" font-size="14.00">FaqPageRoutingModule</text>
</g>
<!-- FaqPageRoutingModule&#45;&gt;FaqPageModule -->
<g id="edge2" class="edge">
<title>FaqPageRoutingModule&#45;&gt;FaqPageModule</title>
<path fill="none" stroke="black" d="M262.5,-122.11C262.5,-122.11 262.5,-140.99 262.5,-140.99"/>
<polygon fill="black" stroke="black" points="259,-140.99 262.5,-150.99 266,-140.99 259,-140.99"/>
</g>
<!-- SharedModule -->
<g id="node4" class="node">
<title>SharedModule</title>
<polygon fill="#8dd3c7" stroke="black" points="167.92,-122 164.92,-126 143.92,-126 140.92,-122 69.08,-122 69.08,-86 167.92,-86 167.92,-122"/>
<text text-anchor="middle" x="118.5" y="-99.8" font-family="Times,serif" font-size="14.00">SharedModule</text>
</g>
<!-- SharedModule&#45;&gt;FaqPageModule -->
<g id="edge3" class="edge">
<title>SharedModule&#45;&gt;FaqPageModule</title>
<path fill="none" stroke="black" d="M118.5,-122.11C118.5,-141.34 118.5,-169 118.5,-169 118.5,-169 198.47,-169 198.47,-169"/>
<polygon fill="black" stroke="black" points="198.47,-172.5 208.47,-169 198.47,-165.5 198.47,-172.5"/>
</g>
</g>
</svg>
