<?xml version="1.0" encoding="UTF-8" standalone="no"?>
<!DOCTYPE svg PUBLIC "-//W3C//DTD SVG 1.1//EN"
 "http://www.w3.org/Graphics/SVG/1.1/DTD/svg11.dtd">
<!-- Generated by graphviz version 2.44.1 (20200629.0846)
 -->
<!-- Title: dependencies Pages: 1 -->
<svg width="538pt" height="211pt"
 viewBox="0.00 0.00 538.00 211.00" xmlns="http://www.w3.org/2000/svg" xmlns:xlink="http://www.w3.org/1999/xlink">
<g id="graph0" class="graph" transform="scale(1 1) rotate(0) translate(4 207)">
<title>dependencies</title>
<polygon fill="white" stroke="transparent" points="-4,4 -4,-207 534,-207 534,4 -4,4"/>
<text text-anchor="start" x="244.01" y="-42.4" font-family="sans-serif" font-weight="bold" font-size="14.00">Legend</text>
<polygon fill="#ffffb3" stroke="transparent" points="31,-10 31,-30 51,-30 51,-10 31,-10"/>
<text text-anchor="start" x="54.63" y="-15.4" font-family="sans-serif" font-size="14.00"> &#160;Declarations</text>
<polygon fill="#8dd3c7" stroke="transparent" points="144,-10 144,-30 164,-30 164,-10 144,-10"/>
<text text-anchor="start" x="167.73" y="-15.4" font-family="sans-serif" font-size="14.00"> &#160;Module</text>
<polygon fill="#80b1d3" stroke="transparent" points="230,-10 230,-30 250,-30 250,-10 230,-10"/>
<text text-anchor="start" x="253.78" y="-15.4" font-family="sans-serif" font-size="14.00"> &#160;Bootstrap</text>
<polygon fill="#fdb462" stroke="transparent" points="327,-10 327,-30 347,-30 347,-10 327,-10"/>
<text text-anchor="start" x="350.67" y="-15.4" font-family="sans-serif" font-size="14.00"> &#160;Providers</text>
<polygon fill="#fb8072" stroke="transparent" points="423,-10 423,-30 443,-30 443,-10 423,-10"/>
<text text-anchor="start" x="446.73" y="-15.4" font-family="sans-serif" font-size="14.00"> &#160;Exports</text>
<g id="clust1" class="cluster">
<title>cluster_FaqPageModule</title>
<polygon fill="none" stroke="black" stroke-dasharray="1,5" points="8,-70 8,-195 522,-195 522,-70 8,-70"/>
</g>
<g id="clust4" class="cluster">
<title>cluster_FaqPageModule_imports</title>
<polygon fill="none" stroke="black" points="104,-78 104,-130 514,-130 514,-78 104,-78"/>
</g>
<g id="clust2" class="cluster">
<title>cluster_FaqPageModule_declarations</title>
<polygon fill="none" stroke="black" points="16,-78 16,-130 96,-130 96,-78 16,-78"/>
</g>
<!-- FaqPage -->
<g id="node1" class="node">
<title>FaqPage</title>
<polygon fill="#ffffb3" stroke="black" points="88.21,-122 23.79,-122 23.79,-86 88.21,-86 88.21,-122"/>
<text text-anchor="middle" x="56" y="-99.8" font-family="Times,serif" font-size="14.00">FaqPage</text>
</g>
<!-- FaqPageModule -->
<g id="node2" class="node">
<title>FaqPageModule</title>
<polygon fill="#8dd3c7" stroke="black" points="274.76,-187 271.76,-191 250.76,-191 247.76,-187 167.24,-187 167.24,-151 274.76,-151 274.76,-187"/>
<text text-anchor="middle" x="221" y="-164.8" font-family="Times,serif" font-size="14.00">FaqPageModule</text>
</g>
<!-- FaqPage&#45;&gt;FaqPageModule -->
<g id="edge1" class="edge">
<title>FaqPage&#45;&gt;FaqPageModule</title>
<path fill="none" stroke="black" d="M56,-122.11C56,-141.34 56,-169 56,-169 56,-169 156.97,-169 156.97,-169"/>
<polygon fill="black" stroke="black" points="156.97,-172.5 166.97,-169 156.97,-165.5 156.97,-172.5"/>
</g>
<!-- FaqPageRoutingModule -->
<g id="node3" class="node">
<title>FaqPageRoutingModule</title>
<polygon fill="#8dd3c7" stroke="black" points="506.38,-122 503.38,-126 482.38,-126 479.38,-122 353.62,-122 353.62,-86 506.38,-86 506.38,-122"/>
<text text-anchor="middle" x="430" y="-99.8" font-family="Times,serif" font-size="14.00">FaqPageRoutingModule</text>
</g>
<!-- FaqPageRoutingModule&#45;&gt;FaqPageModule -->
<g id="edge2" class="edge">
<title>FaqPageRoutingModule&#45;&gt;FaqPageModule</title>
<path fill="none" stroke="black" d="M430,-122.11C430,-141.34 430,-169 430,-169 430,-169 284.82,-169 284.82,-169"/>
<polygon fill="black" stroke="black" points="284.82,-165.5 274.82,-169 284.82,-172.5 284.82,-165.5"/>
</g>
<!-- MaterialModule -->
<g id="node4" class="node">
<title>MaterialModule</title>
<polygon fill="#8dd3c7" stroke="black" points="335.47,-122 332.47,-126 311.47,-126 308.47,-122 228.53,-122 228.53,-86 335.47,-86 335.47,-122"/>
<text text-anchor="middle" x="282" y="-99.8" font-family="Times,serif" font-size="14.00">MaterialModule</text>
</g>
<!-- MaterialModule&#45;&gt;FaqPageModule -->
<g id="edge3" class="edge">
<title>MaterialModule&#45;&gt;FaqPageModule</title>
<path fill="none" stroke="black" d="M251.7,-122.11C251.7,-122.11 251.7,-140.99 251.7,-140.99"/>
<polygon fill="black" stroke="black" points="248.2,-140.99 251.7,-150.99 255.2,-140.99 248.2,-140.99"/>
</g>
<!-- SharedModule -->
<g id="node5" class="node">
<title>SharedModule</title>
<polygon fill="#8dd3c7" stroke="black" points="210.42,-122 207.42,-126 186.42,-126 183.42,-122 111.58,-122 111.58,-86 210.42,-86 210.42,-122"/>
<text text-anchor="middle" x="161" y="-99.8" font-family="Times,serif" font-size="14.00">SharedModule</text>
</g>
<!-- SharedModule&#45;&gt;FaqPageModule -->
<g id="edge4" class="edge">
<title>SharedModule&#45;&gt;FaqPageModule</title>
<path fill="none" stroke="black" d="M188.67,-122.11C188.67,-122.11 188.67,-140.99 188.67,-140.99"/>
<polygon fill="black" stroke="black" points="185.17,-140.99 188.67,-150.99 192.17,-140.99 185.17,-140.99"/>
</g>
</g>
</svg>
