<?xml version="1.0" encoding="UTF-8" standalone="no"?>
<!DOCTYPE svg PUBLIC "-//W3C//DTD SVG 1.1//EN"
 "http://www.w3.org/Graphics/SVG/1.1/DTD/svg11.dtd">
<!-- Generated by graphviz version 2.44.1 (20200629.0846)
 -->
<!-- Title: dependencies Pages: 1 -->
<svg width="538pt" height="211pt"
 viewBox="0.00 0.00 538.00 211.00" xmlns="http://www.w3.org/2000/svg" xmlns:xlink="http://www.w3.org/1999/xlink">
<g id="graph0" class="graph" transform="scale(1 1) rotate(0) translate(4 207)">
<title>dependencies</title>
<polygon fill="white" stroke="transparent" points="-4,4 -4,-207 534,-207 534,4 -4,4"/>
<text text-anchor="start" x="244.01" y="-42.4" font-family="sans-serif" font-weight="bold" font-size="14.00">Legend</text>
<polygon fill="#ffffb3" stroke="transparent" points="31,-10 31,-30 51,-30 51,-10 31,-10"/>
<text text-anchor="start" x="54.63" y="-15.4" font-family="sans-serif" font-size="14.00"> &#160;Declarations</text>
<polygon fill="#8dd3c7" stroke="transparent" points="144,-10 144,-30 164,-30 164,-10 144,-10"/>
<text text-anchor="start" x="167.73" y="-15.4" font-family="sans-serif" font-size="14.00"> &#160;Module</text>
<polygon fill="#80b1d3" stroke="transparent" points="230,-10 230,-30 250,-30 250,-10 230,-10"/>
<text text-anchor="start" x="253.78" y="-15.4" font-family="sans-serif" font-size="14.00"> &#160;Bootstrap</text>
<polygon fill="#fdb462" stroke="transparent" points="327,-10 327,-30 347,-30 347,-10 327,-10"/>
<text text-anchor="start" x="350.67" y="-15.4" font-family="sans-serif" font-size="14.00"> &#160;Providers</text>
<polygon fill="#fb8072" stroke="transparent" points="423,-10 423,-30 443,-30 443,-10 423,-10"/>
<text text-anchor="start" x="446.73" y="-15.4" font-family="sans-serif" font-size="14.00"> &#160;Exports</text>
<g id="clust1" class="cluster">
<title>cluster_FaqPageModule</title>
<polygon fill="none" stroke="black" stroke-dasharray="1,5" points="8,-70 8,-195 522,-195 522,-70 8,-70"/>
</g>
<g id="clust2" class="cluster">
<title>cluster_FaqPageModule_declarations</title>
<polygon fill="none" stroke="black" points="434,-78 434,-130 514,-130 514,-78 434,-78"/>
</g>
<g id="clust4" class="cluster">
<title>cluster_FaqPageModule_imports</title>
<polygon fill="none" stroke="black" points="16,-78 16,-130 426,-130 426,-78 16,-78"/>
</g>
<!-- FaqPage -->
<g id="node1" class="node">
<title>FaqPage</title>
<polygon fill="#ffffb3" stroke="black" points="506.21,-122 441.79,-122 441.79,-86 506.21,-86 506.21,-122"/>
<text text-anchor="middle" x="474" y="-99.8" font-family="Times,serif" font-size="14.00">FaqPage</text>
</g>
<!-- FaqPageModule -->
<g id="node2" class="node">
<title>FaqPageModule</title>
<polygon fill="#8dd3c7" stroke="black" points="321.76,-187 318.76,-191 297.76,-191 294.76,-187 214.24,-187 214.24,-151 321.76,-151 321.76,-187"/>
<text text-anchor="middle" x="268" y="-164.8" font-family="Times,serif" font-size="14.00">FaqPageModule</text>
</g>
<!-- FaqPage&#45;&gt;FaqPageModule -->
<g id="edge1" class="edge">
<title>FaqPage&#45;&gt;FaqPageModule</title>
<path fill="none" stroke="black" d="M474,-122.11C474,-141.34 474,-169 474,-169 474,-169 331.85,-169 331.85,-169"/>
<polygon fill="black" stroke="black" points="331.86,-165.5 321.85,-169 331.85,-172.5 331.86,-165.5"/>
</g>
<!-- FaqPageRoutingModule -->
<g id="node3" class="node">
<title>FaqPageRoutingModule</title>
<polygon fill="#8dd3c7" stroke="black" points="418.38,-122 415.38,-126 394.38,-126 391.38,-122 265.62,-122 265.62,-86 418.38,-86 418.38,-122"/>
<text text-anchor="middle" x="342" y="-99.8" font-family="Times,serif" font-size="14.00">FaqPageRoutingModule</text>
</g>
<!-- FaqPageRoutingModule&#45;&gt;FaqPageModule -->
<g id="edge2" class="edge">
<title>FaqPageRoutingModule&#45;&gt;FaqPageModule</title>
<path fill="none" stroke="black" d="M293.72,-122.11C293.72,-122.11 293.72,-140.99 293.72,-140.99"/>
<polygon fill="black" stroke="black" points="290.22,-140.99 293.72,-150.99 297.22,-140.99 290.22,-140.99"/>
</g>
<!-- MaterialModule -->
<g id="node4" class="node">
<title>MaterialModule</title>
<polygon fill="#8dd3c7" stroke="black" points="247.47,-122 244.47,-126 223.47,-126 220.47,-122 140.53,-122 140.53,-86 247.47,-86 247.47,-122"/>
<text text-anchor="middle" x="194" y="-99.8" font-family="Times,serif" font-size="14.00">MaterialModule</text>
</g>
<!-- MaterialModule&#45;&gt;FaqPageModule -->
<g id="edge3" class="edge">
<title>MaterialModule&#45;&gt;FaqPageModule</title>
<path fill="none" stroke="black" d="M230.8,-122.11C230.8,-122.11 230.8,-140.99 230.8,-140.99"/>
<polygon fill="black" stroke="black" points="227.3,-140.99 230.8,-150.99 234.3,-140.99 227.3,-140.99"/>
</g>
<!-- SharedModule -->
<g id="node5" class="node">
<title>SharedModule</title>
<polygon fill="#8dd3c7" stroke="black" points="122.42,-122 119.42,-126 98.42,-126 95.42,-122 23.58,-122 23.58,-86 122.42,-86 122.42,-122"/>
<text text-anchor="middle" x="73" y="-99.8" font-family="Times,serif" font-size="14.00">SharedModule</text>
</g>
<!-- SharedModule&#45;&gt;FaqPageModule -->
<g id="edge4" class="edge">
<title>SharedModule&#45;&gt;FaqPageModule</title>
<path fill="none" stroke="black" d="M73,-122.11C73,-141.34 73,-169 73,-169 73,-169 204.2,-169 204.2,-169"/>
<polygon fill="black" stroke="black" points="204.2,-172.5 214.2,-169 204.2,-165.5 204.2,-172.5"/>
</g>
</g>
</svg>
