<?xml version="1.0" encoding="UTF-8" standalone="no"?>
<!DOCTYPE svg PUBLIC "-//W3C//DTD SVG 1.1//EN"
 "http://www.w3.org/Graphics/SVG/1.1/DTD/svg11.dtd">
<!-- Generated by graphviz version 2.44.1 (20200629.0846)
 -->
<!-- Title: dependencies Pages: 1 -->
<svg width="504pt" height="211pt"
 viewBox="0.00 0.00 504.00 211.00" xmlns="http://www.w3.org/2000/svg" xmlns:xlink="http://www.w3.org/1999/xlink">
<g id="graph0" class="graph" transform="scale(1 1) rotate(0) translate(4 207)">
<title>dependencies</title>
<polygon fill="white" stroke="transparent" points="-4,4 -4,-207 500,-207 500,4 -4,4"/>
<text text-anchor="start" x="227.01" y="-42.4" font-family="sans-serif" font-weight="bold" font-size="14.00">Legend</text>
<polygon fill="#ffffb3" stroke="transparent" points="14,-10 14,-30 34,-30 34,-10 14,-10"/>
<text text-anchor="start" x="37.63" y="-15.4" font-family="sans-serif" font-size="14.00"> &#160;Declarations</text>
<polygon fill="#8dd3c7" stroke="transparent" points="127,-10 127,-30 147,-30 147,-10 127,-10"/>
<text text-anchor="start" x="150.73" y="-15.4" font-family="sans-serif" font-size="14.00"> &#160;Module</text>
<polygon fill="#80b1d3" stroke="transparent" points="213,-10 213,-30 233,-30 233,-10 213,-10"/>
<text text-anchor="start" x="236.78" y="-15.4" font-family="sans-serif" font-size="14.00"> &#160;Bootstrap</text>
<polygon fill="#fdb462" stroke="transparent" points="310,-10 310,-30 330,-30 330,-10 310,-10"/>
<text text-anchor="start" x="333.67" y="-15.4" font-family="sans-serif" font-size="14.00"> &#160;Providers</text>
<polygon fill="#fb8072" stroke="transparent" points="406,-10 406,-30 426,-30 426,-10 406,-10"/>
<text text-anchor="start" x="429.73" y="-15.4" font-family="sans-serif" font-size="14.00"> &#160;Exports</text>
<g id="clust1" class="cluster">
<title>cluster_AboutUsPageModule</title>
<polygon fill="none" stroke="black" stroke-dasharray="1,5" points="24,-70 24,-195 472,-195 472,-70 24,-70"/>
</g>
<g id="clust4" class="cluster">
<title>cluster_AboutUsPageModule_imports</title>
<polygon fill="none" stroke="black" points="150,-78 150,-130 464,-130 464,-78 150,-78"/>
</g>
<g id="clust2" class="cluster">
<title>cluster_AboutUsPageModule_declarations</title>
<polygon fill="none" stroke="black" points="32,-78 32,-130 142,-130 142,-78 32,-78"/>
</g>
<!-- AboutUsPage -->
<g id="node1" class="node">
<title>AboutUsPage</title>
<polygon fill="#ffffb3" stroke="black" points="133.76,-122 40.24,-122 40.24,-86 133.76,-86 133.76,-122"/>
<text text-anchor="middle" x="87" y="-99.8" font-family="Times,serif" font-size="14.00">AboutUsPage</text>
</g>
<!-- AboutUsPageModule -->
<g id="node2" class="node">
<title>AboutUsPageModule</title>
<polygon fill="#8dd3c7" stroke="black" points="275.81,-187 272.81,-191 251.81,-191 248.81,-187 138.19,-187 138.19,-151 275.81,-151 275.81,-187"/>
<text text-anchor="middle" x="207" y="-164.8" font-family="Times,serif" font-size="14.00">AboutUsPageModule</text>
</g>
<!-- AboutUsPage&#45;&gt;AboutUsPageModule -->
<g id="edge1" class="edge">
<title>AboutUsPage&#45;&gt;AboutUsPageModule</title>
<path fill="none" stroke="black" d="M133.9,-104C142.1,-104 148.07,-104 148.07,-104 148.07,-104 148.07,-140.89 148.07,-140.89"/>
<polygon fill="black" stroke="black" points="144.57,-140.89 148.07,-150.89 151.57,-140.89 144.57,-140.89"/>
</g>
<!-- AboutUsPageRoutingModule -->
<g id="node3" class="node">
<title>AboutUsPageRoutingModule</title>
<polygon fill="#8dd3c7" stroke="black" points="456.43,-122 453.43,-126 432.43,-126 429.43,-122 273.57,-122 273.57,-86 456.43,-86 456.43,-122"/>
<text text-anchor="middle" x="365" y="-99.8" font-family="Times,serif" font-size="14.00">AboutUsPageRoutingModule</text>
</g>
<!-- AboutUsPageRoutingModule&#45;&gt;AboutUsPageModule -->
<g id="edge2" class="edge">
<title>AboutUsPageRoutingModule&#45;&gt;AboutUsPageModule</title>
<path fill="none" stroke="black" d="M273.52,-104C268.23,-104 265,-104 265,-104 265,-104 265,-140.89 265,-140.89"/>
<polygon fill="black" stroke="black" points="261.5,-140.89 265,-150.89 268.5,-140.89 261.5,-140.89"/>
</g>
<!-- SharedModule -->
<g id="node4" class="node">
<title>SharedModule</title>
<polygon fill="#8dd3c7" stroke="black" points="256.42,-122 253.42,-126 232.42,-126 229.42,-122 157.58,-122 157.58,-86 256.42,-86 256.42,-122"/>
<text text-anchor="middle" x="207" y="-99.8" font-family="Times,serif" font-size="14.00">SharedModule</text>
</g>
<!-- SharedModule&#45;&gt;AboutUsPageModule -->
<g id="edge3" class="edge">
<title>SharedModule&#45;&gt;AboutUsPageModule</title>
<path fill="none" stroke="black" d="M207,-122.11C207,-122.11 207,-140.99 207,-140.99"/>
<polygon fill="black" stroke="black" points="203.5,-140.99 207,-150.99 210.5,-140.99 203.5,-140.99"/>
</g>
</g>
</svg>
