<?xml version="1.0" encoding="UTF-8" standalone="no"?>
<!DOCTYPE svg PUBLIC "-//W3C//DTD SVG 1.1//EN"
 "http://www.w3.org/Graphics/SVG/1.1/DTD/svg11.dtd">
<!-- Generated by graphviz version 2.47.0 (20210316.0004)
 -->
<!-- Title: dependencies Pages: 1 -->
<svg width="504pt" height="211pt"
 viewBox="0.00 0.00 504.00 211.00" xmlns="http://www.w3.org/2000/svg" xmlns:xlink="http://www.w3.org/1999/xlink">
<g id="graph0" class="graph" transform="scale(1 1) rotate(0) translate(4 207)">
<title>dependencies</title>
<polygon fill="white" stroke="transparent" points="-4,4 -4,-207 500,-207 500,4 -4,4"/>
<text text-anchor="start" x="227.01" y="-42.4" font-family="sans-serif" font-weight="bold" font-size="14.00">Legend</text>
<polygon fill="#ffffb3" stroke="transparent" points="14,-10 14,-30 34,-30 34,-10 14,-10"/>
<text text-anchor="start" x="37.63" y="-15.4" font-family="sans-serif" font-size="14.00"> &#160;Declarations</text>
<polygon fill="#8dd3c7" stroke="transparent" points="127,-10 127,-30 147,-30 147,-10 127,-10"/>
<text text-anchor="start" x="150.73" y="-15.4" font-family="sans-serif" font-size="14.00"> &#160;Module</text>
<polygon fill="#80b1d3" stroke="transparent" points="213,-10 213,-30 233,-30 233,-10 213,-10"/>
<text text-anchor="start" x="236.78" y="-15.4" font-family="sans-serif" font-size="14.00"> &#160;Bootstrap</text>
<polygon fill="#fdb462" stroke="transparent" points="310,-10 310,-30 330,-30 330,-10 310,-10"/>
<text text-anchor="start" x="333.67" y="-15.4" font-family="sans-serif" font-size="14.00"> &#160;Providers</text>
<polygon fill="#fb8072" stroke="transparent" points="406,-10 406,-30 426,-30 426,-10 406,-10"/>
<text text-anchor="start" x="429.73" y="-15.4" font-family="sans-serif" font-size="14.00"> &#160;Exports</text>
<g id="clust1" class="cluster">
<title>cluster_StudentEditPageModule</title>
<polygon fill="none" stroke="black" stroke-dasharray="1,5" points="66,-70 66,-195 430,-195 430,-70 66,-70"/>
</g>
<g id="clust4" class="cluster">
<title>cluster_StudentEditPageModule_imports</title>
<polygon fill="none" stroke="black" points="208,-78 208,-130 422,-130 422,-78 208,-78"/>
</g>
<g id="clust2" class="cluster">
<title>cluster_StudentEditPageModule_declarations</title>
<polygon fill="none" stroke="black" points="74,-78 74,-130 200,-130 200,-78 74,-78"/>
</g>
<!-- StudentEditPage -->
<g id="node1" class="node">
<title>StudentEditPage</title>
<polygon fill="#ffffb3" stroke="black" points="191.82,-122 82.18,-122 82.18,-86 191.82,-86 191.82,-122"/>
<text text-anchor="middle" x="137" y="-99.8" font-family="Times,serif" font-size="14.00">StudentEditPage</text>
</g>
<!-- StudentEditPageModule -->
<g id="node2" class="node">
<title>StudentEditPageModule</title>
<polygon fill="#8dd3c7" stroke="black" points="308.37,-187 305.37,-191 284.37,-191 281.37,-187 155.63,-187 155.63,-151 308.37,-151 308.37,-187"/>
<text text-anchor="middle" x="232" y="-164.8" font-family="Times,serif" font-size="14.00">StudentEditPageModule</text>
</g>
<!-- StudentEditPage&#45;&gt;StudentEditPageModule -->
<g id="edge1" class="edge">
<title>StudentEditPage&#45;&gt;StudentEditPageModule</title>
<path fill="none" stroke="black" d="M173.61,-122.11C173.61,-122.11 173.61,-140.99 173.61,-140.99"/>
<polygon fill="black" stroke="black" points="170.11,-140.99 173.61,-150.99 177.11,-140.99 170.11,-140.99"/>
</g>
<!-- StudentEditPageRoutingModule -->
<g id="node3" class="node">
<title>StudentEditPageRoutingModule</title>
<polygon fill="#8dd3c7" stroke="black" points="413.99,-122 410.99,-126 389.99,-126 386.99,-122 216.01,-122 216.01,-86 413.99,-86 413.99,-122"/>
<text text-anchor="middle" x="315" y="-99.8" font-family="Times,serif" font-size="14.00">StudentEditPageRoutingModule</text>
</g>
<!-- StudentEditPageRoutingModule&#45;&gt;StudentEditPageModule -->
<g id="edge2" class="edge">
<title>StudentEditPageRoutingModule&#45;&gt;StudentEditPageModule</title>
<path fill="none" stroke="black" d="M262.22,-122.11C262.22,-122.11 262.22,-140.99 262.22,-140.99"/>
<polygon fill="black" stroke="black" points="258.72,-140.99 262.22,-150.99 265.72,-140.99 258.72,-140.99"/>
</g>
</g>
</svg>
