<?xml version="1.0" encoding="UTF-8" standalone="no"?>
<!DOCTYPE svg PUBLIC "-//W3C//DTD SVG 1.1//EN"
 "http://www.w3.org/Graphics/SVG/1.1/DTD/svg11.dtd">
<!-- Generated by graphviz version 2.44.1 (20200629.0846)
 -->
<!-- Title: dependencies Pages: 1 -->
<svg width="504pt" height="211pt"
 viewBox="0.00 0.00 504.00 211.00" xmlns="http://www.w3.org/2000/svg" xmlns:xlink="http://www.w3.org/1999/xlink">
<g id="graph0" class="graph" transform="scale(1 1) rotate(0) translate(4 207)">
<title>dependencies</title>
<polygon fill="white" stroke="transparent" points="-4,4 -4,-207 500,-207 500,4 -4,4"/>
<text text-anchor="start" x="227.01" y="-42.4" font-family="sans-serif" font-weight="bold" font-size="14.00">Legend</text>
<polygon fill="#ffffb3" stroke="transparent" points="14,-10 14,-30 34,-30 34,-10 14,-10"/>
<text text-anchor="start" x="37.63" y="-15.4" font-family="sans-serif" font-size="14.00"> &#160;Declarations</text>
<polygon fill="#8dd3c7" stroke="transparent" points="127,-10 127,-30 147,-30 147,-10 127,-10"/>
<text text-anchor="start" x="150.73" y="-15.4" font-family="sans-serif" font-size="14.00"> &#160;Module</text>
<polygon fill="#80b1d3" stroke="transparent" points="213,-10 213,-30 233,-30 233,-10 213,-10"/>
<text text-anchor="start" x="236.78" y="-15.4" font-family="sans-serif" font-size="14.00"> &#160;Bootstrap</text>
<polygon fill="#fdb462" stroke="transparent" points="310,-10 310,-30 330,-30 330,-10 310,-10"/>
<text text-anchor="start" x="333.67" y="-15.4" font-family="sans-serif" font-size="14.00"> &#160;Providers</text>
<polygon fill="#fb8072" stroke="transparent" points="406,-10 406,-30 426,-30 426,-10 406,-10"/>
<text text-anchor="start" x="429.73" y="-15.4" font-family="sans-serif" font-size="14.00"> &#160;Exports</text>
<g id="clust1" class="cluster">
<title>cluster_ForgotPasswordPageModule</title>
<polygon fill="none" stroke="black" stroke-dasharray="1,5" points="42,-70 42,-195 454,-195 454,-70 42,-70"/>
</g>
<g id="clust2" class="cluster">
<title>cluster_ForgotPasswordPageModule_declarations</title>
<polygon fill="none" stroke="black" points="296,-78 296,-130 446,-130 446,-78 296,-78"/>
</g>
<g id="clust4" class="cluster">
<title>cluster_ForgotPasswordPageModule_imports</title>
<polygon fill="none" stroke="black" points="50,-78 50,-130 288,-130 288,-78 50,-78"/>
</g>
<!-- ForgotPasswordPage -->
<g id="node1" class="node">
<title>ForgotPasswordPage</title>
<polygon fill="#ffffb3" stroke="black" points="438.2,-122 303.8,-122 303.8,-86 438.2,-86 438.2,-122"/>
<text text-anchor="middle" x="371" y="-99.8" font-family="Times,serif" font-size="14.00">ForgotPasswordPage</text>
</g>
<!-- ForgotPasswordPageModule -->
<g id="node2" class="node">
<title>ForgotPasswordPageModule</title>
<polygon fill="#8dd3c7" stroke="black" points="351.75,-187 348.75,-191 327.75,-191 324.75,-187 174.25,-187 174.25,-151 351.75,-151 351.75,-187"/>
<text text-anchor="middle" x="263" y="-164.8" font-family="Times,serif" font-size="14.00">ForgotPasswordPageModule</text>
</g>
<!-- ForgotPasswordPage&#45;&gt;ForgotPasswordPageModule -->
<g id="edge1" class="edge">
<title>ForgotPasswordPage&#45;&gt;ForgotPasswordPageModule</title>
<path fill="none" stroke="black" d="M327.89,-122.11C327.89,-122.11 327.89,-140.99 327.89,-140.99"/>
<polygon fill="black" stroke="black" points="324.39,-140.99 327.89,-150.99 331.39,-140.99 324.39,-140.99"/>
</g>
<!-- ForgotPasswordPageRoutingModule -->
<g id="node3" class="node">
<title>ForgotPasswordPageRoutingModule</title>
<polygon fill="#8dd3c7" stroke="black" points="280.37,-122 277.37,-126 256.37,-126 253.37,-122 57.63,-122 57.63,-86 280.37,-86 280.37,-122"/>
<text text-anchor="middle" x="169" y="-99.8" font-family="Times,serif" font-size="14.00">ForgotPasswordPageRoutingModule</text>
</g>
<!-- ForgotPasswordPageRoutingModule&#45;&gt;ForgotPasswordPageModule -->
<g id="edge2" class="edge">
<title>ForgotPasswordPageRoutingModule&#45;&gt;ForgotPasswordPageModule</title>
<path fill="none" stroke="black" d="M227.28,-122.11C227.28,-122.11 227.28,-140.99 227.28,-140.99"/>
<polygon fill="black" stroke="black" points="223.78,-140.99 227.28,-150.99 230.78,-140.99 223.78,-140.99"/>
</g>
</g>
</svg>
