<?xml version="1.0" encoding="UTF-8" standalone="no"?>
<!DOCTYPE svg PUBLIC "-//W3C//DTD SVG 1.1//EN"
 "http://www.w3.org/Graphics/SVG/1.1/DTD/svg11.dtd">
<!-- Generated by graphviz version 2.47.0 (20210316.0004)
 -->
<!-- Title: dependencies Pages: 1 -->
<svg width="504pt" height="211pt"
 viewBox="0.00 0.00 504.00 211.00" xmlns="http://www.w3.org/2000/svg" xmlns:xlink="http://www.w3.org/1999/xlink">
<g id="graph0" class="graph" transform="scale(1 1) rotate(0) translate(4 207)">
<title>dependencies</title>
<polygon fill="white" stroke="transparent" points="-4,4 -4,-207 500,-207 500,4 -4,4"/>
<text text-anchor="start" x="227.01" y="-42.4" font-family="sans-serif" font-weight="bold" font-size="14.00">Legend</text>
<polygon fill="#ffffb3" stroke="transparent" points="14,-10 14,-30 34,-30 34,-10 14,-10"/>
<text text-anchor="start" x="37.63" y="-15.4" font-family="sans-serif" font-size="14.00"> &#160;Declarations</text>
<polygon fill="#8dd3c7" stroke="transparent" points="127,-10 127,-30 147,-30 147,-10 127,-10"/>
<text text-anchor="start" x="150.73" y="-15.4" font-family="sans-serif" font-size="14.00"> &#160;Module</text>
<polygon fill="#80b1d3" stroke="transparent" points="213,-10 213,-30 233,-30 233,-10 213,-10"/>
<text text-anchor="start" x="236.78" y="-15.4" font-family="sans-serif" font-size="14.00"> &#160;Bootstrap</text>
<polygon fill="#fdb462" stroke="transparent" points="310,-10 310,-30 330,-30 330,-10 310,-10"/>
<text text-anchor="start" x="333.67" y="-15.4" font-family="sans-serif" font-size="14.00"> &#160;Providers</text>
<polygon fill="#fb8072" stroke="transparent" points="406,-10 406,-30 426,-30 426,-10 406,-10"/>
<text text-anchor="start" x="429.73" y="-15.4" font-family="sans-serif" font-size="14.00"> &#160;Exports</text>
<g id="clust1" class="cluster">
<title>cluster_ChoicesPageModule</title>
<polygon fill="none" stroke="black" stroke-dasharray="1,5" points="29.5,-70 29.5,-195 466.5,-195 466.5,-70 29.5,-70"/>
</g>
<g id="clust2" class="cluster">
<title>cluster_ChoicesPageModule_declarations</title>
<polygon fill="none" stroke="black" points="354.5,-78 354.5,-130 458.5,-130 458.5,-78 354.5,-78"/>
</g>
<g id="clust4" class="cluster">
<title>cluster_ChoicesPageModule_imports</title>
<polygon fill="none" stroke="black" points="37.5,-78 37.5,-130 346.5,-130 346.5,-78 37.5,-78"/>
</g>
<!-- ChoicesPage -->
<g id="node1" class="node">
<title>ChoicesPage</title>
<polygon fill="#ffffb3" stroke="black" points="450.81,-122 362.19,-122 362.19,-86 450.81,-86 450.81,-122"/>
<text text-anchor="middle" x="406.5" y="-99.8" font-family="Times,serif" font-size="14.00">ChoicesPage</text>
</g>
<!-- ChoicesPageModule -->
<g id="node2" class="node">
<title>ChoicesPageModule</title>
<polygon fill="#8dd3c7" stroke="black" points="316.36,-187 313.36,-191 292.36,-191 289.36,-187 184.64,-187 184.64,-151 316.36,-151 316.36,-187"/>
<text text-anchor="middle" x="250.5" y="-164.8" font-family="Times,serif" font-size="14.00">ChoicesPageModule</text>
</g>
<!-- ChoicesPage&#45;&gt;ChoicesPageModule -->
<g id="edge1" class="edge">
<title>ChoicesPage&#45;&gt;ChoicesPageModule</title>
<path fill="none" stroke="black" d="M406.5,-122.11C406.5,-141.34 406.5,-169 406.5,-169 406.5,-169 326.66,-169 326.66,-169"/>
<polygon fill="black" stroke="black" points="326.66,-165.5 316.66,-169 326.66,-172.5 326.66,-165.5"/>
</g>
<!-- ChoicesPageRoutingModule -->
<g id="node3" class="node">
<title>ChoicesPageRoutingModule</title>
<polygon fill="#8dd3c7" stroke="black" points="338.98,-122 335.98,-126 314.98,-126 311.98,-122 162.02,-122 162.02,-86 338.98,-86 338.98,-122"/>
<text text-anchor="middle" x="250.5" y="-99.8" font-family="Times,serif" font-size="14.00">ChoicesPageRoutingModule</text>
</g>
<!-- ChoicesPageRoutingModule&#45;&gt;ChoicesPageModule -->
<g id="edge2" class="edge">
<title>ChoicesPageRoutingModule&#45;&gt;ChoicesPageModule</title>
<path fill="none" stroke="black" d="M250.5,-122.11C250.5,-122.11 250.5,-140.99 250.5,-140.99"/>
<polygon fill="black" stroke="black" points="247,-140.99 250.5,-150.99 254,-140.99 247,-140.99"/>
</g>
<!-- SharedModule -->
<g id="node4" class="node">
<title>SharedModule</title>
<polygon fill="#8dd3c7" stroke="black" points="143.92,-122 140.92,-126 119.92,-126 116.92,-122 45.08,-122 45.08,-86 143.92,-86 143.92,-122"/>
<text text-anchor="middle" x="94.5" y="-99.8" font-family="Times,serif" font-size="14.00">SharedModule</text>
</g>
<!-- SharedModule&#45;&gt;ChoicesPageModule -->
<g id="edge3" class="edge">
<title>SharedModule&#45;&gt;ChoicesPageModule</title>
<path fill="none" stroke="black" d="M94.5,-122.11C94.5,-141.34 94.5,-169 94.5,-169 94.5,-169 174.34,-169 174.34,-169"/>
<polygon fill="black" stroke="black" points="174.34,-172.5 184.34,-169 174.34,-165.5 174.34,-172.5"/>
</g>
</g>
</svg>
