<svg version="1.1" viewBox="0 0 325.04 173.48" xmlns="http://www.w3.org/2000/svg" xmlns:cc="http://creativecommons.org/ns#" xmlns:dc="http://purl.org/dc/elements/1.1/" xmlns:rdf="http://www.w3.org/1999/02/22-rdf-syntax-ns#" xmlns:xlink="http://www.w3.org/1999/xlink">
 <defs>
  <linearGradient id="c">
   <stop stop-color="#4d4d4d" stop-opacity="0" offset="0"/>
   <stop stop-opacity=".52885" offset="1"/>
  </linearGradient>
  <linearGradient id="a">
   <stop stop-color="#ccc" offset="0"/>
   <stop stop-color="#ccc" stop-opacity=".2" offset="1"/>
  </linearGradient>
  <linearGradient id="l" x1="-260.5" x2="527" y1="67.5" y2="67.031" gradientTransform="scale(.26458)" gradientUnits="userSpaceOnUse">
   <stop stop-color="#a00" offset="0"/>
   <stop stop-color="#f00" offset=".14466"/>
   <stop stop-color="#fc0" offset=".38126"/>
   <stop stop-color="#0f0" offset=".6201"/>
   <stop stop-color="#0cf" offset=".74222"/>
   <stop stop-color="#3737c8" offset=".85715"/>
   <stop stop-color="#892ca0" offset="1"/>
  </linearGradient>
  <filter id="d" x="-.024963" y="-.024963" width="1.0499" height="1.0499" color-interpolation-filters="sRGB">
   <feGaussianBlur stdDeviation="0.4127999"/>
  </filter>
  <filter id="b" x="-.00030819" y="-.00030819" width="1.0006" height="1.0006" color-interpolation-filters="sRGB">
   <feGaussianBlur stdDeviation="0.0049312723"/>
  </filter>
  <radialGradient id="i" cx="-39.158" cy="17.859" r="19.844" gradientUnits="userSpaceOnUse" xlink:href="#c"/>
  <linearGradient id="o" x1="-39.234" x2="-39.234" y1="-35.813" y2="-.66146" gradientTransform="matrix(1.0518 0 0 1.0518 51.636 36.643)" gradientUnits="userSpaceOnUse" xlink:href="#a"/>
  <linearGradient id="e" x1="-39.234" x2="-39.234" y1="-35.813" y2="-.66146" gradientTransform="matrix(1.0518 0 0 1.0518 150.85 36.643)" gradientUnits="userSpaceOnUse" xlink:href="#a"/>
  <radialGradient id="g" cx="-39.158" cy="17.859" r="19.844" gradientTransform="translate(49.609 -35.719)" gradientUnits="userSpaceOnUse" xlink:href="#c"/>
  <radialGradient id="f" cx="-39.158" cy="17.859" r="19.844" gradientTransform="translate(148.83 -35.719)" gradientUnits="userSpaceOnUse" xlink:href="#c"/>
  <linearGradient id="n" x1="-39.234" x2="-39.234" y1="-35.813" y2="-.66146" gradientTransform="matrix(1.0518 0 0 1.0518 2.0268 .9244)" gradientUnits="userSpaceOnUse" xlink:href="#a"/>
  <linearGradient id="m" x1="-39.234" x2="-39.234" y1="-35.813" y2="-.66146" gradientTransform="matrix(1.0518 0 0 1.0518 2.0268 .9244)" gradientUnits="userSpaceOnUse" xlink:href="#a"/>
  <linearGradient id="k" x1="-39.234" x2="-39.234" y1="-35.813" y2="-.66146" gradientTransform="matrix(1.0518 0 0 1.0907 2.0268 2.332)" gradientUnits="userSpaceOnUse" xlink:href="#a"/>
  <filter id="r" x="-.024963" y="-.024963" width="1.0499" height="1.0499" color-interpolation-filters="sRGB">
   <feGaussianBlur stdDeviation="0.4127999"/>
  </filter>
  <radialGradient id="h" cx="-39.158" cy="17.859" r="19.844" gradientTransform="translate(3.9126e-6)" gradientUnits="userSpaceOnUse" xlink:href="#c"/>
  <linearGradient id="p" x1="-39.234" x2="-39.234" y1="-35.813" y2="-.66146" gradientTransform="matrix(1.0518 0 0 1.0626 -96.795 1.0765)" gradientUnits="userSpaceOnUse" xlink:href="#a"/>
  <filter id="q" x="-.00030819" y="-.00030819" width="1.0006" height="1.0006" color-interpolation-filters="sRGB">
   <feGaussianBlur stdDeviation="0.0049312723"/>
  </filter>
  <linearGradient id="j" x1="-39.234" x2="-39.234" y1="-35.813" y2="-.66146" gradientTransform="matrix(1.0353 0 0 1.0518 1.3823 .25328)" gradientUnits="userSpaceOnUse" xlink:href="#a"/>
 </defs>
 <metadata>
  <rdf:RDF>
   <cc:Work rdf:about="">
    <dc:format>image/svg+xml</dc:format>
    <dc:type rdf:resource="http://purl.org/dc/dcmitype/StillImage"/>
    <dc:title/>
    <cc:license rdf:resource="http://creativecommons.org/licenses/by/4.0/"/>
   </cc:Work>
   <cc:License rdf:about="http://creativecommons.org/licenses/by/4.0/">
    <cc:permits rdf:resource="http://creativecommons.org/ns#Reproduction"/>
    <cc:permits rdf:resource="http://creativecommons.org/ns#Distribution"/>
    <cc:requires rdf:resource="http://creativecommons.org/ns#Notice"/>
    <cc:requires rdf:resource="http://creativecommons.org/ns#Attribution"/>
    <cc:permits rdf:resource="http://creativecommons.org/ns#DerivativeWorks"/>
   </cc:License>
  </rdf:RDF>
 </metadata>
 <g transform="translate(58.226 79.429)">
  <g transform="matrix(1.4049 0 0 1.0939 39.102 -15.337)">
   <g fill-rule="evenodd">
    <ellipse cx="-39.006" cy="17.369" rx="19.691" ry="19.354" fill="url(#i)" opacity=".53846" style="font-variation-settings:'wght' 300"/>
    <circle transform="matrix(1 0 0 .99503 .30679 -1.6363)" cx="-39.733" cy="18.918" r="19.844" filter="url(#d)" opacity=".94516" style="font-variation-settings:'wght' 300"/>
    <g stroke-width="0">
     <circle transform="matrix(1.0159 0 0 -1 .62252 -.67111)" cx="-39.158" cy="-17.859" r="19.201" fill="url(#j)" filter="url(#b)" style="font-variation-settings:'wght' 300"/>
     <circle transform="matrix(1 0 0 -1 148.83 0)" cx="-39.158" cy="-17.859" r="19.201" fill="url(#m)" filter="url(#b)" style="font-variation-settings:'wght' 300"/>
     <circle cx="109.67" cy="17.859" r="19.201" fill="url(#e)" filter="url(#b)" style="font-variation-settings:'wght' 300"/>
     <circle transform="matrix(1 0 0 -1 148.83 -7.924e-7)" cx="-39.158" cy="-17.859" r="19.201" fill="url(#n)" filter="url(#b)" style="font-variation-settings:'wght' 300"/>
     <circle transform="matrix(1 0 0 -.96427 49.609 1.3243)" cx="-39.158" cy="-17.859" r="19.201" fill="url(#k)" filter="url(#b)" style="font-variation-settings:'wght' 300"/>
    </g>
    <circle cx="109.67" cy="18.918" r="19.844" filter="url(#d)" opacity=".35577" style="font-variation-settings:'wght' 300"/>
    <circle cx="10.451" cy="18.918" r="19.844" filter="url(#d)" opacity=".35577" style="font-variation-settings:'wght' 300"/>
    <circle transform="scale(1,-1)" cx="109.67" cy="-17.859" r="19.844" fill="url(#f)" opacity=".53846" style="font-variation-settings:'wght' 300"/>
    <circle cx="109.67" cy="16.031" r="19.201" fill="url(#e)" filter="url(#b)" stroke-width="0" style="font-variation-settings:'wght' 300"/>
   </g>
   <circle cx="60.06" cy="17.859" r="19.844" opacity="0" stroke-width="18.521" style="font-variation-settings:'wght' 300"/>
   <g fill-rule="evenodd">
    <circle transform="scale(1,-1)" cx="10.451" cy="-17.859" r="19.844" fill="url(#g)" opacity=".53846" style="font-variation-settings:'wght' 300"/>
    <circle cx="10.451" cy="16.031" r="19.201" fill="url(#o)" filter="url(#b)" stroke-width="0" style="font-variation-settings:'wght' 300"/>
    <path d="m-39.342-12.298a29.766 29.766 0 0 0-29.735 29.766 29.766 29.766 0 0 0 5.29e-4 0.1142c0.15487-0.07156 0.32606-0.1142 0.50848-0.1142h9.4129a19.844 19.844 0 0 1 19.844-19.844 19.844 19.844 0 0 1 19.844 19.844 29.766 29.766 0 0 0 4.9609 16.453 29.766 29.766 0 0 0 0.12971-0.19741 29.766 29.766 0 0 1-0.12971 0.19741 29.766 29.766 0 0 0 24.805 13.312 29.766 29.766 0 0 0 24.805-13.312 29.766 29.766 0 0 0 0.39739-0.61547 29.766 29.766 0 0 0 0.11162-0.17932 29.766 29.766 0 0 0 0.14108-0.22996 29.766 29.766 0 0 0 0.03566-0.05943 29.766 29.766 0 0 0 0.06511-0.108 29.766 29.766 0 0 0 1.8361-3.6137 29.766 29.766 0 0 0 0.077-0.18242 29.766 29.766 0 0 0 0.36587-0.91932 29.766 29.766 0 0 0 0.06408-0.17053 29.766 29.766 0 0 0 0.74052-2.2645 29.766 29.766 0 0 0 0.05943-0.21291 29.766 29.766 0 0 0 0.25063-0.9741 29.766 29.766 0 0 0 0.03979-0.16898 29.766 29.766 0 0 0 0.6258-3.762 29.766 29.766 0 0 0 0.0098-0.09974 29.766 29.766 0 0 0 0.0078-0.08061 29.766 29.766 0 0 0 0.0052-0.05219 29.766 29.766 0 0 0 0.01601-0.1788 29.766 29.766 0 0 0 5.29e-4 -0.0072 29.766 29.766 0 0 0 0.05891-0.80615 29.766 29.766 0 0 0 0.0083-0.14676 29.766 29.766 0 0 0 0.04446-1.5901 29.766 29.766 0 0 0 0-0.03101 29.766 29.766 0 0 0-1e-3 -0.23616 29.766 29.766 0 0 1 1e-3 0.23616 19.844 19.844 0 0 1 19.844-19.844 19.844 19.844 0 0 1 19.844 19.844 29.766 29.766 0 0 0 4.9609 16.453 29.766 29.766 0 0 0 0.12971-0.19741 29.766 29.766 0 0 1-0.12971 0.19741 29.766 29.766 0 0 0 24.805 13.312 29.766 29.766 0 0 0 29.766-29.766 29.766 29.766 0 0 0-5.2e-4 -0.12402c-0.15966 0.07713-0.33674 0.12402-0.52658 0.12402h-9.3948a19.844 19.844 0 0 1-19.844 19.844 19.844 19.844 0 0 1-19.844-19.813 29.766 29.766 0 0 0 0-0.03101 29.766 29.766 0 0 0-4.9611-16.453 29.766 29.766 0 0 0-24.805-13.312 29.766 29.766 0 0 0-0.03101 0 29.766 29.766 0 0 0-24.774 13.312 29.766 29.766 0 0 0-0.01963 0.02997 29.766 29.766 0 0 0-0.11007 0.16743 29.766 29.766 0 0 0-2.8065 5.4658 29.766 29.766 0 0 0-0.07751 0.20154 29.766 29.766 0 0 0-0.08837 0.23564 29.766 29.766 0 0 0-0.07597 0.20671 29.766 29.766 0 0 0-0.18603 0.52813 29.766 29.766 0 0 0-0.04754 0.14056 29.766 29.766 0 0 0-0.08682 0.26252 29.766 29.766 0 0 0-0.05994 0.18604 29.766 29.766 0 0 0-0.0801 0.25528 29.766 29.766 0 0 0-0.05943 0.19534 29.766 29.766 0 0 0-0.48782 1.8309 29.766 29.766 0 0 0-0.05116 0.22324 29.766 29.766 0 0 0-0.05064 0.23048 29.766 29.766 0 0 0-0.04909 0.23048 29.766 29.766 0 0 0-0.1018 0.5116 29.766 29.766 0 0 0-0.03411 0.18345 29.766 29.766 0 0 0-0.04651 0.25993 29.766 29.766 0 0 0-0.03514 0.20464 29.766 29.766 0 0 0-0.03876 0.23926 29.766 29.766 0 0 0-0.03514 0.22686 29.766 29.766 0 0 0-0.04961 0.3421 29.766 29.766 0 0 0-0.01707 0.12506 29.766 29.766 0 0 0-0.11576 0.98547 29.766 29.766 0 0 0-0.0186 0.18707 29.766 29.766 0 0 0-0.11989 1.9699 29.766 29.766 0 0 0-0.0041 0.14986 29.766 29.766 0 0 0-0.0078 0.678 29.766 29.766 0 0 0 0.0011 0.23616 29.766 29.766 0 0 1-0.0011-0.23616 19.844 19.844 0 0 1-19.844 19.844 19.844 19.844 0 0 1-19.844-19.813 29.766 29.766 0 0 0 0-0.03101 29.766 29.766 0 0 0-4.9609-16.453 29.766 29.766 0 0 0-24.805-13.312 29.766 29.766 0 0 0-0.03101 0zm75.184 14.485a29.766 29.766 0 0 1 0.12041 0.20309 29.766 29.766 0 0 0-0.12041-0.20309zm0.35605 0.61185a29.766 29.766 0 0 1 0.1142 0.20257 29.766 29.766 0 0 0-0.1142-0.20257zm46.923 0.91416a29.766 29.766 0 0 0-0.07803 0.15038 29.766 29.766 0 0 0-0.19947 0.39481 29.766 29.766 0 0 1 0.19947-0.39481 29.766 29.766 0 0 1 0.07803-0.15038zm-99.241 0.04341a29.766 29.766 0 0 0-0.05529 0.10697 29.766 29.766 0 0 0-0.19947 0.39481 29.766 29.766 0 0 1 0.19947-0.39481 29.766 29.766 0 0 1 0.05529-0.10697zm98.818 0.80202a29.766 29.766 0 0 0-0.07234 0.1509 29.766 29.766 0 0 0-0.10025 0.21394 29.766 29.766 0 0 1 0.10025-0.21394 29.766 29.766 0 0 1 0.07234-0.1509zm-99.225 0.01188a29.766 29.766 0 0 0-0.06614 0.13901 29.766 29.766 0 0 0-0.10025 0.21394 29.766 29.766 0 0 1 0.10025-0.21394 29.766 29.766 0 0 1 0.06614-0.13901zm54.462 1.8417a29.766 29.766 0 0 1 0.07338 0.18448 29.766 29.766 0 0 0-0.07338-0.18448zm43.842 0.26562a29.766 29.766 0 0 0-0.07751 0.20154 29.766 29.766 0 0 1 0.07751-0.20154zm-99.229 0.02687a29.766 29.766 0 0 0-0.06718 0.17467 29.766 29.766 0 0 1 0.06718-0.17467zm99.063 0.41031a29.766 29.766 0 0 0-0.07596 0.2067 29.766 29.766 0 0 1 0.07596-0.2067zm-99.235 0.04496a29.766 29.766 0 0 0-0.05943 0.16175 29.766 29.766 0 0 1 0.05943-0.16175zm98.973 0.68988a29.766 29.766 0 0 0-0.04754 0.14056 29.766 29.766 0 0 1 0.04754-0.14056zm-99.622 1.2754a29.766 29.766 0 0 0-0.12609 0.44493 29.766 29.766 0 0 1 0.12609-0.44493zm99.219 0a29.766 29.766 0 0 0-0.12609 0.44493 29.766 29.766 0 0 1 0.12609-0.44493zm-41.834 0.87178a29.766 29.766 0 0 1 0.04909 0.19275 29.766 29.766 0 0 0-0.04909-0.19275zm0.11472 0.45785a29.766 29.766 0 0 1 0.04134 0.17363 29.766 29.766 0 0 0-0.04134-0.17363zm-58.02 0.71934a29.766 29.766 0 0 0-0.04909 0.23048 29.766 29.766 0 0 1 0.04909-0.23048zm99.219 0a29.766 29.766 0 0 0-0.04909 0.23048 29.766 29.766 0 0 1 0.04909-0.23048zm-40.944 0.43253a29.766 29.766 0 0 1 0.04237 0.21549 29.766 29.766 0 0 0-0.04237-0.21549zm40.793 0.30954a29.766 29.766 0 0 0-0.03411 0.18345 29.766 29.766 0 0 1 0.03411-0.18345zm-40.622 0.61857a29.766 29.766 0 0 1 0.02946 0.18035 29.766 29.766 0 0 0-0.02946-0.18035zm40.467 0.26872a29.766 29.766 0 0 0-0.03514 0.22686 29.766 29.766 0 0 1 0.03514-0.22686zm-99.229 0.06563a29.766 29.766 0 0 0-0.02481 0.16123 29.766 29.766 0 0 1 0.02481-0.16123zm58.871 0.36535a29.766 29.766 0 0 1 0.01963 0.13798 29.766 29.766 0 0 0-0.01963-0.13798zm40.274 0.13798a29.766 29.766 0 0 0-0.01707 0.12506 29.766 29.766 0 0 1 0.01707-0.12506zm-99.221 0.01912a29.766 29.766 0 0 0-0.01447 0.10594 29.766 29.766 0 0 1 0.01447-0.10594zm59.067 0.77928a29.766 29.766 0 0 1 0.02479 0.22841 29.766 29.766 0 0 0-0.02479-0.22841zm0.04857 0.46922a29.766 29.766 0 0 1 0.01654 0.1819 29.766 29.766 0 0 0-0.01654-0.1819zm0.04134 0.47026a29.766 29.766 0 0 1 0.01497 0.20154 29.766 29.766 0 0 0-0.01497-0.20154zm39.793 1.5296a29.766 29.766 0 0 0-0.0041 0.14986 29.766 29.766 0 0 1 0.0041-0.14986zm-89.353 2.4489a29.766 29.766 0 0 1-0.0083 0.14676 29.766 29.766 0 0 0 0.0083-0.14676zm99.219 0a29.766 29.766 0 0 1-0.0072 0.12712 29.766 29.766 0 0 0 0.0072-0.12712zm-59.408 0.53485a29.766 29.766 0 0 0 0.01497 0.20154 29.766 29.766 0 0 1-0.01497-0.20154zm59.341 0.41961a29.766 29.766 0 0 1-0.0041 0.04806 29.766 29.766 0 0 1-0.0062 0.06356 29.766 29.766 0 0 0 0.01035-0.11162zm-59.301 0.07028a29.766 29.766 0 0 0 0.01654 0.1819 29.766 29.766 0 0 1-0.01654-0.1819zm-39.939 0.1664a29.766 29.766 0 0 1-0.01757 0.18035 29.766 29.766 0 0 0 0.01757-0.18035zm99.218 0.01344a29.766 29.766 0 0 1-0.01654 0.16691 29.766 29.766 0 0 0 0.01654-0.16691zm-99.32 0.91053a29.766 29.766 0 0 1-0.02481 0.18965 29.766 29.766 0 0 0 0.02481-0.18965zm99.219 0a29.766 29.766 0 0 1-0.02482 0.18965 29.766 29.766 0 0 0 0.02482-0.18965zm-59.012 0.35915a29.766 29.766 0 0 0 0.01963 0.13798 29.766 29.766 0 0 1-0.01963-0.13798zm-40.303 0.3421a29.766 29.766 0 0 1-0.03617 0.23306 29.766 29.766 0 0 1-0.02429 0.15038 29.766 29.766 0 0 0 0.02429-0.15038 29.766 29.766 0 0 0 0.03617-0.23306zm99.219 0a29.766 29.766 0 0 1-0.03617 0.23306 29.766 29.766 0 0 1-0.02429 0.15038 29.766 29.766 0 0 0 0.02429-0.15038 29.766 29.766 0 0 0 0.03617-0.23306zm-58.816 0.31523a29.766 29.766 0 0 0 0.02946 0.18035 29.766 29.766 0 0 1-0.02946-0.18035zm-40.518 0.39171a29.766 29.766 0 0 1-0.04031 0.22376 29.766 29.766 0 0 1-0.04186 0.22272 29.766 29.766 0 0 0 0.04186-0.22272 29.766 29.766 0 0 0 0.04031-0.22376zm99.219 0a29.766 29.766 0 0 1-0.04031 0.22376 29.766 29.766 0 0 1-0.04186 0.22272 29.766 29.766 0 0 0 0.04186-0.22272 29.766 29.766 0 0 0 0.04031-0.22376zm-58.543 0.50126a29.766 29.766 0 0 0 0.04237 0.21549 29.766 29.766 0 0 1-0.04237-0.21549zm-41.005 1.109a29.766 29.766 0 0 1-0.03979 0.16898 29.766 29.766 0 0 0 0.03979-0.16898zm41.261 0.08475a29.766 29.766 0 0 0 0.04134 0.17363 29.766 29.766 0 0 1-0.04134-0.17363zm0.10697 0.43873a29.766 29.766 0 0 0 0.04909 0.19275 29.766 29.766 0 0 1-0.04909-0.19275zm-41.658 0.6196a29.766 29.766 0 0 1-0.05943 0.21291 29.766 29.766 0 0 0 0.05943-0.21291zm99.219 0a29.766 29.766 0 0 1-0.04134 0.14831 29.766 29.766 0 0 0 0.04134-0.14831zm-99.857 2.0335a29.766 29.766 0 0 1-0.06201 0.17312 29.766 29.766 0 0 0 0.06201-0.17312zm99.219 0a29.766 29.766 0 0 1-0.06201 0.17312 29.766 29.766 0 0 0 0.06201-0.17312zm-99.38 0.4439a29.766 29.766 0 0 1-0.06408 0.17053 29.766 29.766 0 0 0 0.06408-0.17053zm99.213 0.01601a29.766 29.766 0 0 1-0.04806 0.12712 29.766 29.766 0 0 0 0.04806-0.12712zm-55.602 0.48007a29.766 29.766 0 0 0 0.07338 0.18449 29.766 29.766 0 0 1-0.07338-0.18449zm-44.041 0.59376a29.766 29.766 0 0 1-0.077 0.18242 29.766 29.766 0 0 0 0.077-0.18242zm99.219 0a29.766 29.766 0 0 1-0.05478 0.12971 29.766 29.766 0 0 0 0.05478-0.12971zm-99.695 1.0795a29.766 29.766 0 0 1-0.10025 0.21394 29.766 29.766 0 0 0 0.10025-0.21394zm99.219 0a29.766 29.766 0 0 1-0.10025 0.21394 29.766 29.766 0 0 0 0.10025-0.21394zm-99.956 1.4779a29.766 29.766 0 0 1-0.07803 0.14521 29.766 29.766 0 0 0 0.07803-0.14521zm99.219 0a29.766 29.766 0 0 1-0.07803 0.14521 29.766 29.766 0 0 0 0.07803-0.14521zm-52.269 0.4439a29.766 29.766 0 0 0 0.1142 0.20257 29.766 29.766 0 0 1-0.1142-0.20257zm0.34985 0.61133a29.766 29.766 0 0 0 0.12041 0.20309 29.766 29.766 0 0 1-0.12041-0.20309z" fill="url(#l)" style="font-variation-settings:'wght' 300"/>
    <path d="m-39.158-28.091a3.5719 3.5719 0 0 0-3.5719 3.5719 3.5719 3.5719 0 0 0 2.0128 3.2132v16.207h3.1176v-16.207a3.5719 3.5719 0 0 0 2.0133-3.2138 3.5719 3.5719 0 0 0-3.5719-3.5719z" fill="#fc0000" style="font-variation-settings:'wght' 300"/>
    <path d="m60.06-30.286a3.5719 3.9129 0 0 0-3.5719 3.9129 3.5719 3.9129 0 0 0 2.0128 3.52v17.755h3.1176v-17.754a3.5719 3.9129 0 0 0 2.0133-3.5206 3.5719 3.9129 0 0 0-3.5719-3.9129z" fill="#00fd0a" style="font-variation-settings:'wght' 300"/>
    <path d="m10.451 60.217a3.5719 3.3032 0 0 1-3.5719-3.3032 3.5719 3.3032 0 0 1 2.0128-2.9716v-14.988h3.1176v14.988a3.5719 3.3032 0 0 1 2.0133 2.9721 3.5719 3.3032 0 0 1-3.5719 3.3032z" fill="#f8cd00" style="font-variation-settings:'wght' 300"/>
    <path d="m109.67 60.217a3.5719 3.3032 0 0 1-3.5719-3.3032 3.5719 3.3032 0 0 1 2.0128-2.9716v-14.988h3.1176v14.988a3.5719 3.3032 0 0 1 2.0133 2.9721 3.5719 3.3032 0 0 1-3.5719 3.3032z" fill="#3837c7" style="font-variation-settings:'wght' 300"/>
   </g>
   <g fill="#000000">
    <text transform="translate(.50417)" x="-39.690819" y="-49.958984" font-family="sans-serif" font-size="10.583px" style="inline-size:38.1665;line-height:1.25;white-space:pre" xml:space="preserve"/>
    <g>
     <text transform="translate(.2828)" x="18.44227" font-family="Corbel" font-size="4.2333px" font-weight="300" text-align="center" style="line-height:1.25;shape-inside:url(#rect1935);white-space:pre" xml:space="preserve"><tspan x="-39.625" y="-43.342239"><tspan fill="#000000" fill-opacity=".98529">
</tspan></tspan><tspan x="-39.625" y="-38.050575"><tspan fill="#000000" fill-opacity=".98529">
</tspan></tspan><tspan x="-67.070698" y="-32.758911"><tspan fill="#000000" fill-opacity=".98529">                 </tspan></tspan><tspan x="-60.472656" y="-31.314896" fill="#000000" fill-opacity=".98529" visibility="hidden"><tspan dx="0 2.7677875 2.0484519 1.6350412 1.8458805 1.3849277 0.90123558 2.1931467 1.3456526 0.90123653 2.17661 2.1456032 0.82475471 0.82475471 2.0112457 2.1456032 2.1931458 0.82475662 3.4375134 2.1766071 1.3849297 2.0484505" font-family="Corbel" font-size="4.2333px" font-weight="300" text-align="center" text-anchor="middle">Description  and more </tspan><tspan dx="0.82475662">
</tspan></tspan><tspan x="-60.472656" y="-26.023233" visibility="hidden"><tspan dx="0 0.82475519 0.82475519 0.82475519 0.82475519 0.82475519 0.82475519 0.82475519 0.82475519 0.82475519 0.82475519 0.82475567 0.82475471 0.82475471 0.82475567 0.82475567" fill="#000000" fill-opacity=".98529">               
</tspan></tspan><tspan x="-60.472656" y="-20.731571" visibility="hidden"><tspan dx="0 0.82475519 0.82475519 0.82475519 0.82475519 0.82475519 0.82475519 0.82475519 0.82475519 0.82475519 0.82475519 0.82475567 0.82475471 0.82475471 0.82475567 0.82475567" fill="#000000" fill-opacity=".98529">               
</tspan></tspan><tspan x="-60.472656" y="-15.439909" fill="#000000" fill-opacity=".98529" visibility="hidden"><tspan dx="0 0.82475519 0.82475519 0.82475519 0.82475519 0.82475519 0.82475519 0.82475519 0.82475519 0.82475519 0.82475519 0.82475567 0.82475471 0.82475471 0.82475567 0.82475567 0.82475471 0.82475471">                  </tspan><tspan dx="0.82475567 0.90123653 2.1456041 1.3084459 2.17661 0.82475471 2.1931448 2.1766081 2.0484533 1.6350412 0.82475662 2.1456041 2.0484514 1.3849249" font-family="Corbel" font-size="4.2333px" font-weight="300" text-align="center" text-anchor="middle">info goes here</tspan><tspan dx="2.0484533">
</tspan></tspan><tspan x="-60.472656" y="-10.148247" visibility="hidden"><tspan dx="0 0.82475519 0.82475519 0.82475519 0.82475519 0.82475519 0.82475519 0.82475519 0.82475519 0.82475519 0.82475519 0.82475567 0.82475471 0.82475471 0.82475567 0.82475567" fill="#000000" fill-opacity=".98529">               
</tspan></tspan><tspan x="-60.472656" y="-4.8565846" visibility="hidden"><tspan dx="0 0.82475519 0.82475519 0.82475519 0.82475519 0.82475519 0.82475519 0.82475519 0.82475519 0.82475519 0.82475519 0.82475567" fill="#000000" fill-opacity=".98529">            </tspan></tspan></text>
     <text transform="translate(149.33 132.3)" x="-39.690819" y="-49.958984" font-family="sans-serif" font-size="10.583px" stroke-width=".26458" style="inline-size:0;line-height:1.25;white-space:pre" xml:space="preserve">

            </text>
     <text transform="translate(149.11 132.3)" x="18.44227" font-family="Corbel" font-size="4.2333px" font-weight="300" text-align="center" style="line-height:1.25;shape-inside:url(#rect1985);white-space:pre" xml:space="preserve"><tspan x="-39.625" y="-43.342239"><tspan style="shape-inside:url(#rect1985)">
</tspan></tspan><tspan x="-45.810664" y="-38.050575"><tspan style="shape-inside:url(#rect1985)">               </tspan><tspan>
</tspan></tspan><tspan x="-67.483075" y="-32.758911"><tspan>                  </tspan></tspan><tspan x="-60.472656" y="-31.314896" visibility="hidden"><tspan dx="0 2.7677875 2.0484519 1.6350412 1.8458805 1.3849277 0.90123558 2.1931467 1.3456526 0.90123653 2.17661 2.1456032 0.82475471 0.82475471 2.0112457 2.1456032 2.1931458 0.82475662 3.4375134 2.1766071 1.3849297 2.0484505" font-family="Corbel" font-size="4.2333px" font-weight="300" text-align="center" text-anchor="middle">Description  and more </tspan><tspan dx="0.82475662">
</tspan></tspan><tspan x="-60.472656" y="-26.023233" visibility="hidden"><tspan dx="0 0.82475519 0.82475519 0.82475519 0.82475519 0.82475519 0.82475519 0.82475519 0.82475519 0.82475519 0.82475519 0.82475567 0.82475471 0.82475471 0.82475567">               </tspan><tspan dx="0.82475567" style="shape-inside:url(#rect1985)">
</tspan></tspan><tspan x="-60.472656" y="-20.731571" visibility="hidden"><tspan dx="0 0.82475519 0.82475519 0.82475519 0.82475519 0.82475519 0.82475519 0.82475519 0.82475519 0.82475519 0.82475519 0.82475567 0.82475471 0.82475471 0.82475567" style="shape-inside:url(#rect1985)">               </tspan><tspan dx="0.82475567">
</tspan></tspan><tspan x="-60.472656" y="-15.439909" visibility="hidden"><tspan dx="0 0.82475519 0.82475519 0.82475519 0.82475519 0.82475519 0.82475519 0.82475519 0.82475519 0.82475519 0.82475519 0.82475567 0.82475471 0.82475471 0.82475567 0.82475567 0.82475471 0.82475471">                  </tspan><tspan dx="0.82475567 0.90123653 2.1456041 1.3084459 2.17661 0.82475471 2.1931448 2.1766081 2.0484533 1.6350412 0.82475662 2.1456041 2.0484514 1.3849249" font-family="Corbel" font-size="4.2333px" font-weight="300" text-align="center" text-anchor="middle">info goes here</tspan><tspan dx="2.0484533">
</tspan></tspan><tspan x="-60.472656" y="-10.148247" visibility="hidden"><tspan dx="0 0.82475519 0.82475519 0.82475519 0.82475519 0.82475519 0.82475519 0.82475519 0.82475519 0.82475519 0.82475519 0.82475567 0.82475471 0.82475471 0.82475567">               </tspan><tspan dx="0.82475567" style="shape-inside:url(#rect1985)">
</tspan></tspan><tspan x="-60.472656" y="-4.8565846" visibility="hidden"><tspan dx="0 0.82475519 0.82475519 0.82475519 0.82475519 0.82475519 0.82475519 0.82475519 0.82475519 0.82475519 0.82475519 0.82475567" style="shape-inside:url(#rect1985)">            </tspan></tspan></text>
     <text transform="translate(50.113 132.3)" x="-39.690819" y="-49.958984" font-family="sans-serif" font-size="10.583px" stroke-width=".26458" style="inline-size:42.2245;line-height:1.25;white-space:pre" xml:space="preserve"><tspan x="-39.690819" y="-49.958984"><tspan>
</tspan></tspan><tspan x="-39.690819" y="-36.729857"><tspan>           </tspan></tspan></text>
    </g>
    <g>
     <text transform="translate(49.892 132.3)" x="18.44227" font-family="Corbel" font-size="4.2333px" font-weight="300" text-align="center" style="line-height:1.25;shape-inside:url(#rect1995);white-space:pre" xml:space="preserve"><tspan x="-39.625" y="-43.342239"><tspan style="shape-inside:url(#rect1995)">
</tspan></tspan><tspan x="-45.810664" y="-38.050575"><tspan style="shape-inside:url(#rect1995)">               </tspan><tspan>
</tspan></tspan><tspan x="-67.483075" y="-32.758911"><tspan>                  </tspan></tspan><tspan x="-60.472656" y="-31.314896" visibility="hidden"><tspan dx="0 2.7677875 2.0484519 1.6350412 1.8458805 1.3849277 0.90123558 2.1931467 1.3456526 0.90123653 2.17661 2.1456032 0.82475471 0.82475471 2.0112457 2.1456032 2.1931458 0.82475662 3.4375134 2.1766071 1.3849297 2.0484505" font-family="Corbel" font-size="4.2333px" font-weight="300" text-align="center" text-anchor="middle">Description  and more </tspan><tspan dx="0.82475662">
</tspan></tspan><tspan x="-60.472656" y="-26.023233" visibility="hidden"><tspan dx="0 0.82475519 0.82475519 0.82475519 0.82475519 0.82475519 0.82475519 0.82475519 0.82475519 0.82475519 0.82475519 0.82475567 0.82475471 0.82475471 0.82475567">               </tspan><tspan dx="0.82475567" style="shape-inside:url(#rect1995)">
</tspan></tspan><tspan x="-60.472656" y="-20.731571" visibility="hidden"><tspan dx="0 0.82475519 0.82475519 0.82475519 0.82475519 0.82475519 0.82475519 0.82475519 0.82475519 0.82475519 0.82475519 0.82475567 0.82475471 0.82475471 0.82475567" style="shape-inside:url(#rect1995)">               </tspan><tspan dx="0.82475567">
</tspan></tspan><tspan x="-60.472656" y="-15.439909" visibility="hidden"><tspan dx="0 0.82475519 0.82475519 0.82475519 0.82475519 0.82475519 0.82475519 0.82475519 0.82475519 0.82475519 0.82475519 0.82475567 0.82475471 0.82475471 0.82475567 0.82475567 0.82475471 0.82475471">                  </tspan><tspan dx="0.82475567 0.90123653 2.1456041 1.3084459 2.17661 0.82475471 2.1931448 2.1766081 2.0484533 1.6350412 0.82475662 2.1456041 2.0484514 1.3849249" font-family="Corbel" font-size="4.2333px" font-weight="300" text-align="center" text-anchor="middle">info goes here</tspan><tspan dx="2.0484533">
</tspan></tspan><tspan x="-60.472656" y="-10.148247" visibility="hidden"><tspan dx="0 0.82475519 0.82475519 0.82475519 0.82475519 0.82475519 0.82475519 0.82475519 0.82475519 0.82475519 0.82475519 0.82475567 0.82475471 0.82475471 0.82475567">               </tspan><tspan dx="0.82475567" style="shape-inside:url(#rect1995)">
</tspan></tspan><tspan x="-60.472656" y="-4.8565846" visibility="hidden"><tspan dx="0 0.82475519 0.82475519 0.82475519 0.82475519 0.82475519 0.82475519 0.82475519 0.82475519 0.82475519 0.82475519 0.82475567" style="shape-inside:url(#rect1995)">            </tspan></tspan></text>
     <text transform="translate(99.501 -.13363)" x="18.44227" font-family="Corbel" font-size="4.2333px" font-weight="300" text-align="center" style="line-height:1.25;shape-inside:url(#rect2103);white-space:pre" xml:space="preserve"><tspan x="-39.625" y="-43.342239"><tspan style="shape-inside:url(#rect2103)">
</tspan></tspan><tspan x="-45.810664" y="-38.050575"><tspan style="shape-inside:url(#rect2103)">               </tspan><tspan fill="#000000">
</tspan></tspan><tspan x="-67.070698" y="-32.758911"><tspan fill="#000000">                 </tspan></tspan><tspan x="-60.472656" y="-31.314896" fill="#000000" visibility="hidden"><tspan dx="0 2.2344871 2.0835919 1.3849273 2.1931462 2.0112448 1.6350412 1.6350403 0.6593914 2.8111954 2.176609 2.0112457 0.90123558 1.6350422">Surpass Goals </tspan><tspan dx="0.82475471 2.7677879 2.0484505 1.6350403 1.8458805 1.3849297 0.90123558 2.1931458 1.3456535 0.90123749 2.176609 2.1456032 0.82475281 0.82475471 2.0112457 2.1456032 2.1931458 0.82475662 3.4375114 2.1766071 1.3849297 2.0484505" font-family="Corbel" font-size="4.2333px" font-weight="300" text-align="center" text-anchor="middle">Description  and more </tspan><tspan dx="0.82475662">
</tspan></tspan><tspan x="-60.472656" y="-26.023233" visibility="hidden"><tspan dx="0 0.82475519 0.82475519 0.82475519 0.82475519 0.82475519 0.82475519 0.82475519 0.82475519 0.82475519 0.82475519 0.82475567 0.82475471 0.82475471 0.82475567" fill="#000000">               </tspan><tspan dx="0.82475567" style="shape-inside:url(#rect2103)">
</tspan></tspan><tspan x="-60.472656" y="-20.731571" visibility="hidden"><tspan dx="0 0.82475519 0.82475519 0.82475519 0.82475519 0.82475519 0.82475519 0.82475519 0.82475519 0.82475519 0.82475519 0.82475567 0.82475471 0.82475471 0.82475567" style="shape-inside:url(#rect2103)">               </tspan><tspan dx="0.82475567" fill="#000000">
</tspan></tspan><tspan x="-60.472656" y="-15.439909" fill="#000000" visibility="hidden"><tspan dx="0 0.82475519 0.82475519 0.82475519 0.82475519 0.82475519 0.82475519 0.82475519 0.82475519 0.82475519 0.82475519 0.82475567 0.82475471 0.82475471 0.82475567 0.82475567 0.82475471 0.82475471">                  </tspan><tspan dx="0.82475567 0.90123653 2.1456041 1.3084459 2.17661 0.82475471 2.1931448 2.1766081 2.0484533 1.6350412 0.82475662 2.1456041 2.0484514 1.3849249" font-family="Corbel" font-size="4.2333px" font-weight="300" text-align="center" text-anchor="middle">info goes here</tspan><tspan dx="2.0484533">
</tspan></tspan><tspan x="-60.472656" y="-10.148247" visibility="hidden"><tspan dx="0 0.82475519 0.82475519 0.82475519 0.82475519 0.82475519 0.82475519 0.82475519 0.82475519 0.82475519 0.82475519 0.82475567 0.82475471 0.82475471 0.82475567" fill="#000000">               </tspan><tspan dx="0.82475567" style="shape-inside:url(#rect2103)">
</tspan></tspan><tspan x="-60.472656" y="-4.8565846" visibility="hidden"><tspan dx="0 0.82475519 0.82475519 0.82475519 0.82475519 0.82475519 0.82475519 0.82475519 0.82475519 0.82475519 0.82475519 0.82475567" style="shape-inside:url(#rect2103)">            </tspan></tspan></text>
     <text transform="matrix(2.8501 .020198 -.038504 3.5356 -7.0575 -6.4667)" x="-34.637245" y="-34.485184" font-family="'Homemade Apple'" font-size="3.0493px" stroke-width=".25411" style="font-variant-caps:normal;font-variant-east-asian:normal;font-variant-ligatures:normal;font-variant-numeric:normal;inline-size:42.9728;line-height:1.25;white-space:pre" xml:space="preserve"><tspan x="-34.637245" y="-34.485184"><tspan fill="#000000" font-family="'Homemade Apple'" font-size="3.0493px" stroke-width=".25411" style="font-variant-caps:normal;font-variant-east-asian:normal;font-variant-ligatures:normal;font-variant-numeric:normal">This first task is to </tspan></tspan><tspan x="-34.637245" y="-30.673534"><tspan fill="#000000" font-family="'Homemade Apple'" font-size="3.0493px" stroke-width=".25411" style="font-variant-caps:normal;font-variant-east-asian:normal;font-variant-ligatures:normal;font-variant-numeric:normal">discuss your goals , </tspan></tspan><tspan x="-34.637245" y="-26.861885"><tspan fill="#000000" font-family="'Homemade Apple'" font-size="3.0493px" stroke-width=".25411" style="font-variant-caps:normal;font-variant-east-asian:normal;font-variant-ligatures:normal;font-variant-numeric:normal">availabliity, and </tspan></tspan><tspan x="-34.637245" y="-23.050236"><tspan fill="#000000" font-family="'Homemade Apple'" font-size="3.0493px" stroke-width=".25411" style="font-variant-caps:normal;font-variant-east-asian:normal;font-variant-ligatures:normal;font-variant-numeric:normal">committment with your </tspan></tspan><tspan x="-34.637245" y="-19.238586"><tspan fill="#000000" font-family="'Homemade Apple'" font-size="3.0493px" stroke-width=".25411" style="font-variant-caps:normal;font-variant-east-asian:normal;font-variant-ligatures:normal;font-variant-numeric:normal">personal trainer. </tspan></tspan><tspan x="-34.637245" y="-15.426937"><tspan fill="#000000" font-family="'Homemade Apple'" font-size="3.0493px" stroke-width=".25411" style="font-variant-caps:normal;font-variant-east-asian:normal;font-variant-ligatures:normal;font-variant-numeric:normal">Together you will </tspan></tspan><tspan x="-34.637245" y="-11.615287"><tspan fill="#000000" font-family="'Homemade Apple'" font-size="3.0493px" stroke-width=".25411" style="font-variant-caps:normal;font-variant-east-asian:normal;font-variant-ligatures:normal;font-variant-numeric:normal">create  a comprehensive  </tspan></tspan><tspan x="-34.637245" y="-7.8036365"><tspan fill="#000000" font-family="'Homemade Apple'" font-size="3.0493px" stroke-width=".25411" style="font-variant-caps:normal;font-variant-east-asian:normal;font-variant-ligatures:normal;font-variant-numeric:normal">plan of action is created. </tspan></tspan></text>
    </g>
   </g>
   <g>
    <text transform="scale(.88242 1.1333)" x="-2.0890172" y="69.860939" font-family="Impact" font-size="9.68px" stroke-width=".80667" style="line-height:1.25" xml:space="preserve"><tspan x="-2.0890172" y="69.860939" font-family="Impact" font-size="9.68px" stroke-width=".80667" style="font-variant-caps:normal;font-variant-east-asian:normal;font-variant-ligatures:normal;font-variant-numeric:normal"/></text>
    <text transform="scale(.88242 1.1333)" x="-55.115406" y="18.355675" font-family="Impact" font-size="8.0667px" stroke-width=".80667" style="font-variant-caps:normal;font-variant-east-asian:normal;font-variant-ligatures:normal;font-variant-numeric:normal;line-height:1.25" xml:space="preserve"><tspan x="-55.115406" y="18.355675" font-family="Impact" font-size="8.0667px" stroke-width=".80667" style="font-variant-caps:normal;font-variant-east-asian:normal;font-variant-ligatures:normal;font-variant-numeric:normal">1. PLAN</tspan></text>
    <text transform="matrix(.92024 0 0 1.1235 -75.775 -1.3452)" x="3.9581764" y="69.860939" font-family="'Homemade Apple'" font-size="9.52px" stroke-width=".79333" style="font-variant-caps:normal;font-variant-east-asian:normal;font-variant-ligatures:normal;font-variant-numeric:normal;inline-size:137.883;line-height:1.25;white-space:pre" xml:space="preserve"><tspan x="3.9581764" y="69.860939"><tspan font-family="'Homemade Apple'" font-size="9.52px" stroke-width=".79333" style="font-variant-caps:normal;font-variant-east-asian:normal;font-variant-ligatures:normal;font-variant-numeric:normal">Putting the plan into </tspan></tspan><tspan x="3.9581764" y="81.760883"><tspan font-family="'Homemade Apple'" font-size="9.52px" stroke-width=".79333" style="font-variant-caps:normal;font-variant-east-asian:normal;font-variant-ligatures:normal;font-variant-numeric:normal">action, on a consistant , </tspan></tspan><tspan x="3.9581764" y="93.660824"><tspan font-family="'Homemade Apple'" font-size="9.52px" stroke-width=".79333" style="font-variant-caps:normal;font-variant-east-asian:normal;font-variant-ligatures:normal;font-variant-numeric:normal">regular basis provides </tspan></tspan><tspan x="3.9581764" y="105.56077"><tspan font-family="'Homemade Apple'" font-size="9.52px" stroke-width=".79333" style="font-variant-caps:normal;font-variant-east-asian:normal;font-variant-ligatures:normal;font-variant-numeric:normal">the app and data analysis </tspan></tspan><tspan x="3.9581764" y="117.46072"><tspan font-family="'Homemade Apple'" font-size="9.52px" stroke-width=".79333" style="font-variant-caps:normal;font-variant-east-asian:normal;font-variant-ligatures:normal;font-variant-numeric:normal">tools with a highly </tspan></tspan><tspan x="3.9581764" y="129.36067"><tspan font-family="'Homemade Apple'" font-size="9.52px" stroke-width=".79333" style="font-variant-caps:normal;font-variant-east-asian:normal;font-variant-ligatures:normal;font-variant-numeric:normal">accurate, ample set of </tspan></tspan><tspan x="3.9581764" y="141.26062"><tspan font-family="'Homemade Apple'" font-size="9.52px" stroke-width=".79333" style="font-variant-caps:normal;font-variant-east-asian:normal;font-variant-ligatures:normal;font-variant-numeric:normal">key performance </tspan></tspan><tspan x="3.9581764" y="153.16056"><tspan font-family="'Homemade Apple'" font-size="9.52px" stroke-width=".79333" style="font-variant-caps:normal;font-variant-east-asian:normal;font-variant-ligatures:normal;font-variant-numeric:normal">indicators which will </tspan></tspan><tspan x="3.9581764" y="165.06051"><tspan font-family="'Homemade Apple'" font-size="9.52px" stroke-width=".79333" style="font-variant-caps:normal;font-variant-east-asian:normal;font-variant-ligatures:normal;font-variant-numeric:normal">improve in accuracy the </tspan></tspan><tspan x="3.9581764" y="176.96046"><tspan font-family="'Homemade Apple'" font-size="9.52px" stroke-width=".79333" style="font-variant-caps:normal;font-variant-east-asian:normal;font-variant-ligatures:normal;font-variant-numeric:normal">more you use it. </tspan></tspan></text>
    <text transform="scale(.88242 1.1333)" x="-2.8402133" y="17.334538" font-family="Impact" font-size="8.0667px" stroke-width=".80667" style="font-variant-caps:normal;font-variant-east-asian:normal;font-variant-ligatures:normal;font-variant-numeric:normal;line-height:1.25" xml:space="preserve"><tspan x="-2.8402133" y="17.334538" font-family="Impact" font-size="8.0667px" stroke-width=".80667" style="font-variant-caps:normal;font-variant-east-asian:normal;font-variant-ligatures:normal;font-variant-numeric:normal">2. EFFORT</tspan></text>
    <text transform="matrix(.90106 0 0 1.0243 54.965 -92.319)" x="-15.420179" y="-33.738186" font-family="'Homemade Apple'" font-size="10.076px" stroke-width=".83968" style="font-variant-caps:normal;font-variant-east-asian:normal;font-variant-ligatures:normal;font-variant-numeric:normal;inline-size:147.568;line-height:1.25;white-space:pre" xml:space="preserve"><tspan x="-15.420179" y="-33.738186"><tspan font-family="'Homemade Apple'" font-size="10.076px" stroke-width=".83968" style="font-variant-caps:normal;font-variant-east-asian:normal;font-variant-ligatures:normal;font-variant-numeric:normal">Each week, as your </tspan></tspan><tspan x="-15.420179" y="-21.143059"><tspan font-family="'Homemade Apple'" font-size="10.076px" stroke-width=".83968" style="font-variant-caps:normal;font-variant-east-asian:normal;font-variant-ligatures:normal;font-variant-numeric:normal">reporting is maintained, </tspan></tspan><tspan x="-15.420179" y="-8.5479339"><tspan font-family="'Homemade Apple'" font-size="10.076px" stroke-width=".83968" style="font-variant-caps:normal;font-variant-east-asian:normal;font-variant-ligatures:normal;font-variant-numeric:normal">you will can update your </tspan></tspan><tspan x="-15.420179" y="4.0471913"><tspan font-family="'Homemade Apple'" font-size="10.076px" stroke-width=".83968" style="font-variant-caps:normal;font-variant-east-asian:normal;font-variant-ligatures:normal;font-variant-numeric:normal">daily exercises, nutrition, </tspan></tspan><tspan x="-15.420179" y="16.642316"><tspan font-family="'Homemade Apple'" font-size="10.076px" stroke-width=".83968" style="font-variant-caps:normal;font-variant-east-asian:normal;font-variant-ligatures:normal;font-variant-numeric:normal">sleep and more. You can </tspan></tspan><tspan x="-15.420179" y="29.237442"><tspan font-family="'Homemade Apple'" font-size="10.076px" stroke-width=".83968" style="font-variant-caps:normal;font-variant-east-asian:normal;font-variant-ligatures:normal;font-variant-numeric:normal">also connect your smargyt </tspan></tspan><tspan x="-15.420179" y="41.832567"><tspan font-family="'Homemade Apple'" font-size="10.076px" stroke-width=".83968" style="font-variant-caps:normal;font-variant-east-asian:normal;font-variant-ligatures:normal;font-variant-numeric:normal">devices and/or Google </tspan></tspan><tspan x="-15.420179" y="54.427694"><tspan font-family="'Homemade Apple'" font-size="10.076px" stroke-width=".83968" style="font-variant-caps:normal;font-variant-east-asian:normal;font-variant-ligatures:normal;font-variant-numeric:normal">Health/ Apple Health, etc. </tspan></tspan></text>
    <text transform="matrix(.92542 0 0 1.0653 -22.802 1.6182)" x="112.41666" y="69.441032" font-family="'Homemade Apple'" font-size="9.7494px" stroke-width=".81245" style="font-variant-caps:normal;font-variant-east-asian:normal;font-variant-ligatures:normal;font-variant-numeric:normal;inline-size:136.693;line-height:1.25;white-space:pre" xml:space="preserve"><tspan x="112.41666" y="69.441032"><tspan font-family="'Homemade Apple'" font-size="9.7494px" stroke-width=".81245" style="font-variant-caps:normal;font-variant-east-asian:normal;font-variant-ligatures:normal;font-variant-numeric:normal">On a regular basis your </tspan></tspan><tspan x="112.41666" y="81.627798"><tspan font-family="'Homemade Apple'" font-size="9.7494px" stroke-width=".81245" style="font-variant-caps:normal;font-variant-east-asian:normal;font-variant-ligatures:normal;font-variant-numeric:normal">trainer provides a </tspan></tspan><tspan x="112.41666" y="93.814566"><tspan font-family="'Homemade Apple'" font-size="9.7494px" stroke-width=".81245" style="font-variant-caps:normal;font-variant-east-asian:normal;font-variant-ligatures:normal;font-variant-numeric:normal">revoew of current data </tspan></tspan><tspan x="112.41666" y="106.00133"><tspan font-family="'Homemade Apple'" font-size="9.7494px" stroke-width=".81245" style="font-variant-caps:normal;font-variant-east-asian:normal;font-variant-ligatures:normal;font-variant-numeric:normal">and analysis to measure  </tspan></tspan><tspan x="112.41666" y="118.1881"><tspan font-family="'Homemade Apple'" font-size="9.7494px" stroke-width=".81245" style="font-variant-caps:normal;font-variant-east-asian:normal;font-variant-ligatures:normal;font-variant-numeric:normal">effort and progress </tspan></tspan><tspan x="112.41666" y="130.37487"><tspan font-family="'Homemade Apple'" font-size="9.7494px" stroke-width=".81245" style="font-variant-caps:normal;font-variant-east-asian:normal;font-variant-ligatures:normal;font-variant-numeric:normal">against your pre-</tspan></tspan><tspan x="112.41666" y="142.56164"><tspan font-family="'Homemade Apple'" font-size="9.7494px" stroke-width=".81245" style="font-variant-caps:normal;font-variant-east-asian:normal;font-variant-ligatures:normal;font-variant-numeric:normal">determined short and </tspan></tspan><tspan x="112.41666" y="154.7484"><tspan font-family="'Homemade Apple'" font-size="9.7494px" stroke-width=".81245" style="font-variant-caps:normal;font-variant-east-asian:normal;font-variant-ligatures:normal;font-variant-numeric:normal">long term goals, so that </tspan></tspan><tspan x="112.41666" y="166.93517"><tspan font-family="'Homemade Apple'" font-size="9.7494px" stroke-width=".81245" style="font-variant-caps:normal;font-variant-east-asian:normal;font-variant-ligatures:normal;font-variant-numeric:normal">effective plan </tspan></tspan><tspan x="112.41666" y="179.12194"><tspan font-family="'Homemade Apple'" font-size="9.7494px" stroke-width=".81245" style="font-variant-caps:normal;font-variant-east-asian:normal;font-variant-ligatures:normal;font-variant-numeric:normal">adjustments can be made,  </tspan></tspan><tspan x="112.41666" y="191.30871"><tspan font-family="'Homemade Apple'" font-size="9.7494px" stroke-width=".81245" style="font-variant-caps:normal;font-variant-east-asian:normal;font-variant-ligatures:normal;font-variant-numeric:normal">as meeded. THe app also </tspan></tspan><tspan x="112.41666" y="203.49547"><tspan font-family="'Homemade Apple'" font-size="9.7494px" stroke-width=".81245" style="font-variant-caps:normal;font-variant-east-asian:normal;font-variant-ligatures:normal;font-variant-numeric:normal">provides a realtime view </tspan></tspan><tspan x="112.41666" y="215.68224"><tspan font-family="'Homemade Apple'" font-size="9.7494px" stroke-width=".81245" style="font-variant-caps:normal;font-variant-east-asian:normal;font-variant-ligatures:normal;font-variant-numeric:normal">of your fitness, health, </tspan></tspan><tspan x="112.41666" y="227.86901"><tspan font-family="'Homemade Apple'" font-size="9.7494px" stroke-width=".81245" style="font-variant-caps:normal;font-variant-east-asian:normal;font-variant-ligatures:normal;font-variant-numeric:normal">and nutrition </tspan></tspan><tspan x="112.41666" y="240.05578"><tspan font-family="'Homemade Apple'" font-size="9.7494px" stroke-width=".81245" style="font-variant-caps:normal;font-variant-east-asian:normal;font-variant-ligatures:normal;font-variant-numeric:normal">performance by </tspan></tspan><tspan x="112.41666" y="252.24254"><tspan font-family="'Homemade Apple'" font-size="9.7494px" stroke-width=".81245" style="font-variant-caps:normal;font-variant-east-asian:normal;font-variant-ligatures:normal;font-variant-numeric:normal">integrating the best data </tspan></tspan><tspan x="112.41666" y="264.4293"><tspan font-family="'Homemade Apple'" font-size="9.7494px" stroke-width=".81245" style="font-variant-caps:normal;font-variant-east-asian:normal;font-variant-ligatures:normal;font-variant-numeric:normal">visualization tools.</tspan></tspan></text>
   </g>
   <g font-family="Impact">
    <g font-size="9.68px">
     <text style="line-height:1.25;shape-inside:url(#rect1079);white-space:pre" xml:space="preserve"/>
     <text style="line-height:1.25;shape-inside:url(#rect1085);white-space:pre" xml:space="preserve"/>
     <text style="line-height:1.25;shape-inside:url(#rect1091);white-space:pre" xml:space="preserve"/>
     <text style="line-height:1.25;shape-inside:url(#rect1097);white-space:pre" xml:space="preserve"/>
     <text style="line-height:1.25;shape-inside:url(#rect1103);white-space:pre" xml:space="preserve"/>
     <text transform="scale(.88242 1.1333)" x="64.675705" y="18.632664" stroke-width=".80667" style="line-height:1.25" xml:space="preserve"><tspan x="64.675705" y="18.632664" font-family="Impact" font-size="9.68px" stroke-width=".80667"/></text>
    </g>
    <text transform="scale(.88242 1.1333)" x="54.388058" y="18.422707" font-size="9.68px" stroke-width=".80667" style="line-height:1.25" xml:space="preserve"><tspan x="54.388058" y="18.422707" font-family="Impact" font-size="9.68px" stroke-width=".80667"/></text>
    <text transform="scale(.88242 1.1333)" x="108.70748" y="17.334538" font-size="8.0667px" stroke-width=".80667" style="font-variant-caps:normal;font-variant-east-asian:normal;font-variant-ligatures:normal;font-variant-numeric:normal;line-height:1.25" xml:space="preserve"><tspan x="108.70748" y="17.334538" font-family="Impact" font-size="8.0667px" stroke-width=".80667" style="font-variant-caps:normal;font-variant-east-asian:normal;font-variant-ligatures:normal;font-variant-numeric:normal">4. REVIEW</tspan></text>
    <g font-size="9.68px">
     <text style="line-height:1.25;shape-inside:url(#rect1121);white-space:pre" xml:space="preserve"/>
     <text style="line-height:1.25;shape-inside:url(#rect1127);white-space:pre" xml:space="preserve"/>
     <text style="line-height:1.25;shape-inside:url(#rect1133);white-space:pre" xml:space="preserve"/>
    </g>
   </g>
   <ellipse cx="54.433" cy="48.832" rx="4.6554" ry="33.521" opacity="0" stroke-width=".80667"/>
   <ellipse cx="52.449" cy="51.576" rx="9.3872" ry="18.034" opacity="0" stroke-width=".80667"/>
   <g fill-rule="evenodd">
    <circle transform="matrix(.99238 0 0 .99503 99.282 -1.0895)" cx="-39.733" cy="18.918" r="19.844" filter="url(#r)" opacity=".94516" style="font-variation-settings:'wght' 300"/>
    <ellipse cx="59.816" cy="18.372" rx="19.691" ry="19.942" fill="url(#h)" opacity=".53846" style="font-variation-settings:'wght' 300"/>
    <circle transform="matrix(1 0 0 -.98979 98.822 .14107)" cx="-39.158" cy="-17.859" r="19.201" fill="url(#p)" filter="url(#q)" stroke-width="0" style="font-variation-settings:'wght' 300"/>
   </g>
   <text transform="scale(.88242 1.1333)" x="51.816959" y="18.911461" font-family="Impact" font-size="8.0667px" stroke-width=".80667" style="font-variant-caps:normal;font-variant-east-asian:normal;font-variant-ligatures:normal;font-variant-numeric:normal;line-height:1.25" xml:space="preserve"><tspan x="51.816959" y="18.911461" font-family="Impact" font-size="8.0667px" stroke-width=".80667" style="font-variant-caps:normal;font-variant-east-asian:normal;font-variant-ligatures:normal;font-variant-numeric:normal">3. REPORT</tspan></text>
  </g>
  <g fill="#000000">
   <text transform="matrix(1.4049 0 0 1.0939 192.99 -33.373)" font-family="Prototype" style="font-variant-caps:normal;font-variant-east-asian:normal;font-variant-ligatures:normal;font-variant-numeric:normal;font-variation-settings:'wght' 300;line-height:1.25;shape-inside:url(#rect835);white-space:pre" xml:space="preserve"/>
   <text transform="matrix(1.4049 0 0 1.0939 39.102 -15.337)" font-family="Prototype" font-size="10.583px" style="line-height:1.25;shape-inside:url(#rect1925);white-space:pre" xml:space="preserve"/>
   <text transform="matrix(1.4049 0 0 1.0939 39.102 -15.337)" font-family="sans-serif" font-size="10.583px" style="line-height:1.25;shape-inside:url(#rect1941);white-space:pre" xml:space="preserve"/>
  </g>
 </g>
</svg>
