<?xml version="1.0" encoding="UTF-8" standalone="no"?>
<svg xmlns:dc="http://purl.org/dc/elements/1.1/"
   xmlns:cc="http://creativecommons.org/ns#"
   xmlns:rdf="http://www.w3.org/1999/02/22-rdf-syntax-ns#"
   xmlns:svg="http://www.w3.org/2000/svg"
   xmlns="http://www.w3.org/2000/svg"
   xmlns:xlink="http://www.w3.org/1999/xlink" id="svg8" version="1.1" viewBox="0 0 208.35949 153.39207" height="579.74957" width="787.50043">
   <defs id="defs2">
      <rect id="rect1941" height="29.934187" width="42.763123" y="-64.391541" x="-61.273602" />
      <rect id="rect1935" height="12.027129" width="41.694046" y="-47.019024" x="-60.471794" />
      <rect id="rect1925" height="31.537804" width="110.38231" y="-70.538742" x="-109.11485" />
      <rect id="rect1877" height="13.363476" width="18.441597" y="65.234177" x="-122.74559" />
      <linearGradient id="linearGradient1757">
         <stop id="stop1753" offset="0" style="stop-color:#4d4d4d;stop-opacity:0" />
         <stop id="stop1755" offset="1" style="stop-color:#000000;stop-opacity:0.52884615" />
      </linearGradient>
      <linearGradient id="linearGradient1423">
         <stop id="stop1419" offset="0" style="stop-color:#cccccc;stop-opacity:1;" />
         <stop id="stop1421" offset="1" style="stop-color:#cccccc;stop-opacity:0.2" />
      </linearGradient>
      <linearGradient id="linearGradient2542">
         <stop id="stop2538" offset="0" style="stop-color:#aa0000;stop-opacity:1" />
         <stop style="stop-color:#ff0000;stop-opacity:1" offset="0.14465913" id="stop2546" />
         <stop id="stop2548" offset="0.38125932" style="stop-color:#ffcc00;stop-opacity:1" />
         <stop style="stop-color:#00ff00;stop-opacity:1" offset="0.62010431" id="stop2550" />
         <stop id="stop2562" offset="0.74222046" style="stop-color:#00ccff;stop-opacity:1" />
         <stop id="stop2552" offset="0.85715342" style="stop-color:#3737c8;stop-opacity:1" />
         <stop id="stop2540" offset="1" style="stop-color:#892ca0;stop-opacity:1" />
      </linearGradient>
      <marker style="overflow:visible" id="marker1847" refX="0" refY="0" orient="auto">
         <path transform="matrix(-1.1,0,0,-1.1,-1.1,0)" d="M 8.7185878,4.0337352 -2.2072895,0.01601326 8.7185884,-4.0017078 c -1.7454984,2.3720609 -1.7354408,5.6174519 -6e-7,8.035443 z" style="fill:#000000;fill-opacity:1;fill-rule:evenodd;stroke:#000000;stroke-width:0.625;stroke-linejoin:round;stroke-opacity:1" id="path1845" />
      </marker>
      <marker style="overflow:visible" id="marker1777" refX="0" refY="0" orient="auto">
         <path transform="matrix(-1.1,0,0,-1.1,-1.1,0)" d="M 8.7185878,4.0337352 -2.2072895,0.01601326 8.7185884,-4.0017078 c -1.7454984,2.3720609 -1.7354408,5.6174519 -6e-7,8.035443 z" style="fill:#000000;fill-opacity:1;fill-rule:evenodd;stroke:#000000;stroke-width:0.625;stroke-linejoin:round;stroke-opacity:1" id="path1775" />
      </marker>
      <marker style="overflow:visible" id="Arrow2Lend" refX="0" refY="0" orient="auto">
         <path transform="matrix(-1.1,0,0,-1.1,-1.1,0)" d="M 8.7185878,4.0337352 -2.2072895,0.01601326 8.7185884,-4.0017078 c -1.7454984,2.3720609 -1.7354408,5.6174519 -6e-7,8.035443 z" style="fill:#000000;fill-opacity:1;fill-rule:evenodd;stroke:#000000;stroke-width:0.625;stroke-linejoin:round;stroke-opacity:1" id="path960" />
      </marker>
      <marker style="overflow:visible" id="Arrow1Lend" refX="0" refY="0" orient="auto">
         <path transform="matrix(-0.8,0,0,-0.8,-10,0)" style="fill:#000000;fill-opacity:1;fill-rule:evenodd;stroke:#000000;stroke-width:1pt;stroke-opacity:1" d="M 0,0 5,-5 -12.5,0 5,5 Z" id="path942" />
      </marker>
      <rect id="rect835" height="71.815475" width="229.80952" y="65.76786" x="29.482143" />
      <linearGradient gradientTransform="scale(0.26458333)" y2="67.03125" x2="526.99799" y1="67.499992" x1="-260.5" gradientUnits="userSpaceOnUse" id="linearGradient2570" xlink:href="#linearGradient2542" />
      <filter height="1.049926" y="-0.024963018" width="1.049926" x="-0.024963018" id="filter1199" style="color-interpolation-filters:sRGB">
         <feGaussianBlur id="feGaussianBlur1201" stdDeviation="0.4127999" />
      </filter>
      <linearGradient gradientTransform="matrix(1.0517598,0,0,1.0517598,2.0268286,0.92439827)" gradientUnits="userSpaceOnUse" y2="-0.66145831" x2="-39.233925" y1="-35.813244" x1="-39.233925" id="linearGradient1425" xlink:href="#linearGradient1423" />
      <filter height="1.0006164" y="-0.00030818541" width="1.0006164" x="-0.00030818541" id="filter1521" style="color-interpolation-filters:sRGB">
         <feGaussianBlur id="feGaussianBlur1523" stdDeviation="0.0049312723" />
      </filter>
      <radialGradient gradientUnits="userSpaceOnUse" r="19.84375" fy="17.859375" fx="-39.158329" cy="17.859375" cx="-39.158329" id="radialGradient1759" xlink:href="#linearGradient1757" />
      <linearGradient y2="-0.66145831" x2="-39.233925" y1="-35.813244" x1="-39.233925" gradientTransform="matrix(1.0517598,0,0,1.0517598,2.0268286,0.92439827)" gradientUnits="userSpaceOnUse" id="linearGradient1803" xlink:href="#linearGradient1423" />
      <linearGradient y2="-0.66145831" x2="-39.233925" y1="-35.813244" x1="-39.233925" gradientTransform="matrix(1.0517598,0,0,1.0517598,51.636203,36.643147)" gradientUnits="userSpaceOnUse" id="linearGradient1807" xlink:href="#linearGradient1423" />
      <linearGradient y2="-0.66145831" x2="-39.233925" y1="-35.813244" x1="-39.233925" gradientTransform="matrix(1.0517598,0,0,1.0517598,150.85496,36.643147)" gradientUnits="userSpaceOnUse" id="linearGradient1815" xlink:href="#linearGradient1423" />
      <radialGradient gradientTransform="translate(99.21875)" r="19.84375" fy="17.859375" fx="-39.158329" cy="17.859375" cx="-39.158329" gradientUnits="userSpaceOnUse" id="radialGradient1823" xlink:href="#linearGradient1757" />
      <radialGradient gradientTransform="translate(49.609375,-35.71875)" r="19.84375" fy="17.859375" fx="-39.158329" cy="17.859375" cx="-39.158329" gradientUnits="userSpaceOnUse" id="radialGradient1827" xlink:href="#linearGradient1757" />
      <radialGradient gradientTransform="translate(148.82813,-35.71875)" r="19.84375" fy="17.859375" fx="-39.158329" cy="17.859375" cx="-39.158329" gradientUnits="userSpaceOnUse" id="radialGradient1831" xlink:href="#linearGradient1757" />
      <rect x="-122.74559" y="65.234177" width="18.441597" height="13.363476" id="rect1887" />
      <linearGradient y2="-0.66145831" x2="-39.233925" y1="-35.813244" x1="-39.233925" gradientTransform="matrix(1.0517598,0,0,1.0517598,2.0268286,0.92439827)" gradientUnits="userSpaceOnUse" id="linearGradient1889" xlink:href="#linearGradient1423" />
      <rect id="rect1899" height="13.363476" width="18.441597" y="65.234177" x="-122.74559" />
      <linearGradient y2="-0.66145831" x2="-39.233925" y1="-35.813244" x1="-39.233925" gradientTransform="matrix(1.0517598,0,0,1.0517598,2.0268286,0.92439827)" gradientUnits="userSpaceOnUse" id="linearGradient1901" xlink:href="#linearGradient1423" />
      <linearGradient y2="-0.66145831" x2="-39.233925" y1="-35.813244" x1="-39.233925" gradientTransform="matrix(1.0517598,0,0,1.0517598,101.24558,36.643147)" gradientUnits="userSpaceOnUse" id="linearGradient1903" xlink:href="#linearGradient1423" />
      <rect x="-122.74559" y="65.234177" width="18.441597" height="13.363476" id="rect1915" />
      <linearGradient y2="-0.66145831" x2="-39.233925" y1="-35.813244" x1="-39.233925" gradientTransform="matrix(1.0517598,0,0,1.0517598,2.0268286,0.92439827)" gradientUnits="userSpaceOnUse" id="linearGradient1917" xlink:href="#linearGradient1423" />
      <linearGradient y2="-0.66145831" x2="-39.233925" y1="-35.813244" x1="-39.233925" gradientTransform="matrix(1.0517598,0,0,1.0517598,150.85496,36.643147)" gradientUnits="userSpaceOnUse" id="linearGradient1919" xlink:href="#linearGradient1423" />
      <linearGradient y2="-0.66145831" x2="-39.233925" y1="-35.813244" x1="-39.233925" gradientTransform="matrix(1.0517598,0,0,1.0517598,2.0268286,0.92439827)" gradientUnits="userSpaceOnUse" id="linearGradient1921" xlink:href="#linearGradient1423" />
      <rect x="-60.471794" y="-47.019024" width="41.694046" height="12.027129" id="rect1953" />
      <rect id="rect1985" height="12.027129" width="41.694046" y="-47.019024" x="-60.471794" />
      <rect x="-60.471794" y="-47.019024" width="41.694046" height="12.027129" id="rect1995" />
      <rect x="-60.471794" y="-47.019024" width="41.694046" height="12.027129" id="rect2103" />
      <rect id="rect2209" height="12.027129" width="41.694046" y="-47.019024" x="-60.471794" />
   </defs>
   <metadata id="metadata5">
      <rdf:RDF>
         <cc:Work rdf:about="">
            <dc:format>image/svg+xml</dc:format>
            <dc:type rdf:resource="http://purl.org/dc/dcmitype/StillImage" />
            <dc:title></dc:title>
         </cc:Work>
      </rdf:RDF>
   </metadata>
   <g transform="translate(68.923957,58.133446)" id="layer1">
      <g id="g2310">
         <g id="g2260">
            <circle r="19.84375" cy="18.917709" cx="109.6698" id="circle1839" style="font-variation-settings:'wght' 300;opacity:0.355769;fill:#000000;fill-opacity:1;fill-rule:evenodd;stroke:none;stroke-width:18.5208;stroke-linecap:round;stroke-linejoin:miter;stroke-miterlimit:4;stroke-dasharray:none;stroke-dashoffset:0;stroke-opacity:1;filter:url(#filter1199)" />
            <circle r="19.84375" cy="18.917709" cx="60.060421" id="circle1833" style="font-variation-settings:'wght' 300;opacity:0.355769;fill:#000000;fill-opacity:1;fill-rule:evenodd;stroke:none;stroke-width:18.5208;stroke-linecap:round;stroke-linejoin:miter;stroke-miterlimit:4;stroke-dasharray:none;stroke-dashoffset:0;stroke-opacity:1;filter:url(#filter1199)" />
            <circle r="19.84375" cy="18.917709" cx="10.451046" id="circle1835" style="font-variation-settings:'wght' 300;opacity:0.355769;fill:#000000;fill-opacity:1;fill-rule:evenodd;stroke:none;stroke-width:18.5208;stroke-linecap:round;stroke-linejoin:miter;stroke-miterlimit:4;stroke-dasharray:none;stroke-dashoffset:0;stroke-opacity:1;filter:url(#filter1199)" />
            <circle style="font-variation-settings:'wght' 300;opacity:0.355769;fill:#000000;fill-opacity:1;fill-rule:evenodd;stroke:none;stroke-width:18.5208;stroke-linecap:round;stroke-linejoin:miter;stroke-miterlimit:4;stroke-dasharray:none;stroke-dashoffset:0;stroke-opacity:1;filter:url(#filter1199)" id="circle979" cx="-39.158329" cy="18.917709" r="19.84375" />
            <circle r="19.84375" cy="17.859375" cx="-39.158329" id="path1935" style="font-variation-settings:'wght' 300;opacity:0.538462;fill:url(#radialGradient1759);fill-opacity:1;fill-rule:evenodd;stroke:none;stroke-width:18.5208;stroke-linecap:round;stroke-linejoin:miter;stroke-miterlimit:4;stroke-dasharray:none;stroke-dashoffset:0;stroke-opacity:1" />
            <circle transform="scale(1,-1)" style="font-variation-settings:'wght' 300;fill:url(#linearGradient1425);fill-opacity:1;fill-rule:evenodd;stroke:#4d4d4d;stroke-width:0;stroke-linecap:round;stroke-linejoin:miter;stroke-miterlimit:4;stroke-dasharray:none;stroke-dashoffset:0;stroke-opacity:0.2;filter:url(#filter1521)" id="circle2522" cx="-39.158329" cy="-17.859375" r="19.201191" />
            <circle transform="scale(1,-1)" style="font-variation-settings:'wght' 300;opacity:0.538462;fill:url(#radialGradient1831);fill-opacity:1;fill-rule:evenodd;stroke:none;stroke-width:18.5208;stroke-linecap:round;stroke-linejoin:miter;stroke-miterlimit:4;stroke-dasharray:none;stroke-dashoffset:0;stroke-opacity:1" id="circle1829" cx="109.6698" cy="-17.859375" r="19.84375" />
            <circle style="font-variation-settings:'wght' 300;fill:url(#linearGradient1815);fill-opacity:1;fill-rule:evenodd;stroke:#4d4d4d;stroke-width:0;stroke-linecap:round;stroke-linejoin:miter;stroke-miterlimit:4;stroke-dasharray:none;stroke-dashoffset:0;stroke-opacity:0.2;filter:url(#filter1521)" id="circle1813" cx="109.6698" cy="17.859375" r="19.201191" />
            <circle style="font-variation-settings:'wght' 300;opacity:0.538462;fill:url(#radialGradient1823);fill-opacity:1;fill-rule:evenodd;stroke:none;stroke-width:18.5208;stroke-linecap:round;stroke-linejoin:miter;stroke-miterlimit:4;stroke-dasharray:none;stroke-dashoffset:0;stroke-opacity:1" id="circle1821" cx="60.060421" cy="17.859375" r="19.84375" />
            <circle r="19.201191" cy="-17.859375" cx="-39.158329" id="circle1801" style="font-variation-settings:'wght' 300;fill:url(#linearGradient1803);fill-opacity:1;fill-rule:evenodd;stroke:#4d4d4d;stroke-width:0;stroke-linecap:round;stroke-linejoin:miter;stroke-miterlimit:4;stroke-dasharray:none;stroke-dashoffset:0;stroke-opacity:0.2;filter:url(#filter1521)" transform="matrix(1,0,0,-1,99.218749,0)" />
            <circle transform="scale(1,-1)" style="font-variation-settings:'wght' 300;opacity:0.538462;fill:url(#radialGradient1827);fill-opacity:1;fill-rule:evenodd;stroke:none;stroke-width:18.5208;stroke-linecap:round;stroke-linejoin:miter;stroke-miterlimit:4;stroke-dasharray:none;stroke-dashoffset:0;stroke-opacity:1" id="circle1825" cx="10.451046" cy="-17.859375" r="19.84375" />
            <circle r="19.201191" cy="17.859375" cx="10.451045" id="circle1805" style="font-variation-settings:'wght' 300;fill:url(#linearGradient1807);fill-opacity:1;fill-rule:evenodd;stroke:#4d4d4d;stroke-width:0;stroke-linecap:round;stroke-linejoin:miter;stroke-miterlimit:4;stroke-dasharray:none;stroke-dashoffset:0;stroke-opacity:0.2;filter:url(#filter1521)" />
            <path d="m -39.189339,-11.90625 a 29.765625,29.765625 0 0 0 -29.734618,29.765625 29.765625,29.765625 0 0 0 5.29e-4,0.114205 c 0.154871,-0.07156 0.326062,-0.114205 0.508484,-0.114205 h 9.412861 a 19.843749,19.843749 0 0 1 19.84375,-19.84375 19.843749,19.843749 0 0 1 19.84375,19.84375 29.765625,29.765625 0 0 0 4.960937,16.45326 29.765625,29.765625 0 0 0 0.129708,-0.197406 29.765625,29.765625 0 0 1 -0.129708,0.197406 29.765625,29.765625 0 0 0 24.804688,13.312364 29.765625,29.765625 0 0 0 24.804687,-13.312364 29.765625,29.765625 0 0 0 0.397391,-0.615466 29.765625,29.765625 0 0 0 0.111622,-0.179319 29.765625,29.765625 0 0 0 0.141076,-0.22996 29.765625,29.765625 0 0 0 0.03566,-0.05943 29.765625,29.765625 0 0 0 0.06511,-0.108003 29.765625,29.765625 0 0 0 1.836063,-3.613734 29.765625,29.765625 0 0 0 0.077,-0.182417 29.765625,29.765625 0 0 0 0.365868,-0.919324 29.765625,29.765625 0 0 0 0.06408,-0.170532 29.765625,29.765625 0 0 0 0.740524,-2.264461 29.765625,29.765625 0 0 0 0.05943,-0.212907 29.765625,29.765625 0 0 0 0.250629,-0.974101 29.765625,29.765625 0 0 0 0.03979,-0.168982 29.765625,29.765625 0 0 0 0.625803,-3.762044 29.765625,29.765625 0 0 0 0.0098,-0.09974 29.765625,29.765625 0 0 0 0.0078,-0.08061 29.765625,29.765625 0 0 0 0.0052,-0.05219 29.765625,29.765625 0 0 0 0.01601,-0.178801 29.765625,29.765625 0 0 0 5.29e-4,-0.0072 29.765625,29.765625 0 0 0 0.05891,-0.806153 29.765625,29.765625 0 0 0 0.0083,-0.146761 29.765625,29.765625 0 0 0 0.04446,-1.590084 29.765625,29.765625 0 0 0 0,-0.03101 29.765625,29.765625 0 0 0 -10e-4,-0.236161 29.765625,29.765625 0 0 1 10e-4,0.236161 19.843749,19.843749 0 0 1 19.84375,-19.84375 19.843749,19.843749 0 0 1 19.84375,19.84375 29.765625,29.765625 0 0 0 4.960937,16.45326 29.765625,29.765625 0 0 0 0.129707,-0.197406 29.765625,29.765625 0 0 1 -0.129707,0.197406 29.765625,29.765625 0 0 0 24.804689,13.312364 29.765625,29.765625 0 0 0 29.76562,-29.765624 29.765625,29.765625 0 0 0 -5.2e-4,-0.124024 c -0.15966,0.07713 -0.33674,0.124024 -0.52658,0.124024 h -9.39477 a 19.843749,19.843749 0 0 1 -19.84375,19.84375 19.843749,19.843749 0 0 1 -19.843751,-19.812744 29.765625,29.765625 0 0 0 0,-0.03101 A 29.765625,29.765625 0 0 0 84.865103,1.4061157 29.765625,29.765625 0 0 0 60.060416,-11.90625 a 29.765625,29.765625 0 0 0 -0.03101,0 29.765625,29.765625 0 0 0 -24.77368,13.3123657 29.765625,29.765625 0 0 0 -0.01963,0.029972 29.765625,29.765625 0 0 0 -0.11007,0.1674317 29.765625,29.765625 0 0 0 -2.806549,5.4658161 29.765625,29.765625 0 0 0 -0.07751,0.2015382 29.765625,29.765625 0 0 0 -0.08837,0.2356445 29.765625,29.765625 0 0 0 -0.07597,0.2067058 29.765625,29.765625 0 0 0 -0.186034,0.5281332 29.765625,29.765625 0 0 0 -0.04754,0.1405598 29.765625,29.765625 0 0 0 -0.08682,0.2625162 29.765625,29.765625 0 0 0 -0.05994,0.1860351 29.765625,29.765625 0 0 0 -0.0801,0.2552817 29.765625,29.765625 0 0 0 -0.05943,0.1953368 29.765625,29.765625 0 0 0 -0.487825,1.8308962 29.765625,29.765625 0 0 0 -0.05116,0.223242 29.765625,29.765625 0 0 0 -0.05064,0.230477 29.765625,29.765625 0 0 0 -0.04909,0.230477 29.765625,29.765625 0 0 0 -0.101804,0.511597 29.765625,29.765625 0 0 0 -0.03411,0.183451 29.765625,29.765625 0 0 0 -0.04651,0.259932 29.765625,29.765625 0 0 0 -0.03514,0.204639 29.765625,29.765625 0 0 0 -0.03876,0.239262 29.765625,29.765625 0 0 0 -0.03514,0.22686 29.765625,29.765625 0 0 0 -0.04961,0.342097 29.765625,29.765625 0 0 0 -0.01707,0.125058 29.765625,29.765625 0 0 0 -0.115755,0.985469 29.765625,29.765625 0 0 0 -0.0186,0.187069 29.765625,29.765625 0 0 0 -0.119891,1.969905 29.765625,29.765625 0 0 0 -0.0041,0.149862 29.765625,29.765625 0 0 0 -0.0078,0.677995 29.765625,29.765625 0 0 0 0.0011,0.236161 29.765625,29.765625 0 0 1 -0.0011,-0.236161 19.843749,19.843749 0 0 1 -19.843749,19.84375 19.843749,19.843749 0 0 1 -19.8437502,-19.812744 29.765625,29.765625 0 0 0 0,-0.03101 29.765625,29.765625 0 0 0 -4.9609378,-16.4532596 29.765625,29.765625 0 0 0 -24.804687,-13.3123654 29.765625,29.765625 0 0 0 -0.03101,0 z M 35.994702,2.578654 A 29.765625,29.765625 0 0 1 36.115109,2.7817423 29.765625,29.765625 0 0 0 35.994702,2.578654 Z m 0.35605,0.611849 A 29.765625,29.765625 0 0 1 36.464957,3.3930746 29.765625,29.765625 0 0 0 36.350752,3.190503 Z M 83.27347,4.104659 A 29.765625,29.765625 0 0 0 83.19544,4.2550373 29.765625,29.765625 0 0 0 82.99597,4.6498454 29.765625,29.765625 0 0 1 83.19544,4.2550373 29.765625,29.765625 0 0 1 83.27347,4.104659 Z m -99.241487,0.043408 a 29.765625,29.765625 0 0 0 -0.05529,0.1069702 29.765625,29.765625 0 0 0 -0.199471,0.3948081 29.765625,29.765625 0 0 1 0.199471,-0.3948081 29.765625,29.765625 0 0 1 0.05529,-0.1069702 z m 98.817739,0.8020182 a 29.765625,29.765625 0 0 0 -0.07234,0.1508953 29.765625,29.765625 0 0 0 -0.100254,0.2139405 29.765625,29.765625 0 0 1 0.100254,-0.2139405 29.765625,29.765625 0 0 1 0.07234,-0.1508953 z m -99.22495,0.011885 a 29.765625,29.765625 0 0 0 -0.06614,0.1390097 29.765625,29.765625 0 0 0 -0.100253,0.2139405 29.765625,29.765625 0 0 1 0.100253,-0.2139405 29.765625,29.765625 0 0 1 0.06614,-0.1390097 z M 38.08708,6.8037185 a 29.765625,29.765625 0 0 1 0.07338,0.1844847 29.765625,29.765625 0 0 0 -0.07338,-0.1844847 z m 43.841767,0.2656168 a 29.765625,29.765625 0 0 0 -0.07751,0.2015382 29.765625,29.765625 0 0 1 0.07751,-0.2015382 z m -99.229083,0.026872 a 29.765625,29.765625 0 0 0 -0.06718,0.1746666 29.765625,29.765625 0 0 1 0.06718,-0.1746666 z M 81.762967,7.506518 a 29.765625,29.765625 0 0 0 -0.07596,0.2067057 29.765625,29.765625 0 0 1 0.07596,-0.2067057 z m -99.235285,0.044958 a 29.765625,29.765625 0 0 0 -0.05943,0.1617472 29.765625,29.765625 0 0 1 0.05943,-0.1617472 z m 98.973286,0.6898804 a 29.765625,29.765625 0 0 0 -0.04754,0.1405599 29.765625,29.765625 0 0 1 0.04754,-0.1405599 z m -99.622342,1.2753748 a 29.765625,29.765625 0 0 0 -0.126091,0.4449341 29.765625,29.765625 0 0 1 0.126091,-0.4449341 z m 99.21875,0 A 29.765625,29.765625 0 0 0 80.971283,9.9616658 29.765625,29.765625 0 0 1 81.097376,9.5167312 Z M 39.263753,10.388513 a 29.765625,29.765625 0 0 1 0.04909,0.192753 29.765625,29.765625 0 0 0 -0.04909,-0.192753 z m 0.114721,0.457853 a 29.765625,29.765625 0 0 1 0.04134,0.173633 29.765625,29.765625 0 0 0 -0.04134,-0.173633 z m -58.019713,0.719336 a 29.765625,29.765625 0 0 0 -0.04909,0.230477 29.765625,29.765625 0 0 1 0.04909,-0.230477 z m 99.218748,0 a 29.765625,29.765625 0 0 0 -0.04909,0.230477 29.765625,29.765625 0 0 1 0.04909,-0.230477 z m -40.943752,0.432532 a 29.765625,29.765625 0 0 1 0.04237,0.215491 29.765625,29.765625 0 0 0 -0.04237,-0.215491 z m 40.792858,0.309542 a 29.765625,29.765625 0 0 0 -0.03411,0.183451 29.765625,29.765625 0 0 1 0.03411,-0.183451 z m -40.62181,0.618567 a 29.765625,29.765625 0 0 1 0.02946,0.18035 29.765625,29.765625 0 0 0 -0.02946,-0.18035 z m 40.467296,0.268717 a 29.765625,29.765625 0 0 0 -0.03514,0.22686 29.765625,29.765625 0 0 1 0.03514,-0.22686 z m -99.229083,0.06563 a 29.765625,29.765625 0 0 0 -0.02481,0.161231 29.765625,29.765625 0 0 1 0.02481,-0.161231 z m 58.870825,0.365352 a 29.765625,29.765625 0 0 1 0.01963,0.137976 29.765625,29.765625 0 0 0 -0.01963,-0.137976 z m 40.273509,0.137976 a 29.765625,29.765625 0 0 0 -0.01707,0.125058 29.765625,29.765625 0 0 1 0.01707,-0.125058 z m -99.221332,0.01912 a 29.765625,29.765625 0 0 0 -0.01447,0.105937 29.765625,29.765625 0 0 1 0.01447,-0.105937 z m 59.067195,0.77928 a 29.765625,29.765625 0 0 1 0.02479,0.22841 29.765625,29.765625 0 0 0 -0.02479,-0.22841 z m 0.04857,0.469222 a 29.765625,29.765625 0 0 1 0.01654,0.181902 29.765625,29.765625 0 0 0 -0.01654,-0.181902 z m 0.04134,0.470256 a 29.765625,29.765625 0 0 1 0.01497,0.201538 29.765625,29.765625 0 0 0 -0.01497,-0.201538 z m 39.79292,1.529622 a 29.765625,29.765625 0 0 0 -0.0041,0.149862 29.765625,29.765625 0 0 1 0.0041,-0.149862 z M -9.43715,19.480465 a 29.765625,29.765625 0 0 1 -0.00827,0.146762 29.765625,29.765625 0 0 0 0.00827,-0.146762 z m 99.218748,0 a 29.765625,29.765625 0 0 1 -0.0072,0.127125 29.765625,29.765625 0 0 0 0.0072,-0.127125 z m -59.408257,0.534852 a 29.765625,29.765625 0 0 0 0.01497,0.201538 29.765625,29.765625 0 0 1 -0.01497,-0.201538 z m 59.341077,0.419612 a 29.765625,29.765625 0 0 1 -0.0041,0.04806 29.765625,29.765625 0 0 1 -0.0062,0.06356 29.765625,29.765625 0 0 0 0.01035,-0.111621 z m -59.301287,0.07028 a 29.765625,29.765625 0 0 0 0.01654,0.181901 29.765625,29.765625 0 0 1 -0.01654,-0.181901 z m -39.9391643,0.166398 a 29.765625,29.765625 0 0 1 -0.017571,0.180351 29.765625,29.765625 0 0 0 0.017571,-0.180351 z m 99.2177153,0.01344 a 29.765625,29.765625 0 0 1 -0.01654,0.166914 29.765625,29.765625 0 0 0 0.01654,-0.166914 z M -9.6283527,21.59558 a 29.765625,29.765625 0 0 1 -0.024805,0.189653 29.765625,29.765625 0 0 0 0.024805,-0.189653 z m 99.2187497,0 a 29.765625,29.765625 0 0 1 -0.02482,0.189653 29.765625,29.765625 0 0 0 0.02482,-0.189653 z m -59.01242,0.359152 a 29.765625,29.765625 0 0 0 0.01963,0.137976 29.765625,29.765625 0 0 1 -0.01963,-0.137976 z m -40.3034813,0.342097 a 29.765625,29.765625 0 0 1 -0.036174,0.233061 29.765625,29.765625 0 0 1 -0.024289,0.150379 29.765625,29.765625 0 0 0 0.024289,-0.150379 29.765625,29.765625 0 0 0 0.036174,-0.233061 z m 99.2187493,0 a 29.765625,29.765625 0 0 1 -0.03617,0.233061 29.765625,29.765625 0 0 1 -0.02429,0.150379 29.765625,29.765625 0 0 0 0.02429,-0.150379 29.765625,29.765625 0 0 0 0.03617,-0.233061 z m -58.816049,0.315227 a 29.765625,29.765625 0 0 0 0.02946,0.18035 29.765625,29.765625 0 0 1 -0.02946,-0.18035 z m -40.5179388,0.391707 a 29.765625,29.765625 0 0 1 -0.040308,0.223759 29.765625,29.765625 0 0 1 -0.041858,0.222725 29.765625,29.765625 0 0 0 0.041858,-0.222725 29.765625,29.765625 0 0 0 0.040308,-0.223759 z m 99.2187488,0 a 29.765625,29.765625 0 0 1 -0.04031,0.223759 29.765625,29.765625 0 0 1 -0.04186,0.222725 29.765625,29.765625 0 0 0 0.04186,-0.222725 29.765625,29.765625 0 0 0 0.04031,-0.223759 z m -58.542679,0.501262 a 29.765625,29.765625 0 0 0 0.04237,0.21549 29.765625,29.765625 0 0 1 -0.04237,-0.21549 z m -41.004732,1.108976 a 29.765625,29.765625 0 0 1 -0.03979,0.168982 29.765625,29.765625 0 0 0 0.03979,-0.168982 z m 41.261047,0.08475 a 29.765625,29.765625 0 0 0 0.04134,0.173633 29.765625,29.765625 0 0 1 -0.04134,-0.173633 z m 0.106971,0.438733 a 29.765625,29.765625 0 0 0 0.04909,0.192753 29.765625,29.765625 0 0 1 -0.04909,-0.192753 z m -41.658439,0.6196 a 29.765625,29.765625 0 0 1 -0.05943,0.212907 29.765625,29.765625 0 0 0 0.05943,-0.212907 z m 99.218749,0 a 29.765625,29.765625 0 0 1 -0.04134,0.148312 29.765625,29.765625 0 0 0 0.04134,-0.148312 z m -99.85747,2.033469 a 29.765625,29.765625 0 0 1 -0.06201,0.173115 29.765625,29.765625 0 0 0 0.06201,-0.173115 z m 99.218747,0 a 29.765625,29.765625 0 0 1 -0.06201,0.173115 29.765625,29.765625 0 0 0 0.06201,-0.173115 z m -99.379978,0.4439 a 29.765625,29.765625 0 0 1 -0.06408,0.170532 29.765625,29.765625 0 0 0 0.06408,-0.170532 z m 99.213066,0.01601 a 29.765625,29.765625 0 0 1 -0.04806,0.127124 29.765625,29.765625 0 0 0 0.04806,-0.127124 z m -55.602293,0.480073 a 29.765625,29.765625 0 0 0 0.07338,0.184486 29.765625,29.765625 0 0 1 -0.07338,-0.184486 z m -44.040721,0.593762 a 29.765625,29.765625 0 0 1 -0.077,0.182417 29.765625,29.765625 0 0 0 0.077,-0.182417 z m 99.218749,0 a 29.765625,29.765625 0 0 1 -0.05478,0.12971 29.765625,29.765625 0 0 0 0.05478,-0.12971 z m -99.694689,1.079521 a 29.765625,29.765625 0 0 1 -0.100252,0.21394 29.765625,29.765625 0 0 0 0.100252,-0.21394 z m 99.218749,0 a 29.765625,29.765625 0 0 1 -0.100253,0.21394 29.765625,29.765625 0 0 0 0.100253,-0.21394 z m -99.956171,1.477947 a 29.765625,29.765625 0 0 1 -0.07803,0.145211 29.765625,29.765625 0 0 0 0.07803,-0.145211 z m 99.218748,0 a 29.765625,29.765625 0 0 1 -0.07803,0.145211 29.765625,29.765625 0 0 0 0.07803,-0.145211 z m -52.269159,0.443899 a 29.765625,29.765625 0 0 0 0.114205,0.202573 29.765625,29.765625 0 0 1 -0.114205,-0.202573 z m 0.349848,0.611334 a 29.765625,29.765625 0 0 0 0.120406,0.203088 29.765625,29.765625 0 0 1 -0.120406,-0.203088 z" style="font-variation-settings:'wght' 300;fill:url(#linearGradient2570);fill-opacity:1;fill-rule:evenodd;stroke:none;stroke-width:18.5208;stroke-linecap:round;stroke-linejoin:miter;stroke-miterlimit:4;stroke-dasharray:none;stroke-dashoffset:0;stroke-opacity:1" id="path1931" />
            <path d="m -39.158229,-33.575629 a 3.571875,3.571875 0 0 0 -3.571875,3.571875 3.571875,3.571875 0 0 0 2.012796,3.213241 v 16.207279 h 3.117641 v -16.206763 a 3.571875,3.571875 0 0 0 2.013313,-3.213757 3.571875,3.571875 0 0 0 -3.571875,-3.571875 z" style="font-variation-settings:'wght' 300;fill:#fc0000;fill-opacity:1;fill-rule:evenodd;stroke:none;stroke-width:18.5208;stroke-linecap:round;stroke-linejoin:miter;stroke-miterlimit:4;stroke-dasharray:none;stroke-dashoffset:0;stroke-opacity:1" id="rect2572" />
            <path d="m 60.060421,-33.575629 a 3.571875,3.571875 0 0 0 -3.571875,3.571875 3.571875,3.571875 0 0 0 2.012797,3.213241 v 16.207279 h 3.11764 v -16.206763 a 3.571875,3.571875 0 0 0 2.013313,-3.213757 3.571875,3.571875 0 0 0 -3.571875,-3.571875 z" style="font-variation-settings:'wght' 300;fill:#00fd0a;fill-opacity:1;fill-rule:evenodd;stroke:none;stroke-width:18.5208;stroke-linecap:round;stroke-linejoin:miter;stroke-miterlimit:4;stroke-dasharray:none;stroke-dashoffset:0;stroke-opacity:1" id="rect2584" />
            <path id="path2111" style="font-variation-settings:'wght' 300;fill:#f8cd00;fill-opacity:1;fill-rule:evenodd;stroke:none;stroke-width:18.5208;stroke-linecap:round;stroke-linejoin:miter;stroke-miterlimit:4;stroke-dasharray:none;stroke-dashoffset:0;stroke-opacity:1" d="m 10.451046,69.35873 a 3.571875,3.571875 0 0 1 -3.5718749,-3.571875 3.571875,3.571875 0 0 1 2.012796,-3.21324 v -16.20728 h 3.1176409 v 16.206763 a 3.571875,3.571875 0 0 1 2.013313,3.213757 3.571875,3.571875 0 0 1 -3.571875,3.571875 z" />
            <path d="m 109.6698,69.35873 a 3.571875,3.571875 0 0 1 -3.57188,-3.571875 3.571875,3.571875 0 0 1 2.0128,-3.21324 v -16.20728 h 3.11764 v 16.206763 a 3.571875,3.571875 0 0 1 2.01331,3.213757 3.571875,3.571875 0 0 1 -3.57187,3.571875 z" style="font-variation-settings:'wght' 300;fill:#3837c7;fill-opacity:1;fill-rule:evenodd;stroke:none;stroke-width:18.5208;stroke-linecap:round;stroke-linejoin:miter;stroke-miterlimit:4;stroke-dasharray:none;stroke-dashoffset:0;stroke-opacity:1" id="path2113" />
            <text transform="translate(74.400652,-53.786561)" y="0" x="5.816164" style="font-style:normal;font-variant:normal;font-weight:normal;font-stretch:normal;font-size:10.5833px;line-height:1.25;font-family:Impact;-inkscape-font-specification:Impact;text-align:center;white-space:pre;shape-inside:url(#rect1877);fill:#000000;fill-opacity:1;stroke:none" id="text1875" xml:space="preserve">
               <tspan x="-118.38296" y="75.829128">
                  <tspan style="font-style:normal;font-variant:normal;font-weight:normal;font-stretch:normal;font-family:Impact;-inkscape-font-specification:Impact;text-align:center;text-anchor:middle;fill:#4d4d4d">01</tspan>
               </tspan>
            </text>
            <circle r="19.201191" cy="-17.859375" cx="-39.158329" id="circle1881" style="font-variation-settings:'wght' 300;fill:url(#linearGradient1889);fill-opacity:1;fill-rule:evenodd;stroke:#4d4d4d;stroke-width:0;stroke-linecap:round;stroke-linejoin:miter;stroke-miterlimit:4;stroke-dasharray:none;stroke-dashoffset:0;stroke-opacity:0.2;filter:url(#filter1521)" transform="matrix(1,0,0,-1,49.609374,0)" />
            <text xml:space="preserve" id="text1885" style="font-style:normal;font-variant:normal;font-weight:normal;font-stretch:normal;font-size:10.5833px;line-height:1.25;font-family:Impact;-inkscape-font-specification:Impact;text-align:center;white-space:pre;shape-inside:url(#rect1887);fill:#000000;fill-opacity:1;stroke:none" x="5.816164" y="0" transform="translate(124.01003,-53.786561)">
               <tspan x="-119.02375" y="75.829128">
                  <tspan style="font-style:normal;font-variant:normal;font-weight:normal;font-stretch:normal;font-family:Impact;-inkscape-font-specification:Impact;text-align:center;text-anchor:middle;fill:#4d4d4d">02</tspan>
               </tspan>
            </text>
            <circle style="font-variation-settings:'wght' 300;fill:url(#linearGradient1903);fill-opacity:1;fill-rule:evenodd;stroke:#4d4d4d;stroke-width:0;stroke-linecap:round;stroke-linejoin:miter;stroke-miterlimit:4;stroke-dasharray:none;stroke-dashoffset:0;stroke-opacity:0.2;filter:url(#filter1521)" id="circle1891" cx="60.060421" cy="17.859375" r="19.201191" />
            <circle transform="matrix(1,0,0,-1,99.218749,0)" style="font-variation-settings:'wght' 300;fill:url(#linearGradient1901);fill-opacity:1;fill-rule:evenodd;stroke:#4d4d4d;stroke-width:0;stroke-linecap:round;stroke-linejoin:miter;stroke-miterlimit:4;stroke-dasharray:none;stroke-dashoffset:0;stroke-opacity:0.2;filter:url(#filter1521)" id="circle1893" cx="-39.158329" cy="-17.859375" r="19.201191" />
            <text transform="translate(173.6194,-53.786561)" y="0" x="5.816164" style="font-style:normal;font-variant:normal;font-weight:normal;font-stretch:normal;font-size:10.5833px;line-height:1.25;font-family:Impact;-inkscape-font-specification:Impact;text-align:center;white-space:pre;shape-inside:url(#rect1899);fill:#000000;fill-opacity:1;stroke:none" id="text1897" xml:space="preserve">
               <tspan x="-119.17877" y="75.829128">
                  <tspan style="font-style:normal;font-variant:normal;font-weight:normal;font-stretch:normal;font-family:Impact;-inkscape-font-specification:Impact;text-align:center;text-anchor:middle;fill:#4d4d4d">03</tspan>
               </tspan>
            </text>
            <circle transform="matrix(1,0,0,-1,148.82813,0)" style="font-variation-settings:'wght' 300;fill:url(#linearGradient1921);fill-opacity:1;fill-rule:evenodd;stroke:#4d4d4d;stroke-width:0;stroke-linecap:round;stroke-linejoin:miter;stroke-miterlimit:4;stroke-dasharray:none;stroke-dashoffset:0;stroke-opacity:0.2;filter:url(#filter1521)" id="circle1905" cx="-39.158329" cy="-17.859375" r="19.201191" />
            <circle r="19.201191" cy="17.859375" cx="109.6698" id="circle1907" style="font-variation-settings:'wght' 300;fill:url(#linearGradient1919);fill-opacity:1;fill-rule:evenodd;stroke:#4d4d4d;stroke-width:0;stroke-linecap:round;stroke-linejoin:miter;stroke-miterlimit:4;stroke-dasharray:none;stroke-dashoffset:0;stroke-opacity:0.2;filter:url(#filter1521)" />
            <circle r="19.201191" cy="-17.859375" cx="-39.158329" id="circle1909" style="font-variation-settings:'wght' 300;fill:url(#linearGradient1917);fill-opacity:1;fill-rule:evenodd;stroke:#4d4d4d;stroke-width:0;stroke-linecap:round;stroke-linejoin:miter;stroke-miterlimit:4;stroke-dasharray:none;stroke-dashoffset:0;stroke-opacity:0.2;filter:url(#filter1521)" transform="matrix(1,0,0,-1,148.82813,0)" />
            <text xml:space="preserve" id="text1913" style="font-style:normal;font-variant:normal;font-weight:normal;font-stretch:normal;font-size:10.5833px;line-height:1.25;font-family:Impact;-inkscape-font-specification:Impact;text-align:center;white-space:pre;shape-inside:url(#rect1915);fill:#000000;fill-opacity:1;stroke:none" x="5.816164" y="0" transform="translate(223.22878,-53.786561)">
               <tspan x="-119.01341" y="75.829128">
                  <tspan style="font-style:normal;font-variant:normal;font-weight:normal;font-stretch:normal;font-family:Impact;-inkscape-font-specification:Impact;text-align:center;text-anchor:middle;fill:#4d4d4d">04</tspan>
               </tspan>
            </text>
            <text transform="translate(0.50416733)" id="text1931" y="-49.958984" x="-39.690819" style="font-style:normal;font-weight:normal;font-size:10.5833px;line-height:1.25;font-family:sans-serif;white-space:pre;inline-size:0;fill:#000000;fill-opacity:1;stroke:none;stroke-width:0.264583" xml:space="preserve">
               <tspan style="text-align:center;text-anchor:middle;stroke-width:0.264583" y="-49.958984" x="-39.690819" id="tspan1929">Label</tspan>
            </text>
            <text transform="translate(0.2828022)" y="0" x="18.44227" style="font-style:normal;font-variant:normal;font-weight:300;font-stretch:normal;font-size:4.23333px;line-height:1.25;font-family:Corbel;-inkscape-font-specification:'Corbel Light';text-align:center;white-space:pre;shape-inside:url(#rect1935);fill:#000000;fill-opacity:1;stroke:none" id="text1933" xml:space="preserve">
               <tspan x="-58.245036" y="-43.342239">
                  <tspan style="font-style:normal;font-variant:normal;font-weight:300;font-stretch:normal;font-size:4.23333px;font-family:Corbel;-inkscape-font-specification:'Corbel Light';text-align:center;text-anchor:middle">Description  and more </tspan>
               </tspan>
               <tspan x="-51.564313" y="-38.050575">
                  <tspan style="font-style:normal;font-variant:normal;font-weight:300;font-stretch:normal;font-size:4.23333px;font-family:Corbel;-inkscape-font-specification:'Corbel Light';text-align:center;text-anchor:middle">info goes here</tspan>
               </tspan>
            </text>
            <text transform="translate(149.33219,132.29842)" id="text1979" y="-49.958984" x="-39.690819" style="font-style:normal;font-weight:normal;font-size:10.5833px;line-height:1.25;font-family:sans-serif;white-space:pre;inline-size:0;fill:#000000;fill-opacity:1;stroke:none;stroke-width:0.264583" xml:space="preserve">
               <tspan style="text-align:center;text-anchor:middle;stroke-width:0.264583" y="-49.958984" x="-39.690819" id="tspan1977">Label</tspan>
            </text>
            <text transform="translate(149.11083,132.29842)" y="0" x="18.44227" style="font-style:normal;font-variant:normal;font-weight:300;font-stretch:normal;font-size:4.23333px;line-height:1.25;font-family:Corbel;-inkscape-font-specification:'Corbel Light';text-align:center;white-space:pre;shape-inside:url(#rect1985);fill:#000000;fill-opacity:1;stroke:none" id="text1983" xml:space="preserve">
               <tspan x="-58.245036" y="-43.342239">
                  <tspan style="font-style:normal;font-variant:normal;font-weight:300;font-stretch:normal;font-size:4.23333px;font-family:Corbel;-inkscape-font-specification:'Corbel Light';text-align:center;text-anchor:middle">Description  and more </tspan>
               </tspan>
               <tspan x="-51.564313" y="-38.050575">
                  <tspan style="font-style:normal;font-variant:normal;font-weight:300;font-stretch:normal;font-size:4.23333px;font-family:Corbel;-inkscape-font-specification:'Corbel Light';text-align:center;text-anchor:middle">info goes here</tspan>
               </tspan>
            </text>
            <text xml:space="preserve" style="font-style:normal;font-weight:normal;font-size:10.5833px;line-height:1.25;font-family:sans-serif;white-space:pre;inline-size:0;fill:#000000;fill-opacity:1;stroke:none;stroke-width:0.264583" x="-39.690819" y="-49.958984" id="text1989" transform="translate(50.113443,132.29842)">
               <tspan id="tspan1987" x="-39.690819" y="-49.958984" style="text-align:center;text-anchor:middle;stroke-width:0.264583">Label</tspan>
            </text>
            <text xml:space="preserve" id="text1993" style="font-style:normal;font-variant:normal;font-weight:300;font-stretch:normal;font-size:4.23333px;line-height:1.25;font-family:Corbel;-inkscape-font-specification:'Corbel Light';text-align:center;white-space:pre;shape-inside:url(#rect1995);fill:#000000;fill-opacity:1;stroke:none" x="18.44227" y="0" transform="translate(49.892077,132.29842)">
               <tspan x="-58.245036" y="-43.342239">
                  <tspan style="font-style:normal;font-variant:normal;font-weight:300;font-stretch:normal;font-size:4.23333px;font-family:Corbel;-inkscape-font-specification:'Corbel Light';text-align:center;text-anchor:middle">Description  and more </tspan>
               </tspan>
               <tspan x="-51.564313" y="-38.050575">
                  <tspan style="font-style:normal;font-variant:normal;font-weight:300;font-stretch:normal;font-size:4.23333px;font-family:Corbel;-inkscape-font-specification:'Corbel Light';text-align:center;text-anchor:middle">info goes here</tspan>
               </tspan>
            </text>
            <text xml:space="preserve" style="font-style:normal;font-weight:normal;font-size:10.5833px;line-height:1.25;font-family:sans-serif;white-space:pre;inline-size:0;fill:#000000;fill-opacity:1;stroke:none;stroke-width:0.264583" x="-39.690819" y="-49.958984" id="text2097" transform="translate(99.722818,-0.13363476)">
               <tspan id="tspan2095" x="-39.690819" y="-49.958984" style="text-align:center;text-anchor:middle;stroke-width:0.264583">Label</tspan>
            </text>
            <text xml:space="preserve" id="text2101" style="font-style:normal;font-variant:normal;font-weight:300;font-stretch:normal;font-size:4.23333px;line-height:1.25;font-family:Corbel;-inkscape-font-specification:'Corbel Light';text-align:center;white-space:pre;shape-inside:url(#rect2103);fill:#000000;fill-opacity:1;stroke:none" x="18.44227" y="0" transform="translate(99.501452,-0.13363476)">
               <tspan x="-58.245036" y="-43.342239">
                  <tspan style="font-style:normal;font-variant:normal;font-weight:300;font-stretch:normal;font-size:4.23333px;font-family:Corbel;-inkscape-font-specification:'Corbel Light';text-align:center;text-anchor:middle">Description  and more </tspan>
               </tspan>
               <tspan x="-51.564313" y="-38.050575">
                  <tspan style="font-style:normal;font-variant:normal;font-weight:300;font-stretch:normal;font-size:4.23333px;font-family:Corbel;-inkscape-font-specification:'Corbel Light';text-align:center;text-anchor:middle">info goes here</tspan>
               </tspan>
            </text>
         </g>
      </g>
      <text transform="translate(109.53755,-16.487691)" style="font-style:normal;font-variant:normal;font-weight:normal;font-stretch:normal;font-size:50..5em;line-height:1.25;font-family:Prototype;-inkscape-font-specification:'Prototype, @wght=300';font-variant-ligatures:normal;font-variant-caps:normal;font-variant-numeric:normal;font-variant-east-asian:normal;font-variation-settings:'wght' 300;white-space:pre;shape-inside:url(#rect835);fill:#000000;fill-opacity:1;stroke:none;" id="text833" xml:space="preserve" />
      <text style="font-style:normal;font-variant:normal;font-weight:normal;font-stretch:normal;font-size:10.5833px;line-height:1.25;font-family:Prototype;-inkscape-font-specification:Prototype;white-space:pre;shape-inside:url(#rect1925);fill:#000000;fill-opacity:1;stroke:none;" id="text1923" xml:space="preserve" />
      <text style="font-style:normal;font-weight:normal;font-size:10.5833px;line-height:1.25;font-family:sans-serif;white-space:pre;shape-inside:url(#rect1941);fill:#000000;fill-opacity:1;stroke:none;" id="text1939" xml:space="preserve" />
   </g>
</svg>
