<?xml version="1.0" encoding="UTF-8" standalone="no"?>
<svg
   xmlns:dc="http://purl.org/dc/elements/1.1/"
   xmlns:cc="http://creativecommons.org/ns#"
   xmlns:rdf="http://www.w3.org/1999/02/22-rdf-syntax-ns#"
   xmlns:svg="http://www.w3.org/2000/svg"
   xmlns="http://www.w3.org/2000/svg"
   xmlns:xlink="http://www.w3.org/1999/xlink"
   xmlns:sodipodi="http://sodipodi.sourceforge.net/DTD/sodipodi-0.dtd"
   xmlns:inkscape="http://www.inkscape.org/namespaces/inkscape"
   version="1.1"
   viewBox="0 0 446.96993 470.04445"
   id="svg576"
   sodipodi:docname="Plain_infographic4slot.svg"
   width="446.96994"
   height="470.04443"
   inkscape:version="1.0.1 (3bc2e813f5, 2020-09-07)">
  <sodipodi:namedview
     pagecolor="#ffffff"
     bordercolor="#666666"
     borderopacity="1"
     objecttolerance="10"
     gridtolerance="10"
     guidetolerance="10"
     inkscape:pageopacity="0"
     inkscape:pageshadow="2"
     inkscape:window-width="1920"
     inkscape:window-height="1027"
     id="namedview578"
     showgrid="false"
     inkscape:zoom="3.1219723"
     inkscape:cx="216.26604"
     inkscape:cy="362.33473"
     inkscape:window-x="-8"
     inkscape:window-y="-8"
     inkscape:window-maximized="1"
     inkscape:current-layer="g564" />
  <defs
     id="defs50">
    <linearGradient
       id="c">
      <stop
         stop-color="#4d4d4d"
         stop-opacity="0"
         offset="0"
         id="stop2" />
      <stop
         stop-opacity=".52885"
         offset="1"
         id="stop4" />
    </linearGradient>
    <linearGradient
       id="a">
      <stop
         stop-color="#ccc"
         offset="0"
         id="stop7" />
      <stop
         stop-color="#ccc"
         stop-opacity=".2"
         offset="1"
         id="stop9" />
    </linearGradient>
    <linearGradient
       id="l"
       x1="-260.5"
       x2="527"
       y1="67.5"
       y2="67.030998"
       gradientTransform="matrix(0.26458,0,0,0.26458,-38.256127,-81.137612)"
       gradientUnits="userSpaceOnUse">
      <stop
         stop-color="#a00"
         offset="0"
         id="stop12" />
      <stop
         stop-color="#f00"
         offset=".14466"
         id="stop14" />
      <stop
         stop-color="#fc0"
         offset=".38126"
         id="stop16" />
      <stop
         stop-color="#0f0"
         offset=".6201"
         id="stop18" />
      <stop
         stop-color="#0cf"
         offset=".74222"
         id="stop20" />
      <stop
         stop-color="#3737c8"
         offset=".85715"
         id="stop22" />
      <stop
         stop-color="#892ca0"
         offset="1"
         id="stop24" />
    </linearGradient>
    <filter
       id="d"
       x="-0.024963001"
       y="-0.024963001"
       width="1.0499001"
       height="1.0499001"
       color-interpolation-filters="sRGB">
      <feGaussianBlur
         stdDeviation="0.4127999"
         id="feGaussianBlur27" />
    </filter>
    <filter
       id="b"
       x="-0.00030819001"
       y="-0.00030819001"
       width="1.0006"
       height="1.0006"
       color-interpolation-filters="sRGB">
      <feGaussianBlur
         stdDeviation="0.0049312723"
         id="feGaussianBlur30" />
    </filter>
    <radialGradient
       id="i"
       cx="-39.158001"
       cy="17.858999"
       r="19.844"
       gradientUnits="userSpaceOnUse"
       xlink:href="#c"
       gradientTransform="translate(-38.256127,-81.137612)" />
    <linearGradient
       id="o"
       x1="-39.234001"
       x2="-39.234001"
       y1="-35.813"
       y2="-0.66145998"
       gradientTransform="matrix(1.0518,0,0,1.0518,13.379873,-44.494612)"
       gradientUnits="userSpaceOnUse"
       xlink:href="#a" />
    <linearGradient
       id="e"
       x1="-39.234001"
       x2="-39.234001"
       y1="-35.813"
       y2="-0.66145998"
       gradientTransform="matrix(1.0518,0,0,1.0518,112.59387,-44.494612)"
       gradientUnits="userSpaceOnUse"
       xlink:href="#a" />
    <radialGradient
       id="g"
       cx="-39.158001"
       cy="17.858999"
       r="19.844"
       gradientTransform="translate(11.352873,45.418612)"
       gradientUnits="userSpaceOnUse"
       xlink:href="#c" />
    <radialGradient
       id="f"
       cx="-39.158001"
       cy="17.858999"
       r="19.844"
       gradientTransform="translate(110.57387,45.418612)"
       gradientUnits="userSpaceOnUse"
       xlink:href="#c" />
    <linearGradient
       id="n"
       x1="-39.234001"
       x2="-39.234001"
       y1="-35.813"
       y2="-0.66145998"
       gradientTransform="matrix(1.0518,0,0,1.0518,-36.229327,82.062012)"
       gradientUnits="userSpaceOnUse"
       xlink:href="#a" />
    <linearGradient
       id="m"
       x1="-39.234001"
       x2="-39.234001"
       y1="-35.813"
       y2="-0.66145998"
       gradientTransform="matrix(1.0518,0,0,1.0518,-36.229327,82.062012)"
       gradientUnits="userSpaceOnUse"
       xlink:href="#a" />
    <linearGradient
       id="k"
       x1="-39.234001"
       x2="-39.234001"
       y1="-35.813"
       y2="-0.66145998"
       gradientTransform="matrix(1.0518,0,0,1.0907,-36.229327,86.47608)"
       gradientUnits="userSpaceOnUse"
       xlink:href="#a" />
    <filter
       id="r"
       x="-0.024963001"
       y="-0.024963001"
       width="1.0499001"
       height="1.0499001"
       color-interpolation-filters="sRGB">
      <feGaussianBlur
         stdDeviation="0.4127999"
         id="feGaussianBlur41" />
    </filter>
    <radialGradient
       id="h"
       cx="-39.158001"
       cy="17.858999"
       r="19.844"
       gradientTransform="translate(-38.256123,-81.137612)"
       gradientUnits="userSpaceOnUse"
       xlink:href="#c" />
    <linearGradient
       id="p"
       x1="-39.234001"
       x2="-39.234001"
       y1="-35.813"
       y2="-0.66145998"
       gradientTransform="matrix(1.0518,0,0,1.0626,-135.05113,83.051072)"
       gradientUnits="userSpaceOnUse"
       xlink:href="#a" />
    <filter
       id="q"
       x="-0.00030819001"
       y="-0.00030819001"
       width="1.0006"
       height="1.0006"
       color-interpolation-filters="sRGB">
      <feGaussianBlur
         stdDeviation="0.0049312723"
         id="feGaussianBlur46" />
    </filter>
    <linearGradient
       id="j"
       x1="-39.234001"
       x2="-39.234001"
       y1="-35.813"
       y2="-0.66145998"
       gradientTransform="matrix(1.0353,0,0,1.0518,-36.275075,81.390892)"
       gradientUnits="userSpaceOnUse"
       xlink:href="#a" />
    <linearGradient
       inkscape:collect="always"
       xlink:href="#a"
       id="linearGradient580"
       gradientUnits="userSpaceOnUse"
       gradientTransform="matrix(1.0518,0,0,1.0518,112.59387,-44.494612)"
       x1="-39.234001"
       y1="-35.813"
       x2="-39.234001"
       y2="-0.66145998" />
  </defs>
  <metadata
     id="metadata52">
    <rdf:RDF>
      <cc:Work
         rdf:about="">
        <dc:format>image/svg+xml</dc:format>
        <dc:type
           rdf:resource="http://purl.org/dc/dcmitype/StillImage" />
        <dc:title />
        <cc:license
           rdf:resource="http://creativecommons.org/licenses/by/4.0/" />
      </cc:Work>
      <cc:License
         rdf:about="http://creativecommons.org/licenses/by/4.0/">
        <cc:permits
           rdf:resource="http://creativecommons.org/ns#Reproduction" />
        <cc:permits
           rdf:resource="http://creativecommons.org/ns#Distribution" />
        <cc:requires
           rdf:resource="http://creativecommons.org/ns#Notice" />
        <cc:requires
           rdf:resource="http://creativecommons.org/ns#Attribution" />
        <cc:permits
           rdf:resource="http://creativecommons.org/ns#DerivativeWorks" />
      </cc:License>
    </rdf:RDF>
  </metadata>
  <g
     transform="translate(111.97203,168.18543)"
     id="g574">
    <g
       transform="matrix(1.4049,0,0,1.0939,39.102,-15.337)"
       id="g564">
      <g
         fill-rule="evenodd"
         id="g78">
        <ellipse
           cx="-39.006001"
           cy="17.368999"
           rx="19.691"
           ry="19.354"
           fill="url(#i)"
           opacity="0.53846"
           style="font-variation-settings:'wght' 300;fill:url(#i)"
           id="ellipse54" />
        <circle
           transform="matrix(1,0,0,0.99503,0.30679,-1.6363)"
           cx="-39.733002"
           cy="18.917999"
           r="19.844"
           filter="url(#d)"
           opacity="0.94516"
           style="font-variation-settings:'wght' 300"
           id="circle56" />
        <g
           stroke-width="0"
           id="g68">
          <circle
             transform="matrix(1.0159,0,0,-1,0.62252,-0.67111)"
             cx="-39.158001"
             cy="-17.858999"
             r="19.201"
             fill="url(#j)"
             filter="url(#b)"
             style="font-variation-settings:'wght' 300;fill:url(#j)"
             id="circle58" />
          <circle
             transform="matrix(1,0,0,-1,148.83,0)"
             cx="-39.158001"
             cy="-17.858999"
             r="19.201"
             fill="url(#m)"
             filter="url(#b)"
             style="font-variation-settings:'wght' 300;fill:url(#m)"
             id="circle60" />
          <circle
             cx="109.67"
             cy="17.858999"
             r="19.201"
             fill="url(#e)"
             filter="url(#b)"
             style="font-variation-settings:'wght' 300;fill:url(#linearGradient580)"
             id="circle62" />
          <circle
             transform="matrix(1,0,0,-1,148.83,-7.924e-7)"
             cx="-39.158001"
             cy="-17.858999"
             r="19.201"
             fill="url(#n)"
             filter="url(#b)"
             style="font-variation-settings:'wght' 300;fill:url(#n)"
             id="circle64" />
          <circle
             transform="matrix(1,0,0,-0.96427,49.609,1.3243)"
             cx="-39.158001"
             cy="-17.858999"
             r="19.201"
             fill="url(#k)"
             filter="url(#b)"
             style="font-variation-settings:'wght' 300;fill:url(#k)"
             id="circle66" />
        </g>
        <circle
           cx="109.67"
           cy="18.917999"
           r="19.844"
           filter="url(#d)"
           opacity="0.35577"
           style="font-variation-settings:'wght' 300"
           id="circle70" />
        <circle
           cx="10.451"
           cy="18.917999"
           r="19.844"
           filter="url(#d)"
           opacity="0.35577"
           style="font-variation-settings:'wght' 300"
           id="circle72" />
        <circle
           transform="scale(1,-1)"
           cx="109.67"
           cy="-17.858999"
           r="19.844"
           fill="url(#f)"
           opacity="0.53846"
           style="font-variation-settings:'wght' 300;fill:url(#f)"
           id="circle74" />
        <circle
           cx="109.67"
           cy="16.031"
           r="19.201"
           fill="url(#e)"
           filter="url(#b)"
           stroke-width="0"
           style="font-variation-settings:'wght' 300;fill:url(#e)"
           id="circle76" />
      </g>
      <circle
         cx="60.060001"
         cy="17.858999"
         r="19.844"
         opacity="0"
         stroke-width="18.521"
         style="font-variation-settings:'wght' 300"
         id="circle80" />
      <g
         fill-rule="evenodd"
         id="g96">
        <circle
           transform="scale(1,-1)"
           cx="10.451"
           cy="-17.858999"
           r="19.844"
           fill="url(#g)"
           opacity="0.53846"
           style="font-variation-settings:'wght' 300;fill:url(#g)"
           id="circle82" />
        <circle
           cx="10.451"
           cy="16.031"
           r="19.201"
           fill="url(#o)"
           filter="url(#b)"
           stroke-width="0"
           style="font-variation-settings:'wght' 300;fill:url(#o)"
           id="circle84" />
        <path
           d="m -39.342,-12.298 a 29.766,29.766 0 0 0 -29.735,29.766 29.766,29.766 0 0 0 5.29e-4,0.1142 c 0.15487,-0.07156 0.32606,-0.1142 0.50848,-0.1142 h 9.4129 a 19.844,19.844 0 0 1 19.844,-19.844 19.844,19.844 0 0 1 19.844,19.844 29.766,29.766 0 0 0 4.9609,16.453 29.766,29.766 0 0 0 0.12971,-0.19741 29.766,29.766 0 0 1 -0.12971,0.19741 29.766,29.766 0 0 0 24.805,13.312 29.766,29.766 0 0 0 24.805,-13.312 29.766,29.766 0 0 0 0.39739,-0.61547 29.766,29.766 0 0 0 0.11162,-0.17932 29.766,29.766 0 0 0 0.14108,-0.22996 29.766,29.766 0 0 0 0.03566,-0.05943 29.766,29.766 0 0 0 0.06511,-0.108 29.766,29.766 0 0 0 1.8361,-3.6137 29.766,29.766 0 0 0 0.077,-0.18242 29.766,29.766 0 0 0 0.36587,-0.91932 29.766,29.766 0 0 0 0.06408,-0.17053 29.766,29.766 0 0 0 0.74052,-2.2645 29.766,29.766 0 0 0 0.05943,-0.21291 29.766,29.766 0 0 0 0.25063,-0.9741 29.766,29.766 0 0 0 0.03979,-0.16898 29.766,29.766 0 0 0 0.6258,-3.762 29.766,29.766 0 0 0 0.0098,-0.09974 29.766,29.766 0 0 0 0.0078,-0.08061 29.766,29.766 0 0 0 0.0052,-0.05219 29.766,29.766 0 0 0 0.01601,-0.1788 29.766,29.766 0 0 0 5.29e-4,-0.0072 29.766,29.766 0 0 0 0.05891,-0.80615 29.766,29.766 0 0 0 0.0083,-0.14676 29.766,29.766 0 0 0 0.04446,-1.5901 29.766,29.766 0 0 0 0,-0.03101 29.766,29.766 0 0 0 -10e-4,-0.23616 29.766,29.766 0 0 1 10e-4,0.23616 19.844,19.844 0 0 1 19.844,-19.844 19.844,19.844 0 0 1 19.844,19.844 29.766,29.766 0 0 0 4.9609,16.453 29.766,29.766 0 0 0 0.12971,-0.19741 29.766,29.766 0 0 1 -0.12971,0.19741 29.766,29.766 0 0 0 24.805002,13.312 29.766,29.766 0 0 0 29.766,-29.766 29.766,29.766 0 0 0 -5.2e-4,-0.12402 c -0.15966,0.07713 -0.33674,0.12402 -0.52658,0.12402 h -9.3948 a 19.844,19.844 0 0 1 -19.844,19.844 19.844,19.844 0 0 1 -19.844002,-19.813 29.766,29.766 0 0 0 0,-0.03101 29.766,29.766 0 0 0 -4.9611,-16.453 29.766,29.766 0 0 0 -24.805,-13.312 29.766,29.766 0 0 0 -0.03101,0 29.766,29.766 0 0 0 -24.774,13.312 29.766,29.766 0 0 0 -0.01963,0.02997 29.766,29.766 0 0 0 -0.11007,0.16743 29.766,29.766 0 0 0 -2.8065,5.4658 29.766,29.766 0 0 0 -0.07751,0.20154 29.766,29.766 0 0 0 -0.08837,0.23564 29.766,29.766 0 0 0 -0.07597,0.20671 29.766,29.766 0 0 0 -0.18603,0.52813 29.766,29.766 0 0 0 -0.04754,0.14056 29.766,29.766 0 0 0 -0.08682,0.26252 29.766,29.766 0 0 0 -0.05994,0.18604 29.766,29.766 0 0 0 -0.0801,0.25528 29.766,29.766 0 0 0 -0.05943,0.19534 29.766,29.766 0 0 0 -0.48782,1.8309 29.766,29.766 0 0 0 -0.05116,0.22324 29.766,29.766 0 0 0 -0.05064,0.23048 29.766,29.766 0 0 0 -0.04909,0.23048 29.766,29.766 0 0 0 -0.1018,0.5116 29.766,29.766 0 0 0 -0.03411,0.18345 29.766,29.766 0 0 0 -0.04651,0.25993 29.766,29.766 0 0 0 -0.03514,0.20464 29.766,29.766 0 0 0 -0.03876,0.23926 29.766,29.766 0 0 0 -0.03514,0.22686 29.766,29.766 0 0 0 -0.04961,0.3421 29.766,29.766 0 0 0 -0.01707,0.12506 29.766,29.766 0 0 0 -0.11576,0.98547 29.766,29.766 0 0 0 -0.0186,0.18707 29.766,29.766 0 0 0 -0.11989,1.9699 29.766,29.766 0 0 0 -0.0041,0.14986 29.766,29.766 0 0 0 -0.0078,0.678 29.766,29.766 0 0 0 0.0011,0.23616 29.766,29.766 0 0 1 -0.0011,-0.23616 19.844,19.844 0 0 1 -19.844,19.844 19.844,19.844 0 0 1 -19.844,-19.813 29.766,29.766 0 0 0 0,-0.03101 29.766,29.766 0 0 0 -4.9609,-16.453 29.766,29.766 0 0 0 -24.805,-13.312 29.766,29.766 0 0 0 -0.03101,0 z M 35.842,2.187 A 29.766,29.766 0 0 1 35.96241,2.39009 29.766,29.766 0 0 0 35.842,2.187 Z m 0.35605,0.61185 a 29.766,29.766 0 0 1 0.1142,0.20257 29.766,29.766 0 0 0 -0.1142,-0.20257 z m 46.923,0.91416 A 29.766,29.766 0 0 0 83.04302,3.86339 29.766,29.766 0 0 0 82.84355,4.2582 29.766,29.766 0 0 1 83.04302,3.86339 29.766,29.766 0 0 1 83.12105,3.71301 Z m -99.241,0.04341 a 29.766,29.766 0 0 0 -0.05529,0.10697 29.766,29.766 0 0 0 -0.19947,0.39481 29.766,29.766 0 0 1 0.19947,-0.39481 29.766,29.766 0 0 1 0.05529,-0.10697 z m 98.818,0.80202 a 29.766,29.766 0 0 0 -0.07234,0.1509 29.766,29.766 0 0 0 -0.10025,0.21394 29.766,29.766 0 0 1 0.10025,-0.21394 29.766,29.766 0 0 1 0.07234,-0.1509 z m -99.225,0.01188 a 29.766,29.766 0 0 0 -0.06614,0.13901 29.766,29.766 0 0 0 -0.10025,0.21394 29.766,29.766 0 0 1 0.10025,-0.21394 29.766,29.766 0 0 1 0.06614,-0.13901 z m 54.462,1.8417 A 29.766,29.766 0 0 1 38.00843,6.5965 29.766,29.766 0 0 0 37.93505,6.41202 Z m 43.842,0.26562 a 29.766,29.766 0 0 0 -0.07751,0.20154 29.766,29.766 0 0 1 0.07751,-0.20154 z m -99.229,0.02687 a 29.766,29.766 0 0 0 -0.06718,0.17467 29.766,29.766 0 0 1 0.06718,-0.17467 z m 99.063,0.41031 a 29.766,29.766 0 0 0 -0.07596,0.2067 29.766,29.766 0 0 1 0.07596,-0.2067 z m -99.235,0.04496 a 29.766,29.766 0 0 0 -0.05943,0.16175 29.766,29.766 0 0 1 0.05943,-0.16175 z m 98.973,0.68988 a 29.766,29.766 0 0 0 -0.04754,0.14056 29.766,29.766 0 0 1 0.04754,-0.14056 z m -99.622,1.2754 a 29.766,29.766 0 0 0 -0.12609,0.44493 29.766,29.766 0 0 1 0.12609,-0.44493 z m 99.219,0 a 29.766,29.766 0 0 0 -0.12609,0.44493 29.766,29.766 0 0 1 0.12609,-0.44493 z m -41.834,0.87178 a 29.766,29.766 0 0 1 0.04909,0.19275 29.766,29.766 0 0 0 -0.04909,-0.19275 z m 0.11472,0.45785 a 29.766,29.766 0 0 1 0.04134,0.17363 29.766,29.766 0 0 0 -0.04134,-0.17363 z m -58.02,0.71934 a 29.766,29.766 0 0 0 -0.04909,0.23048 29.766,29.766 0 0 1 0.04909,-0.23048 z m 99.219,0 a 29.766,29.766 0 0 0 -0.04909,0.23048 29.766,29.766 0 0 1 0.04909,-0.23048 z m -40.944,0.43253 a 29.766,29.766 0 0 1 0.04237,0.21549 29.766,29.766 0 0 0 -0.04237,-0.21549 z m 40.793,0.30954 a 29.766,29.766 0 0 0 -0.03411,0.18345 29.766,29.766 0 0 1 0.03411,-0.18345 z m -40.622,0.61857 a 29.766,29.766 0 0 1 0.02946,0.18035 29.766,29.766 0 0 0 -0.02946,-0.18035 z m 40.467,0.26872 a 29.766,29.766 0 0 0 -0.03514,0.22686 29.766,29.766 0 0 1 0.03514,-0.22686 z m -99.229,0.06563 a 29.766,29.766 0 0 0 -0.02481,0.16123 29.766,29.766 0 0 1 0.02481,-0.16123 z m 58.871,0.36535 a 29.766,29.766 0 0 1 0.01963,0.13798 29.766,29.766 0 0 0 -0.01963,-0.13798 z m 40.274,0.13798 a 29.766,29.766 0 0 0 -0.01707,0.12506 29.766,29.766 0 0 1 0.01707,-0.12506 z m -99.221,0.01912 a 29.766,29.766 0 0 0 -0.01447,0.10594 29.766,29.766 0 0 1 0.01447,-0.10594 z m 59.067,0.77928 a 29.766,29.766 0 0 1 0.02479,0.22841 29.766,29.766 0 0 0 -0.02479,-0.22841 z m 0.04857,0.46922 a 29.766,29.766 0 0 1 0.01654,0.1819 29.766,29.766 0 0 0 -0.01654,-0.1819 z m 0.04134,0.47026 a 29.766,29.766 0 0 1 0.01497,0.20154 29.766,29.766 0 0 0 -0.01497,-0.20154 z m 39.793,1.5296 a 29.766,29.766 0 0 0 -0.0041,0.14986 29.766,29.766 0 0 1 0.0041,-0.14986 z m -89.353,2.4489 a 29.766,29.766 0 0 1 -0.0083,0.14676 29.766,29.766 0 0 0 0.0083,-0.14676 z m 99.219,0 a 29.766,29.766 0 0 1 -0.0072,0.12712 29.766,29.766 0 0 0 0.0072,-0.12712 z m -59.408,0.53485 a 29.766,29.766 0 0 0 0.01497,0.20154 29.766,29.766 0 0 1 -0.01497,-0.20154 z m 59.341,0.41961 a 29.766,29.766 0 0 1 -0.0041,0.04806 29.766,29.766 0 0 1 -0.0062,0.06356 29.766,29.766 0 0 0 0.01035,-0.11162 z m -59.301,0.07028 a 29.766,29.766 0 0 0 0.01654,0.1819 29.766,29.766 0 0 1 -0.01654,-0.1819 z m -39.939,0.1664 a 29.766,29.766 0 0 1 -0.01757,0.18035 29.766,29.766 0 0 0 0.01757,-0.18035 z m 99.218,0.01344 a 29.766,29.766 0 0 1 -0.01654,0.16691 29.766,29.766 0 0 0 0.01654,-0.16691 z m -99.32,0.91053 a 29.766,29.766 0 0 1 -0.02481,0.18965 29.766,29.766 0 0 0 0.02481,-0.18965 z m 99.219,0 a 29.766,29.766 0 0 1 -0.02482,0.18965 29.766,29.766 0 0 0 0.02482,-0.18965 z m -59.012,0.35915 a 29.766,29.766 0 0 0 0.01963,0.13798 29.766,29.766 0 0 1 -0.01963,-0.13798 z m -40.303,0.3421 a 29.766,29.766 0 0 1 -0.03617,0.23306 29.766,29.766 0 0 1 -0.02429,0.15038 29.766,29.766 0 0 0 0.02429,-0.15038 29.766,29.766 0 0 0 0.03617,-0.23306 z m 99.219,0 a 29.766,29.766 0 0 1 -0.03617,0.23306 29.766,29.766 0 0 1 -0.02429,0.15038 29.766,29.766 0 0 0 0.02429,-0.15038 29.766,29.766 0 0 0 0.03617,-0.23306 z m -58.816,0.31523 a 29.766,29.766 0 0 0 0.02946,0.18035 29.766,29.766 0 0 1 -0.02946,-0.18035 z m -40.518,0.39171 a 29.766,29.766 0 0 1 -0.04031,0.22376 29.766,29.766 0 0 1 -0.04186,0.22272 29.766,29.766 0 0 0 0.04186,-0.22272 29.766,29.766 0 0 0 0.04031,-0.22376 z m 99.219,0 a 29.766,29.766 0 0 1 -0.04031,0.22376 29.766,29.766 0 0 1 -0.04186,0.22272 29.766,29.766 0 0 0 0.04186,-0.22272 29.766,29.766 0 0 0 0.04031,-0.22376 z m -58.543,0.50126 a 29.766,29.766 0 0 0 0.04237,0.21549 29.766,29.766 0 0 1 -0.04237,-0.21549 z m -41.005,1.109 a 29.766,29.766 0 0 1 -0.03979,0.16898 29.766,29.766 0 0 0 0.03979,-0.16898 z m 41.261,0.08475 a 29.766,29.766 0 0 0 0.04134,0.17363 29.766,29.766 0 0 1 -0.04134,-0.17363 z m 0.10697,0.43873 a 29.766,29.766 0 0 0 0.04909,0.19275 29.766,29.766 0 0 1 -0.04909,-0.19275 z m -41.658,0.6196 a 29.766,29.766 0 0 1 -0.05943,0.21291 29.766,29.766 0 0 0 0.05943,-0.21291 z m 99.219,0 a 29.766,29.766 0 0 1 -0.04134,0.14831 29.766,29.766 0 0 0 0.04134,-0.14831 z m -99.857,2.0335 a 29.766,29.766 0 0 1 -0.06201,0.17312 29.766,29.766 0 0 0 0.06201,-0.17312 z m 99.219,0 a 29.766,29.766 0 0 1 -0.06201,0.17312 29.766,29.766 0 0 0 0.06201,-0.17312 z m -99.38,0.4439 a 29.766,29.766 0 0 1 -0.06408,0.17053 29.766,29.766 0 0 0 0.06408,-0.17053 z m 99.213,0.01601 a 29.766,29.766 0 0 1 -0.04806,0.12712 29.766,29.766 0 0 0 0.04806,-0.12712 z m -55.602,0.48007 a 29.766,29.766 0 0 0 0.07338,0.18449 29.766,29.766 0 0 1 -0.07338,-0.18449 z m -44.041,0.59376 a 29.766,29.766 0 0 1 -0.077,0.18242 29.766,29.766 0 0 0 0.077,-0.18242 z m 99.219,0 a 29.766,29.766 0 0 1 -0.05478,0.12971 29.766,29.766 0 0 0 0.05478,-0.12971 z m -99.695,1.0795 a 29.766,29.766 0 0 1 -0.10025,0.21394 29.766,29.766 0 0 0 0.10025,-0.21394 z m 99.219,0 a 29.766,29.766 0 0 1 -0.10025,0.21394 29.766,29.766 0 0 0 0.10025,-0.21394 z m -99.956,1.4779 a 29.766,29.766 0 0 1 -0.07803,0.14521 29.766,29.766 0 0 0 0.07803,-0.14521 z m 99.219,0 a 29.766,29.766 0 0 1 -0.07803,0.14521 29.766,29.766 0 0 0 0.07803,-0.14521 z m -52.269,0.4439 a 29.766,29.766 0 0 0 0.1142,0.20257 29.766,29.766 0 0 1 -0.1142,-0.20257 z m 0.34985,0.61133 a 29.766,29.766 0 0 0 0.12041,0.20309 29.766,29.766 0 0 1 -0.12041,-0.20309 z"
           fill="url(#l)"
           style="font-variation-settings:'wght' 300;fill:url(#l)"
           id="path86" />
        <path
           d="m -39.158,-28.091 a 3.5719,3.5719 0 0 0 -3.5719,3.5719 3.5719,3.5719 0 0 0 2.0128,3.2132 v 16.207 h 3.1176 v -16.207 a 3.5719,3.5719 0 0 0 2.0133,-3.2138 3.5719,3.5719 0 0 0 -3.5719,-3.5719 z"
           fill="#fc0000"
           style="font-variation-settings:'wght' 300"
           id="path88" />
        <path
           d="m 60.06,-30.286 a 3.5719,3.9129 0 0 0 -3.5719,3.9129 3.5719,3.9129 0 0 0 2.0128,3.52 v 17.755 h 3.1176 v -17.754 a 3.5719,3.9129 0 0 0 2.0133,-3.5206 3.5719,3.9129 0 0 0 -3.5719,-3.9129 z"
           fill="#00fd0a"
           style="font-variation-settings:'wght' 300"
           id="path90" />
        <path
           d="M 10.451,60.217 A 3.5719,3.3032 0 0 1 6.8791,56.9138 3.5719,3.3032 0 0 1 8.8919,53.9422 v -14.988 h 3.1176 v 14.988 a 3.5719,3.3032 0 0 1 2.0133,2.9721 3.5719,3.3032 0 0 1 -3.5719,3.3032 z"
           fill="#f8cd00"
           style="font-variation-settings:'wght' 300"
           id="path92" />
        <path
           d="m 109.67,60.217 a 3.5719,3.3032 0 0 1 -3.5719,-3.3032 3.5719,3.3032 0 0 1 2.0128,-2.9716 v -14.988 h 3.1176 v 14.988 a 3.5719,3.3032 0 0 1 2.0133,2.9721 3.5719,3.3032 0 0 1 -3.5719,3.3032 z"
           fill="#3837c7"
           style="font-variation-settings:'wght' 300"
           id="path94" />
      </g>
      <g
         id="g512">
        <text
           transform="scale(0.88242,1.1333)"
           x="-2.0890172"
           y="69.860939"
           font-family="Impact"
           font-size="9.68px"
           stroke-width="0.80667"
           style="line-height:1.25"
           xml:space="preserve"
           id="text356"><tspan
             x="-2.0890172"
             y="69.860939"
             font-family="Impact"
             font-size="9.68px"
             stroke-width="0.80667"
             style="font-variant-ligatures:normal;font-variant-caps:normal;font-variant-numeric:normal;font-variant-east-asian:normal"
             id="tspan354" /></text>
        <text
           transform="scale(0.88242,1.1333)"
           x="-55.115406"
           y="18.355675"
           font-family="Impact"
           font-size="8.0667px"
           stroke-width="0.80667"
           style="line-height:1.25;font-variant-ligatures:normal;font-variant-caps:normal;font-variant-numeric:normal;font-variant-east-asian:normal"
           xml:space="preserve"
           id="text360"><tspan
             x="-55.115406"
             y="18.355675"
             font-family="Impact"
             font-size="8.0667px"
             stroke-width="0.80667"
             style="font-variant-ligatures:normal;font-variant-caps:normal;font-variant-numeric:normal;font-variant-east-asian:normal"
             id="tspan358">1. PLAN</tspan></text>
        <text
           transform="matrix(0.92024,0,0,1.1235,-75.775,-1.3452)"
           x="3.9581764"
           y="69.860939"
           font-family="'Homemade Apple'"
           font-size="9.52px"
           stroke-width="0.79333"
           style="line-height:1.25;font-variant-ligatures:normal;font-variant-caps:normal;font-variant-numeric:normal;font-variant-east-asian:normal;white-space:pre;inline-size:137.883"
           xml:space="preserve"
           id="text402"><tspan
             x="3.9581764"
             y="69.860939"><tspan
               style="font-size:9.52px;font-family:'Homemade Apple';font-variant-ligatures:normal;font-variant-caps:normal;font-variant-numeric:normal;font-variant-east-asian:normal;stroke-width:0.79333">Putting the plan into </tspan></tspan><tspan
             x="3.9581764"
             y="81.760938"><tspan
               style="font-size:9.52px;font-family:'Homemade Apple';font-variant-ligatures:normal;font-variant-caps:normal;font-variant-numeric:normal;font-variant-east-asian:normal;stroke-width:0.79333">action, on a consistant , </tspan></tspan><tspan
             x="3.9581764"
             y="93.66094"><tspan
               style="font-size:9.52px;font-family:'Homemade Apple';font-variant-ligatures:normal;font-variant-caps:normal;font-variant-numeric:normal;font-variant-east-asian:normal;stroke-width:0.79333">regular basis provides </tspan></tspan><tspan
             x="3.9581764"
             y="105.56094"><tspan
               style="font-size:9.52px;font-family:'Homemade Apple';font-variant-ligatures:normal;font-variant-caps:normal;font-variant-numeric:normal;font-variant-east-asian:normal;stroke-width:0.79333">the app and data analysis </tspan></tspan><tspan
             x="3.9581764"
             y="117.46094"><tspan
               style="font-size:9.52px;font-family:'Homemade Apple';font-variant-ligatures:normal;font-variant-caps:normal;font-variant-numeric:normal;font-variant-east-asian:normal;stroke-width:0.79333">tools with a highly </tspan></tspan><tspan
             x="3.9581764"
             y="129.36094"><tspan
               style="font-size:9.52px;font-family:'Homemade Apple';font-variant-ligatures:normal;font-variant-caps:normal;font-variant-numeric:normal;font-variant-east-asian:normal;stroke-width:0.79333">accurate, ample set of </tspan></tspan><tspan
             x="3.9581764"
             y="141.26094"><tspan
               style="font-size:9.52px;font-family:'Homemade Apple';font-variant-ligatures:normal;font-variant-caps:normal;font-variant-numeric:normal;font-variant-east-asian:normal;stroke-width:0.79333">key performance </tspan></tspan><tspan
             x="3.9581764"
             y="153.16093"><tspan
               style="font-size:9.52px;font-family:'Homemade Apple';font-variant-ligatures:normal;font-variant-caps:normal;font-variant-numeric:normal;font-variant-east-asian:normal;stroke-width:0.79333">indicators which will </tspan></tspan><tspan
             x="3.9581764"
             y="165.06093"><tspan
               style="font-size:9.52px;font-family:'Homemade Apple';font-variant-ligatures:normal;font-variant-caps:normal;font-variant-numeric:normal;font-variant-east-asian:normal;stroke-width:0.79333">improve in accuracy the </tspan></tspan><tspan
             x="3.9581764"
             y="176.96092"><tspan
               style="font-size:9.52px;font-family:'Homemade Apple';font-variant-ligatures:normal;font-variant-caps:normal;font-variant-numeric:normal;font-variant-east-asian:normal;stroke-width:0.79333">more you use it. </tspan></tspan></text>
        <text
           transform="scale(0.88242,1.1333)"
           x="-2.8402133"
           y="17.334538"
           font-family="Impact"
           font-size="8.0667px"
           stroke-width="0.80667"
           style="line-height:1.25;font-variant-ligatures:normal;font-variant-caps:normal;font-variant-numeric:normal;font-variant-east-asian:normal"
           xml:space="preserve"
           id="text406"><tspan
             x="-2.8402133"
             y="17.334538"
             font-family="Impact"
             font-size="8.0667px"
             stroke-width="0.80667"
             style="font-variant-ligatures:normal;font-variant-caps:normal;font-variant-numeric:normal;font-variant-east-asian:normal"
             id="tspan404">2. EFFORT</tspan></text>
        <text
           transform="matrix(0.90106,0,0,1.0243,54.965,-92.319)"
           x="-15.420179"
           y="-33.738186"
           font-family="'Homemade Apple'"
           font-size="10.076px"
           stroke-width="0.83968"
           style="line-height:1.25;font-variant-ligatures:normal;font-variant-caps:normal;font-variant-numeric:normal;font-variant-east-asian:normal;white-space:pre;inline-size:147.568"
           xml:space="preserve"
           id="text440"><tspan
             x="-15.420179"
             y="-33.738186"><tspan
               style="font-size:10.076px;font-family:'Homemade Apple';font-variant-ligatures:normal;font-variant-caps:normal;font-variant-numeric:normal;font-variant-east-asian:normal;stroke-width:0.83968">Each week, as your </tspan></tspan><tspan
             x="-15.420179"
             y="-21.143183"><tspan
               style="font-size:10.076px;font-family:'Homemade Apple';font-variant-ligatures:normal;font-variant-caps:normal;font-variant-numeric:normal;font-variant-east-asian:normal;stroke-width:0.83968">reporting is maintained, </tspan></tspan><tspan
             x="-15.420179"
             y="-8.5481829"><tspan
               style="font-size:10.076px;font-family:'Homemade Apple';font-variant-ligatures:normal;font-variant-caps:normal;font-variant-numeric:normal;font-variant-east-asian:normal;stroke-width:0.83968">you will can update your </tspan></tspan><tspan
             x="-15.420179"
             y="4.0468174"><tspan
               style="font-size:10.076px;font-family:'Homemade Apple';font-variant-ligatures:normal;font-variant-caps:normal;font-variant-numeric:normal;font-variant-east-asian:normal;stroke-width:0.83968">daily exercises, nutrition, </tspan></tspan><tspan
             x="-15.420179"
             y="16.641818"><tspan
               style="font-size:10.076px;font-family:'Homemade Apple';font-variant-ligatures:normal;font-variant-caps:normal;font-variant-numeric:normal;font-variant-east-asian:normal;stroke-width:0.83968">sleep and more. You can </tspan></tspan><tspan
             x="-15.420179"
             y="29.236818"><tspan
               style="font-size:10.076px;font-family:'Homemade Apple';font-variant-ligatures:normal;font-variant-caps:normal;font-variant-numeric:normal;font-variant-east-asian:normal;stroke-width:0.83968">also connect your smargyt </tspan></tspan><tspan
             x="-15.420179"
             y="41.831819"><tspan
               style="font-size:10.076px;font-family:'Homemade Apple';font-variant-ligatures:normal;font-variant-caps:normal;font-variant-numeric:normal;font-variant-east-asian:normal;stroke-width:0.83968">devices and/or Google </tspan></tspan><tspan
             x="-15.420179"
             y="54.42682"><tspan
               style="font-size:10.076px;font-family:'Homemade Apple';font-variant-ligatures:normal;font-variant-caps:normal;font-variant-numeric:normal;font-variant-east-asian:normal;stroke-width:0.83968">Health/ Apple Health, etc. </tspan></tspan></text>
        <text
           transform="matrix(0.92542,0,0,1.0653,-22.802,1.6182)"
           x="112.41666"
           y="69.441032"
           font-family="'Homemade Apple'"
           font-size="9.7494px"
           stroke-width="0.81245"
           style="line-height:1.25;font-variant-ligatures:normal;font-variant-caps:normal;font-variant-numeric:normal;font-variant-east-asian:normal;white-space:pre;inline-size:136.693"
           xml:space="preserve"
           id="text510"><tspan
             x="112.41666"
             y="69.441032"><tspan
               style="font-size:9.7494px;font-family:'Homemade Apple';font-variant-ligatures:normal;font-variant-caps:normal;font-variant-numeric:normal;font-variant-east-asian:normal;stroke-width:0.81245">On a regular basis your </tspan></tspan><tspan
             x="112.41666"
             y="81.627783"><tspan
               style="font-size:9.7494px;font-family:'Homemade Apple';font-variant-ligatures:normal;font-variant-caps:normal;font-variant-numeric:normal;font-variant-east-asian:normal;stroke-width:0.81245">trainer provides a </tspan></tspan><tspan
             x="112.41666"
             y="93.814536"><tspan
               style="font-size:9.7494px;font-family:'Homemade Apple';font-variant-ligatures:normal;font-variant-caps:normal;font-variant-numeric:normal;font-variant-east-asian:normal;stroke-width:0.81245">revoew of current data </tspan></tspan><tspan
             x="112.41666"
             y="106.00129"><tspan
               style="font-size:9.7494px;font-family:'Homemade Apple';font-variant-ligatures:normal;font-variant-caps:normal;font-variant-numeric:normal;font-variant-east-asian:normal;stroke-width:0.81245">and analysis to measure  </tspan></tspan><tspan
             x="112.41666"
             y="118.18804"><tspan
               style="font-size:9.7494px;font-family:'Homemade Apple';font-variant-ligatures:normal;font-variant-caps:normal;font-variant-numeric:normal;font-variant-east-asian:normal;stroke-width:0.81245">effort and progress </tspan></tspan><tspan
             x="112.41666"
             y="130.37479"><tspan
               style="font-size:9.7494px;font-family:'Homemade Apple';font-variant-ligatures:normal;font-variant-caps:normal;font-variant-numeric:normal;font-variant-east-asian:normal;stroke-width:0.81245">against your pre-</tspan></tspan><tspan
             x="112.41666"
             y="142.56154"><tspan
               style="font-size:9.7494px;font-family:'Homemade Apple';font-variant-ligatures:normal;font-variant-caps:normal;font-variant-numeric:normal;font-variant-east-asian:normal;stroke-width:0.81245">determined short and </tspan></tspan><tspan
             x="112.41666"
             y="154.74829"><tspan
               style="font-size:9.7494px;font-family:'Homemade Apple';font-variant-ligatures:normal;font-variant-caps:normal;font-variant-numeric:normal;font-variant-east-asian:normal;stroke-width:0.81245">long term goals, so that </tspan></tspan><tspan
             x="112.41666"
             y="166.93504"><tspan
               style="font-size:9.7494px;font-family:'Homemade Apple';font-variant-ligatures:normal;font-variant-caps:normal;font-variant-numeric:normal;font-variant-east-asian:normal;stroke-width:0.81245">effective plan </tspan></tspan><tspan
             x="112.41666"
             y="179.12179"><tspan
               style="font-size:9.7494px;font-family:'Homemade Apple';font-variant-ligatures:normal;font-variant-caps:normal;font-variant-numeric:normal;font-variant-east-asian:normal;stroke-width:0.81245">adjustments can be made,  </tspan></tspan><tspan
             x="112.41666"
             y="191.30855"><tspan
               style="font-size:9.7494px;font-family:'Homemade Apple';font-variant-ligatures:normal;font-variant-caps:normal;font-variant-numeric:normal;font-variant-east-asian:normal;stroke-width:0.81245">as meeded. THe app also </tspan></tspan><tspan
             x="112.41666"
             y="203.4953"><tspan
               style="font-size:9.7494px;font-family:'Homemade Apple';font-variant-ligatures:normal;font-variant-caps:normal;font-variant-numeric:normal;font-variant-east-asian:normal;stroke-width:0.81245">provides a realtime view </tspan></tspan><tspan
             x="112.41666"
             y="215.68205"><tspan
               style="font-size:9.7494px;font-family:'Homemade Apple';font-variant-ligatures:normal;font-variant-caps:normal;font-variant-numeric:normal;font-variant-east-asian:normal;stroke-width:0.81245">of your fitness, health, </tspan></tspan><tspan
             x="112.41666"
             y="227.8688"><tspan
               style="font-size:9.7494px;font-family:'Homemade Apple';font-variant-ligatures:normal;font-variant-caps:normal;font-variant-numeric:normal;font-variant-east-asian:normal;stroke-width:0.81245">and nutrition </tspan></tspan><tspan
             x="112.41666"
             y="240.05556"><tspan
               style="font-size:9.7494px;font-family:'Homemade Apple';font-variant-ligatures:normal;font-variant-caps:normal;font-variant-numeric:normal;font-variant-east-asian:normal;stroke-width:0.81245">performance by </tspan></tspan><tspan
             x="112.41666"
             y="252.24231"><tspan
               style="font-size:9.7494px;font-family:'Homemade Apple';font-variant-ligatures:normal;font-variant-caps:normal;font-variant-numeric:normal;font-variant-east-asian:normal;stroke-width:0.81245">integrating the best data </tspan></tspan><tspan
             x="112.41666"
             y="264.42905"><tspan
               style="font-size:9.7494px;font-family:'Homemade Apple';font-variant-ligatures:normal;font-variant-caps:normal;font-variant-numeric:normal;font-variant-east-asian:normal;stroke-width:0.81245">visualization tools.</tspan></tspan></text>
      </g>
      <g
         font-family="Impact"
         id="g546">
        <g
           font-size="9.68px"
           id="g528">
          <text
             style="line-height:1.25;white-space:pre;shape-inside:url(#rect1079);"
             xml:space="preserve"
             id="text514" />
          <text
             style="line-height:1.25;white-space:pre;shape-inside:url(#rect1085);"
             xml:space="preserve"
             id="text516" />
          <text
             style="line-height:1.25;white-space:pre;shape-inside:url(#rect1091);"
             xml:space="preserve"
             id="text518" />
          <text
             style="line-height:1.25;white-space:pre;shape-inside:url(#rect1097);"
             xml:space="preserve"
             id="text520" />
          <text
             style="line-height:1.25;white-space:pre;shape-inside:url(#rect1103);"
             xml:space="preserve"
             id="text522" />
          <text
             transform="scale(0.88242,1.1333)"
             x="64.675705"
             y="18.632664"
             stroke-width="0.80667"
             style="line-height:1.25"
             xml:space="preserve"
             id="text526"><tspan
               x="64.675705"
               y="18.632664"
               font-family="Impact"
               font-size="9.68px"
               stroke-width="0.80667"
               id="tspan524" /></text>
        </g>
        <text
           transform="scale(0.88242,1.1333)"
           x="54.388058"
           y="18.422707"
           font-size="9.68px"
           stroke-width="0.80667"
           style="line-height:1.25"
           xml:space="preserve"
           id="text532"><tspan
             x="54.388058"
             y="18.422707"
             font-family="Impact"
             font-size="9.68px"
             stroke-width="0.80667"
             id="tspan530" /></text>
        <text
           transform="scale(0.88242,1.1333)"
           x="108.70748"
           y="17.334538"
           font-size="8.0667px"
           stroke-width="0.80667"
           style="line-height:1.25;font-variant-ligatures:normal;font-variant-caps:normal;font-variant-numeric:normal;font-variant-east-asian:normal"
           xml:space="preserve"
           id="text536"><tspan
             x="108.70748"
             y="17.334538"
             font-family="Impact"
             font-size="8.0667px"
             stroke-width="0.80667"
             style="font-variant-ligatures:normal;font-variant-caps:normal;font-variant-numeric:normal;font-variant-east-asian:normal"
             id="tspan534">4. REVIEW</tspan></text>
        <g
           font-size="9.68px"
           id="g544">
          <text
             style="line-height:1.25;white-space:pre;shape-inside:url(#rect1121);"
             xml:space="preserve"
             id="text538" />
          <text
             style="line-height:1.25;white-space:pre;shape-inside:url(#rect1127);"
             xml:space="preserve"
             id="text540" />
          <text
             style="line-height:1.25;white-space:pre;shape-inside:url(#rect1133);"
             xml:space="preserve"
             id="text542" />
        </g>
      </g>
      <ellipse
         cx="54.432999"
         cy="48.832001"
         rx="4.6553998"
         ry="33.521"
         opacity="0"
         stroke-width="0.80667"
         id="ellipse548" />
      <ellipse
         cx="52.449001"
         cy="51.576"
         rx="9.3872004"
         ry="18.034"
         opacity="0"
         stroke-width="0.80667"
         id="ellipse550" />
      <g
         fill-rule="evenodd"
         id="g558">
        <circle
           transform="matrix(0.99238,0,0,0.99503,99.282,-1.0895)"
           cx="-39.733002"
           cy="18.917999"
           r="19.844"
           filter="url(#r)"
           opacity="0.94516"
           style="font-variation-settings:'wght' 300"
           id="circle552" />
        <ellipse
           cx="59.816002"
           cy="18.372"
           rx="19.691"
           ry="19.941999"
           fill="url(#h)"
           opacity="0.53846"
           style="font-variation-settings:'wght' 300;fill:url(#h)"
           id="ellipse554" />
        <circle
           transform="matrix(1,0,0,-0.98979,98.822,0.14107)"
           cx="-39.158001"
           cy="-17.858999"
           r="19.201"
           fill="url(#p)"
           filter="url(#q)"
           stroke-width="0"
           style="font-variation-settings:'wght' 300;fill:url(#p)"
           id="circle556" />
      </g>
      <text
         transform="scale(0.88242,1.1333)"
         x="51.816959"
         y="18.911461"
         font-family="Impact"
         font-size="8.0667px"
         stroke-width="0.80667"
         style="line-height:1.25;font-variant-ligatures:normal;font-variant-caps:normal;font-variant-numeric:normal;font-variant-east-asian:normal"
         xml:space="preserve"
         id="text562"><tspan
           x="51.816959"
           y="18.911461"
           font-family="Impact"
           font-size="8.0667px"
           stroke-width="0.80667"
           style="font-variant-ligatures:normal;font-variant-caps:normal;font-variant-numeric:normal;font-variant-east-asian:normal"
           id="tspan560">3. REPORT</tspan></text>
    </g>
    <g
       fill="#000000"
       id="g572">
      <text
         transform="matrix(1.4049,0,0,1.0939,192.99,-33.373)"
         font-family="Prototype"
         style="line-height:1.25;font-variant-ligatures:normal;font-variant-caps:normal;font-variant-numeric:normal;font-variant-east-asian:normal;font-variation-settings:'wght' 300;white-space:pre;shape-inside:url(#rect835);"
         xml:space="preserve"
         id="text566" />
      <text
         transform="matrix(1.4049,0,0,1.0939,39.102,-15.337)"
         font-family="Prototype"
         font-size="10.583px"
         style="line-height:1.25;white-space:pre;shape-inside:url(#rect1925);"
         xml:space="preserve"
         id="text568" />
      <text
         transform="matrix(1.4049,0,0,1.0939,39.102,-15.337)"
         font-family="sans-serif"
         font-size="10.583px"
         style="line-height:1.25;white-space:pre;shape-inside:url(#rect1941);"
         xml:space="preserve"
         id="text570" />
    </g>
  </g>
</svg>
