<?xml version="1.0" encoding="UTF-8" standalone="no"?>
<!DOCTYPE svg PUBLIC "-//W3C//DTD SVG 1.1//EN"
 "http://www.w3.org/Graphics/SVG/1.1/DTD/svg11.dtd">
<!-- Generated by graphviz version 2.44.1 (20200629.0846)
 -->
<!-- Title: dependencies Pages: 1 -->
<svg width="841pt" height="284pt"
 viewBox="0.00 0.00 841.00 284.00" xmlns="http://www.w3.org/2000/svg" xmlns:xlink="http://www.w3.org/1999/xlink">
<g id="graph0" class="graph" transform="scale(1 1) rotate(0) translate(4 280)">
<title>dependencies</title>
<polygon fill="white" stroke="transparent" points="-4,4 -4,-280 837,-280 837,4 -4,4"/>
<text text-anchor="start" x="395.51" y="-42.4" font-family="sans-serif" font-weight="bold" font-size="14.00">Legend</text>
<polygon fill="#ffffb3" stroke="transparent" points="182.5,-10 182.5,-30 202.5,-30 202.5,-10 182.5,-10"/>
<text text-anchor="start" x="206.13" y="-15.4" font-family="sans-serif" font-size="14.00"> &#160;Declarations</text>
<polygon fill="#8dd3c7" stroke="transparent" points="295.5,-10 295.5,-30 315.5,-30 315.5,-10 295.5,-10"/>
<text text-anchor="start" x="319.23" y="-15.4" font-family="sans-serif" font-size="14.00"> &#160;Module</text>
<polygon fill="#80b1d3" stroke="transparent" points="381.5,-10 381.5,-30 401.5,-30 401.5,-10 381.5,-10"/>
<text text-anchor="start" x="405.28" y="-15.4" font-family="sans-serif" font-size="14.00"> &#160;Bootstrap</text>
<polygon fill="#fdb462" stroke="transparent" points="478.5,-10 478.5,-30 498.5,-30 498.5,-10 478.5,-10"/>
<text text-anchor="start" x="502.17" y="-15.4" font-family="sans-serif" font-size="14.00"> &#160;Providers</text>
<polygon fill="#fb8072" stroke="transparent" points="574.5,-10 574.5,-30 594.5,-30 594.5,-10 574.5,-10"/>
<text text-anchor="start" x="598.23" y="-15.4" font-family="sans-serif" font-size="14.00"> &#160;Exports</text>
<g id="clust1" class="cluster">
<title>cluster_SharedDirectivesModule</title>
<polygon fill="none" stroke="black" stroke-dasharray="1,5" points="8,-70 8,-268 825,-268 825,-70 8,-70"/>
</g>
<g id="clust10" class="cluster">
<title>cluster_SharedDirectivesModule_exports</title>
<polygon fill="none" stroke="black" points="16,-208 16,-260 817,-260 817,-208 16,-208"/>
</g>
<g id="clust2" class="cluster">
<title>cluster_SharedDirectivesModule_declarations</title>
<polygon fill="none" stroke="black" points="28,-78 28,-130 809,-130 809,-78 28,-78"/>
</g>
<!-- BlinkDirective -->
<g id="node1" class="node">
<title>BlinkDirective</title>
<polygon fill="#ffffb3" stroke="black" points="800.7,-122 701.3,-122 701.3,-86 800.7,-86 800.7,-122"/>
<text text-anchor="middle" x="751" y="-99.8" font-family="Times,serif" font-size="14.00">BlinkDirective</text>
</g>
<!-- SharedDirectivesModule -->
<g id="node7" class="node">
<title>SharedDirectivesModule</title>
<polygon fill="#8dd3c7" stroke="black" points="373.95,-187 370.95,-191 349.95,-191 346.95,-187 218.05,-187 218.05,-151 373.95,-151 373.95,-187"/>
<text text-anchor="middle" x="296" y="-164.8" font-family="Times,serif" font-size="14.00">SharedDirectivesModule</text>
</g>
<!-- BlinkDirective&#45;&gt;SharedDirectivesModule -->
<g id="edge1" class="edge">
<title>BlinkDirective&#45;&gt;SharedDirectivesModule</title>
<path fill="none" stroke="black" d="M769.28,-122.27C769.28,-140.56 769.28,-166 769.28,-166 769.28,-166 384.15,-166 384.15,-166"/>
<polygon fill="black" stroke="black" points="384.15,-162.5 374.15,-166 384.15,-169.5 384.15,-162.5"/>
</g>
<!-- FadeHeaderDirective -->
<g id="node2" class="node">
<title>FadeHeaderDirective</title>
<polygon fill="#ffffb3" stroke="black" points="683.71,-122 548.29,-122 548.29,-86 683.71,-86 683.71,-122"/>
<text text-anchor="middle" x="616" y="-99.8" font-family="Times,serif" font-size="14.00">FadeHeaderDirective</text>
</g>
<!-- FadeHeaderDirective&#45;&gt;SharedDirectivesModule -->
<g id="edge2" class="edge">
<title>FadeHeaderDirective&#45;&gt;SharedDirectivesModule</title>
<path fill="none" stroke="black" d="M639.03,-122.01C639.03,-138.05 639.03,-159 639.03,-159 639.03,-159 384.27,-159 384.27,-159"/>
<polygon fill="black" stroke="black" points="384.27,-155.5 374.27,-159 384.27,-162.5 384.27,-155.5"/>
</g>
<!-- HasPermissionDirective -->
<g id="node3" class="node">
<title>HasPermissionDirective</title>
<polygon fill="#ffffb3" stroke="black" points="530.07,-122 377.93,-122 377.93,-86 530.07,-86 530.07,-122"/>
<text text-anchor="middle" x="454" y="-99.8" font-family="Times,serif" font-size="14.00">HasPermissionDirective</text>
</g>
<!-- HasPermissionDirective&#45;&gt;SharedDirectivesModule -->
<g id="edge3" class="edge">
<title>HasPermissionDirective&#45;&gt;SharedDirectivesModule</title>
<path fill="none" stroke="black" d="M377.94,-104C371.23,-104 366.91,-104 366.91,-104 366.91,-104 366.91,-140.89 366.91,-140.89"/>
<polygon fill="black" stroke="black" points="363.41,-140.89 366.91,-150.89 370.41,-140.89 363.41,-140.89"/>
</g>
<!-- HideHeaderDirective -->
<g id="node4" class="node">
<title>HideHeaderDirective</title>
<polygon fill="#ffffb3" stroke="black" points="359.71,-122 224.29,-122 224.29,-86 359.71,-86 359.71,-122"/>
<text text-anchor="middle" x="292" y="-99.8" font-family="Times,serif" font-size="14.00">HideHeaderDirective</text>
</g>
<!-- HideHeaderDirective&#45;&gt;SharedDirectivesModule -->
<g id="edge4" class="edge">
<title>HideHeaderDirective&#45;&gt;SharedDirectivesModule</title>
<path fill="none" stroke="black" d="M292,-122.11C292,-122.11 292,-140.99 292,-140.99"/>
<polygon fill="black" stroke="black" points="288.5,-140.99 292,-150.99 295.5,-140.99 288.5,-140.99"/>
</g>
<!-- SafePipe -->
<g id="node5" class="node">
<title>SafePipe</title>
<polygon fill="#ffffb3" stroke="black" points="205.76,-122 140.24,-122 140.24,-86 205.76,-86 205.76,-122"/>
<text text-anchor="middle" x="173" y="-99.8" font-family="Times,serif" font-size="14.00">SafePipe</text>
</g>
<!-- SafePipe&#45;&gt;SharedDirectivesModule -->
<g id="edge5" class="edge">
<title>SafePipe&#45;&gt;SharedDirectivesModule</title>
<path fill="none" stroke="black" d="M181.13,-122.01C181.13,-138.05 181.13,-159 181.13,-159 181.13,-159 207.79,-159 207.79,-159"/>
<polygon fill="black" stroke="black" points="207.79,-162.5 217.79,-159 207.79,-155.5 207.79,-162.5"/>
</g>
<!-- ToHttpsPipe -->
<g id="node6" class="node">
<title>ToHttpsPipe</title>
<polygon fill="#ffffb3" stroke="black" points="122.27,-122 35.73,-122 35.73,-86 122.27,-86 122.27,-122"/>
<text text-anchor="middle" x="79" y="-99.8" font-family="Times,serif" font-size="14.00">ToHttpsPipe</text>
</g>
<!-- ToHttpsPipe&#45;&gt;SharedDirectivesModule -->
<g id="edge6" class="edge">
<title>ToHttpsPipe&#45;&gt;SharedDirectivesModule</title>
<path fill="none" stroke="black" d="M118.26,-122.27C118.26,-140.56 118.26,-166 118.26,-166 118.26,-166 208.04,-166 208.04,-166"/>
<polygon fill="black" stroke="black" points="208.04,-169.5 218.04,-166 208.04,-162.5 208.04,-169.5"/>
</g>
<!-- BlinkDirective  -->
<g id="node8" class="node">
<title>BlinkDirective </title>
<polygon fill="#fb8072" stroke="black" points="809.2,-252 706.8,-252 706.8,-216 809.2,-216 809.2,-252"/>
<text text-anchor="middle" x="758" y="-229.8" font-family="Times,serif" font-size="14.00">BlinkDirective </text>
</g>
<!-- SharedDirectivesModule&#45;&gt;BlinkDirective  -->
<g id="edge7" class="edge">
<title>SharedDirectivesModule&#45;&gt;BlinkDirective </title>
<path fill="none" stroke="black" stroke-dasharray="5,2" d="M374,-173C500.88,-173 737.97,-173 737.97,-173 737.97,-173 737.97,-205.7 737.97,-205.7"/>
<polygon fill="black" stroke="black" points="734.47,-205.7 737.97,-215.7 741.47,-205.7 734.47,-205.7"/>
</g>
<!-- FadeHeaderDirective  -->
<g id="node9" class="node">
<title>FadeHeaderDirective </title>
<polygon fill="#fb8072" stroke="black" points="688.71,-252 549.29,-252 549.29,-216 688.71,-216 688.71,-252"/>
<text text-anchor="middle" x="619" y="-229.8" font-family="Times,serif" font-size="14.00">FadeHeaderDirective </text>
</g>
<!-- SharedDirectivesModule&#45;&gt;FadeHeaderDirective  -->
<g id="edge8" class="edge">
<title>SharedDirectivesModule&#45;&gt;FadeHeaderDirective </title>
<path fill="none" stroke="black" stroke-dasharray="5,2" d="M373.96,-180C462.32,-180 594.22,-180 594.22,-180 594.22,-180 594.22,-205.72 594.22,-205.72"/>
<polygon fill="black" stroke="black" points="590.72,-205.72 594.22,-215.72 597.72,-205.72 590.72,-205.72"/>
</g>
<!-- HasPermissionDirective  -->
<g id="node10" class="node">
<title>HasPermissionDirective </title>
<polygon fill="#fb8072" stroke="black" points="531.57,-252 376.43,-252 376.43,-216 531.57,-216 531.57,-252"/>
<text text-anchor="middle" x="454" y="-229.8" font-family="Times,serif" font-size="14.00">HasPermissionDirective </text>
</g>
<!-- SharedDirectivesModule&#45;&gt;HasPermissionDirective  -->
<g id="edge9" class="edge">
<title>SharedDirectivesModule&#45;&gt;HasPermissionDirective </title>
<path fill="none" stroke="black" stroke-dasharray="5,2" d="M366.29,-187.11C366.29,-206.34 366.29,-234 366.29,-234 366.29,-234 367.29,-234 367.29,-234"/>
<polygon fill="black" stroke="black" points="366.35,-237.5 376.35,-234 366.35,-230.5 366.35,-237.5"/>
</g>
<!-- HideHeaderDirective  -->
<g id="node11" class="node">
<title>HideHeaderDirective </title>
<polygon fill="#fb8072" stroke="black" points="358.71,-252 219.29,-252 219.29,-216 358.71,-216 358.71,-252"/>
<text text-anchor="middle" x="289" y="-229.8" font-family="Times,serif" font-size="14.00">HideHeaderDirective </text>
</g>
<!-- SharedDirectivesModule&#45;&gt;HideHeaderDirective  -->
<g id="edge10" class="edge">
<title>SharedDirectivesModule&#45;&gt;HideHeaderDirective </title>
<path fill="none" stroke="black" stroke-dasharray="5,2" d="M289,-187.11C289,-187.11 289,-205.99 289,-205.99"/>
<polygon fill="black" stroke="black" points="285.5,-205.99 289,-215.99 292.5,-205.99 285.5,-205.99"/>
</g>
<!-- SafePipe  -->
<g id="node12" class="node">
<title>SafePipe </title>
<polygon fill="#fb8072" stroke="black" points="201.76,-252 132.24,-252 132.24,-216 201.76,-216 201.76,-252"/>
<text text-anchor="middle" x="167" y="-229.8" font-family="Times,serif" font-size="14.00">SafePipe </text>
</g>
<!-- SharedDirectivesModule&#45;&gt;SafePipe  -->
<g id="edge11" class="edge">
<title>SharedDirectivesModule&#45;&gt;SafePipe </title>
<path fill="none" stroke="black" stroke-dasharray="5,2" d="M218.04,-180C187.94,-180 160.62,-180 160.62,-180 160.62,-180 160.62,-205.72 160.62,-205.72"/>
<polygon fill="black" stroke="black" points="157.12,-205.72 160.62,-215.72 164.12,-205.72 157.12,-205.72"/>
</g>
<!-- ToHttpsPipe  -->
<g id="node13" class="node">
<title>ToHttpsPipe </title>
<polygon fill="#fb8072" stroke="black" points="114.27,-252 23.73,-252 23.73,-216 114.27,-216 114.27,-252"/>
<text text-anchor="middle" x="69" y="-229.8" font-family="Times,serif" font-size="14.00">ToHttpsPipe </text>
</g>
<!-- SharedDirectivesModule&#45;&gt;ToHttpsPipe  -->
<g id="edge12" class="edge">
<title>SharedDirectivesModule&#45;&gt;ToHttpsPipe </title>
<path fill="none" stroke="black" stroke-dasharray="5,2" d="M218.04,-173C154.38,-173 74.88,-173 74.88,-173 74.88,-173 74.88,-205.7 74.88,-205.7"/>
<polygon fill="black" stroke="black" points="71.38,-205.7 74.88,-215.7 78.38,-205.7 71.38,-205.7"/>
</g>
</g>
</svg>
