<?xml version="1.0" encoding="UTF-8" standalone="no"?>
<!DOCTYPE svg PUBLIC "-//W3C//DTD SVG 1.1//EN"
 "http://www.w3.org/Graphics/SVG/1.1/DTD/svg11.dtd">
<!-- Generated by graphviz version 2.47.0 (20210316.0004)
 -->
<!-- Title: dependencies Pages: 1 -->
<svg width="504pt" height="284pt"
 viewBox="0.00 0.00 504.00 284.00" xmlns="http://www.w3.org/2000/svg" xmlns:xlink="http://www.w3.org/1999/xlink">
<g id="graph0" class="graph" transform="scale(1 1) rotate(0) translate(4 280)">
<title>dependencies</title>
<polygon fill="white" stroke="transparent" points="-4,4 -4,-280 500,-280 500,4 -4,4"/>
<text text-anchor="start" x="227.01" y="-42.4" font-family="sans-serif" font-weight="bold" font-size="14.00">Legend</text>
<polygon fill="#ffffb3" stroke="transparent" points="14,-10 14,-30 34,-30 34,-10 14,-10"/>
<text text-anchor="start" x="37.63" y="-15.4" font-family="sans-serif" font-size="14.00"> &#160;Declarations</text>
<polygon fill="#8dd3c7" stroke="transparent" points="127,-10 127,-30 147,-30 147,-10 127,-10"/>
<text text-anchor="start" x="150.73" y="-15.4" font-family="sans-serif" font-size="14.00"> &#160;Module</text>
<polygon fill="#80b1d3" stroke="transparent" points="213,-10 213,-30 233,-30 233,-10 213,-10"/>
<text text-anchor="start" x="236.78" y="-15.4" font-family="sans-serif" font-size="14.00"> &#160;Bootstrap</text>
<polygon fill="#fdb462" stroke="transparent" points="310,-10 310,-30 330,-30 330,-10 310,-10"/>
<text text-anchor="start" x="333.67" y="-15.4" font-family="sans-serif" font-size="14.00"> &#160;Providers</text>
<polygon fill="#fb8072" stroke="transparent" points="406,-10 406,-30 426,-30 426,-10 406,-10"/>
<text text-anchor="start" x="429.73" y="-15.4" font-family="sans-serif" font-size="14.00"> &#160;Exports</text>
<g id="clust1" class="cluster">
<title>cluster_SharedDirectivesModule</title>
<polygon fill="none" stroke="black" stroke-dasharray="1,5" points="56.5,-70 56.5,-268 439.5,-268 439.5,-70 56.5,-70"/>
</g>
<g id="clust2" class="cluster">
<title>cluster_SharedDirectivesModule_declarations</title>
<polygon fill="none" stroke="black" points="70.5,-78 70.5,-130 426.5,-130 426.5,-78 70.5,-78"/>
</g>
<g id="clust7" class="cluster">
<title>cluster_SharedDirectivesModule_exports</title>
<polygon fill="none" stroke="black" points="64.5,-208 64.5,-260 431.5,-260 431.5,-208 64.5,-208"/>
</g>
<!-- HasPermissionDirective -->
<g id="node1" class="node">
<title>HasPermissionDirective</title>
<polygon fill="#ffffb3" stroke="black" points="418.57,-122 266.43,-122 266.43,-86 418.57,-86 418.57,-122"/>
<text text-anchor="middle" x="342.5" y="-99.8" font-family="Times,serif" font-size="14.00">HasPermissionDirective</text>
</g>
<!-- SharedDirectivesModule -->
<g id="node4" class="node">
<title>SharedDirectivesModule</title>
<polygon fill="#8dd3c7" stroke="black" points="293.45,-187 290.45,-191 269.45,-191 266.45,-187 137.55,-187 137.55,-151 293.45,-151 293.45,-187"/>
<text text-anchor="middle" x="215.5" y="-164.8" font-family="Times,serif" font-size="14.00">SharedDirectivesModule</text>
</g>
<!-- HasPermissionDirective&#45;&gt;SharedDirectivesModule -->
<g id="edge1" class="edge">
<title>HasPermissionDirective&#45;&gt;SharedDirectivesModule</title>
<path fill="none" stroke="black" d="M279.97,-122.11C279.97,-122.11 279.97,-140.99 279.97,-140.99"/>
<polygon fill="black" stroke="black" points="276.47,-140.99 279.97,-150.99 283.47,-140.99 276.47,-140.99"/>
</g>
<!-- SafePipe -->
<g id="node2" class="node">
<title>SafePipe</title>
<polygon fill="#ffffb3" stroke="black" points="248.26,-122 182.74,-122 182.74,-86 248.26,-86 248.26,-122"/>
<text text-anchor="middle" x="215.5" y="-99.8" font-family="Times,serif" font-size="14.00">SafePipe</text>
</g>
<!-- SafePipe&#45;&gt;SharedDirectivesModule -->
<g id="edge2" class="edge">
<title>SafePipe&#45;&gt;SharedDirectivesModule</title>
<path fill="none" stroke="black" d="M215.5,-122.11C215.5,-122.11 215.5,-140.99 215.5,-140.99"/>
<polygon fill="black" stroke="black" points="212,-140.99 215.5,-150.99 219,-140.99 212,-140.99"/>
</g>
<!-- ToHttpsPipe -->
<g id="node3" class="node">
<title>ToHttpsPipe</title>
<polygon fill="#ffffb3" stroke="black" points="164.77,-122 78.23,-122 78.23,-86 164.77,-86 164.77,-122"/>
<text text-anchor="middle" x="121.5" y="-99.8" font-family="Times,serif" font-size="14.00">ToHttpsPipe</text>
</g>
<!-- ToHttpsPipe&#45;&gt;SharedDirectivesModule -->
<g id="edge3" class="edge">
<title>ToHttpsPipe&#45;&gt;SharedDirectivesModule</title>
<path fill="none" stroke="black" d="M151.21,-122.11C151.21,-122.11 151.21,-140.99 151.21,-140.99"/>
<polygon fill="black" stroke="black" points="147.71,-140.99 151.21,-150.99 154.71,-140.99 147.71,-140.99"/>
</g>
<!-- HasPermissionDirective  -->
<g id="node5" class="node">
<title>HasPermissionDirective </title>
<polygon fill="#fb8072" stroke="black" points="423.07,-252 267.93,-252 267.93,-216 423.07,-216 423.07,-252"/>
<text text-anchor="middle" x="345.5" y="-229.8" font-family="Times,serif" font-size="14.00">HasPermissionDirective </text>
</g>
<!-- SharedDirectivesModule&#45;&gt;HasPermissionDirective  -->
<g id="edge4" class="edge">
<title>SharedDirectivesModule&#45;&gt;HasPermissionDirective </title>
<path fill="none" stroke="black" stroke-dasharray="5,2" d="M280.6,-187.11C280.6,-187.11 280.6,-205.99 280.6,-205.99"/>
<polygon fill="black" stroke="black" points="277.1,-205.99 280.6,-215.99 284.1,-205.99 277.1,-205.99"/>
</g>
<!-- SafePipe  -->
<g id="node6" class="node">
<title>SafePipe </title>
<polygon fill="#fb8072" stroke="black" points="250.26,-252 180.74,-252 180.74,-216 250.26,-216 250.26,-252"/>
<text text-anchor="middle" x="215.5" y="-229.8" font-family="Times,serif" font-size="14.00">SafePipe </text>
</g>
<!-- SharedDirectivesModule&#45;&gt;SafePipe  -->
<g id="edge5" class="edge">
<title>SharedDirectivesModule&#45;&gt;SafePipe </title>
<path fill="none" stroke="black" stroke-dasharray="5,2" d="M215.5,-187.11C215.5,-187.11 215.5,-205.99 215.5,-205.99"/>
<polygon fill="black" stroke="black" points="212,-205.99 215.5,-215.99 219,-205.99 212,-205.99"/>
</g>
<!-- ToHttpsPipe  -->
<g id="node7" class="node">
<title>ToHttpsPipe </title>
<polygon fill="#fb8072" stroke="black" points="162.77,-252 72.23,-252 72.23,-216 162.77,-216 162.77,-252"/>
<text text-anchor="middle" x="117.5" y="-229.8" font-family="Times,serif" font-size="14.00">ToHttpsPipe </text>
</g>
<!-- SharedDirectivesModule&#45;&gt;ToHttpsPipe  -->
<g id="edge6" class="edge">
<title>SharedDirectivesModule&#45;&gt;ToHttpsPipe </title>
<path fill="none" stroke="black" stroke-dasharray="5,2" d="M150.08,-187.11C150.08,-187.11 150.08,-205.99 150.08,-205.99"/>
<polygon fill="black" stroke="black" points="146.58,-205.99 150.08,-215.99 153.58,-205.99 146.58,-205.99"/>
</g>
</g>
</svg>
