<?xml version="1.0" encoding="UTF-8" standalone="no"?>
<!DOCTYPE svg PUBLIC "-//W3C//DTD SVG 1.1//EN"
 "http://www.w3.org/Graphics/SVG/1.1/DTD/svg11.dtd">
<!-- Generated by graphviz version 2.47.0 (20210316.0004)
 -->
<!-- Title: dependencies Pages: 1 -->
<svg width="504pt" height="211pt"
 viewBox="0.00 0.00 504.00 211.00" xmlns="http://www.w3.org/2000/svg" xmlns:xlink="http://www.w3.org/1999/xlink">
<g id="graph0" class="graph" transform="scale(1 1) rotate(0) translate(4 207)">
<title>dependencies</title>
<polygon fill="white" stroke="transparent" points="-4,4 -4,-207 500,-207 500,4 -4,4"/>
<text text-anchor="start" x="227.01" y="-42.4" font-family="sans-serif" font-weight="bold" font-size="14.00">Legend</text>
<polygon fill="#ffffb3" stroke="transparent" points="14,-10 14,-30 34,-30 34,-10 14,-10"/>
<text text-anchor="start" x="37.63" y="-15.4" font-family="sans-serif" font-size="14.00"> &#160;Declarations</text>
<polygon fill="#8dd3c7" stroke="transparent" points="127,-10 127,-30 147,-30 147,-10 127,-10"/>
<text text-anchor="start" x="150.73" y="-15.4" font-family="sans-serif" font-size="14.00"> &#160;Module</text>
<polygon fill="#80b1d3" stroke="transparent" points="213,-10 213,-30 233,-30 233,-10 213,-10"/>
<text text-anchor="start" x="236.78" y="-15.4" font-family="sans-serif" font-size="14.00"> &#160;Bootstrap</text>
<polygon fill="#fdb462" stroke="transparent" points="310,-10 310,-30 330,-30 330,-10 310,-10"/>
<text text-anchor="start" x="333.67" y="-15.4" font-family="sans-serif" font-size="14.00"> &#160;Providers</text>
<polygon fill="#fb8072" stroke="transparent" points="406,-10 406,-30 426,-30 426,-10 406,-10"/>
<text text-anchor="start" x="429.73" y="-15.4" font-family="sans-serif" font-size="14.00"> &#160;Exports</text>
<g id="clust1" class="cluster">
<title>cluster_StudentCreatePageModule</title>
<polygon fill="none" stroke="black" stroke-dasharray="1,5" points="53,-70 53,-195 443,-195 443,-70 53,-70"/>
</g>
<g id="clust4" class="cluster">
<title>cluster_StudentCreatePageModule_imports</title>
<polygon fill="none" stroke="black" points="207,-78 207,-130 435,-130 435,-78 207,-78"/>
</g>
<g id="clust2" class="cluster">
<title>cluster_StudentCreatePageModule_declarations</title>
<polygon fill="none" stroke="black" points="61,-78 61,-130 199,-130 199,-78 61,-78"/>
</g>
<!-- StudentCreatePage -->
<g id="node1" class="node">
<title>StudentCreatePage</title>
<polygon fill="#ffffb3" stroke="black" points="191.02,-122 68.98,-122 68.98,-86 191.02,-86 191.02,-122"/>
<text text-anchor="middle" x="130" y="-99.8" font-family="Times,serif" font-size="14.00">StudentCreatePage</text>
</g>
<!-- StudentCreatePageModule -->
<g id="node2" class="node">
<title>StudentCreatePageModule</title>
<polygon fill="#8dd3c7" stroke="black" points="315.07,-187 312.07,-191 291.07,-191 288.07,-187 148.93,-187 148.93,-151 315.07,-151 315.07,-187"/>
<text text-anchor="middle" x="232" y="-164.8" font-family="Times,serif" font-size="14.00">StudentCreatePageModule</text>
</g>
<!-- StudentCreatePage&#45;&gt;StudentCreatePageModule -->
<g id="edge1" class="edge">
<title>StudentCreatePage&#45;&gt;StudentCreatePageModule</title>
<path fill="none" stroke="black" d="M170.11,-122.11C170.11,-122.11 170.11,-140.99 170.11,-140.99"/>
<polygon fill="black" stroke="black" points="166.61,-140.99 170.11,-150.99 173.61,-140.99 166.61,-140.99"/>
</g>
<!-- StudentCreatePageRoutingModule -->
<g id="node3" class="node">
<title>StudentCreatePageRoutingModule</title>
<polygon fill="#8dd3c7" stroke="black" points="426.69,-122 423.69,-126 402.69,-126 399.69,-122 215.31,-122 215.31,-86 426.69,-86 426.69,-122"/>
<text text-anchor="middle" x="321" y="-99.8" font-family="Times,serif" font-size="14.00">StudentCreatePageRoutingModule</text>
</g>
<!-- StudentCreatePageRoutingModule&#45;&gt;StudentCreatePageModule -->
<g id="edge2" class="edge">
<title>StudentCreatePageRoutingModule&#45;&gt;StudentCreatePageModule</title>
<path fill="none" stroke="black" d="M265.22,-122.11C265.22,-122.11 265.22,-140.99 265.22,-140.99"/>
<polygon fill="black" stroke="black" points="261.72,-140.99 265.22,-150.99 268.72,-140.99 261.72,-140.99"/>
</g>
</g>
</svg>
