<?xml version="1.0" encoding="UTF-8" standalone="no"?>
<!DOCTYPE svg PUBLIC "-//W3C//DTD SVG 1.1//EN"
 "http://www.w3.org/Graphics/SVG/1.1/DTD/svg11.dtd">
<!-- Generated by graphviz version 2.44.1 (20200629.0846)
 -->
<!-- Title: dependencies Pages: 1 -->
<svg width="949pt" height="284pt"
 viewBox="0.00 0.00 949.00 284.00" xmlns="http://www.w3.org/2000/svg" xmlns:xlink="http://www.w3.org/1999/xlink">
<g id="graph0" class="graph" transform="scale(1 1) rotate(0) translate(4 280)">
<title>dependencies</title>
<polygon fill="white" stroke="transparent" points="-4,4 -4,-280 945,-280 945,4 -4,4"/>
<text text-anchor="start" x="449.51" y="-42.4" font-family="sans-serif" font-weight="bold" font-size="14.00">Legend</text>
<polygon fill="#ffffb3" stroke="transparent" points="236.5,-10 236.5,-30 256.5,-30 256.5,-10 236.5,-10"/>
<text text-anchor="start" x="260.13" y="-15.4" font-family="sans-serif" font-size="14.00"> &#160;Declarations</text>
<polygon fill="#8dd3c7" stroke="transparent" points="349.5,-10 349.5,-30 369.5,-30 369.5,-10 349.5,-10"/>
<text text-anchor="start" x="373.23" y="-15.4" font-family="sans-serif" font-size="14.00"> &#160;Module</text>
<polygon fill="#80b1d3" stroke="transparent" points="435.5,-10 435.5,-30 455.5,-30 455.5,-10 435.5,-10"/>
<text text-anchor="start" x="459.28" y="-15.4" font-family="sans-serif" font-size="14.00"> &#160;Bootstrap</text>
<polygon fill="#fdb462" stroke="transparent" points="532.5,-10 532.5,-30 552.5,-30 552.5,-10 532.5,-10"/>
<text text-anchor="start" x="556.17" y="-15.4" font-family="sans-serif" font-size="14.00"> &#160;Providers</text>
<polygon fill="#fb8072" stroke="transparent" points="628.5,-10 628.5,-30 648.5,-30 648.5,-10 628.5,-10"/>
<text text-anchor="start" x="652.23" y="-15.4" font-family="sans-serif" font-size="14.00"> &#160;Exports</text>
<g id="clust1" class="cluster">
<title>cluster_AppModule</title>
<polygon fill="none" stroke="black" stroke-dasharray="1,5" points="8,-70 8,-268 933,-268 933,-70 8,-70"/>
</g>
<g id="clust9" class="cluster">
<title>cluster_AppModule_providers</title>
<polygon fill="none" stroke="black" points="761,-78 761,-130 925,-130 925,-78 761,-78"/>
</g>
<g id="clust6" class="cluster">
<title>cluster_AppModule_imports</title>
<polygon fill="none" stroke="black" points="435,-78 435,-130 753,-130 753,-78 435,-78"/>
</g>
<g id="clust2" class="cluster">
<title>cluster_AppModule_declarations</title>
<polygon fill="none" stroke="black" points="16,-78 16,-130 427,-130 427,-78 16,-78"/>
</g>
<g id="clust8" class="cluster">
<title>cluster_AppModule_bootstrap</title>
<polygon fill="none" stroke="black" points="381,-208 381,-260 505,-260 505,-208 381,-208"/>
</g>
<!-- AppComponent -->
<g id="node1" class="node">
<title>AppComponent</title>
<polygon fill="#ffffb3" stroke="black" points="418.94,-122 313.06,-122 313.06,-86 418.94,-86 418.94,-122"/>
<text text-anchor="middle" x="366" y="-99.8" font-family="Times,serif" font-size="14.00">AppComponent</text>
</g>
<!-- AppModule -->
<g id="node4" class="node">
<title>AppModule</title>
<polygon fill="#8dd3c7" stroke="black" points="484.66,-187 481.66,-191 460.66,-191 457.66,-187 401.34,-187 401.34,-151 484.66,-151 484.66,-187"/>
<text text-anchor="middle" x="443" y="-164.8" font-family="Times,serif" font-size="14.00">AppModule</text>
</g>
<!-- AppComponent&#45;&gt;AppModule -->
<g id="edge1" class="edge">
<title>AppComponent&#45;&gt;AppModule</title>
<path fill="none" stroke="black" d="M409.95,-122.11C409.95,-122.11 409.95,-140.99 409.95,-140.99"/>
<polygon fill="black" stroke="black" points="406.45,-140.99 409.95,-150.99 413.45,-140.99 406.45,-140.99"/>
</g>
<!-- LoginComponent -->
<g id="node2" class="node">
<title>LoginComponent</title>
<polygon fill="#ffffb3" stroke="black" points="295.28,-122 180.72,-122 180.72,-86 295.28,-86 295.28,-122"/>
<text text-anchor="middle" x="238" y="-99.8" font-family="Times,serif" font-size="14.00">LoginComponent</text>
</g>
<!-- LoginComponent&#45;&gt;AppModule -->
<g id="edge2" class="edge">
<title>LoginComponent&#45;&gt;AppModule</title>
<path fill="none" stroke="black" d="M238,-122.02C238,-139.37 238,-163 238,-163 238,-163 391.02,-163 391.02,-163"/>
<polygon fill="black" stroke="black" points="391.02,-166.5 401.02,-163 391.02,-159.5 391.02,-166.5"/>
</g>
<!-- SideMenuComponent -->
<g id="node3" class="node">
<title>SideMenuComponent</title>
<polygon fill="#ffffb3" stroke="black" points="162.38,-122 23.62,-122 23.62,-86 162.38,-86 162.38,-122"/>
<text text-anchor="middle" x="93" y="-99.8" font-family="Times,serif" font-size="14.00">SideMenuComponent</text>
</g>
<!-- SideMenuComponent&#45;&gt;AppModule -->
<g id="edge3" class="edge">
<title>SideMenuComponent&#45;&gt;AppModule</title>
<path fill="none" stroke="black" d="M93,-122.28C93,-143.32 93,-175 93,-175 93,-175 391.13,-175 391.13,-175"/>
<polygon fill="black" stroke="black" points="391.13,-178.5 401.13,-175 391.13,-171.5 391.13,-178.5"/>
</g>
<!-- AppComponent  -->
<g id="node7" class="node">
<title>AppComponent </title>
<polygon fill="#80b1d3" stroke="black" points="497.44,-252 388.56,-252 388.56,-216 497.44,-216 497.44,-252"/>
<text text-anchor="middle" x="443" y="-229.8" font-family="Times,serif" font-size="14.00">AppComponent </text>
</g>
<!-- AppModule&#45;&gt;AppComponent  -->
<g id="edge6" class="edge">
<title>AppModule&#45;&gt;AppComponent </title>
<path fill="none" stroke="black" stroke-dasharray="1,5" d="M443,-187.11C443,-187.11 443,-205.99 443,-205.99"/>
<polygon fill="black" stroke="black" points="439.5,-205.99 443,-215.99 446.5,-205.99 439.5,-205.99"/>
</g>
<!-- AppRoutingModule -->
<g id="node5" class="node">
<title>AppRoutingModule</title>
<polygon fill="#8dd3c7" stroke="black" points="745.27,-122 742.27,-126 721.27,-126 718.27,-122 616.73,-122 616.73,-86 745.27,-86 745.27,-122"/>
<text text-anchor="middle" x="681" y="-99.8" font-family="Times,serif" font-size="14.00">AppRoutingModule</text>
</g>
<!-- AppRoutingModule&#45;&gt;AppModule -->
<g id="edge4" class="edge">
<title>AppRoutingModule&#45;&gt;AppModule</title>
<path fill="none" stroke="black" d="M681,-122.02C681,-139.37 681,-163 681,-163 681,-163 494.73,-163 494.73,-163"/>
<polygon fill="black" stroke="black" points="494.73,-159.5 484.73,-163 494.73,-166.5 494.73,-159.5"/>
</g>
<!-- SharedDirectivesModule -->
<g id="node6" class="node">
<title>SharedDirectivesModule</title>
<polygon fill="#8dd3c7" stroke="black" points="598.95,-122 595.95,-126 574.95,-126 571.95,-122 443.05,-122 443.05,-86 598.95,-86 598.95,-122"/>
<text text-anchor="middle" x="521" y="-99.8" font-family="Times,serif" font-size="14.00">SharedDirectivesModule</text>
</g>
<!-- SharedDirectivesModule&#45;&gt;AppModule -->
<g id="edge5" class="edge">
<title>SharedDirectivesModule&#45;&gt;AppModule</title>
<path fill="none" stroke="black" d="M463.93,-122.11C463.93,-122.11 463.93,-140.99 463.93,-140.99"/>
<polygon fill="black" stroke="black" points="460.43,-140.99 463.93,-150.99 467.43,-140.99 460.43,-140.99"/>
</g>
<!-- ErrorInterceptor -->
<g id="node8" class="node">
<title>ErrorInterceptor</title>
<ellipse fill="#fdb462" stroke="black" cx="843" cy="-104" rx="73.53" ry="18"/>
<text text-anchor="middle" x="843" y="-99.8" font-family="Times,serif" font-size="14.00">ErrorInterceptor</text>
</g>
<!-- ErrorInterceptor&#45;&gt;AppModule -->
<g id="edge7" class="edge">
<title>ErrorInterceptor&#45;&gt;AppModule</title>
<path fill="none" stroke="black" d="M843,-122.28C843,-143.32 843,-175 843,-175 843,-175 494.68,-175 494.68,-175"/>
<polygon fill="black" stroke="black" points="494.68,-171.5 484.68,-175 494.67,-178.5 494.68,-171.5"/>
</g>
</g>
</svg>
