<?xml version="1.0" encoding="UTF-8" standalone="no"?>
<!DOCTYPE svg PUBLIC "-//W3C//DTD SVG 1.1//EN"
 "http://www.w3.org/Graphics/SVG/1.1/DTD/svg11.dtd">
<!-- Generated by graphviz version 2.44.1 (20200629.0846)
 -->
<!-- Title: dependencies Pages: 1 -->
<svg width="961pt" height="284pt"
 viewBox="0.00 0.00 961.00 284.00" xmlns="http://www.w3.org/2000/svg" xmlns:xlink="http://www.w3.org/1999/xlink">
<g id="graph0" class="graph" transform="scale(1 1) rotate(0) translate(4 280)">
<title>dependencies</title>
<polygon fill="white" stroke="transparent" points="-4,4 -4,-280 957,-280 957,4 -4,4"/>
<text text-anchor="start" x="455.51" y="-42.4" font-family="sans-serif" font-weight="bold" font-size="14.00">Legend</text>
<polygon fill="#ffffb3" stroke="transparent" points="242.5,-10 242.5,-30 262.5,-30 262.5,-10 242.5,-10"/>
<text text-anchor="start" x="266.13" y="-15.4" font-family="sans-serif" font-size="14.00"> &#160;Declarations</text>
<polygon fill="#8dd3c7" stroke="transparent" points="355.5,-10 355.5,-30 375.5,-30 375.5,-10 355.5,-10"/>
<text text-anchor="start" x="379.23" y="-15.4" font-family="sans-serif" font-size="14.00"> &#160;Module</text>
<polygon fill="#80b1d3" stroke="transparent" points="441.5,-10 441.5,-30 461.5,-30 461.5,-10 441.5,-10"/>
<text text-anchor="start" x="465.28" y="-15.4" font-family="sans-serif" font-size="14.00"> &#160;Bootstrap</text>
<polygon fill="#fdb462" stroke="transparent" points="538.5,-10 538.5,-30 558.5,-30 558.5,-10 538.5,-10"/>
<text text-anchor="start" x="562.17" y="-15.4" font-family="sans-serif" font-size="14.00"> &#160;Providers</text>
<polygon fill="#fb8072" stroke="transparent" points="634.5,-10 634.5,-30 654.5,-30 654.5,-10 634.5,-10"/>
<text text-anchor="start" x="658.23" y="-15.4" font-family="sans-serif" font-size="14.00"> &#160;Exports</text>
<g id="clust1" class="cluster">
<title>cluster_AppModule</title>
<polygon fill="none" stroke="black" stroke-dasharray="1,5" points="8,-70 8,-268 945,-268 945,-70 8,-70"/>
</g>
<g id="clust7" class="cluster">
<title>cluster_AppModule_imports</title>
<polygon fill="none" stroke="black" points="619,-78 619,-130 937,-130 937,-78 619,-78"/>
</g>
<g id="clust2" class="cluster">
<title>cluster_AppModule_declarations</title>
<polygon fill="none" stroke="black" points="16,-78 16,-130 611,-130 611,-78 16,-78"/>
</g>
<g id="clust9" class="cluster">
<title>cluster_AppModule_bootstrap</title>
<polygon fill="none" stroke="black" points="411,-208 411,-260 535,-260 535,-208 411,-208"/>
</g>
<!-- AppComponent -->
<g id="node1" class="node">
<title>AppComponent</title>
<polygon fill="#ffffb3" stroke="black" points="602.94,-122 497.06,-122 497.06,-86 602.94,-86 602.94,-122"/>
<text text-anchor="middle" x="550" y="-99.8" font-family="Times,serif" font-size="14.00">AppComponent</text>
</g>
<!-- AppModule -->
<g id="node5" class="node">
<title>AppModule</title>
<polygon fill="#8dd3c7" stroke="black" points="514.66,-187 511.66,-191 490.66,-191 487.66,-187 431.34,-187 431.34,-151 514.66,-151 514.66,-187"/>
<text text-anchor="middle" x="473" y="-164.8" font-family="Times,serif" font-size="14.00">AppModule</text>
</g>
<!-- AppComponent&#45;&gt;AppModule -->
<g id="edge1" class="edge">
<title>AppComponent&#45;&gt;AppModule</title>
<path fill="none" stroke="black" d="M506.05,-122.11C506.05,-122.11 506.05,-140.99 506.05,-140.99"/>
<polygon fill="black" stroke="black" points="502.55,-140.99 506.05,-150.99 509.55,-140.99 502.55,-140.99"/>
</g>
<!-- BenefitTrackerComponent -->
<g id="node2" class="node">
<title>BenefitTrackerComponent</title>
<polygon fill="#ffffb3" stroke="black" points="479.06,-122 312.94,-122 312.94,-86 479.06,-86 479.06,-122"/>
<text text-anchor="middle" x="396" y="-99.8" font-family="Times,serif" font-size="14.00">BenefitTrackerComponent</text>
</g>
<!-- BenefitTrackerComponent&#45;&gt;AppModule -->
<g id="edge2" class="edge">
<title>BenefitTrackerComponent&#45;&gt;AppModule</title>
<path fill="none" stroke="black" d="M455.1,-122.11C455.1,-122.11 455.1,-140.99 455.1,-140.99"/>
<polygon fill="black" stroke="black" points="451.6,-140.99 455.1,-150.99 458.6,-140.99 451.6,-140.99"/>
</g>
<!-- LoginComponent -->
<g id="node3" class="node">
<title>LoginComponent</title>
<polygon fill="#ffffb3" stroke="black" points="295.28,-122 180.72,-122 180.72,-86 295.28,-86 295.28,-122"/>
<text text-anchor="middle" x="238" y="-99.8" font-family="Times,serif" font-size="14.00">LoginComponent</text>
</g>
<!-- LoginComponent&#45;&gt;AppModule -->
<g id="edge3" class="edge">
<title>LoginComponent&#45;&gt;AppModule</title>
<path fill="none" stroke="black" d="M238,-122.02C238,-139.37 238,-163 238,-163 238,-163 421.26,-163 421.26,-163"/>
<polygon fill="black" stroke="black" points="421.26,-166.5 431.26,-163 421.26,-159.5 421.26,-166.5"/>
</g>
<!-- SideMenuComponent -->
<g id="node4" class="node">
<title>SideMenuComponent</title>
<polygon fill="#ffffb3" stroke="black" points="162.38,-122 23.62,-122 23.62,-86 162.38,-86 162.38,-122"/>
<text text-anchor="middle" x="93" y="-99.8" font-family="Times,serif" font-size="14.00">SideMenuComponent</text>
</g>
<!-- SideMenuComponent&#45;&gt;AppModule -->
<g id="edge4" class="edge">
<title>SideMenuComponent&#45;&gt;AppModule</title>
<path fill="none" stroke="black" d="M93,-122.28C93,-143.32 93,-175 93,-175 93,-175 421.25,-175 421.25,-175"/>
<polygon fill="black" stroke="black" points="421.25,-178.5 431.25,-175 421.25,-171.5 421.25,-178.5"/>
</g>
<!-- AppComponent  -->
<g id="node8" class="node">
<title>AppComponent </title>
<polygon fill="#80b1d3" stroke="black" points="527.44,-252 418.56,-252 418.56,-216 527.44,-216 527.44,-252"/>
<text text-anchor="middle" x="473" y="-229.8" font-family="Times,serif" font-size="14.00">AppComponent </text>
</g>
<!-- AppModule&#45;&gt;AppComponent  -->
<g id="edge7" class="edge">
<title>AppModule&#45;&gt;AppComponent </title>
<path fill="none" stroke="black" stroke-dasharray="1,5" d="M473,-187.11C473,-187.11 473,-205.99 473,-205.99"/>
<polygon fill="black" stroke="black" points="469.5,-205.99 473,-215.99 476.5,-205.99 469.5,-205.99"/>
</g>
<!-- AppRoutingModule -->
<g id="node6" class="node">
<title>AppRoutingModule</title>
<polygon fill="#8dd3c7" stroke="black" points="929.27,-122 926.27,-126 905.27,-126 902.27,-122 800.73,-122 800.73,-86 929.27,-86 929.27,-122"/>
<text text-anchor="middle" x="865" y="-99.8" font-family="Times,serif" font-size="14.00">AppRoutingModule</text>
</g>
<!-- AppRoutingModule&#45;&gt;AppModule -->
<g id="edge5" class="edge">
<title>AppRoutingModule&#45;&gt;AppModule</title>
<path fill="none" stroke="black" d="M865,-122.28C865,-143.32 865,-175 865,-175 865,-175 524.95,-175 524.95,-175"/>
<polygon fill="black" stroke="black" points="524.95,-171.5 514.95,-175 524.95,-178.5 524.95,-171.5"/>
</g>
<!-- SharedDirectivesModule -->
<g id="node7" class="node">
<title>SharedDirectivesModule</title>
<polygon fill="#8dd3c7" stroke="black" points="782.95,-122 779.95,-126 758.95,-126 755.95,-122 627.05,-122 627.05,-86 782.95,-86 782.95,-122"/>
<text text-anchor="middle" x="705" y="-99.8" font-family="Times,serif" font-size="14.00">SharedDirectivesModule</text>
</g>
<!-- SharedDirectivesModule&#45;&gt;AppModule -->
<g id="edge6" class="edge">
<title>SharedDirectivesModule&#45;&gt;AppModule</title>
<path fill="none" stroke="black" d="M705,-122.02C705,-139.37 705,-163 705,-163 705,-163 524.74,-163 524.74,-163"/>
<polygon fill="black" stroke="black" points="524.74,-159.5 514.74,-163 524.74,-166.5 524.74,-159.5"/>
</g>
</g>
</svg>
