<?xml version="1.0" encoding="UTF-8" standalone="no"?>
<!DOCTYPE svg PUBLIC "-//W3C//DTD SVG 1.1//EN"
 "http://www.w3.org/Graphics/SVG/1.1/DTD/svg11.dtd">
<!-- Generated by graphviz version 2.44.1 (20200629.0846)
 -->
<!-- Title: dependencies Pages: 1 -->
<svg width="504pt" height="211pt"
 viewBox="0.00 0.00 504.00 211.00" xmlns="http://www.w3.org/2000/svg" xmlns:xlink="http://www.w3.org/1999/xlink">
<g id="graph0" class="graph" transform="scale(1 1) rotate(0) translate(4 207)">
<title>dependencies</title>
<polygon fill="white" stroke="transparent" points="-4,4 -4,-207 500,-207 500,4 -4,4"/>
<text text-anchor="start" x="227.01" y="-42.4" font-family="sans-serif" font-weight="bold" font-size="14.00">Legend</text>
<polygon fill="#ffffb3" stroke="transparent" points="14,-10 14,-30 34,-30 34,-10 14,-10"/>
<text text-anchor="start" x="37.63" y="-15.4" font-family="sans-serif" font-size="14.00"> &#160;Declarations</text>
<polygon fill="#8dd3c7" stroke="transparent" points="127,-10 127,-30 147,-30 147,-10 127,-10"/>
<text text-anchor="start" x="150.73" y="-15.4" font-family="sans-serif" font-size="14.00"> &#160;Module</text>
<polygon fill="#80b1d3" stroke="transparent" points="213,-10 213,-30 233,-30 233,-10 213,-10"/>
<text text-anchor="start" x="236.78" y="-15.4" font-family="sans-serif" font-size="14.00"> &#160;Bootstrap</text>
<polygon fill="#fdb462" stroke="transparent" points="310,-10 310,-30 330,-30 330,-10 310,-10"/>
<text text-anchor="start" x="333.67" y="-15.4" font-family="sans-serif" font-size="14.00"> &#160;Providers</text>
<polygon fill="#fb8072" stroke="transparent" points="406,-10 406,-30 426,-30 426,-10 406,-10"/>
<text text-anchor="start" x="429.73" y="-15.4" font-family="sans-serif" font-size="14.00"> &#160;Exports</text>
<g id="clust1" class="cluster">
<title>cluster_ProductsPageModule</title>
<polygon fill="none" stroke="black" stroke-dasharray="1,5" points="25.5,-70 25.5,-195 470.5,-195 470.5,-70 25.5,-70"/>
</g>
<g id="clust2" class="cluster">
<title>cluster_ProductsPageModule_declarations</title>
<polygon fill="none" stroke="black" points="354.5,-78 354.5,-130 462.5,-130 462.5,-78 354.5,-78"/>
</g>
<g id="clust4" class="cluster">
<title>cluster_ProductsPageModule_imports</title>
<polygon fill="none" stroke="black" points="33.5,-78 33.5,-130 346.5,-130 346.5,-78 33.5,-78"/>
</g>
<!-- ProductsPage -->
<g id="node1" class="node">
<title>ProductsPage</title>
<polygon fill="#ffffb3" stroke="black" points="454.71,-122 362.29,-122 362.29,-86 454.71,-86 454.71,-122"/>
<text text-anchor="middle" x="408.5" y="-99.8" font-family="Times,serif" font-size="14.00">ProductsPage</text>
</g>
<!-- ProductsPageModule -->
<g id="node2" class="node">
<title>ProductsPageModule</title>
<polygon fill="#8dd3c7" stroke="black" points="316.25,-187 313.25,-191 292.25,-191 289.25,-187 180.75,-187 180.75,-151 316.25,-151 316.25,-187"/>
<text text-anchor="middle" x="248.5" y="-164.8" font-family="Times,serif" font-size="14.00">ProductsPageModule</text>
</g>
<!-- ProductsPage&#45;&gt;ProductsPageModule -->
<g id="edge1" class="edge">
<title>ProductsPage&#45;&gt;ProductsPageModule</title>
<path fill="none" stroke="black" d="M408.5,-122.11C408.5,-141.34 408.5,-169 408.5,-169 408.5,-169 326.35,-169 326.35,-169"/>
<polygon fill="black" stroke="black" points="326.35,-165.5 316.35,-169 326.35,-172.5 326.35,-165.5"/>
</g>
<!-- ProductsPageRoutingModule -->
<g id="node3" class="node">
<title>ProductsPageRoutingModule</title>
<polygon fill="#8dd3c7" stroke="black" points="338.87,-122 335.87,-126 314.87,-126 311.87,-122 158.13,-122 158.13,-86 338.87,-86 338.87,-122"/>
<text text-anchor="middle" x="248.5" y="-99.8" font-family="Times,serif" font-size="14.00">ProductsPageRoutingModule</text>
</g>
<!-- ProductsPageRoutingModule&#45;&gt;ProductsPageModule -->
<g id="edge2" class="edge">
<title>ProductsPageRoutingModule&#45;&gt;ProductsPageModule</title>
<path fill="none" stroke="black" d="M248.5,-122.11C248.5,-122.11 248.5,-140.99 248.5,-140.99"/>
<polygon fill="black" stroke="black" points="245,-140.99 248.5,-150.99 252,-140.99 245,-140.99"/>
</g>
<!-- SharedModule -->
<g id="node4" class="node">
<title>SharedModule</title>
<polygon fill="#8dd3c7" stroke="black" points="139.92,-122 136.92,-126 115.92,-126 112.92,-122 41.08,-122 41.08,-86 139.92,-86 139.92,-122"/>
<text text-anchor="middle" x="90.5" y="-99.8" font-family="Times,serif" font-size="14.00">SharedModule</text>
</g>
<!-- SharedModule&#45;&gt;ProductsPageModule -->
<g id="edge3" class="edge">
<title>SharedModule&#45;&gt;ProductsPageModule</title>
<path fill="none" stroke="black" d="M90.5,-122.11C90.5,-141.34 90.5,-169 90.5,-169 90.5,-169 170.58,-169 170.58,-169"/>
<polygon fill="black" stroke="black" points="170.58,-172.5 180.58,-169 170.58,-165.5 170.58,-172.5"/>
</g>
</g>
</svg>
