<?xml version="1.0" encoding="UTF-8" standalone="no"?>
<!DOCTYPE svg PUBLIC "-//W3C//DTD SVG 1.1//EN"
 "http://www.w3.org/Graphics/SVG/1.1/DTD/svg11.dtd">
<!-- Generated by graphviz version 2.47.0 (20210316.0004)
 -->
<!-- Title: dependencies Pages: 1 -->
<svg width="642pt" height="211pt"
 viewBox="0.00 0.00 642.00 211.00" xmlns="http://www.w3.org/2000/svg" xmlns:xlink="http://www.w3.org/1999/xlink">
<g id="graph0" class="graph" transform="scale(1 1) rotate(0) translate(4 207)">
<title>dependencies</title>
<polygon fill="white" stroke="transparent" points="-4,4 -4,-207 638,-207 638,4 -4,4"/>
<text text-anchor="start" x="296.01" y="-42.4" font-family="sans-serif" font-weight="bold" font-size="14.00">Legend</text>
<polygon fill="#ffffb3" stroke="transparent" points="83,-10 83,-30 103,-30 103,-10 83,-10"/>
<text text-anchor="start" x="106.63" y="-15.4" font-family="sans-serif" font-size="14.00"> &#160;Declarations</text>
<polygon fill="#8dd3c7" stroke="transparent" points="196,-10 196,-30 216,-30 216,-10 196,-10"/>
<text text-anchor="start" x="219.73" y="-15.4" font-family="sans-serif" font-size="14.00"> &#160;Module</text>
<polygon fill="#80b1d3" stroke="transparent" points="282,-10 282,-30 302,-30 302,-10 282,-10"/>
<text text-anchor="start" x="305.78" y="-15.4" font-family="sans-serif" font-size="14.00"> &#160;Bootstrap</text>
<polygon fill="#fdb462" stroke="transparent" points="379,-10 379,-30 399,-30 399,-10 379,-10"/>
<text text-anchor="start" x="402.67" y="-15.4" font-family="sans-serif" font-size="14.00"> &#160;Providers</text>
<polygon fill="#fb8072" stroke="transparent" points="475,-10 475,-30 495,-30 495,-10 475,-10"/>
<text text-anchor="start" x="498.73" y="-15.4" font-family="sans-serif" font-size="14.00"> &#160;Exports</text>
<g id="clust1" class="cluster">
<title>cluster_ProductsPageModule</title>
<polygon fill="none" stroke="black" stroke-dasharray="1,5" points="8,-70 8,-195 626,-195 626,-70 8,-70"/>
</g>
<g id="clust2" class="cluster">
<title>cluster_ProductsPageModule_declarations</title>
<polygon fill="none" stroke="black" points="510,-78 510,-130 618,-130 618,-78 510,-78"/>
</g>
<g id="clust4" class="cluster">
<title>cluster_ProductsPageModule_imports</title>
<polygon fill="none" stroke="black" points="16,-78 16,-130 502,-130 502,-78 16,-78"/>
</g>
<!-- ProductsPage -->
<g id="node1" class="node">
<title>ProductsPage</title>
<polygon fill="#ffffb3" stroke="black" points="610.21,-122 517.79,-122 517.79,-86 610.21,-86 610.21,-122"/>
<text text-anchor="middle" x="564" y="-99.8" font-family="Times,serif" font-size="14.00">ProductsPage</text>
</g>
<!-- ProductsPageModule -->
<g id="node2" class="node">
<title>ProductsPageModule</title>
<polygon fill="#8dd3c7" stroke="black" points="378.75,-187 375.75,-191 354.75,-191 351.75,-187 243.25,-187 243.25,-151 378.75,-151 378.75,-187"/>
<text text-anchor="middle" x="311" y="-164.8" font-family="Times,serif" font-size="14.00">ProductsPageModule</text>
</g>
<!-- ProductsPage&#45;&gt;ProductsPageModule -->
<g id="edge1" class="edge">
<title>ProductsPage&#45;&gt;ProductsPageModule</title>
<path fill="none" stroke="black" d="M564,-122.11C564,-141.34 564,-169 564,-169 564,-169 388.8,-169 388.8,-169"/>
<polygon fill="black" stroke="black" points="388.8,-165.5 378.8,-169 388.8,-172.5 388.8,-165.5"/>
</g>
<!-- ProductsPageRoutingModule -->
<g id="node3" class="node">
<title>ProductsPageRoutingModule</title>
<polygon fill="#8dd3c7" stroke="black" points="494.37,-122 491.37,-126 470.37,-126 467.37,-122 313.63,-122 313.63,-86 494.37,-86 494.37,-122"/>
<text text-anchor="middle" x="404" y="-99.8" font-family="Times,serif" font-size="14.00">ProductsPageRoutingModule</text>
</g>
<!-- ProductsPageRoutingModule&#45;&gt;ProductsPageModule -->
<g id="edge2" class="edge">
<title>ProductsPageRoutingModule&#45;&gt;ProductsPageModule</title>
<path fill="none" stroke="black" d="M346.22,-122.11C346.22,-122.11 346.22,-140.99 346.22,-140.99"/>
<polygon fill="black" stroke="black" points="342.72,-140.99 346.22,-150.99 349.72,-140.99 342.72,-140.99"/>
</g>
<!-- SharedDirectivesModule -->
<g id="node4" class="node">
<title>SharedDirectivesModule</title>
<polygon fill="#8dd3c7" stroke="black" points="295.95,-122 292.95,-126 271.95,-126 268.95,-122 140.05,-122 140.05,-86 295.95,-86 295.95,-122"/>
<text text-anchor="middle" x="218" y="-99.8" font-family="Times,serif" font-size="14.00">SharedDirectivesModule</text>
</g>
<!-- SharedDirectivesModule&#45;&gt;ProductsPageModule -->
<g id="edge3" class="edge">
<title>SharedDirectivesModule&#45;&gt;ProductsPageModule</title>
<path fill="none" stroke="black" d="M269.55,-122.11C269.55,-122.11 269.55,-140.99 269.55,-140.99"/>
<polygon fill="black" stroke="black" points="266.05,-140.99 269.55,-150.99 273.05,-140.99 266.05,-140.99"/>
</g>
<!-- SharedModule -->
<g id="node5" class="node">
<title>SharedModule</title>
<polygon fill="#8dd3c7" stroke="black" points="122.42,-122 119.42,-126 98.42,-126 95.42,-122 23.58,-122 23.58,-86 122.42,-86 122.42,-122"/>
<text text-anchor="middle" x="73" y="-99.8" font-family="Times,serif" font-size="14.00">SharedModule</text>
</g>
<!-- SharedModule&#45;&gt;ProductsPageModule -->
<g id="edge4" class="edge">
<title>SharedModule&#45;&gt;ProductsPageModule</title>
<path fill="none" stroke="black" d="M73,-122.11C73,-141.34 73,-169 73,-169 73,-169 233.12,-169 233.12,-169"/>
<polygon fill="black" stroke="black" points="233.12,-172.5 243.12,-169 233.12,-165.5 233.12,-172.5"/>
</g>
</g>
</svg>
