<?xml version="1.0" encoding="UTF-8" standalone="no"?>
<!DOCTYPE svg PUBLIC "-//W3C//DTD SVG 1.1//EN"
 "http://www.w3.org/Graphics/SVG/1.1/DTD/svg11.dtd">
<!-- Generated by graphviz version 2.44.1 (20200629.0846)
 -->
<!-- Title: dependencies Pages: 1 -->
<svg width="2346pt" height="211pt"
 viewBox="0.00 0.00 2346.00 211.00" xmlns="http://www.w3.org/2000/svg" xmlns:xlink="http://www.w3.org/1999/xlink">
<g id="graph0" class="graph" transform="scale(1 1) rotate(0) translate(4 207)">
<title>dependencies</title>
<polygon fill="white" stroke="transparent" points="-4,4 -4,-207 2342,-207 2342,4 -4,4"/>
<text text-anchor="start" x="1148.01" y="-42.4" font-family="sans-serif" font-weight="bold" font-size="14.00">Legend</text>
<polygon fill="#ffffb3" stroke="transparent" points="935,-10 935,-30 955,-30 955,-10 935,-10"/>
<text text-anchor="start" x="958.63" y="-15.4" font-family="sans-serif" font-size="14.00"> &#160;Declarations</text>
<polygon fill="#8dd3c7" stroke="transparent" points="1048,-10 1048,-30 1068,-30 1068,-10 1048,-10"/>
<text text-anchor="start" x="1071.73" y="-15.4" font-family="sans-serif" font-size="14.00"> &#160;Module</text>
<polygon fill="#80b1d3" stroke="transparent" points="1134,-10 1134,-30 1154,-30 1154,-10 1134,-10"/>
<text text-anchor="start" x="1157.78" y="-15.4" font-family="sans-serif" font-size="14.00"> &#160;Bootstrap</text>
<polygon fill="#fdb462" stroke="transparent" points="1231,-10 1231,-30 1251,-30 1251,-10 1231,-10"/>
<text text-anchor="start" x="1254.67" y="-15.4" font-family="sans-serif" font-size="14.00"> &#160;Providers</text>
<polygon fill="#fb8072" stroke="transparent" points="1327,-10 1327,-30 1347,-30 1347,-10 1327,-10"/>
<text text-anchor="start" x="1350.73" y="-15.4" font-family="sans-serif" font-size="14.00"> &#160;Exports</text>
<g id="clust1" class="cluster">
<title>cluster_CustomerDashboardPageModule</title>
<polygon fill="none" stroke="black" stroke-dasharray="1,5" points="8,-70 8,-195 2330,-195 2330,-70 8,-70"/>
</g>
<g id="clust2" class="cluster">
<title>cluster_CustomerDashboardPageModule_declarations</title>
<polygon fill="none" stroke="black" points="403,-78 403,-130 2322,-130 2322,-78 403,-78"/>
</g>
<g id="clust15" class="cluster">
<title>cluster_CustomerDashboardPageModule_imports</title>
<polygon fill="none" stroke="black" points="16,-78 16,-130 395,-130 395,-78 16,-78"/>
</g>
<!-- BasicContentComponent -->
<g id="node1" class="node">
<title>BasicContentComponent</title>
<polygon fill="#ffffb3" stroke="black" points="2314.27,-122 2157.73,-122 2157.73,-86 2314.27,-86 2314.27,-122"/>
<text text-anchor="middle" x="2236" y="-99.8" font-family="Times,serif" font-size="14.00">BasicContentComponent</text>
</g>
<!-- CustomerDashboardPageModule -->
<g id="node13" class="node">
<title>CustomerDashboardPageModule</title>
<polygon fill="#8dd3c7" stroke="black" points="1259.84,-187 1256.84,-191 1235.84,-191 1232.84,-187 1058.16,-187 1058.16,-151 1259.84,-151 1259.84,-187"/>
<text text-anchor="middle" x="1159" y="-164.8" font-family="Times,serif" font-size="14.00">CustomerDashboardPageModule</text>
</g>
<!-- BasicContentComponent&#45;&gt;CustomerDashboardPageModule -->
<g id="edge1" class="edge">
<title>BasicContentComponent&#45;&gt;CustomerDashboardPageModule</title>
<path fill="none" stroke="black" d="M2236,-122.09C2236,-145.13 2236,-182 2236,-182 2236,-182 1270.32,-182 1270.32,-182"/>
<polygon fill="black" stroke="black" points="1270.32,-178.5 1260.32,-182 1270.32,-185.5 1270.32,-178.5"/>
</g>
<!-- CancelServiceComponent -->
<g id="node2" class="node">
<title>CancelServiceComponent</title>
<polygon fill="#ffffb3" stroke="black" points="2140.18,-122 1977.82,-122 1977.82,-86 2140.18,-86 2140.18,-122"/>
<text text-anchor="middle" x="2059" y="-99.8" font-family="Times,serif" font-size="14.00">CancelServiceComponent</text>
</g>
<!-- CancelServiceComponent&#45;&gt;CustomerDashboardPageModule -->
<g id="edge2" class="edge">
<title>CancelServiceComponent&#45;&gt;CustomerDashboardPageModule</title>
<path fill="none" stroke="black" d="M2059,-122.04C2059,-143.66 2059,-177 2059,-177 2059,-177 1270.06,-177 1270.06,-177"/>
<polygon fill="black" stroke="black" points="1270.06,-173.5 1260.06,-177 1270.06,-180.5 1270.06,-173.5"/>
</g>
<!-- CustomerDashboardPage -->
<g id="node3" class="node">
<title>CustomerDashboardPage</title>
<polygon fill="#ffffb3" stroke="black" points="1960.29,-122 1801.71,-122 1801.71,-86 1960.29,-86 1960.29,-122"/>
<text text-anchor="middle" x="1881" y="-99.8" font-family="Times,serif" font-size="14.00">CustomerDashboardPage</text>
</g>
<!-- CustomerDashboardPage&#45;&gt;CustomerDashboardPageModule -->
<g id="edge3" class="edge">
<title>CustomerDashboardPage&#45;&gt;CustomerDashboardPageModule</title>
<path fill="none" stroke="black" d="M1881,-122.22C1881,-142.37 1881,-172 1881,-172 1881,-172 1270.15,-172 1270.15,-172"/>
<polygon fill="black" stroke="black" points="1270.15,-168.5 1260.15,-172 1270.15,-175.5 1270.15,-168.5"/>
</g>
<!-- InvoicesComponent -->
<g id="node4" class="node">
<title>InvoicesComponent</title>
<polygon fill="#ffffb3" stroke="black" points="1783.26,-122 1654.74,-122 1654.74,-86 1783.26,-86 1783.26,-122"/>
<text text-anchor="middle" x="1719" y="-99.8" font-family="Times,serif" font-size="14.00">InvoicesComponent</text>
</g>
<!-- InvoicesComponent&#45;&gt;CustomerDashboardPageModule -->
<g id="edge4" class="edge">
<title>InvoicesComponent&#45;&gt;CustomerDashboardPageModule</title>
<path fill="none" stroke="black" d="M1719,-122.22C1719,-140.83 1719,-167 1719,-167 1719,-167 1270.09,-167 1270.09,-167"/>
<polygon fill="black" stroke="black" points="1270.09,-163.5 1260.09,-167 1270.09,-170.5 1270.09,-163.5"/>
</g>
<!-- NewsfeedComponent -->
<g id="node5" class="node">
<title>NewsfeedComponent</title>
<polygon fill="#ffffb3" stroke="black" points="1636.79,-122 1499.21,-122 1499.21,-86 1636.79,-86 1636.79,-122"/>
<text text-anchor="middle" x="1568" y="-99.8" font-family="Times,serif" font-size="14.00">NewsfeedComponent</text>
</g>
<!-- NewsfeedComponent&#45;&gt;CustomerDashboardPageModule -->
<g id="edge5" class="edge">
<title>NewsfeedComponent&#45;&gt;CustomerDashboardPageModule</title>
<path fill="none" stroke="black" d="M1568,-122.03C1568,-139.06 1568,-162 1568,-162 1568,-162 1270.1,-162 1270.1,-162"/>
<polygon fill="black" stroke="black" points="1270.1,-158.5 1260.1,-162 1270.1,-165.5 1270.1,-158.5"/>
</g>
<!-- NutritionComponent -->
<g id="node6" class="node">
<title>NutritionComponent</title>
<polygon fill="#ffffb3" stroke="black" points="1481.16,-122 1348.84,-122 1348.84,-86 1481.16,-86 1481.16,-122"/>
<text text-anchor="middle" x="1415" y="-99.8" font-family="Times,serif" font-size="14.00">NutritionComponent</text>
</g>
<!-- NutritionComponent&#45;&gt;CustomerDashboardPageModule -->
<g id="edge6" class="edge">
<title>NutritionComponent&#45;&gt;CustomerDashboardPageModule</title>
<path fill="none" stroke="black" d="M1415,-122.24C1415,-137.57 1415,-157 1415,-157 1415,-157 1270.18,-157 1270.18,-157"/>
<polygon fill="black" stroke="black" points="1270.18,-153.5 1260.18,-157 1270.18,-160.5 1270.18,-153.5"/>
</g>
<!-- PremiumContentComponent -->
<g id="node7" class="node">
<title>PremiumContentComponent</title>
<polygon fill="#ffffb3" stroke="black" points="1330.49,-122 1153.51,-122 1153.51,-86 1330.49,-86 1330.49,-122"/>
<text text-anchor="middle" x="1242" y="-99.8" font-family="Times,serif" font-size="14.00">PremiumContentComponent</text>
</g>
<!-- PremiumContentComponent&#45;&gt;CustomerDashboardPageModule -->
<g id="edge7" class="edge">
<title>PremiumContentComponent&#45;&gt;CustomerDashboardPageModule</title>
<path fill="none" stroke="black" d="M1206.71,-122.11C1206.71,-122.11 1206.71,-140.99 1206.71,-140.99"/>
<polygon fill="black" stroke="black" points="1203.21,-140.99 1206.71,-150.99 1210.21,-140.99 1203.21,-140.99"/>
</g>
<!-- ProfileComponent -->
<g id="node8" class="node">
<title>ProfileComponent</title>
<polygon fill="#ffffb3" stroke="black" points="1135.93,-122 1016.07,-122 1016.07,-86 1135.93,-86 1135.93,-122"/>
<text text-anchor="middle" x="1076" y="-99.8" font-family="Times,serif" font-size="14.00">ProfileComponent</text>
</g>
<!-- ProfileComponent&#45;&gt;CustomerDashboardPageModule -->
<g id="edge8" class="edge">
<title>ProfileComponent&#45;&gt;CustomerDashboardPageModule</title>
<path fill="none" stroke="black" d="M1096.9,-122.11C1096.9,-122.11 1096.9,-140.99 1096.9,-140.99"/>
<polygon fill="black" stroke="black" points="1093.4,-140.99 1096.9,-150.99 1100.4,-140.99 1093.4,-140.99"/>
</g>
<!-- SettingsComponent -->
<g id="node9" class="node">
<title>SettingsComponent</title>
<polygon fill="#ffffb3" stroke="black" points="998.45,-122 871.55,-122 871.55,-86 998.45,-86 998.45,-122"/>
<text text-anchor="middle" x="935" y="-99.8" font-family="Times,serif" font-size="14.00">SettingsComponent</text>
</g>
<!-- SettingsComponent&#45;&gt;CustomerDashboardPageModule -->
<g id="edge9" class="edge">
<title>SettingsComponent&#45;&gt;CustomerDashboardPageModule</title>
<path fill="none" stroke="black" d="M935,-122.24C935,-137.57 935,-157 935,-157 935,-157 1048.14,-157 1048.14,-157"/>
<polygon fill="black" stroke="black" points="1048.14,-160.5 1058.14,-157 1048.14,-153.5 1048.14,-160.5"/>
</g>
<!-- UserTicketsComponent -->
<g id="node10" class="node">
<title>UserTicketsComponent</title>
<polygon fill="#ffffb3" stroke="black" points="853.47,-122 704.53,-122 704.53,-86 853.47,-86 853.47,-122"/>
<text text-anchor="middle" x="779" y="-99.8" font-family="Times,serif" font-size="14.00">UserTicketsComponent</text>
</g>
<!-- UserTicketsComponent&#45;&gt;CustomerDashboardPageModule -->
<g id="edge10" class="edge">
<title>UserTicketsComponent&#45;&gt;CustomerDashboardPageModule</title>
<path fill="none" stroke="black" d="M779,-122.03C779,-139.06 779,-162 779,-162 779,-162 1047.67,-162 1047.67,-162"/>
<polygon fill="black" stroke="black" points="1047.67,-165.5 1057.67,-162 1047.67,-158.5 1047.67,-165.5"/>
</g>
<!-- VideosComponent -->
<g id="node11" class="node">
<title>VideosComponent</title>
<polygon fill="#ffffb3" stroke="black" points="686.49,-122 565.51,-122 565.51,-86 686.49,-86 686.49,-122"/>
<text text-anchor="middle" x="626" y="-99.8" font-family="Times,serif" font-size="14.00">VideosComponent</text>
</g>
<!-- VideosComponent&#45;&gt;CustomerDashboardPageModule -->
<g id="edge11" class="edge">
<title>VideosComponent&#45;&gt;CustomerDashboardPageModule</title>
<path fill="none" stroke="black" d="M626,-122.22C626,-140.83 626,-167 626,-167 626,-167 1048.12,-167 1048.12,-167"/>
<polygon fill="black" stroke="black" points="1048.12,-170.5 1058.12,-167 1048.12,-163.5 1048.12,-170.5"/>
</g>
<!-- WorkoutsComponent -->
<g id="node12" class="node">
<title>WorkoutsComponent</title>
<polygon fill="#ffffb3" stroke="black" points="547.04,-122 410.96,-122 410.96,-86 547.04,-86 547.04,-122"/>
<text text-anchor="middle" x="479" y="-99.8" font-family="Times,serif" font-size="14.00">WorkoutsComponent</text>
</g>
<!-- WorkoutsComponent&#45;&gt;CustomerDashboardPageModule -->
<g id="edge12" class="edge">
<title>WorkoutsComponent&#45;&gt;CustomerDashboardPageModule</title>
<path fill="none" stroke="black" d="M479,-122.22C479,-142.37 479,-172 479,-172 479,-172 1047.93,-172 1047.93,-172"/>
<polygon fill="black" stroke="black" points="1047.93,-175.5 1057.93,-172 1047.93,-168.5 1047.93,-175.5"/>
</g>
<!-- CustomerDashboardPageRoutingModule -->
<g id="node14" class="node">
<title>CustomerDashboardPageRoutingModule</title>
<polygon fill="#8dd3c7" stroke="black" points="387.46,-122 384.46,-126 363.46,-126 360.46,-122 140.54,-122 140.54,-86 387.46,-86 387.46,-122"/>
<text text-anchor="middle" x="264" y="-99.8" font-family="Times,serif" font-size="14.00">CustomerDashboardPageRoutingModule</text>
</g>
<!-- CustomerDashboardPageRoutingModule&#45;&gt;CustomerDashboardPageModule -->
<g id="edge13" class="edge">
<title>CustomerDashboardPageRoutingModule&#45;&gt;CustomerDashboardPageModule</title>
<path fill="none" stroke="black" d="M264,-122.04C264,-143.66 264,-177 264,-177 264,-177 1048.07,-177 1048.07,-177"/>
<polygon fill="black" stroke="black" points="1048.07,-180.5 1058.07,-177 1048.07,-173.5 1048.07,-180.5"/>
</g>
<!-- SharedModule -->
<g id="node15" class="node">
<title>SharedModule</title>
<polygon fill="#8dd3c7" stroke="black" points="122.42,-122 119.42,-126 98.42,-126 95.42,-122 23.58,-122 23.58,-86 122.42,-86 122.42,-122"/>
<text text-anchor="middle" x="73" y="-99.8" font-family="Times,serif" font-size="14.00">SharedModule</text>
</g>
<!-- SharedModule&#45;&gt;CustomerDashboardPageModule -->
<g id="edge14" class="edge">
<title>SharedModule&#45;&gt;CustomerDashboardPageModule</title>
<path fill="none" stroke="black" d="M73,-122.09C73,-145.13 73,-182 73,-182 73,-182 1047.81,-182 1047.81,-182"/>
<polygon fill="black" stroke="black" points="1047.81,-185.5 1057.81,-182 1047.81,-178.5 1047.81,-185.5"/>
</g>
</g>
</svg>
