<?xml version="1.0" encoding="UTF-8" standalone="no"?>
<!DOCTYPE svg PUBLIC "-//W3C//DTD SVG 1.1//EN"
 "http://www.w3.org/Graphics/SVG/1.1/DTD/svg11.dtd">
<!-- Generated by graphviz version 2.47.0 (20210316.0004)
 -->
<!-- Title: dependencies Pages: 1 -->
<svg width="1050pt" height="211pt"
 viewBox="0.00 0.00 1050.00 211.00" xmlns="http://www.w3.org/2000/svg" xmlns:xlink="http://www.w3.org/1999/xlink">
<g id="graph0" class="graph" transform="scale(1 1) rotate(0) translate(4 207)">
<title>dependencies</title>
<polygon fill="white" stroke="transparent" points="-4,4 -4,-207 1046,-207 1046,4 -4,4"/>
<text text-anchor="start" x="500.01" y="-42.4" font-family="sans-serif" font-weight="bold" font-size="14.00">Legend</text>
<polygon fill="#ffffb3" stroke="transparent" points="287,-10 287,-30 307,-30 307,-10 287,-10"/>
<text text-anchor="start" x="310.63" y="-15.4" font-family="sans-serif" font-size="14.00"> &#160;Declarations</text>
<polygon fill="#8dd3c7" stroke="transparent" points="400,-10 400,-30 420,-30 420,-10 400,-10"/>
<text text-anchor="start" x="423.73" y="-15.4" font-family="sans-serif" font-size="14.00"> &#160;Module</text>
<polygon fill="#80b1d3" stroke="transparent" points="486,-10 486,-30 506,-30 506,-10 486,-10"/>
<text text-anchor="start" x="509.78" y="-15.4" font-family="sans-serif" font-size="14.00"> &#160;Bootstrap</text>
<polygon fill="#fdb462" stroke="transparent" points="583,-10 583,-30 603,-30 603,-10 583,-10"/>
<text text-anchor="start" x="606.67" y="-15.4" font-family="sans-serif" font-size="14.00"> &#160;Providers</text>
<polygon fill="#fb8072" stroke="transparent" points="679,-10 679,-30 699,-30 699,-10 679,-10"/>
<text text-anchor="start" x="702.73" y="-15.4" font-family="sans-serif" font-size="14.00"> &#160;Exports</text>
<g id="clust1" class="cluster">
<title>cluster_EmployeePageModule</title>
<polygon fill="none" stroke="black" stroke-dasharray="1,5" points="8,-70 8,-195 1034,-195 1034,-70 8,-70"/>
</g>
<g id="clust2" class="cluster">
<title>cluster_EmployeePageModule_declarations</title>
<polygon fill="none" stroke="black" points="694,-78 694,-130 1026,-130 1026,-78 694,-78"/>
</g>
<g id="clust5" class="cluster">
<title>cluster_EmployeePageModule_imports</title>
<polygon fill="none" stroke="black" points="16,-78 16,-130 686,-130 686,-78 16,-78"/>
</g>
<!-- EmployeePage -->
<g id="node1" class="node">
<title>EmployeePage</title>
<polygon fill="#ffffb3" stroke="black" points="1017.97,-122 918.03,-122 918.03,-86 1017.97,-86 1017.97,-122"/>
<text text-anchor="middle" x="968" y="-99.8" font-family="Times,serif" font-size="14.00">EmployeePage</text>
</g>
<!-- EmployeePageModule -->
<g id="node3" class="node">
<title>EmployeePageModule</title>
<polygon fill="#8dd3c7" stroke="black" points="572.53,-187 569.53,-191 548.53,-191 545.53,-187 429.47,-187 429.47,-151 572.53,-151 572.53,-187"/>
<text text-anchor="middle" x="501" y="-164.8" font-family="Times,serif" font-size="14.00">EmployeePageModule</text>
</g>
<!-- EmployeePage&#45;&gt;EmployeePageModule -->
<g id="edge1" class="edge">
<title>EmployeePage&#45;&gt;EmployeePageModule</title>
<path fill="none" stroke="black" d="M968,-122.28C968,-143.32 968,-175 968,-175 968,-175 582.69,-175 582.69,-175"/>
<polygon fill="black" stroke="black" points="582.69,-171.5 572.69,-175 582.69,-178.5 582.69,-171.5"/>
</g>
<!-- EmployeeDashboardComponent -->
<g id="node2" class="node">
<title>EmployeeDashboardComponent</title>
<polygon fill="#ffffb3" stroke="black" points="900.24,-122 701.76,-122 701.76,-86 900.24,-86 900.24,-122"/>
<text text-anchor="middle" x="801" y="-99.8" font-family="Times,serif" font-size="14.00">EmployeeDashboardComponent</text>
</g>
<!-- EmployeeDashboardComponent&#45;&gt;EmployeePageModule -->
<g id="edge2" class="edge">
<title>EmployeeDashboardComponent&#45;&gt;EmployeePageModule</title>
<path fill="none" stroke="black" d="M801,-122.02C801,-139.37 801,-163 801,-163 801,-163 582.86,-163 582.86,-163"/>
<polygon fill="black" stroke="black" points="582.86,-159.5 572.86,-163 582.86,-166.5 582.86,-159.5"/>
</g>
<!-- CommonModule -->
<g id="node4" class="node">
<title>CommonModule</title>
<polygon fill="#8dd3c7" stroke="black" points="677.67,-122 674.67,-126 653.67,-126 650.67,-122 566.33,-122 566.33,-86 677.67,-86 677.67,-122"/>
<text text-anchor="middle" x="622" y="-99.8" font-family="Times,serif" font-size="14.00">CommonModule</text>
</g>
<!-- CommonModule&#45;&gt;EmployeePageModule -->
<g id="edge3" class="edge">
<title>CommonModule&#45;&gt;EmployeePageModule</title>
<path fill="none" stroke="black" d="M566.13,-104C560.85,-104 557.42,-104 557.42,-104 557.42,-104 557.42,-140.89 557.42,-140.89"/>
<polygon fill="black" stroke="black" points="553.92,-140.89 557.42,-150.89 560.92,-140.89 553.92,-140.89"/>
</g>
<!-- FormsModule -->
<g id="node5" class="node">
<title>FormsModule</title>
<polygon fill="#8dd3c7" stroke="black" points="548.83,-122 545.83,-126 524.83,-126 521.83,-122 453.17,-122 453.17,-86 548.83,-86 548.83,-122"/>
<text text-anchor="middle" x="501" y="-99.8" font-family="Times,serif" font-size="14.00">FormsModule</text>
</g>
<!-- FormsModule&#45;&gt;EmployeePageModule -->
<g id="edge4" class="edge">
<title>FormsModule&#45;&gt;EmployeePageModule</title>
<path fill="none" stroke="black" d="M501,-122.11C501,-122.11 501,-140.99 501,-140.99"/>
<polygon fill="black" stroke="black" points="497.5,-140.99 501,-150.99 504.5,-140.99 497.5,-140.99"/>
</g>
<!-- IonicModule -->
<g id="node6" class="node">
<title>IonicModule</title>
<polygon fill="#8dd3c7" stroke="black" points="435.32,-122 432.32,-126 411.32,-126 408.32,-122 346.68,-122 346.68,-86 435.32,-86 435.32,-122"/>
<text text-anchor="middle" x="391" y="-99.8" font-family="Times,serif" font-size="14.00">IonicModule</text>
</g>
<!-- IonicModule&#45;&gt;EmployeePageModule -->
<g id="edge5" class="edge">
<title>IonicModule&#45;&gt;EmployeePageModule</title>
<path fill="none" stroke="black" d="M435.45,-104C440.71,-104 444.25,-104 444.25,-104 444.25,-104 444.25,-140.89 444.25,-140.89"/>
<polygon fill="black" stroke="black" points="440.75,-140.89 444.25,-150.89 447.75,-140.89 440.75,-140.89"/>
</g>
<!-- EmployeePageRoutingModule -->
<g id="node7" class="node">
<title>EmployeePageRoutingModule</title>
<polygon fill="#8dd3c7" stroke="black" points="329.14,-122 326.14,-126 305.14,-126 302.14,-122 140.86,-122 140.86,-86 329.14,-86 329.14,-122"/>
<text text-anchor="middle" x="235" y="-99.8" font-family="Times,serif" font-size="14.00">EmployeePageRoutingModule</text>
</g>
<!-- EmployeePageRoutingModule&#45;&gt;EmployeePageModule -->
<g id="edge6" class="edge">
<title>EmployeePageRoutingModule&#45;&gt;EmployeePageModule</title>
<path fill="none" stroke="black" d="M235,-122.02C235,-139.37 235,-163 235,-163 235,-163 419.37,-163 419.37,-163"/>
<polygon fill="black" stroke="black" points="419.37,-166.5 429.37,-163 419.37,-159.5 419.37,-166.5"/>
</g>
<!-- SharedModule -->
<g id="node8" class="node">
<title>SharedModule</title>
<polygon fill="#8dd3c7" stroke="black" points="122.42,-122 119.42,-126 98.42,-126 95.42,-122 23.58,-122 23.58,-86 122.42,-86 122.42,-122"/>
<text text-anchor="middle" x="73" y="-99.8" font-family="Times,serif" font-size="14.00">SharedModule</text>
</g>
<!-- SharedModule&#45;&gt;EmployeePageModule -->
<g id="edge7" class="edge">
<title>SharedModule&#45;&gt;EmployeePageModule</title>
<path fill="none" stroke="black" d="M73,-122.28C73,-143.32 73,-175 73,-175 73,-175 419.36,-175 419.36,-175"/>
<polygon fill="black" stroke="black" points="419.36,-178.5 429.36,-175 419.36,-171.5 419.36,-178.5"/>
</g>
</g>
</svg>
