<?xml version="1.0" encoding="UTF-8" standalone="no"?>
<!DOCTYPE svg PUBLIC "-//W3C//DTD SVG 1.1//EN"
 "http://www.w3.org/Graphics/SVG/1.1/DTD/svg11.dtd">
<!-- Generated by graphviz version 2.44.1 (20200629.0846)
 -->
<!-- Title: dependencies Pages: 1 -->
<svg width="603pt" height="211pt"
 viewBox="0.00 0.00 603.00 211.00" xmlns="http://www.w3.org/2000/svg" xmlns:xlink="http://www.w3.org/1999/xlink">
<g id="graph0" class="graph" transform="scale(1 1) rotate(0) translate(4 207)">
<title>dependencies</title>
<polygon fill="white" stroke="transparent" points="-4,4 -4,-207 599,-207 599,4 -4,4"/>
<text text-anchor="start" x="276.51" y="-42.4" font-family="sans-serif" font-weight="bold" font-size="14.00">Legend</text>
<polygon fill="#ffffb3" stroke="transparent" points="63.5,-10 63.5,-30 83.5,-30 83.5,-10 63.5,-10"/>
<text text-anchor="start" x="87.13" y="-15.4" font-family="sans-serif" font-size="14.00"> &#160;Declarations</text>
<polygon fill="#8dd3c7" stroke="transparent" points="176.5,-10 176.5,-30 196.5,-30 196.5,-10 176.5,-10"/>
<text text-anchor="start" x="200.23" y="-15.4" font-family="sans-serif" font-size="14.00"> &#160;Module</text>
<polygon fill="#80b1d3" stroke="transparent" points="262.5,-10 262.5,-30 282.5,-30 282.5,-10 262.5,-10"/>
<text text-anchor="start" x="286.28" y="-15.4" font-family="sans-serif" font-size="14.00"> &#160;Bootstrap</text>
<polygon fill="#fdb462" stroke="transparent" points="359.5,-10 359.5,-30 379.5,-30 379.5,-10 359.5,-10"/>
<text text-anchor="start" x="383.17" y="-15.4" font-family="sans-serif" font-size="14.00"> &#160;Providers</text>
<polygon fill="#fb8072" stroke="transparent" points="455.5,-10 455.5,-30 475.5,-30 475.5,-10 455.5,-10"/>
<text text-anchor="start" x="479.23" y="-15.4" font-family="sans-serif" font-size="14.00"> &#160;Exports</text>
<g id="clust1" class="cluster">
<title>cluster_CheckoutPageModule</title>
<polygon fill="none" stroke="black" stroke-dasharray="1,5" points="8,-70 8,-195 587,-195 587,-70 8,-70"/>
</g>
<g id="clust2" class="cluster">
<title>cluster_CheckoutPageModule_declarations</title>
<polygon fill="none" stroke="black" points="467,-78 467,-130 579,-130 579,-78 467,-78"/>
</g>
<g id="clust4" class="cluster">
<title>cluster_CheckoutPageModule_imports</title>
<polygon fill="none" stroke="black" points="16,-78 16,-130 459,-130 459,-78 16,-78"/>
</g>
<!-- CheckoutPage -->
<g id="node1" class="node">
<title>CheckoutPage</title>
<polygon fill="#ffffb3" stroke="black" points="571.37,-122 474.63,-122 474.63,-86 571.37,-86 571.37,-122"/>
<text text-anchor="middle" x="523" y="-99.8" font-family="Times,serif" font-size="14.00">CheckoutPage</text>
</g>
<!-- CheckoutPageModule -->
<g id="node2" class="node">
<title>CheckoutPageModule</title>
<polygon fill="#8dd3c7" stroke="black" points="346.42,-187 343.42,-191 322.42,-191 319.42,-187 205.58,-187 205.58,-151 346.42,-151 346.42,-187"/>
<text text-anchor="middle" x="276" y="-164.8" font-family="Times,serif" font-size="14.00">CheckoutPageModule</text>
</g>
<!-- CheckoutPage&#45;&gt;CheckoutPageModule -->
<g id="edge1" class="edge">
<title>CheckoutPage&#45;&gt;CheckoutPageModule</title>
<path fill="none" stroke="black" d="M523,-122.11C523,-141.34 523,-169 523,-169 523,-169 356.45,-169 356.45,-169"/>
<polygon fill="black" stroke="black" points="356.45,-165.5 346.45,-169 356.45,-172.5 356.45,-165.5"/>
</g>
<!-- CheckoutPageRoutingModule -->
<g id="node3" class="node">
<title>CheckoutPageRoutingModule</title>
<polygon fill="#8dd3c7" stroke="black" points="450.54,-122 447.54,-126 426.54,-126 423.54,-122 265.46,-122 265.46,-86 450.54,-86 450.54,-122"/>
<text text-anchor="middle" x="358" y="-99.8" font-family="Times,serif" font-size="14.00">CheckoutPageRoutingModule</text>
</g>
<!-- CheckoutPageRoutingModule&#45;&gt;CheckoutPageModule -->
<g id="edge2" class="edge">
<title>CheckoutPageRoutingModule&#45;&gt;CheckoutPageModule</title>
<path fill="none" stroke="black" d="M305.72,-122.11C305.72,-122.11 305.72,-140.99 305.72,-140.99"/>
<polygon fill="black" stroke="black" points="302.22,-140.99 305.72,-150.99 309.22,-140.99 302.22,-140.99"/>
</g>
<!-- MaterialModule -->
<g id="node4" class="node">
<title>MaterialModule</title>
<polygon fill="#8dd3c7" stroke="black" points="247.47,-122 244.47,-126 223.47,-126 220.47,-122 140.53,-122 140.53,-86 247.47,-86 247.47,-122"/>
<text text-anchor="middle" x="194" y="-99.8" font-family="Times,serif" font-size="14.00">MaterialModule</text>
</g>
<!-- MaterialModule&#45;&gt;CheckoutPageModule -->
<g id="edge3" class="edge">
<title>MaterialModule&#45;&gt;CheckoutPageModule</title>
<path fill="none" stroke="black" d="M226.64,-122.11C226.64,-122.11 226.64,-140.99 226.64,-140.99"/>
<polygon fill="black" stroke="black" points="223.14,-140.99 226.64,-150.99 230.14,-140.99 223.14,-140.99"/>
</g>
<!-- SharedModule -->
<g id="node5" class="node">
<title>SharedModule</title>
<polygon fill="#8dd3c7" stroke="black" points="122.42,-122 119.42,-126 98.42,-126 95.42,-122 23.58,-122 23.58,-86 122.42,-86 122.42,-122"/>
<text text-anchor="middle" x="73" y="-99.8" font-family="Times,serif" font-size="14.00">SharedModule</text>
</g>
<!-- SharedModule&#45;&gt;CheckoutPageModule -->
<g id="edge4" class="edge">
<title>SharedModule&#45;&gt;CheckoutPageModule</title>
<path fill="none" stroke="black" d="M73,-122.11C73,-141.34 73,-169 73,-169 73,-169 195.57,-169 195.57,-169"/>
<polygon fill="black" stroke="black" points="195.57,-172.5 205.57,-169 195.57,-165.5 195.57,-172.5"/>
</g>
</g>
</svg>
