<?xml version="1.0" encoding="UTF-8" standalone="no"?>
<!DOCTYPE svg PUBLIC "-//W3C//DTD SVG 1.1//EN"
 "http://www.w3.org/Graphics/SVG/1.1/DTD/svg11.dtd">
<!-- Generated by graphviz version 2.44.1 (20200629.0846)
 -->
<!-- Title: dependencies Pages: 1 -->
<svg width="603pt" height="211pt"
 viewBox="0.00 0.00 603.00 211.00" xmlns="http://www.w3.org/2000/svg" xmlns:xlink="http://www.w3.org/1999/xlink">
<g id="graph0" class="graph" transform="scale(1 1) rotate(0) translate(4 207)">
<title>dependencies</title>
<polygon fill="white" stroke="transparent" points="-4,4 -4,-207 599,-207 599,4 -4,4"/>
<text text-anchor="start" x="276.51" y="-42.4" font-family="sans-serif" font-weight="bold" font-size="14.00">Legend</text>
<polygon fill="#ffffb3" stroke="transparent" points="63.5,-10 63.5,-30 83.5,-30 83.5,-10 63.5,-10"/>
<text text-anchor="start" x="87.13" y="-15.4" font-family="sans-serif" font-size="14.00"> &#160;Declarations</text>
<polygon fill="#8dd3c7" stroke="transparent" points="176.5,-10 176.5,-30 196.5,-30 196.5,-10 176.5,-10"/>
<text text-anchor="start" x="200.23" y="-15.4" font-family="sans-serif" font-size="14.00"> &#160;Module</text>
<polygon fill="#80b1d3" stroke="transparent" points="262.5,-10 262.5,-30 282.5,-30 282.5,-10 262.5,-10"/>
<text text-anchor="start" x="286.28" y="-15.4" font-family="sans-serif" font-size="14.00"> &#160;Bootstrap</text>
<polygon fill="#fdb462" stroke="transparent" points="359.5,-10 359.5,-30 379.5,-30 379.5,-10 359.5,-10"/>
<text text-anchor="start" x="383.17" y="-15.4" font-family="sans-serif" font-size="14.00"> &#160;Providers</text>
<polygon fill="#fb8072" stroke="transparent" points="455.5,-10 455.5,-30 475.5,-30 475.5,-10 455.5,-10"/>
<text text-anchor="start" x="479.23" y="-15.4" font-family="sans-serif" font-size="14.00"> &#160;Exports</text>
<g id="clust1" class="cluster">
<title>cluster_CheckoutPageModule</title>
<polygon fill="none" stroke="black" stroke-dasharray="1,5" points="8,-70 8,-195 587,-195 587,-70 8,-70"/>
</g>
<g id="clust4" class="cluster">
<title>cluster_CheckoutPageModule_imports</title>
<polygon fill="none" stroke="black" points="136,-78 136,-130 579,-130 579,-78 136,-78"/>
</g>
<g id="clust2" class="cluster">
<title>cluster_CheckoutPageModule_declarations</title>
<polygon fill="none" stroke="black" points="16,-78 16,-130 128,-130 128,-78 16,-78"/>
</g>
<!-- CheckoutPage -->
<g id="node1" class="node">
<title>CheckoutPage</title>
<polygon fill="#ffffb3" stroke="black" points="120.37,-122 23.63,-122 23.63,-86 120.37,-86 120.37,-122"/>
<text text-anchor="middle" x="72" y="-99.8" font-family="Times,serif" font-size="14.00">CheckoutPage</text>
</g>
<!-- CheckoutPageModule -->
<g id="node2" class="node">
<title>CheckoutPageModule</title>
<polygon fill="#8dd3c7" stroke="black" points="323.42,-187 320.42,-191 299.42,-191 296.42,-187 182.58,-187 182.58,-151 323.42,-151 323.42,-187"/>
<text text-anchor="middle" x="253" y="-164.8" font-family="Times,serif" font-size="14.00">CheckoutPageModule</text>
</g>
<!-- CheckoutPage&#45;&gt;CheckoutPageModule -->
<g id="edge1" class="edge">
<title>CheckoutPage&#45;&gt;CheckoutPageModule</title>
<path fill="none" stroke="black" d="M72,-122.11C72,-141.34 72,-169 72,-169 72,-169 172.76,-169 172.76,-169"/>
<polygon fill="black" stroke="black" points="172.76,-172.5 182.76,-169 172.76,-165.5 172.76,-172.5"/>
</g>
<!-- CheckoutPageRoutingModule -->
<g id="node3" class="node">
<title>CheckoutPageRoutingModule</title>
<polygon fill="#8dd3c7" stroke="black" points="570.54,-122 567.54,-126 546.54,-126 543.54,-122 385.46,-122 385.46,-86 570.54,-86 570.54,-122"/>
<text text-anchor="middle" x="478" y="-99.8" font-family="Times,serif" font-size="14.00">CheckoutPageRoutingModule</text>
</g>
<!-- CheckoutPageRoutingModule&#45;&gt;CheckoutPageModule -->
<g id="edge2" class="edge">
<title>CheckoutPageRoutingModule&#45;&gt;CheckoutPageModule</title>
<path fill="none" stroke="black" d="M478,-122.11C478,-141.34 478,-169 478,-169 478,-169 333.27,-169 333.27,-169"/>
<polygon fill="black" stroke="black" points="333.27,-165.5 323.27,-169 333.27,-172.5 333.27,-165.5"/>
</g>
<!-- MaterialModule -->
<g id="node4" class="node">
<title>MaterialModule</title>
<polygon fill="#8dd3c7" stroke="black" points="367.47,-122 364.47,-126 343.47,-126 340.47,-122 260.53,-122 260.53,-86 367.47,-86 367.47,-122"/>
<text text-anchor="middle" x="314" y="-99.8" font-family="Times,serif" font-size="14.00">MaterialModule</text>
</g>
<!-- MaterialModule&#45;&gt;CheckoutPageModule -->
<g id="edge3" class="edge">
<title>MaterialModule&#45;&gt;CheckoutPageModule</title>
<path fill="none" stroke="black" d="M291.86,-122.11C291.86,-122.11 291.86,-140.99 291.86,-140.99"/>
<polygon fill="black" stroke="black" points="288.36,-140.99 291.86,-150.99 295.36,-140.99 288.36,-140.99"/>
</g>
<!-- SharedModule -->
<g id="node5" class="node">
<title>SharedModule</title>
<polygon fill="#8dd3c7" stroke="black" points="242.42,-122 239.42,-126 218.42,-126 215.42,-122 143.58,-122 143.58,-86 242.42,-86 242.42,-122"/>
<text text-anchor="middle" x="193" y="-99.8" font-family="Times,serif" font-size="14.00">SharedModule</text>
</g>
<!-- SharedModule&#45;&gt;CheckoutPageModule -->
<g id="edge4" class="edge">
<title>SharedModule&#45;&gt;CheckoutPageModule</title>
<path fill="none" stroke="black" d="M212.5,-122.11C212.5,-122.11 212.5,-140.99 212.5,-140.99"/>
<polygon fill="black" stroke="black" points="209,-140.99 212.5,-150.99 216,-140.99 209,-140.99"/>
</g>
</g>
</svg>
