<?xml version="1.0" encoding="UTF-8" standalone="no"?>
<!DOCTYPE svg PUBLIC "-//W3C//DTD SVG 1.1//EN"
 "http://www.w3.org/Graphics/SVG/1.1/DTD/svg11.dtd">
<!-- Generated by graphviz version 2.47.0 (20210316.0004)
 -->
<!-- Title: dependencies Pages: 1 -->
<svg width="504pt" height="211pt"
 viewBox="0.00 0.00 504.00 211.00" xmlns="http://www.w3.org/2000/svg" xmlns:xlink="http://www.w3.org/1999/xlink">
<g id="graph0" class="graph" transform="scale(1 1) rotate(0) translate(4 207)">
<title>dependencies</title>
<polygon fill="white" stroke="transparent" points="-4,4 -4,-207 500,-207 500,4 -4,4"/>
<text text-anchor="start" x="227.01" y="-42.4" font-family="sans-serif" font-weight="bold" font-size="14.00">Legend</text>
<polygon fill="#ffffb3" stroke="transparent" points="14,-10 14,-30 34,-30 34,-10 14,-10"/>
<text text-anchor="start" x="37.63" y="-15.4" font-family="sans-serif" font-size="14.00"> &#160;Declarations</text>
<polygon fill="#8dd3c7" stroke="transparent" points="127,-10 127,-30 147,-30 147,-10 127,-10"/>
<text text-anchor="start" x="150.73" y="-15.4" font-family="sans-serif" font-size="14.00"> &#160;Module</text>
<polygon fill="#80b1d3" stroke="transparent" points="213,-10 213,-30 233,-30 233,-10 213,-10"/>
<text text-anchor="start" x="236.78" y="-15.4" font-family="sans-serif" font-size="14.00"> &#160;Bootstrap</text>
<polygon fill="#fdb462" stroke="transparent" points="310,-10 310,-30 330,-30 330,-10 310,-10"/>
<text text-anchor="start" x="333.67" y="-15.4" font-family="sans-serif" font-size="14.00"> &#160;Providers</text>
<polygon fill="#fb8072" stroke="transparent" points="406,-10 406,-30 426,-30 426,-10 406,-10"/>
<text text-anchor="start" x="429.73" y="-15.4" font-family="sans-serif" font-size="14.00"> &#160;Exports</text>
<g id="clust1" class="cluster">
<title>cluster_NutritionPageModule</title>
<polygon fill="none" stroke="black" stroke-dasharray="1,5" points="23,-70 23,-195 473,-195 473,-70 23,-70"/>
</g>
<g id="clust2" class="cluster">
<title>cluster_NutritionPageModule_declarations</title>
<polygon fill="none" stroke="black" points="355,-78 355,-130 465,-130 465,-78 355,-78"/>
</g>
<g id="clust4" class="cluster">
<title>cluster_NutritionPageModule_imports</title>
<polygon fill="none" stroke="black" points="31,-78 31,-130 347,-130 347,-78 31,-78"/>
</g>
<!-- NutritionPage -->
<g id="node1" class="node">
<title>NutritionPage</title>
<polygon fill="#ffffb3" stroke="black" points="457.04,-122 362.96,-122 362.96,-86 457.04,-86 457.04,-122"/>
<text text-anchor="middle" x="410" y="-99.8" font-family="Times,serif" font-size="14.00">NutritionPage</text>
</g>
<!-- NutritionPageModule -->
<g id="node2" class="node">
<title>NutritionPageModule</title>
<polygon fill="#8dd3c7" stroke="black" points="316.09,-187 313.09,-191 292.09,-191 289.09,-187 177.91,-187 177.91,-151 316.09,-151 316.09,-187"/>
<text text-anchor="middle" x="247" y="-164.8" font-family="Times,serif" font-size="14.00">NutritionPageModule</text>
</g>
<!-- NutritionPage&#45;&gt;NutritionPageModule -->
<g id="edge1" class="edge">
<title>NutritionPage&#45;&gt;NutritionPageModule</title>
<path fill="none" stroke="black" d="M410,-122.11C410,-141.34 410,-169 410,-169 410,-169 326.13,-169 326.13,-169"/>
<polygon fill="black" stroke="black" points="326.13,-165.5 316.13,-169 326.13,-172.5 326.13,-165.5"/>
</g>
<!-- NutritionPageRoutingModule -->
<g id="node3" class="node">
<title>NutritionPageRoutingModule</title>
<polygon fill="#8dd3c7" stroke="black" points="338.71,-122 335.71,-126 314.71,-126 311.71,-122 155.29,-122 155.29,-86 338.71,-86 338.71,-122"/>
<text text-anchor="middle" x="247" y="-99.8" font-family="Times,serif" font-size="14.00">NutritionPageRoutingModule</text>
</g>
<!-- NutritionPageRoutingModule&#45;&gt;NutritionPageModule -->
<g id="edge2" class="edge">
<title>NutritionPageRoutingModule&#45;&gt;NutritionPageModule</title>
<path fill="none" stroke="black" d="M247,-122.11C247,-122.11 247,-140.99 247,-140.99"/>
<polygon fill="black" stroke="black" points="243.5,-140.99 247,-150.99 250.5,-140.99 243.5,-140.99"/>
</g>
<!-- SharedModule -->
<g id="node4" class="node">
<title>SharedModule</title>
<polygon fill="#8dd3c7" stroke="black" points="137.42,-122 134.42,-126 113.42,-126 110.42,-122 38.58,-122 38.58,-86 137.42,-86 137.42,-122"/>
<text text-anchor="middle" x="88" y="-99.8" font-family="Times,serif" font-size="14.00">SharedModule</text>
</g>
<!-- SharedModule&#45;&gt;NutritionPageModule -->
<g id="edge3" class="edge">
<title>SharedModule&#45;&gt;NutritionPageModule</title>
<path fill="none" stroke="black" d="M88,-122.11C88,-141.34 88,-169 88,-169 88,-169 167.72,-169 167.72,-169"/>
<polygon fill="black" stroke="black" points="167.72,-172.5 177.72,-169 167.72,-165.5 167.72,-172.5"/>
</g>
</g>
</svg>
